<?xml version="1.0" encoding="UTF-8"?>
<svg id="Layer_2" data-name="Layer 2" xmlns="http://www.w3.org/2000/svg" viewBox="0 0 288 288">
  <defs>
    <style>
      .cls-1 {
        fill: none;
      }

      .cls-1, .cls-2 {
        stroke-width: 0px;
      }

      .cls-2 {
        fill: #eee;
      }
    </style>
  </defs>
  <g id="Layer_1-2" data-name="Layer 1">
    <g>
      <path class="cls-2" d="M46.26,181.93c3.68-7.66,7.78-15.16,10.96-23.03,4.72-11.68,4.71-23.9,2.96-36.25-.42-3,.57-6.21,2.08-9.27.2,2.24.4,4.48.61,6.78,3.83,1.1,6.44.37,6.82-3.46.68-6.91,1.12-13.84,1.32-20.78.04-1.6-.98-3.54-2.09-4.82-4.63-5.3-4.62-7.6,1.42-9.75,4.07-1.45,5.22-3.9,5.62-7.64.68-6.32,1.65-12.61,2.44-18.92.41-3.31,2.32-5.41,5.35-6.34,3.79-1.17,7.61-2.57,11.52-2.99,15.41-1.65,30.87-2.85,46.29-4.42,19.66-2,39.29-4.26,58.95-6.26,7.17-.73,14.41-.83,21.58-1.59,3.49-.37,4.75,1.03,5.55,4.11,1.5,5.7,3.96,6.69,8.9,3.84.91-.52,1.62-1.4,2.5-1.99.63-.42,1.4-.63,3.08-1.35.87,3.21,1.86,6.13,2.45,9.14,3.41,17.28,6.6,34.6,10.11,51.86,1.97,9.67,4.2,19.31,6.74,28.84,1.28,4.81,0,7.62-3.71,10.97-4.85,4.38-8.68,9.93-12.65,15.2-3.07,4.07-6.21,6.79-11.92,5.78-3.78-.67-5.26,1.27-5.04,5.29.13,2.35.73,4.68,1.21,7.51,2.79.12,5.29.22,8.27.35-.49,6.01-1.19,11.49-3.74,16.68-1.98-3.28-2.61-6.49-1.16-9.84-5.32.48-10.67.96-16.01,1.45-1.54.14-3.08.4-4.62.49-5.74.31-6.51,1.32-5.75,7.69.76,6.37,1.87,7.29,7.35,6.11,2.06-.44,4.14-.77,6.18-1.24,1.73-.4,3.44-.93,5.57-1.52l-.53-5.84c1.92,3.59,3.04,7.18,8.24,7.33,3.06.09,4.38,3.21,3.92,6.02-.86,5.27,1.63,9.23,4.12,13.38,1.92,3.2,3.42,6.65,5.19,9.94,2.61,4.85,1.55,8.05-3.65,9.66-3.31,1.02-6.74,1.75-10.17,2.23-27.78,3.88-55.57,7.66-83.36,11.48-6.35.87-12.74,1.5-19.01,2.75-4.57.91-7.15-.69-8.68-4.79-1.56-4.18-3.17-8.34-4.72-12.4,7.55-6.49,16.78-2.54,23.53-6.13,0-4.81.02-9.38.03-14.02-5.8-.45-6.59.06-7.22,5.27-.24,2.02-.5,4.03-.85,6.83-4.51-2.7-1.67-6.99-4.19-10.24-5.11.46-10.76.97-16.87,1.52-.04-2.79-.06-4.8-.09-6.82-3.05,5.54-10.87,8.27-9.87,16.43-.4-1.41-.61-2.92-1.26-4.21-.77-1.53-1.92-2.87-2.9-4.29-1.56,1.15-3.13,2.31-5,3.69.42.15.04.11,0-.01-1.61-6.45-6.71,1.18-9.05-2.24-3.65,3.8-2.25,8.29-2.16,12.53,7.01,2.13,13.87-1.87,20.19.46,1.75,6.78,3.32,12.92,4.89,19-6.09.55-12.14,1.35-18.22,1.59-13.61.54-27.24.81-40.86,1.18-1.33.04-2.69.14-4-.04-6.31-.85-8.06-5.54-4.08-10.86,2.4-3.2,4.88-6.34,7.24-9.56.44-.61.51-1.48.58-1.69,8.44,5.09,17.03-.09,26.17,1.17.12-4.97.22-9.1.31-12.87-2.9-.17-5.03-.44-7.15-.38-3.69.11-7.55-.17-11.04.8-7.19,1.99-11.6-.91-15.29-7.28,7.35,2.93,14.06.62,21.13-.98-1.71-.58-3.41-1.16-5.79-1.96.75-2.97,1.53-6.07,2.41-9.6-3.29-1.2-5.52,0-6.72,3.75-.74,2.32.01,5.46-3.88,6.98-.31-3.42-.57-6.36-.8-8.89-3.87-.37-7.3-.7-11.46-1.1,2.97-7.59,7.09-13.31,11.94-18.58-1.15,3.97-2.3,7.95-3.66,12.64,12.31-.73,23.49-1.33,34.66-2.08,5.79-.39,11.57-.97,17.34-1.59,4.5-.49,6.35-3.74,3.12-6.83-3.31-3.17,2.11-3.75.47-6.01-.41-.21-1.12-.9-1.77-.85-6.21.55-12.4,1.25-18.61,1.84-2.84.27-4.39,1.83-4.65,4.56-.34,3.59-2.57,4.69-5.41,4.98-2.67-5.12,4.4-2.85,4.18-6.27-2-3.49-4.59-2.07-7.49-1.22-2.41.7-5.61-.45-7.57.72-2.05,1.22-3.03,4.23-4.53,6.54q-1.67-5.61-6.22-6.29ZM82.44,154.5c-3.02-5.53-6.45-.94-9.12-1.04.48,5.35.91,10.09,1.36,15.03,4.42-.33,4.07-3.32,4.68-5.75.73-2.91-.49-6.6,3.19-8.4,0,2.4.12,4.8-.01,7.19-.18,3.35.7,5.94,4.46,6.3,3.39.32,5.76-1.48,6.56-4.65.9-3.59,1.98-7.75-1.18-10.57-3.64-3.25-6.91-.36-9.94,1.88ZM139.94,107.19c.44.48,1.28,1.12,1.76,1.98,1.36,2.41,3.42,4.04,5.73,2.19,1.15-.92,1.5-3.85,1.06-5.58-1.56-6.2-3.4-12.36-5.62-18.35-.58-1.58-2.76-3.16-4.48-3.57-2.59-.62-4.61,1.02-5.31,3.71-.53,2.06-.79,4.19-1.26,6.27-1.27,5.59-2.6,11.18-3.9,16.77-1.65-5.7-1.84-11.21-1.99-16.71-.03-1.33.21-2.67.12-3.99-.18-2.53-.76-4.99-4.05-4.79-2.62.16-3.52,2.04-3.57,4.46-.03,1.6.29,3.35-.28,4.73-.43,1.04-2,1.62-3.8,2.94-.29-3.17-.09-5.38-.78-7.26-.51-1.4-2.17-2.38-3.31-3.55-1.16,1.22-3.24,2.37-3.34,3.68-.6,7.43-.84,14.9-.89,22.36,0,1.13,1.48,2.98,2.59,3.26,2.22.56,4.28-.43,4.7-3.07.29-1.83.08-3.75.42-5.57.28-1.51,1.04-2.94,1.85-5.11,4.15,4.06,1.52,8.66,4.16,13.09,3.27-.3,7.1-1.02,10.9-.89,5.17.17,3.93-7.1,9.27-6.98ZM153.94,49.03c-4.23-3.56-8.36-2.29-12.24-1.11-1.24.38-2.55,2.76-2.63,4.29-.26,5.04-.18,10.13.14,15.18.38,5.91,1.12,6.46,6.79,6.07,2.39-.17,4.78-.5,7.14-.93q10.43-1.88,11.91-12.41c1.9,3.04,3.34,5.88,5.33,8.27.8.96,2.97,1.55,4.17,1.19,1.15-.35,2.65-2.19,2.61-3.32-.24-6.38-.77-12.76-1.55-19.1-.14-1.11-1.95-2.78-3.02-2.8-1.03-.02-2.62,1.58-3.01,2.79-.59,1.79-.34,3.85-.51,6.87-2.23-2.89-3.43-5.05-5.21-6.52-1.23-1.02-3.37-1.66-4.88-1.36-.98.19-1.97,2.31-2.23,3.7-.33,1.79.11,3.71.15,5.57.08,4.15.12,8.29.18,12.51-2.61.37-4.22.91-5.74.71-1.39-.18-3.37-.83-3.83-1.84-.51-1.13.04-3.12.78-4.35.83-1.38,2.38-2.32,3.85-3.67-1.27-.87-1.98-1.23-2.52-1.76-1.04-.99-2.82-2.14-2.75-3.11.08-1.11,1.7-2.31,2.9-3.1,1.24-.82,2.77-1.2,4.18-1.77ZM179.86,214.12c3.21,5.68,6.5,8.26,11.63,5.12.38-.23,1.04.03,1.56-.03,9.48-1.13,18.98-2.13,28.44-3.46,5.63-.79,7.23-3.45,6.07-8.96-1.14-5.44-3.12-6.76-9.04-6.02-1.31.16-2.63.29-3.95.36-3.92.22-5.72,2.1-5.47,6.17.13,2.09,1.44,4.82-1.68,6.14-4.41-1.46-.35-9.01-7.08-9.25-.3,3.99-.57,7.69-.85,11.4-.56.07-1.12.14-1.69.2-.55-1.53-1.33-3.02-1.61-4.6-1.25-6.98-1.27-7.03-9.05-4.06.01,2.5.02,5.16.04,9.6-.98-4.37-1.55-6.91-2.1-9.34-3.24-.18-6.07-.58-8.86-.4-1.4.09-3.19.88-4.01,1.96-1.91,2.54-.23,9.69,2.89,12.87,1.34-2.16,2.62-4.24,4.75-7.69ZM126.54,155.74c1.87,7.87,1.88,7.93,10.02,5.97,3.54-.85,7-2.01,10.65-3.07.27-2.25.62-4.85.87-7.46.36-3.88-1.12-5.75-4.56-5.87-3.52-.12-5.1,1.42-5.44,5.28-.21,2.36-.29,4.75-.8,7.04-.12.52-1.78.91-2.73.92-.46,0-1.41-1.39-1.32-1.52,2.45-3.14-2-7.57,2.56-10.4-5.79.12-11,.29-16.08,1.2-1.83.33-3.35,2.4-4.11,2.98-2.85-.55-5.52-1.89-7.45-1.19-1.77.65-3,3.38-3.94,5.43-.62,1.36-.5,3.16-.39,4.74.31,4.56,2.63,6.23,6.9,5.18,2.87-.7,5.76-1.33,8.96-2.06.92-3.42,2.3-6.86,6.87-7.19ZM158.76,98.6c2.43,3.92,3.8,6.86,5.88,9.17.97,1.09,3.4,1.52,4.96,1.2,1-.21,2.32-2.34,2.28-3.58-.22-7.19-.68-14.39-1.38-21.55-.11-1.15-2.26-3.2-2.78-3-1.46.54-3.41,1.92-3.61,3.2-.39,2.5.29,5.16.52,7.76-2.79-2.16-4.11-5.02-6.05-7.36-.99-1.19-3.28-2.25-4.63-1.92-1.33.33-3.11,2.47-3.13,3.84-.11,7.2.15,14.42.62,21.61.07,1.12,2.01,3.09,2.85,2.97,1.49-.21,3.65-1.48,4-2.73.69-2.48.35-5.25.48-9.6ZM107.89,188.65c14.7-1.33,28.44-2.57,42.35-3.82-.16-.63-.18-1.89-.54-1.99-3.5-1-5.28-2.5-4.36-6.77.6-2.82-2.08-4.1-4.86-3.7-3.65.53-3.47,3.54-3.33,7.67-1.42-5.67-4.23-6.78-8.25-6.23-5.1.7-10.21,1.48-15.34,1.65-4.88.16-6.18.93-6.29,5.9-.05,2.33.38,4.67.61,7.3ZM107.63,141.16c.48.46.96.93,1.44,1.39,2.54-2.2,4.99-2.39,8.01-1.46,2.36.72,5.38.22,7.86-.53,4.8-1.46,9.62-1.87,14.53-1.48,2.94.23,5.46-.43,6.64-3.25,1.17-2.82-1.03-4.35-2.92-5.9-.73-.6-1.27-1.43-1.96-2.23.88-.47,1.35-.68,1.77-.96.62-.4,1.2-.85,1.87-1.33-3.73-2.52-5.48-2.66-7.25-.38-3.66,4.7,1.9,6.2,3.48,9.28-2.35.21-4.51.41-6.79.61-.05-1.23-.18-2.02-.09-2.8.75-6.6-.9-8.38-7.08-7.43-2.34.36-4.64.93-7.3,1.48-.51,2.11-1.03,4.26-1.65,6.82-.48-1.15-.64-1.98-1.11-2.55-1.07-1.31-2.3-2.5-3.47-3.74-1.15,1.28-2.83,2.37-3.34,3.87-1.18,3.43-1.8,7.05-2.64,10.59ZM176.24,108.59c5.18-1.02,9.08-1.53,12.83-2.6,3.78-1.08,5.62-4.25,5.45-7.93-.22-4.73-.68-9.58-1.96-14.11-1.65-5.83-13.85-7.95-17.64-3.33-.61.74-.96,1.98-.88,2.95.62,7.89,1.37,15.76,2.21,25.02ZM105.38,68.23c1.13,2.5,1.62,4.77,2.98,6.21,1,1.06,3.14,1.03,4.77,1.49.37-1.39,1.41-3.05.98-4.13-1.57-3.96-1.44-7.23.76-11.19,2.43-4.36-.1-8.55-5.05-9.55-2.53-.51-5.27-.24-7.89-.02-2.68.23-4.29,1.78-4.6,4.61-.81,7.35-1.22,14.68.56,21.99,7.73.65,3.68-6.66,7.47-9.41ZM107.03,195.93c-6.32.57-12.68,1.42-19.06,1.59-2.62.07-5.69-1.43-7.14,1.54-1.23,2.51-1.71,5.56-1.81,8.39-.11,3.26,2.26,4.89,5.33,4.45,7.86-1.14,15.67-2.57,23.08-3.82-.15-4.53-.28-8.41-.4-12.14ZM119.94,207.2c7.9,1.73,10.75-2.31,12.02-8.55.52,2.41,1.04,4.83,1.65,7.68,4.41-.61,8.24-1.14,12.03-1.66.15-3.06.36-5.63.38-8.19.03-3.74-1.78-6.02-5.15-5.35-6.94,1.4-13.79,2.56-20.96,2.29-3.64-.14-4.32,1.7-3.07,5.41.93,2.75,2.01,5.44,3.1,8.37ZM127.46,63.18c.84,1.6,2.01,3.08,2.34,4.73.16.83-1.19,1.96-1.86,2.95-.9-.73-2.64-1.54-2.58-2.18.46-4.79-1.39-9.94,1.72-14.64,1.03.53,1.86.73,2.36,1.25,1.9,1.98,3.98,3.05,6.06.57,1.48-1.77-.19-4.92-3.08-6.34-4.63-2.28-10.52-.5-13.25,4.01-2.11,3.48-2.05,16.47.28,19.39,4.13,5.19,9.23,2.2,14.01,1.39.96-.16,1.83-.84,2.58-1.2,1.26-12.14.24-13.36-8.56-9.92ZM193.19,178.77c-1.96-4.62-3.51-8.29-5.07-11.96-.5.03-1.01.07-1.51.1-.68,3.41-1.35,6.83-2.03,10.24-.55-.03-1.1-.07-1.65-.1-.81-3.15-1.61-6.29-2.55-9.95-5.99,2.18-11.78,2.21-17.61,2.22-1.27,0-3.46,1.39-3.63,2.4-.61,3.68-1.78,7.78,2.5,10.95,1.71-2.18,3.2-4.09,4.45-5.69,2.66,1.8,4.83,4.52,6.88,4.42,6.7-.32,13.36-1.66,20.21-2.64ZM78.51,138.3c-.64-1.85-.75-3.04-1.38-3.8-1.07-1.29-2.33-2.83-3.79-3.22-.74-.2-2.62,1.71-3.06,2.98-1.24,3.61-2.01,7.38-3.03,11.34,3.34-.1,5.59-.33,7.83-.22,7.82.4,11.93-4.51,10.46-12.97,3.21-1.19,5.77-1.41,5.76,3.21,0,2.79-.93,5.78,1.67,8.12q2.94-2.99,4.86-16.4c-3.27.29-6.39.53-9.49.87-7.73.83-7.94,1.05-9.82,10.09ZM184.16,133.34c-.11-4.28-.23-7.16-.23-10.04,0-3.29-1.65-4.99-4.88-4.96-3.11.03-5.07,1.42-4.88,4.88.1,1.86.14,3.71.22,5.76-1.64-2.94.34-7.27-3.71-8.97-3.84,1.86-1.46,5.45-2.8,8.09-.76-1.54-1.3-3.08-2.22-4.33-.72-.97-2.24-2.42-2.85-2.18-1.25.48-2.72,1.78-3.03,3.02-.86,3.46-1.18,7.05-1.7,10.5,5.35-.04,9.66-.03,13.98-.1,4.04-.06,7.24-4.26,12.11-1.66ZM186.7,46.96c2.83,1.56,4.54,2.87,6.48,3.42.89.25,2.48-.74,3.21-1.62.46-.55.22-2.12-.23-2.92-1.55-2.75-6.28-4.33-9.97-3.57-4.31.89-7.05,3.4-7.05,7.43,0,4.51.36,9.07,1.15,13.51.7,3.93,3.79,5.58,8.55,5.42,4.7-.16,8.73-2.74,9.16-6.23.14-1.1-.54-3.08-1.29-3.32-1.22-.41-3.13-.16-4.15.61-1.29.97-1.99,2.73-3.45,4.91-3.42-5.89-3.25-11.17-2.4-17.62ZM94.87,76.74c-1.2-1.14-1.52-1.62-1.96-1.83-2.18-1.02-5.72.75-6.46-3.22-.7-3.77,2.95-3.88,4.65-5.64.31-.32.29-.95.42-1.44-.28-.43-.46-1.03-.86-1.26-1.47-.85-4.35-.66-3.44-3.33.48-1.41,2.38-2.45,3.81-3.4,1.39-.92,3-1.51,4.97-2.46-4.39-2.51-12.19-2.52-14.6-.32-.73.67-1.46,1.75-1.53,2.69-.51,7.37-.87,14.75-1.27,22.15,6.24,1.66,11.27,2.08,16.28-1.93ZM73.08,91.83c5.66,2.12,5.58,6.12,5.05,10.53-.47,3.97-.52,7.99-.71,11.99-.11,2.26.14,4.5,2.94,4.83,2.72.33,4.75-.8,5.1-3.78.31-2.65.61-5.31.63-7.97.04-6.38-1.9-13.34,7.09-17.31-7.83-3.23-13.61-.07-20.11,1.71ZM205.51,98.64c-.59-3.32-1.24-6.67-1.75-10.03-.44-2.88-.6-5.82-1.14-8.68-.46-2.45-2.28-3.96-4.62-2.94-1.28.56-2.76,2.7-2.67,4.03.46,6.87,1.32,13.72,2.23,20.55.16,1.17,1.13,3.12,1.85,3.18,3.13.23,6.31.03,9.44-.27,2.24-.22,4.76-.37,5.62-3.97-2.99-.62-5.69-1.17-8.96-1.85ZM221.21,173.14c-.41-3-.61-5.88-1.28-8.64-.21-.86-1.7-1.4-2.61-2.09-1.53,3.87-3.16-.24-4.76.05-1.94.35-3.97.34-5.83.91-1.83.57-4.81,1.46-4.99,2.57-.47,2.94-.14,6.23.85,9.04.35.99,3.64,1.58,5.43,1.31,4.08-.62,8.07-1.88,13.19-3.15ZM198.86,42.75c3.03,7.15,8.66,12.75,8.95,20.65.03.8,2.94,2.43,3.37,2.11,1.26-.93,2.98-2.93,2.68-4-1.51-5.48-.38-10.51,1.57-15.54.29-.74.88-1.46.9-2.19.02-.96-.14-2.57-.66-2.77-1.09-.41-3-.61-3.61.03-1.51,1.59-2.49,3.69-3.74,5.67-2.96-2.02-3.93-6.95-9.48-3.96ZM180.64,141.97c-.21-.49-.41-.97-.62-1.46-6.1.82-12.2,1.65-19.97,2.7,6.28,3.88,2.06,11.08,8.45,15.6.53-4.89.94-8.72,1.36-12.56,1.94,2.72,2.31,5.5,3.05,8.18.84,3.04,3.31,3.08,5.79,2.48,1.14-.28,2.18-.96,3.87-1.73-2.06-1.47-3.39-2.43-4.75-3.4,1.11-1.61,1.96-2.84,2.8-4.06-1.27-.94-2.23-1.66-3.27-2.43,1.19-1.21,2.24-2.26,3.29-3.32ZM229.71,87.08c-1.97-.98-3.41-1.45-4.53-2.32-1.29-1-2.82-2.22-3.21-3.64-.21-.75,1.63-2.35,2.83-3.13,1.57-1.02,4.46-.22,4.53-3.67-4.22-1.82-8.35-.48-12.27.72-1.29.39-2.87,2.65-2.84,4.03.12,5.76.72,11.53,4.59,17.26,3.73-3.17,7-5.95,10.9-9.26ZM197.75,198.84c.32-.73.64-1.46.96-2.18-5.35-1.97-1.8-9.35-8.04-11.65-.45,3.99-.83,7.37-1.22,10.76-.65.06-1.31.11-1.96.17-.81-3.08-1.63-6.16-2.42-9.16-7.26-.22-7.83.28-7.47,6.41.05.79.16,1.58.22,2.38.26,3.11,1.64,4.95,5.07,4.63,4.95-.47,9.9-.9,14.85-1.35ZM150.48,224.5c2.88.06,5.28.48,7.51.05,1.91-.37,4.06-1.32,5.32-2.73,1.85-2.06.2-3.97-1.54-5.38-1.67-1.34-1.33-2.03.02-3.67,1.96-2.4-.52-3.51-2.34-3.29-3.27.39-6.47,1.46-10.11,2.35.4,4.46.77,8.55,1.14,12.66ZM165.35,201.34c10.82-1.19,11.82-2.76,9.86-13.41-4.27.39-8.5.77-13.38,1.21,1.29,4.47,2.36,8.18,3.52,12.2ZM149.79,158.33c.62,1.26,1.24,2.52,1.86,3.77,1.89-8.97,6.07-1.42,9.55-4.98-.89-3.24-1.76-7.03-3.03-10.68-.34-.99-2.05-2.29-2.87-2.13-1.28.24-3.06,1.43-3.36,2.55-1.02,3.74-1.48,7.63-2.15,11.46ZM152.63,137.13c4.06-4.89.9-10.69,4.12-16.16-3.8.52-6.27.85-10.36,1.41,5.51,4.18,1.25,10.65,6.24,14.75ZM153.54,190c-4.42-.59-6.61.89-6.5,5.04.05,1.85.08,3.73.42,5.54.81,4.28,1.98,4.59,7.07,2.07-3.03-3.78-2.11-7.9-.99-12.65ZM235.78,98.49c-1.75-.6-2.51-1.14-3.22-1.07-4.61.42-9.21.93-13.79,1.56-.49.07-1.17,1.16-1.15,1.77.02.6.73,1.62,1.25,1.7,5.51.9,10.73.3,16.91-3.97ZM78.49,210.73c-6.07-2.89-.59-9.29-5.44-12.73-2.94,3.76-2.4,7.81-1.97,11.49.43,3.62,3.12,3.59,7.41,1.24Z"/>
      <rect class="cls-1" width="288" height="288"/>
    </g>
  </g>
</svg>