<?xml version="1.0" encoding="UTF-8"?>
<svg id="Layer_2" data-name="Layer 2" xmlns="http://www.w3.org/2000/svg" viewBox="0 0 353.1 241.18">
  <defs>
    <style>
      .cls-1 {
        fill: #eee;
        stroke-width: 0px;
      }
    </style>
  </defs>
  <g id="Layer_1-2" data-name="Layer 1">
    <g>
      <path class="cls-1" d="M121.33,158.37c-.08,1.57-.01,2.86,1.47,4.11,1.03.87,1.27,2.71,1.76,4.15.09.26-.19.87-.46,1.01-2.02,1.02-.57,1.65.2,2.44.71.73,1.28,1.58,1.97,2.33.52.57,1.06,1.13,1.68,1.58,2.04,1.48,2.5,4.09.59,5.55-.13.1.16,1.22.43,1.3,1.61.5,1.88,1.16,1.22,2.83-.59,1.51-.51,3.31-.57,4.99-.05,1.37.33,2.77.14,4.11-.1.69-1.11,1.21-1.61,1.88-.52.7-.96,1.48-1.34,2.27-.04.09.81.45.87.75.28,1.43.43,2.89.61,4.33,0,.03-.04.08-.07.11-1.72,2.38-2.41,5.03-2.37,7.98.02,1.03-.81,2.09-1.32,3.1-.07.14-.56.12-.85.11-.61-.02-1.22-.09-1.83-.13.02.86-.02,1.72.1,2.56.09.64.69,1.71.54,1.81-1.02.69-2.17,1.19-3.29,1.73-.7.34-1.44.6-2.15.94-1.16.56-2.26,1.29-3.47,1.7-4.3,1.46-8.48,2.33-13.08.35-2.91-1.25-3.03-3.35-3.29-5.63-.15-1.35-.51-1.93-1.9-1.71-2.27.35-3.96-1.09-5.81-2-1.33-.66-1.7.17-1.99,1.17-.2.73-.17,1.59-.56,2.17-.44.65-1.51,1.6-1.87,1.44-1.01-.45-2.92-.08-2.68-2.17.03-.29-.2-.71-.44-.91-1.15-1-.99-2.19.12-3.17,1.4-1.23,2.65-2.66,3.81-4.12.24-.3-.02-1.5-.35-1.66-1.52-.75-1.12-2.06-.5-2.74,1.28-1.41.13-1.61-.73-1.78-1.06-.21-1.04-.89-1.43-1.67-1.21-2.44-1.38-5.65-4.68-6.8-.43-.15-.52-2.15-.29-3.19.36-1.65,1.2-3.19,1.68-4.83.14-.47-.09-1.44-.4-1.57-.48-.19-1.29-.02-1.73.31-1.4,1.04-2.58.97-4.12.07-2.35-1.36-4.85-2.5-7.41-3.42-1.8-.64-2.31-1.99-2.85-3.47-.47-1.29-2.97-2.94-4.33-2.84-.96.07-1.84,2.69-1.21,3.68.94,1.48,1.23,2.8.19,4.52-.63,1.04-.35,2.61-.54,3.94-.1.72-.28,2-.49,2.02-.87.06-1.77-.24-2.64-.48-.33-.09-.62-.53-.92-.53-.97.02-1.93.18-2.9.29.58.91.97,2.06,1.78,2.67.86.66,2.2.65,3.14,1.24.78.49,1.83,1.46,1.78,2.15-.08,1.12-.68,2.59-1.56,3.17-1.4.91-3.2,1.21-4.82,1.77-.2.07-.39.18-.58.27.13.16.22.41.39.47,1.15.43,2.29.96,3.48,1.18,1.41.26,2.68,2.44,2.28,4.44-.28,1.36-.85,2.67-1.08,4.04-.47,2.83-2.43,4.47-4.63,5.78-3.53,2.11-7.1,4.17-10.84,5.87-1.6.73-3.65.64-5.49.6-.68-.01-1.3-1.03-2.02-1.46-2.99-1.79-6.04-3.17-9.74-2.7-1.35.17-2.97-.36-4.22-1.04-2.22-1.21-4.43-1.77-6.94-1.4-2.58.38-4.15-.67-5.19-3.07-.61-1.43-1.47-2.76-2.19-4.16-.16-.31-.34-.79-.22-1.05.98-2.02.96-4.16,1.07-6.33.09-1.75.53-3.5.94-5.23.47-2.03.73-4.23,1.73-5.98.71-1.24,2.52-1.83,3.79-2.77.25-.18.49-.79.37-.97-1.3-2.01-.25-5.55,1.98-6.45,1.06-.43,2.15-.79,3.23-1.18-1.01-.4-2.02-.83-3.04-1.2-1.11-.4-2.23-.78-3.36-1.11-1.31-.38-1.84-1.14-1.34-2.45.45-1.2.09-1.67-1.19-1.46-.71.11-1.49.03-2.14.29-1.61.64-2.68.36-3.24-1.4-.45-1.4.11-2.05,1.38-2.61,1.48-.65,2.06-3.78,1.53-5.94-.18-.74.28-1.65.5-2.47.22-.82.54-1.62.76-2.45.31-1.13.46-2.39,2.19-1.76.18.06.48-.02.64-.14,2.06-1.56,4.68-2.66,5.11-5.64.06-.41-.53-1.25-.94-1.35-3.36-.78-4.22-2.19-3.28-5.61.48-1.73,1.18-3.45,1.33-5.21.25-2.94,2.65-3.28,4.55-3.84,1.98-.58,2.88-1.63,3.77-3.41,1.06-2.13,2.78-3.97,4.37-5.8.34-.39,1.71.02,1.94-.35,1.03-1.68,1.83-3.5,2.7-5.28.07-.15.01-.37.08-.53.83-1.88,1.64-3.77,2.51-5.64.48-1.03.52-1.03-.93-1.4-.34-.08-.75-.16-1.05-.04-4.87,1.83-9.74,1.32-14.59,0-.81-.22-1.54-.75-2.29-1.17-1.78-.99-3.6-1.91-5.3-3.03-.94-.62-1.74-1.52-2.44-2.42-.96-1.24-1.8-2.58-2.63-3.92-.73-1.18-2.07-2.21-1.12-3.9.12-.21.14-.65,0-.78-2.39-2.41-.56-4.77.07-7.13.57-2.11.75-4.47,1.87-6.24.95-1.5.98-2.63.43-4.01-1.21-3.04-.34-5.09,2.39-6.92.83-.55,1.22-2.24,1.22-3.41,0-1.4.04-2.1,1.7-1.86.51.07,1.11-.44,1.67-.68-.4-.53-.74-1.13-1.22-1.56-.4-.34-1.09-.36-1.45-.72-.78-.77-1.43-1.66-2.13-2.5.91-.51,1.82-1.02,2.74-1.51.3-.16.63-.28.95-.42-.16-.34-.23-.79-.49-1.01-1.02-.88-2.42-1.51-3.06-2.6-.43-.73-.12-2.3.43-3.1,1.18-1.71,1.97-3.25,1.58-5.5-.39-2.24-.94-4.75,1.06-6.71.03-.03.04-.09.08-.11,3.45-1.81,6.3-5.31,10.67-4.54,2.21.39,4.31,1.21,6.63.75,1.19-.24,2.44-.2,3.66-.31.19-.02.38-.17.56-.27-.18-.18-.38-.35-.55-.55-.83-.99-1.72-1.93-2.4-3.01-.14-.22.52-.98.88-1.44.17-.22.5-.33.75-.49-.32-.22-.65-.65-.96-.63-2.17.11-4.33.33-6.49.49-.98.07-1.99.26-2.93.09-1.98-.36-3.9-1.17-5.89-1.32-2.26-.17-4.56.3-6.83.26-1.44-.02-2.89-.38-4.28-.76-.32-.09-.62-.9-.6-1.36.01-.26.69-.63,1.11-.69,2.06-.32,4.35-.08,6.15-.92,3.49-1.63,7.13-.45,10.62-1.18,2.03-.42,4.15-.72,6.2-.61,2.56.13,5.12.63,7.63,1.18,1.36.3,2.62,1.04,3.94,1.57.14.05.41.01.49-.09,1.27-1.48,2.77-.54,4.21-.48,1.03.05,2.07-.21,3.1-.27.42-.02.85.15,1.28.16.36,0,.91,0,1.04-.2.97-1.54,2.36-1.13,3.75-.95.85.11,1.72.04,2.56.17.95.15,1.89.44,2.83.68.12.03.26.26.32.23,2.08-.91,2.97,1.08,4.23,1.9,1,.65,2.2,2.17,2.05,3.1-.15.93-1.76,1.93-2.92,2.31-2.09.68-4.34.83-6.49,1.35-2.71.65-3.55,2.03-3,4.86.31,1.59-.32,1.87-1.79,2.25-1.48.38-2.73,1.66-4.08,2.55.28.27.62.51.84.83.33.47.57,1,.85,1.51.2.36.3.88.6,1.07.96.61,2.32.88,1.73,2.55-.01.03.67.2.85.43.48.64,1.39,1.71,1.2,1.99-1.62,2.42-.05,4.52.35,6.78.55,3.07.82,6.2.94,9.31.02.5-1.37,1.05-2.1,1.58-.24.17-.49.33-.74.5.23.11.45.29.7.33,1.8.35,1.89,1.61,1.85,3.11-.03,1.18.29,2.37.38,3.55.22,3.14.29,6.29.61,9.41.21,2.03-.83,3.87-.16,6.11.48,1.63-.83,3.84-1.5,5.73-.56,1.57-1.34,3.07-2.06,4.58-.2.42-.5.8-.79,1.17-.51.63-1.39,1.16-1.52,1.84-.34,1.79-1.75,2.27-3.04,2.79-2.45.99-4.99,1.75-7.46,2.71-.23.09-.42,1.17-.21,1.4.95,1.04,1.97,1.95,1.25,3.58-.07.15.37.76.53.74.65-.06,1.3-.22,1.89-.49.11-.05.06-.88-.16-1.15-1.67-2.01-.82-4.15,1.61-5.15,2.28-.94,4.55-1.2,6.21.41,1.69,1.63,4.62,1.76,5.36,4.61.14.54,1.79,1.03,2.71.97,1.87-.13,2.58.84,3.18,2.33.39.97,1.25,1.76,1.57,2.74.35,1.09.8,2.52.38,3.41-.94,1.99-.3,3.83-.04,5.7.31,2.27-.77,4.66-2.79,5.64-.15.07-.29.19-.43.28.14.15.24.39.41.45,1.57.62,1.71,2.06,1.27,3.21-1.14,3.02-.66,5.84.33,8.74.35,1.02.5,2.13.59,3.21.11,1.31-.69,1.75-1.91,1.7-.33-.01-.66.2-.99.31.19.29.33.63.57.87,1,1,2.84,1.27,2.77,3.22,0,.09.52.28.8.29,1.22,0,2.44-.01,3.65-.1.17-.01.49-.48.45-.69-.19-.98-.4-1.97-.75-2.9-.15-.38-.68-.61-1.02-.92-.64-.58-1.41-1.07-1.87-1.77-1.46-2.2,1.02-3.68,1.2-5.64.1-1.06.57-1.79-.12-3.06-.48-.88.34-3.34,1.31-3.96,2.7-1.73,3.64-4.54,5.31-6.91.37-.52,1.4-1.09,1.9-.93,3.81,1.22,7.57,2.61,11.34,3.97,1.65.59,3.29,1.22,4.92,1.86.22.09.49.35.51.56.15,1.54,1.14,1.39,2.28,1.33,1.41-.07,2.85.03,4.25.22.33.04.58.71.87,1.09-.33.2-.65.39-.98.58-.16.09-.39.12-.47.25-1.09,1.81-2.54,1.41-4.13.82-.48-.18-1.53-.07-1.66.22-1.29,2.74-3.52,1.54-5.45,1.36-.79-.07-1.54-.53-2.3-.82-.91-.35-1.93-1.34-2.36.55-.04.18-.71.21-1.09.31-.32.09-.64.17-.96.26.19.35.3.89.59,1.01,2.09.9,1.25,1.77.1,2.79-.36.33-.44.96-.65,1.46.45.09.91.13,1.35.27.94.3,1.86.66,2.79.99-.39.82-.76,1.64-1.19,2.45-.16.3-.44.55-.66.82.43.28.84.64,1.31.8.41.14.9.06,1.36.05,1.14-.02,1.55.47,1.32,1.63-.09.48.25,1.04.21,1.55-.06.81-.18,1.64-.44,2.4-.13.39-.62.65-.95.97.62.6,1.14,1.35,1.86,1.76,2.03,1.15,1.94-1.44,3.1-1.87.67-.25,1.31-.57,2-.76.36-.1.78.01,1.18.03-.26-.46-.42-1.05-.81-1.34-2.07-1.57-2.09-1.77-.58-4.04.86-1.3,1.46-2.8,2.46-3.97.7-.83,1.83-1.68,2.84-1.78,1.93-.18,3.94.46,5.85.22,1.98-.25,3.9-1.12,5.8-1.83.16-.06,0-.97,0-1.48,0-3.4-1.27-4.64-4.32-5.77-2.23-.83-4.27-2.38-6.13-3.92-.46-.38.12-2,.19-3.05.04-.51.03-1.03.03-1.55,0-.54-.02-1.08.02-1.62.01-.16.29-.4.25-.46-1.63-2.12.89-4,.35-6.05-.07-.28-.04-.71.14-.91,1.61-1.8.43-2.3-1.17-2.85-3.1-1.05-6.35-1.89-8.2-5.03-.2-.34-.75-.48-1.15-.7-2.46-1.39-4.62-3.11-5.75-5.8-.11-.26.21-.8.47-1.08.18-.19.7-.04.9-.22.42-.38.74-.89,1.09-1.34-.34-.12-.69-.21-1.01-.37-1.05-.53-2.15-.99-3.1-1.68-.35-.25-.59-1.17-.4-1.55.56-1.15,1.35-2.18,2.05-3.26.02-.04.02-.11.05-.12,2.18-1.22,2.42-2.09-.05-3.53-1.42-.83-1.11-5-.04-6.45.05-.07.14-.14.15-.22.17-2.43.32-4.87.52-7.29.04-.42.18-.95.48-1.22.92-.82,1.82-1.82,2.93-2.25,2.19-.85.92-2.32.95-3.59.03-1.24.17-2.49.29-3.73.13-1.27.3-2.54.42-3.81,0-.08-.35-.25-.56-.28-1.64-.27-2.17-1.6-1.87-2.81.18-.72,1.56-1.12,2.37-1.69.95-.66,1.88-1.35,2.78-2.08.05-.04-.21-.74-.45-.84-1.62-.68-3.25-1.65-4.94-1.8-1.78-.16-3.66.38-5.45.8-1.07.26-2.08,1.44-2.77-.52-.14-.39-1.05-.62-1.63-.68-.32-.03-.93.41-.99.71-.25,1.35-.85,1.76-2.09,1.07-1.16-.65-1.85-1.69-.95-2.79,1.02-1.26.24-1.43-.6-2.08-.88-.69-1.42-1.8-2.2-2.63-.31-.32-.89-.54-1.34-.54-1.25,0-2.51.16-3.76.17-.09,0-.34-.68-.25-.97.47-1.61.77-3.1-1.34-3.81-.17-.06-.32-.73-.29-.75,1.09-.54,2.19-1.03,3.3-1.53.32-.15.65-.29.97-.44-.33-.16-.67-.48-1-.47-1.9.05-3.79.19-5.69.25-.2,0-.59-.27-.59-.41,0-.75.13-1.5.17-2.25.06-1.16.4-2.43.04-3.44-.45-1.25-.35-1.73.93-2.03,2.43-.56,4.84-1.57,7.26-.09.43.26,1.01.93.93,1.26-.18.69-.71,1.31-1.19,1.89-.31.37-.77.61-1.17.91.53.11,1.13.44,1.57.29,2.68-.92,5.34-1.88,7.95-2.98.55-.23.9-1.09,1.22-1.72,1.1-2.15,3.54-2.79,5.58-1.52,1.6.99,2.15-.58,2.04-1.41-.39-2.88,2.24-4.09,3.2-6.2.27-.6,1.96-.58,3-.82.99-.23,2.08-.23,2.95-.68,2.18-1.12,4.01-1.05,6.18.34.9.58,2.73-.23,4.12-.5,1.07-.2,2.13-.83,3.15-.76,1.7.13,3.36.76,5.06.99.86.12,1.8-.36,2.66-.26,2.5.31,4.98,1.09,7.48,1.1,2.15,0,4.28-.94,6.44-1.19,2.72-.32,5.47-.32,8.2-.53,1.35-.1,2.7-.26,4.02-.55,2.85-.63,4.24,1.67,6.04,3.04.22.17-.17,1.73-.67,2.09-.54.38-1.72.4-2.31.05-.86-.52-1.33-1.64-2.16-2.23-.44-.31-1.71-.29-1.9.02-1.11,1.81-2.91,1.87-4.65,2.12-1.13.16-2.27.22-3.41.25-1.49.05-2.64.38-2.49,2.25.02.3-.27.88-.47.91-1.96.26-1.64,1.8-1.82,3.07-.04.26-.12.52-.21.76-.15.39-.34.76-.51,1.15.68.15,1.36.41,2.03.41.92,0,1.84-.21,2.76-.33.14,1.14.52,2.31.37,3.41-.24,1.77-.73,3.52-1.3,5.22-.26.76-1.2,1.31-1.4,2.06-.29,1.12-.22,2.35-.25,3.53-.02.65.14,1.31.12,1.96-.07,2.38-.35,4.78-.2,7.14.1,1.51-.76,1.49-1.67,1.76-.51.15-.98.46-1.47.7.41.45.8.93,1.25,1.36.9.86,1.82,1.7,2.76,2.52.11.1.5.07.5.06.26-1.45.45-2.91.74-4.36.11-.55.43-1.07.65-1.6.45.41,1.01.75,1.32,1.25.27.44.25,1.05.36,1.59.63-.36,1.23-.78,1.89-1.06.31-.13.74-.04,1.1,0,1.47.19,2.94.4,4.4.62.19.03.53.17.53.26,0,.42.07,1-.17,1.24-.66.67-1.48,1.17-2.19,1.79-.13.11-.1.67,0,.71.87.4,1.78.71,2.65,1.1.66.29,1.35.58,1.92,1.01.35.27.51.79.75,1.2.21-.73.71-1.52.58-2.18-.31-1.58-.87-3.12-1.4-4.66-.57-1.67-.5-3.1.33-4.81.81-1.66.72-3.74,1.18-5.6.55-2.24,1.39-4.41,1.87-6.66.33-1.52.28-3.12.36-4.69.04-.79.04-1.58.01-2.37,0-.19-.17-.37-.27-.55-.39-.66-1.07-1.28-1.14-1.97-.24-2.33,2.31-5.04,4.63-5.21,1.13-.09,2.26-.32,3.34-.66.33-.1.71-.8.67-1.18-.43-4.36.78-5.15,5.13-4.91.59.03,1.28-.22,1.77-.55.2-.14.05-.85,0-1.3-.13-1.18-.3-2.34-.41-3.52-.02-.22.2-.46.31-.7.2.16.43.28.59.47.91,1.08,1.78,2.19,2.73,3.24.52.58,1.01,1.87,2,.3.12-.19,1.57.03,1.77.4,1.02,1.84,2.99,1.21,4.42,1.91.11.05.5-.17.56-.34,1.03-2.9,2.91-3.83,5.82-3.27,3.2.62,5.47,2.32,7.27,4.96.69,1.01,1.88,1.66,2.68,2.61,1.42,1.68.9,3.68.64,5.59-.23,1.69-.46,3.39-.85,5.05-.18.75-.61,1.54-1.15,2.09-1.23,1.24-1.2,3.82-.72,5.36.44,1.41-.13,3.13-.27,4.71-.02.18-.23.42-.18.5.73.99,1.43,2.01,2.26,2.9,1.41,1.51.32,2.41-.69,3.37-.56.52-1.16,1-1.68,1.56-.18.2-.31.64-.21.86.48,1.05.84,2.29,1.63,3.05,1.58,1.5.79,2.76-.25,3.8-1.51,1.5.04,1.14.68,1.29.59.14,1.62-.02,1.76.28.59,1.27,1.12,2.65,1.25,4.03.05.51-1.06,1.17-1.71,1.67-.56.43-1.39.62-1.76,1.15-.18.26.41,1.07.67,1.61.16.32.59.68.52.9-.6,1.92,1.09,2.54,2.09,3.2,1.51.99,1.6,2.06,1.25,3.6-.21.93,0,1.98.15,2.95.03.22.59.55.87.51,1.08-.15,2.16-.36,3.2-.68,2.19-.68,3.23,1.3,4.82,1.98.51.22,1.09.29,1.6.53.47.22,1.17.51,1.24.87.07.41-.39,1.27-.73,1.32-2.57.42-5.17.69-7.76,1.01-.41.05-.83.11-1.24.16.33.28.72.52.98.86.54.69,1.02,1.42,1.53,2.14-.81.07-1.63.18-2.44.19-.67,0-1.36-.23-2.01-.15-.44.05-.84.46-1.26.71.25.34.52.67.76,1.02.66,1,1.61,1.74.77,3.35-.57,1.09-.17,2.72-.11,4.1.06,1.39-.47,2.15-1.85,2.6-.59.19-1.14,1.04-1.37,1.7-.67,1.89-2.48,1.91-3.86,2.69-1.59.91-2.99,2.16-4.54,3.16-.68.44-1.52.83-2.3.85-1.49.05-3.02-.05-4.48-.35-.9-.18-1.7-.86-2.56-1.29-1.19-.6-2.4-1.18-3.58-1.79-1.09-.56-2.11-1.27-3.24-1.71-2.33-.91-4.47-2.66-7.26-1.77-.24.08-.58.05-.8-.07-2.19-1.19-4.37-2.39-6.52-3.63-.23-.13-.48-.76-.38-.87,1.87-2.12-.82-2.14-1.46-2.63-.97-.73-2.47-.7-3.66-1.2-.77-.32-1.6-.88-2-1.57-.23-.4.15-1.48.59-1.88,1.83-1.66,1.05-3.23.23-5.01-.6-1.3-1.02-2.81-.99-4.21.02-.71,1.19-1.42,1.88-2.08,1.01-.96,1.12-1.79.09-2.9-1.29-1.38-2.29-2.8-1.05-4.97,1.06-1.86-.1-3.81-2.06-4.66-1.31-.57-2.47-1.47-3.72-2.18-1.04-.6-2.09-1.18-3.17-1.68-.21-.1-.85.17-.86.29-.1,1.35-1.54,2.94.72,3.95.33.14.26,1.19.37,1.81-.47.03-1.1.28-1.39.07-1.33-1-2.45-.18-3.34.52-.5.39-.65,1.53-.56,2.28.15,1.19,0,1.84-1.3,2.14-.55.13-1.05.83-1.36,1.38-.08.14.75.67.94,1.12.31.73.51,1.53.63,2.32.1.62-.04,1.28,0,1.91.05.76.07,1.55.28,2.27.2.7.61,1.35.93,2.02.16.34.43.68.45,1.04.01.17-.45.35-.63.58-.3.39-.86.94-.76,1.23.34.96.82,1.91,1.45,2.72,1.11,1.43,1.07,3.67-.21,4.5-.23.14-.52.36-.74.31-2.7-.6-.87.67-.61,1.39.71,2.01,1.47,4.01,1.95,6.07.12.51-.76,1.23-1.13,1.87-.21.36-.57.94-.44,1.12.28.39.98.92,1.24.81,2.22-.99,2.98,1,4.25,1.95.24.18.52.5.75.47,5.29-.67,8.36,3.07,11.32,6.27,1.2,1.3.76,4.18.94,6.34.07.79,0,1.74-.39,2.39-.4.68-1.23,1.13-1.89,1.64-.51.4-1.35.64-1.54,1.15-.56,1.44-.52,3.24-1.38,4.41-.99,1.36-1,3.03-2.37,4.41-1.49,1.5-3.86,1.95-4.68,4.03-.2.52.06,1.25.21,1.86.05.2.51.26.64.48.38.66.69,1.36,1.03,2.04-.7.33-1.37.86-2.1.95-1.73.21-3.5.14-5.24.32-2.58.27-3.99,1.84-4.11,4.43-.03.59,0,1.18,0,1.78ZM134.7,126.18c.09-.29.28-.79.39-1.31.12-.56.13-1.14.27-1.69.07-.27.33-.49.51-.73-.32-.09-.65-.24-.97-.24-4.22,0-7.9-1.41-11.04-4.23-.18-.16-.45-.2-.69-.3.12.23.21.47.36.68,1.25,1.77,2.78,3.4,3.71,5.32,1.06,2.21,2.85,2.57,4.85,2.76.66.07,1.35-.12,2.62-.26ZM123.68,71.84c.21-.43.53-.96.72-1.53.13-.37-.09-.91.11-1.2,1.15-1.67-1.09-2.27-1.05-3.57-.74.14-1.5.21-2.21.44-1.92.62-3.28,4.16-1.88,5.03,1,.62,2.46.51,4.31.83ZM96.56,106.59c-.36.21-.71.41-1.06.61.39.44.75.91,1.18,1.31.56.52,1.18.98,1.76,1.48.23.2.39.56.65.66,1.59.59,3.19,1.19,4.82,1.66.46.13,1.08-.06,1.53-.28.17-.09.23-.94.09-1.03-1.28-.8-2.61-1.53-3.95-2.22-1.11-.57-2.25-1.09-3.39-1.6-.49-.22-1.01-.36-1.64-.59ZM106.31,205.61c1.3-.86,2.31-1.41,3.14-2.15.21-.19-.05-1.4-.2-1.43-1.52-.23-3.07-.38-4.61-.36-.32,0-.98,1.11-.88,1.24.69.9,1.54,1.67,2.54,2.69ZM76.11,46.85c.24-.14,1-.42,1.52-.95.17-.17-.29-1.4-.51-1.41-.75-.05-1.62.05-2.25.42-.69.4-1.16,1.16-1.73,1.77.78.05,1.56.09,2.96.18ZM81.75,51.76c-1.04-.75-2.02-1.45-3-2.14-.01,0-.15.11-.18.18-.22.56-.65,1.6-.59,1.63,1.02.5,2.1.9,3.19,1.26.07.02.31-.48.59-.92ZM100.3,43.79c.71-.89,1.15-1.44,1.58-1.98-.53-.37-1.15-1.11-1.58-1.02-.57.13-1.11.85-1.41,1.44-.09.17.68.78,1.4,1.56ZM90.6,110.45c.59-.45,1.05-.81,1.51-1.17-.57-.38-1.11-.99-1.71-1.05-.4-.05-.89.68-1.34,1.06.47.35.94.71,1.54,1.16ZM40.61,122.47c-.15.32-.3.64-.45.95.43.11,1.01.45,1.27.29.62-.38,1.09-1.01,1.62-1.53-.33-.24-.74-.74-.97-.66-.54.17-.99.62-1.48.96ZM112.58,206.67c.59-.36.97-.6,1.36-.84-.64-.35-1.25-.76-1.93-1-.21-.07-.58.33-.88.52.46.42.91.83,1.45,1.32ZM76.18,42.08c.51-.47.86-.8,1.21-1.13-.31-.24-.66-.72-.91-.67-.45.09-.84.49-1.26.77.26.28.52.57.96,1.04ZM105.01,50.56c.85.75,1.29,1.28,1.86,1.58.37.19.91.05,1.38.06-.28-.32-.5-.75-.85-.92-.6-.28-1.28-.4-2.38-.72ZM12.44,47.2c-.51.35-.85.59-1.18.82.35.28.68.66,1.08.8.16.05.66-.39.71-.66.04-.24-.33-.55-.6-.96ZM38.21,135.45c-.48-.43-.83-.86-.93-.8-.42.21-.76.57-1.12.87.29.15.57.42.86.42.31,0,.62-.24,1.19-.49Z"/>
      <path class="cls-1" d="M269.81,153.15c2.97-.54,2.76,1.69,3.29,2.93.69,1.59.91,3.38,1.36,5.08.04.14.29.31.45.33,2.52.29,3.78,1.47,3.93,3.95.06,1.11.53,2.54-1.28,2.95-.2.05-.34.67-.38,1.04-.21,1.97-.15,4.05-2.46,5-.22.09-.42.47-.47.74-.28,1.48-.51,2.97-.77,4.45-.03.17-.12.44-.23.47-1.94.57-1.1,1.24-.21,2.15.46.47.7,1.31.74,2,.07,1.19-.53,1.81-1.82,1.38-.21-.07-.45-.06-.68-.09.19.18.39.51.58.51,2.29-.01,4.58-.11,6.87-.11.83,0,1.83-.02,2.41.42.31.23.09,1.56-.27,2.17-.75,1.28-.29,2.35,1.6,3.18,2,.87,1.97,1.03.33,2.49-.54.48-.73,1.39-.94,2.15-.04.16.57.74.8.7.71-.13,1.37-.5,2.07-.73.6-.19,1.26-.52,1.81-.41.4.08.71.76,1,1.21.17.26.23.59.33.88.27-.23.62-.4.78-.69.76-1.41,1.44-1.19,2.1.06.42.79.87,1.56,1.2,2.38.8,1.99-.53,2.49-2.06,2.78-.49.09-1,.1-1.5.13-1.23.08-3.55,2.11-3.44,3.26.03.36,1.18.98,1.65.86,1.76-.45,3.28-.31,4.81.74.51.35,1.4.15,2.12.18.45.02,1.03-.18,1.32.04,2.52,1.87,1.81-.91,2.06-1.59,1.28-3.41,2.35-6.9,3.45-10.37.16-.5.28-1.29.02-1.61-1.76-2.14-.83-4.51-.76-6.81,0-.09.03-.19.08-.26.92-1.32.88-2.1.11-3.82-.25-.55-.36-1.49-.05-1.87.38-.47,1.24-.58,1.91-.75.36-.09.77,0,1.15,0,0-.13.03-.36,0-.37-.37-.13-.75-.32-1.12-.3-3.07.19-3.67-.3-4.13-3.4-.35-2.34-.73-4.68-1.1-7.02-.02-.13-.07-.27-.13-.39-1.18-2.33-.77-3.27,1.18-5.13,2.99-2.85,6.49-2.17,9.97-1.84,1.11.1,2.43.21,2.5-1.11.07-1.23.82-2.88-1.08-3.75-2.46-1.12-4.66-2.76-7.58-2.85-1.05-.03-2.28-.91-3.01-1.76-.46-.54-.28-1.76-.15-2.64.17-1.14.44-2.31.9-3.37.76-1.74,1.2-3.26-.48-4.82-.29-.27-.76-2.41,1.29-2.44.05,0,.35-1.5.09-2.11-.7-1.65.58-1.95,1.45-2.65.22-.18.19-.85.07-1.23-.23-.69-.94-1.37-.86-1.97.19-1.34-.17-1.77-1.49-1.68-.45.03-1.33-.28-1.34-.47-.03-.82.14-1.66.33-2.47.04-.19.47-.27.62-.47,1.07-1.41,1.85-3.23,3.24-4.16,1.56-1.06,3.62-1.61,5.53-1.88,1.68-.24,3.46.13,5.18.38,1.45.21,2.89.58,4.3.98.48.14.91.54,1.3.89,2.6,2.34,4.7,5.43,8.81,5.39.7,0,1.36.99,2.12,1.16,2.05.44,4.15.66,6.22,1.02,1.59.28,3.17.66,4.76.93.35.06.95,0,1.09-.23,1.42-2.31,3.41-2.51,5.85-1.98,1.24.27,2.65.02,3.93-.23,1.5-.29,1.63.61,1.4,1.54-.21.85-.84,1.6-1.22,2.42-.13.28-.09.67-.04.99.36,2.15.22,4.12-1.45,5.82-.39.4-.33,1.38-.26,2.06.16,1.54.45,3.08.72,4.61.1.57.28,1.12.44,1.67.34,1.11,1.28,2.25-.28,3.26-.15.1.08,1.01.32,1.44,1.21,2.15.58,4.14-.29,6.22-.49,1.17-.75,2.51-.82,3.78-.15,2.8-.25,5.62-.13,8.42.13,3.05.45,6.09.84,9.12.45,3.42-.51,6.23-2.95,8.69-.52.53-.48,1.74-.47,2.64.01.59.66,1.18.65,1.77-.03,2.51.01,4.87,1.36,7.23.59,1.03-.43,2.86-.29,4.29.14,1.42.68,2.84,1.28,4.16.6,1.33.32,3.48-.78,4.38-.24.2-.36.68-.34,1.01.08,1.04.33,2.06.4,3.1.08,1.25,0,2.52.08,3.77.11,1.71-.6,2.86-2.23,3.3-1.56.43-3.22.52-4.72,1.08-1.87.7-3.7,1.61-5.39,2.67-1.11.7-1.82.84-2.87-.1-.44-.39-1.47-.07-2.22-.17-.64-.09-1.26-.31-1.88-.49-.46-.13-.99-.51-1.34-.38-1.13.43-1.79.35-2.11-.99-.14-.61-.59-1.28-1.11-1.62-.24-.16-1.35.34-1.39.64-.21,1.4-.92,1.98-2.27,2.31-1.42.34-2.72,1.21-4.14,1.56-1.88.46-3.16-.45-3.78-2.29-.07-.21-.18-.4-.27-.6-.13.2-.29.39-.4.61-.58,1.16-1.41,1.63-2.67,1.06-.08-.04-.16-.1-.25-.11-4.69-.44-7.57-4.07-11.05-6.53-1.5-1.06-3.69-2.53-2.32-5.31.21-.42-.65-1.37-1.01-2.08-.31.49-.6.98-.93,1.46-.65.93-1.32,1.84-1.97,2.77-2.26,3.29-4.82,6.33-8.53,7.99-1.78.8-3.78,1.19-5.73,1.52-6.81,1.16-13.65,1.88-20.29-.75-1.75-.69-4.02-1.54-4.75-2.97-1.12-2.21-3-2.49-4.72-3.44-1.95-1.08-1.33-3.04-1.29-4.78,0-.43-.21-1.18-.49-1.26-1.95-.6-2.91-2.75-1.99-4.65.11-.22.16-.46.24-.69-.17,0-.35,0-.52-.03-.57-.08-1.6-.08-1.64-.27-.2-1.03-.62-2.49-.11-3.1,1.28-1.57.1-2.38-.58-3.39-.53-.79-1.33-1.42-1.74-2.26-.29-.61-.14-1.43-.19-2.16.69.04,1.38.1,2.06.13.47.02,1.28.14,1.37-.04,1.28-2.75,4.27-2.85,6.41-4.24.23-.15.69-.36.68-.38-1.05-2.39,3.18-2.29,2.21-4.65-.04-.1.33-.36.51-.55.26-.28.52-.56.78-.85-.43-.18-.93-.59-1.27-.48-1.09.34-2.08,1.05-3.18,1.29-1.73.38-3.52.53-5.28.7-.18.02-.42-.49-.63-.75-.29-.37-.62-1.05-.87-1.03-.48.05-1.23.43-1.32.81-.43,1.81-1.86,1.72-3.15,1.73-1.64.01-3.27.19-4.31-1.78-1.42-2.68-3.33-5.1-4.83-7.73-1.03-1.81-1.96-3.74-2.53-5.73-.66-2.33-.69-4.83-1.33-7.16-1.03-3.73-2.38-7.37-3.52-11.07-.23-.73-.21-1.58-.14-2.35.08-.91.69-1.9-.81-2.23-.11-.02-.25-.51-.18-.69.48-1.1,1.27-2.12,1.47-3.26.15-.84-.14-2.27-.74-2.64-2.87-1.83-1.87-4.38-1.48-6.76.6-3.68,1.45-7.32,2.08-11,.5-2.91,1.48-3.6,4.59-3.59.99,0,1.94-1.23,2.97-1.35,1.8-.22,1.35-1.23,1-2.17-.14-.37-.71-.62-1.14-.81-.69-.31-1.42-.54-2.14-.79-.29-.1-.69-.37-.85-.26-1.71,1.13-2.55-.14-3.53-1.17-.18-.19-.68-.35-.84-.25-3.17,2.14-6.17.51-9.14-.45-2.21-.72-4.39-2.26-4.83-4.34-.45-2.11-1.91-2.96-3-4.3-.7-.86-1.78-1.46-2.33-2.39-.68-1.15-1.14-2.49-1.35-3.81-.06-.35,1.19-.87,1.77-1.38.74-.65,1.41-1.37,2.11-2.06.23-.23.4-.62.67-.7,1.09-.35,1.97-.43.68-1.88-.64-.72-.26-2.29-.5-3.44-.42-2.07-1.3-4.11-1.33-6.18-.03-1.72-.9-2.52-1.81-3.64-.75-.92-.86-2.35-1.57-3.32-1.02-1.4,0-3.53-1.89-4.64-.41-.24-.51-1.74-.18-2.33.89-1.6.05-2.1-1.18-2.64-.53-.24-1.38-.73-1.35-1.05.05-.72.38-1.63.91-2.06,1.98-1.6,2.41-3.91,1-6-.3-.44-.33-1.07-.46-1.62-.03-.12.1-.31.04-.39-.97-1.46-1.99-2.89-2.92-4.37-.34-.55-.52-1.22-.7-1.86-.12-.41.03-.95-.18-1.27-.55-.85-.84-1.54.35-2.08.16-.08.31-.49.26-.69-.42-1.49-.96-2.95-1.35-4.45-.62-2.4-1.26-4.81-1.69-7.25-.26-1.48.21-3.17-.33-4.49-.39-.97-1.89-1.49-2.87-2.25-.41-.32-.77-.71-1.15-1.07.55-.25,1.08-.63,1.66-.73.66-.11,1.37-.03,2.04.08,1.75.28,3.17.21,3.6-2.02.11-.56,1.03-1.02,1.66-1.39.92-.55,1.94-.94,2.85-1.51.2-.13.24-.84.09-1.15-.82-1.73-.32-2.71,1.57-2.6,1.85.11,2.41-.44,1.6-2.15-.06-.12-.13-.3-.09-.39,1.21-2.55.82-5.95,4.03-7.45,1.43-.67,2.62.21,2.95,2.45.25,1.71.55,3.45.4,5.14-.06.61-1.37,1.11-2.12,1.64-.77.54-1.56,1.04-2.35,1.56.94.13,1.88.29,2.82.38.86.09,1.72.13,2.58.15.76.01,1.94.42,1.25-1.18-.03-.07.77-.68.9-.6,2.13,1.33,4.37,1.03,6.65.61.62-.11,1.29,0,1.93.09,2.78.4,5.55.84,8.32,1.27.63.1,1.25.25,1.88.3.44.04,1.13.13,1.27-.09.28-.42.51-1.22.29-1.55-.82-1.24-1.76-2.43-2.78-3.52-1.93-2.06-4.04-3.96-5.86-6.1-.48-.57-.55-1.92-.22-2.65.58-1.29,1.71-1.48,2.81-.35,3.87,3.95,8.01,7.68,10.31,12.91.29.65,1.26,1.23,2.02,1.4,1.65.38,3.37.48,5.07.7.27.03.66,0,.78.16.58.75.92,1.88,1.66,2.27,1.33.7,1.06,1.63.65,2.5-.63,1.33.54,1.99.8,2.98.13.49-.01,1.43-.32,1.59-1.99,1.01-4.09,1.8-6.1,2.78-1.32.65-3.08.95-3.06,3.02,0,.34-.33.73-.25,1.02,1.35,4.54,2.72,9.07,4.14,13.59.31.98,1.69.77,2.59-.23.39-.43,1.24-.96,1.58-.8.91.44,2.41.26,2.23,2.16-.17,1.74,1.38,1.06,2.03.74,1.55-.75,2.82-1.52,2.7,1.24-.01.27.53.55.77.86.33.44.61.92.91,1.39-.4.2-.8.4-1.2.6-.23.12-.46.23-.69.35.16.24.32.48.47.72.32.52.96,1.08.91,1.55-.19,1.61.91,3.66-1.52,4.59-1.95.75-3.91,1.55-5.71,2.6-.57.33-1,1.64-.83,2.33.37,1.49.19,2.45-1.27,3.12-1.38.64-1.23,1.41-.37,2.58.48.65.57,1.99.23,2.75-.54,1.21-.68,2.06.35,3.02,1.13,1.05.97,2.25.18,3.45-.4.61-.82,1.13.46,1.39.48.1,1.22,1.4,1.04,1.82-.88,2.04.24,3.51,1.44,4.61,1.93,1.77,1.17,4.19,1.99,6.18.32.78.63,1.57.94,2.36.03.08.13.16.14.23.01,2.6.77,5.52-.18,7.71-1.1,2.56-2.96,5.19-5.91,6.39-2.61,1.07-5.24,2.09-7.83,3.19-.17.07-.26.63-.18.91.21.79.78,1.58.69,2.31-.04.33-1.34.43-1.96.81-.67.41-1.23,1.02-1.79,1.6-.05.05.23.62.42.66.24.05.8-.21.79-.3-.24-2.5,1.69-1.2,2.58-1.36,1.39-.24,2.86-.02,4.28-.08.36-.02.82-.26,1.06-.54,1.33-1.59,2.9-2.55,5.02-3,1.52-.32,2.6-.54,3.99.47,1.59,1.15,3.61,1.7,5.27,2.77,1.69,1.09,2.11,2.69,1.81,4.82-.16,1.15.89,2.63,1.71,3.72,1.44,1.9,1.57,3.07.15,4.92-.25.33-.3.82-.44,1.24.34.03.69.11,1.02.07,1.13-.14,2.27,1.24,1.65,2.21-.99,1.54-.05,1.98,1.08,2.52.4.19.7.58,1.05.88-.4.27-.84.49-1.17.83-.24.24-.37.63-.46.97-.09.32-.09.67-.07,1.01.02.3.09.61.19.9.09.27.28.5.38.76.67,1.69,1.25,3.42,2.05,5.04.26.52,1.12.75,1.4.92ZM267.13,192.93c-1.47-1.02-2.57-2.34-3.26-2.15-1.45.4-2.2,0-3.05-.97-.26-.29-.85-.41-1.28-.38-.24.02-.45.49-.68.76.37.29.72.62,1.12.86.26.16.62.16.91.28.52.21,1.02.46,1.52.69-.27.43-.57.85-.8,1.3-.17.34-.24.73-.36,1.09.32.02.65.11.95.06.98-.15,1.97-.32,2.94-.55.44-.11.83-.4,1.99-.99ZM276.06,211.87c-.55.72-1.22,1.21-1.24,1.72-.02.59.54,1.2.85,1.81.87-.67,1.73-1.33,2.6-2-.64-.45-1.29-.89-2.22-1.53ZM252.13,172.19c.18-.08.74-.34,1.29-.59-1.17-.42-2.33-.89-3.54-1.21-.15-.04-.52.75-.79,1.15.4.16.79.38,1.21.48.43.1.89.09,1.83.16ZM257.79,185.42c-.08-.14-.16-.27-.23-.41-.46.21-.93.39-1.36.65-.05.03.09.61.22.65.57.17,1.21.39,1.75.27.59-.12,1.14-.55,1.65-.93.37-.28.67-.68.94-1.07.04-.06-.33-.54-.44-.52-.45.12-.9.32-1.31.55-.43.24-.82.54-1.22.82ZM251.5,165.43c-.69.54-1.21.97-1.75,1.39-.27.21-.57.4-.85.59.51.23,1.02.62,1.54.63.5.01,1.05-.31,1.49-.6.36-.24.6-.67.89-1.02-.39-.29-.77-.59-1.31-.99ZM320.7,219.63c-.49.67-.97,1.11-.89,1.25.46.85,1.03,1.64,1.64,2.39.04.05.73-.43,1.12-.66-.55-.88-1.11-1.77-1.86-2.98ZM260.6,176.07c-.67.62-1.09,1.02-1.52,1.42.56.41,1.09,1.07,1.69,1.15.46.06,1.03-.6,1.55-.95-.49-.47-.99-.93-1.72-1.63ZM274.17,217.53c-.71-1.43-1.11-2.33-1.63-3.15-.09-.14-.71.06-1.08.1.32.94.61,1.9.99,2.82.11.26.5.56.76.56.39,0,.78-.26.96-.33ZM211.43,37.02c.72-.29,1.25-.5,1.78-.71-.58-.54-1.15-1.09-1.73-1.63-.36.52-.77,1.01-1.01,1.57-.04.1.61.5.96.77ZM236.64,24.81c-.64-.48-1.01-.99-1.36-.97-.39.02-1.09.62-1.04.8.14.52.59.95.91,1.42.4-.34.8-.67,1.49-1.25ZM266.59,215.33c-.82-.34-1.25-.67-1.63-.63-.35.04-.66.48-.99.74.36.27.71.74,1.09.76.37.02.77-.41,1.54-.87ZM257.6,208.82c-.78-.35-1.17-.68-1.53-.65-.36.03-.69.42-1.04.66.31.25.62.7.94.71.41.01.82-.34,1.63-.72ZM249.75,57.4c-.49.52-.91.8-1.06,1.18-.07.17.4.55.62.84.35-.34.75-.64,1.01-1.03.07-.11-.27-.49-.57-.99ZM326.58,209.52c.54-.17.9-.29,1.27-.41-.49-.25-.96-.6-1.48-.71-.26-.06-.61.32-.91.49.39.22.79.44,1.12.63ZM248.18,131.62c-.31.24-.54.42-.77.6.3.28.59.77.91.79.33.03.7-.39,1.06-.62-.36-.23-.71-.47-1.2-.78ZM269.55,218.07c-.27-.16-.52-.39-.6-.34-.62.39-1.21.84-1.8,1.26.09.12.26.37.27.36.68-.39,1.34-.8,2.13-1.28ZM274.81,194.67c.5-.37.95-.71,1.4-1.05-.23-.09-.53-.32-.68-.24-.45.22-.85.56-1.27.86.16.12.31.25.55.43ZM319.1,125.59c-.65-.21-1.06-.41-1.48-.44-.21-.02-.44.29-.66.45.32.17.64.45.98.47.3.02.62-.24,1.16-.47Z"/>
      <path class="cls-1" d="M267.15,19.3c2.91-.58,5.8-1.3,8.73-1.68,1.22-.16,2.52.4,3.79.59,1.06.16,2.12.3,3.19.34.24,0,.49-.44.74-.68-.28-.23-.59-.43-.84-.69-.89-.94-1.88-1.82-2.54-2.9-.15-.24.78-1.45,1.43-1.79,1.49-.78,3.28-1.07,4.66-1.98,1.79-1.18,3.79-1.17,5.67-1.76,1.14-.36,1.96-1.71,2.96-2.58.22-.2.6-.21.9-.33,2.28-.9,3.73.19,4.63,2.13.56,1.21.86,2.57,1.09,3.89.04.22-.85.86-1.3.85-1.26-.04-1.86.25-2.76,1.41-1.1,1.42-3.24,2.18-5.07,2.84-2.03.74-4.23,1.01-6.33,1.58-.3.08-.73.89-.62,1.1.3.55.81,1.24,1.34,1.35,1.05.22,2.17.09,3.26.1-.07-1.53,1.15-1.22,1.88-1.1,1.86.32,3.82.59,5.49,1.39,1.34.64,1.5.98,2.38-.69.64-1.21,3.02-1.53,4.66-2.16,1.66-.63,2.06,1.01,2.98,1.73.14.11.68.01.74-.12.16-.36.17-.8.22-1.2.24-2.15,1.16-2.65,3.13-1.66,1.54.77,3.06,1.59,4.59,2.37.15.08.44.18.48.13,1.38-1.74,4.08-.47,5.41-2.36.1-.14.59.03.89-.01,1.11-.13,2.2-.35,3.31-.42.83-.05,1.72-.07,2.51.15,1.75.5,3.75.06,5.21,1.82.55.66,2.18,1.96,3.12-.37.25-.62,1.75-.92,2.71-1.02,2.64-.25,3.4.51,4.32,2.9.27.69,1.67.95,2.55,1.4,1.78.91,3.61,1.74,5.32,2.76.53.32.74,1.16,1.1,1.75-.6.2-1.22.61-1.8.57-2.62-.21-5.23-.56-7.84-.83-.95-.1-1.52.03-1.64,1.35-.08.93-.95,1.98-1.76,2.61-1.13.88-2.54,1.39-3.8,2.11-.31.18-.5.58-.74.87.39-.06.79-.07,1.15-.2,1.52-.55,3.01-1.18,4.54-1.7,1.13-.39,2.28-.57,2.88.88.64,1.54-.69,1.81-1.54,2.4-2.34,1.63-4.67,3.27-7.01,4.9-.78.54-1.5,1.2-2.35,1.57-.26.11-1.1-.46-1.25-.87-.95-2.58-.87-2.48-3.41-1.62-2.85.97-5.78,1.68-8.66,2.58-.24.07-.47.98-.43,1.01,1.37.78,2.8,1.48,4.18,2.24.69.38,1.34.84,1.99,1.29.18.12.25.38.42.51,1.83,1.44,1.74,1.45-.16,3.02-1.38,1.14-2.53,2.56-3.7,3.93-1.18,1.38-2.34,2.46-4.43,1.95-.77-.19-1.71.41-2.59.56-.46.08-1.2.16-1.38-.09-.68-.92-1.2-1.97-1.72-2.99,0-.02.65-.33.94-.57.34-.27.62-.61.92-.92-.29-.16-.57-.38-.88-.45-.94-.23-2.01-.2-2.81-.66-1-.58-2.09-1.4-2.57-2.4-.46-.94.83-2.38-.59-3.33-.05-.03-.02-.32.06-.38,1.45-1.1,2.89-2.19,4.37-3.24.3-.21.7-.28,1.05-.41-.35-.15-.69-.4-1.06-.45-2.64-.34-5.62-3.58-5.43-6.24.1-1.45.31-3.08,2.41-3.26.46-.04.88-.63,1.31-.97-.43-.23-.85-.63-1.3-.67-1.45-.14-2.9-.14-4.36-.2,0,.77-.14,1.56,0,2.29.2,1.03.85,2.01.85,3.02,0,2.09.13,4.34-.6,6.21-.53,1.38-.61,1.97.54,2.76.12.08-.02.87-.26,1.11-1.74,1.74-1.83,2.87-.76,5.22.28.62-.34,1.61-.42,2.44-.04.44.06,1.2.3,1.3,1.37.56,1.16,1.21.42,2.18-.25.33-.26,1.18,0,1.49,1.78,2.17,2.44,4.66,2.5,7.4,0,.28.31.81.47.8,1.36-.04,1.62.79,1.57,1.88-.02.55.04,1.19-.22,1.61-1.68,2.71-.29,5.17.6,7.64.12.34.8.77,1.12.7,2.33-.48,4.62-1.03,6.26,1.46.12.18.5.17.74.3.22.12.41.3.61.45-.23.17-.46.49-.68.49-1.45,0-2.9,0-4.34-.14-2.1-.21-2.36.19-1.85,2.21.28,1.13,0,2.4.02,3.61.01,1.08.11,2.16.12,3.24,0,.53.09,1.27-.21,1.56-1.84,1.77-.99,3.91-.99,5.94,0,1.08-.18,2.15-.21,3.23,0,.29.22.59.34.89.1-.27.16-.57.3-.81.28-.48.66-1.37.91-1.34.96.11,1.94.43,2.8.87.24.13.23.99.14,1.47-.17.88-1.63,2.1.7,2.16-.03.29.06.71-.1.86-2.13,2.07-2.12,4.84-2.67,7.47-.12.55-1.38,1.12-2.16,1.19-.52.05-1.55-.72-1.6-1.21-.16-1.51.06-3.06.08-4.59,0-.43-.16-.86-.25-1.29-.34.24-.76.42-1,.74-.94,1.22-1.82,2.48-2.75,3.72-.24.33-.49.69-.82.9-3.53,2.2-6.94,4.67-10.68,6.45-2.39,1.14-5.24,1.42-7.93,1.75-2.04.25-4.14-.01-6.21-.05-.09,0-.23,0-.26.04-1.12,2.03-2.29.12-3.43.04-.21-.01-.57-.15-.6-.29-.48-2.37-2.41-2.14-4.13-2.54-.9-.21-1.56-1.34-2.45-1.8-2.1-1.07-4.35-1.88-6.42-3.01-1.19-.65-1.89-2.47-3.69-1.19-.27-.43-.74-.85-.77-1.31-.16-2.26-.81-4.66,1.38-6.43.13-.1.26-.43.22-.46-1.31-1.19-.27-2.47-.15-3.7.16-1.73.39-3.45.61-5.18.1-.76.18-1.53.39-2.26.25-.88.64-1.71.92-2.58.13-.4.19-.82.22-1.24.05-.81.06-1.62.06-2.44,0-.99-.22-2.03,0-2.97.21-.94.76-1.84,1.31-2.65.34-.49.97-.79,1.47-1.18-.45-.24-.87-.56-1.34-.71-2.04-.64-2.53-1.69-1.55-3.75.67-1.42.53-3.2,1.09-4.69.3-.81,1.23-1.49,2.03-1.98.7-.44,1.64-.49,2.42-.84.22-.1.45-.75.33-.93-1-1.59-1.29-3.72-3.75-4.17-1.54-.28-3.07-4.89-2.23-6.29.22-.36.91-.42,1.36-.67.57-.32,1.1-.7,1.65-1.06-.33-.45-.59-.97-.99-1.35-2.76-2.6-6.53-1.87-9.75-2.96-.57-.19-1.08-.56-1.61-.85.58-.25,1.14-.52,1.73-.73.64-.22,1.37-.26,1.94-.58,1.61-.92,3.13-1.36,4.71.04.81.72,1.31.7,1.37-.62.06-1.33.68-1.71,1.89-.84.29.21.86.02,1.3,0-.2-.32-.34-.72-.62-.95-.89-.74-1.8-1.49-2.78-2.1-.63-.39-1.39-.72-2.11-.77-2.51-.16-3.38-.86-3.68-3.33-.3-2.44-.56-4.88-.74-7.34-.03-.41.42-.89.71-1.29.58-.79,1.25-1.52,1.81-2.33,1.08-1.55,1.78-3.61,3.23-4.58,2.03-1.36,4.6-1.92,6.94-2.82.11.34.21.69.32,1.03ZM267.93,21.42c-.64-.38-1.07-.75-1.18-.67-.59.42-1.11.95-1.65,1.45.18.12.42.38.53.34.67-.28,1.32-.62,2.3-1.11Z"/>
      <path class="cls-1" d="M181.96,122c4.82,1.6,9.73,2.55,13.4,6.24,1.37,1.38,2.8,2.78,3.79,4.42.58.96.29,2.43.5,3.65.05.27.57.68.85.66.88-.08,1.61-.17,1.46,1.1,0,.08.58.26.91.34.56.15,1.12.25,1.68.38-.42.39-.84.79-1.27,1.18-.98.9-3.04-1.22-3.42,1.14-.21,1.31.07,2.69-.1,4.01-.19,1.48-.88,2.92-.93,4.39-.1,3.2-.06,6.43.24,9.61.06.62,1.58,1.1,2.43,1.62.22.13.49.17.74.25-.16.19-.29.45-.49.54-1.06.52-1.2,1.21-1.05,2.41.44,3.52.7,7.06.82,10.6.04,1.22-.66,2.45-.8,3.7-.21,1.84-.22,3.71-.33,5.56-.04.76.14,1.68-.23,2.24-.82,1.26.1,2.18.22,3.26.22,1.96.49,4.22-.28,5.89-.6,1.3-2.73,1.9-4.2,2.8-.38.24-.85.37-1.18.66-.49.43-.88.97-1.32,1.46.85.58,1.66,1.5,2.58,1.63.85.12,1.8-.67,2.74-.93.48-.13,1.48-.07,1.51.05.28,1.44.46,2.9.58,4.36.06.67-.27,1.43-.05,2.01.67,1.78.27,3.16-1.37,4.06-.32.18-.6.45-.9.68.33.23.69.44,1,.7.71.6,1.52,1.13,2.04,1.87.29.41.22,1.2.08,1.77-.5,1.96-1.09,3.9-1.65,5.85-.16.56-.17,1.29-.53,1.66-2.11,2.21-4.31,4.34-6.48,6.49-.16.16-.4.23-.57.38-3,2.59-6.07,5.09-8.97,7.79-2.8,2.62-6.6,3.19-10.24,1.4-.48-.23-1.52-.08-1.85.29-1.51,1.71-3.2.8-4.86.57-.35-.05-.72-.1-1.05-.02-3.01.72-7.44-1.61-8.44-4.53-.71-2.07-2.13-3.3-4.19-3.87-1.13-.32-3.05-3.51-3.07-4.93,0-.6-.3-1.19-.43-1.79-.16-.75-.54-1.57-.37-2.25.32-1.2.81-2.29-.32-3.32-.12-.11.03-.51.07-.77.24-1.7.88-3.45.63-5.07-.3-1.93.13-3.34,1.26-4.79.39-.49.51-1.33.46-1.99-.13-1.86-.88-3.81-.47-5.52.32-1.36,1.85-2.55,3.07-3.56.9-.75,2.24-.96,1.45-2.64-.17-.36.08-1.25.41-1.46,1.17-.76,2.47-1.34,3.71-1.99.3-.15.58-.34.86-.51-.33-.2-.66-.55-1-.56-1.41-.04-2.82.07-4.22.03-1.22-.03-2.45-.11-3.64-.35-.32-.07-.56-.8-.71-1.26-.15-.45-.03-1-.23-1.41-1.48-3.04-1.06-3.84,2.25-4.23.27-.03.53-.19.8-.29-.25-.08-.49-.18-.74-.23-1.4-.31-2.21-.69-1.03-2.33.71-.99.66-2.28-1.15-2.36-1.57-.08-2.3-.71-1.96-2.43.18-.9-.3-1.93-.13-2.84.71-3.84,1.54-7.65,2.39-11.46.07-.32.61-.69.99-.77,1.51-.33,3.06-.51,4.57-.85.38-.08.67-.55,1-.84-.28-.31-.57-.61-.82-.95-.29-.38-.52-.8-.8-1.19-.56-.77-1.12-1.53-1.69-2.28-.53-.7-1.09-1.37-1.6-2.07-.26-.35-.55-.73-.64-1.14-.16-.74-.17-1.5-.25-2.26-.12-1.13-.36-2.25-.33-3.38.06-2.46.27-4.91.38-7.37.04-.97-.05-1.94-.02-2.91.02-.65-.07-1.72.23-1.86,1.47-.69.95-1.7.69-2.72-.22-.88-.46-1.45.84-2.06,1.71-.79,2.99-2.47,4.62-3.49,1.37-.85,2.96-1.34,4.5-1.9.63-.23,1.38-.11,2.02-.32,1.98-.65,3.12.03,3.57,2.03.24,1.06.86,1.37,1.79.71,1.39-.98,2.58-1.05,3.97.19.61.55,1.81.45,2.75.59.15.02.48-.26.5-.43.15-1.1-.17-2.8.42-3.2,1.29-.87,3.02-1.07,4.6-1.56ZM176.89,201.42c.79-.44,1.32-.73,1.84-1.02-.96-.71-1.93-1.41-2.89-2.12-.35.58-1.12,1.47-.96,1.7.43.61,1.26.95,2.01,1.44ZM178.83,224.55c.88-.61,1.54-1.08,2.2-1.54-.58-.31-1.19-.92-1.72-.86-.57.07-1.07.76-1.6,1.18.3.33.6.66,1.12,1.22ZM178.98,193.29c-.72.65-1.25,1.13-1.78,1.61.39.29.88.89,1.15.81.6-.19,1.09-.73,1.62-1.13-.27-.35-.54-.69-1-1.28ZM187.99,194.83c.56-.41.99-.73,1.43-1.05-.45-.27-.9-.76-1.34-.74-.46.02-.9.52-1.36.81.38.29.75.58,1.27.98ZM171,191.92c.66.47,1.02.94,1.39.94.35,0,.72-.47,1.07-.73-.35-.3-.66-.76-1.06-.86-.3-.08-.71.31-1.41.65ZM165.89,194.36c.46-.64.83-1.14,1.16-1.66.01-.02-.46-.43-.51-.39-.51.39-.99.83-1.47,1.25.2.19.4.38.83.79ZM193.42,194.99c-.64-.28-1.01-.57-1.36-.54-.25.02-.48.45-.71.7.32.25.63.64.97.69.25.03.56-.41,1.1-.85ZM186.27,209.97c.71-.22,1.33-.41,1.94-.6-.29-.14-.6-.44-.86-.39-.54.09-1.05.35-1.57.55.16.15.32.3.48.44ZM172.74,177.57c.39-.28.72-.52,1.04-.76-.22-.1-.46-.32-.65-.29-.45.08-.88.28-1.31.44.27.18.54.36.92.61ZM186.31,139.26c-.49-.24-.73-.46-.9-.41-.39.12-.73.37-1.1.57.15.17.35.52.46.49.44-.12.86-.34,1.54-.64ZM190.51,189.24c-.8-.2-1.13-.37-1.41-.32-.29.06-.54.34-.81.52.3.14.59.4.89.4.29,0,.58-.24,1.33-.6Z"/>
      <path class="cls-1" d="M336.85,104.01c.57.72,1.05,1.53,1.73,2.12,1.07.93,1.03,2.36-.13,3.19-1.02.73-1.85,1.82-2.96,2.29-.66.28-1.95-.09-2.53-.62-2.4-2.2-4.07-5.28-7.58-6.11-.42-.1-.99-.3-1.27-.11-1.41.95-1.36-.08-1.82-1.01-1.2-2.43-2.51-4.82-4.04-7.05-.83-1.21-.24-1.58.57-2.11-.41-.57-.83-1.15-1.24-1.72,1.05-.36,2.09-.94,3.16-1.02,1.07-.07,2.29.14,3.25.62,1.28.64,2.32,1.73,3.57,2.46.65.38,1.52.4,2.29.59.99.24,2.21.21,2.92.79,2.33,1.89,4.47,4,4.09,7.7Z"/>
      <path class="cls-1" d="M267.09,3.45c-.15,2.21.31,4.41-2.75,4.07-.48-.05-1.14.42-1.54.82-1.6,1.66-3.84,1.65-5.3.73-1.56-.98-3.26-1.03-4.73-1.83-.36-.2-.62-1.03-.55-1.52.23-1.52-.63-1.98-1.84-2.36-.52-.17-.92-.71-1.37-1.08.44-.24.88-.49,1.32-.72.23-.12.49-.2.73-.31,1.43-.65,2.25-.07,2.41,1.58.03.28.71.79.96.72,2.6-.7,5.17-1.5,7.74-2.27,2.24-.67,4.89.73,4.92,2.18Z"/>
      <path class="cls-1" d="M338.77,78.54c-2.81-.41-4.85-.54-6.79-1.08-.73-.2-1.25-1.3-1.76-2.06-.62-.93-1.17-1.92-1.67-2.93-.49-1-1.09-2.04-1.2-3.1-.04-.39,1.14-1,1.85-1.33.26-.12.77.26,1.16.42,1.04.43,2.06.89,3.11,1.3,1.25.49,2.51.96,3.78,1.4.79.28,1.6.5,2.41.72.7.19,1.45.26,2.1.55,1.53.66,2.1,1.65.65,2.97-1.33,1.21-2.72,2.34-3.66,3.14Z"/>
      <path class="cls-1" d="M343.96,94.83c-2.15-1.33-4.58-2.37-6.38-4.07-1.46-1.39.91-1.78,1.52-2.63.47-.66,1-1.31,1.64-1.8.65-.5,1.43-.92,2.22-1.13.27-.07.69.72,1.13.94.62.31,1.36.71,2,.63,1.94-.25,3.85-.77,5.79-1.03.38-.05,1.25.7,1.2.88-.23.78-.61,1.98-1.14,2.1-1.27.28-1.44,1.16-2.06,1.99-.93,1.25-2.38,2.15-3.69,3.07-.53.37-1.28.42-1.93.61-.1.15-.2.3-.3.45Z"/>
      <path class="cls-1" d="M64.28,112.97c-2.44.29-4.88.58-7.32.88-.32.04-.67.28-.92.2-.98-.32-1.94-.74-2.9-1.12.56-.69,1.09-1.4,1.69-2.05.26-.28.66-.46,1.01-.64,1.57-.81,3.08-1.88,4.75-2.33,2.1-.57,5.9,1.97,6.64,4.13.08.22-.28.83-.52.88-.78.17-1.59.16-2.39.22,0-.05-.01-.11-.02-.16Z"/>
      <path class="cls-1" d="M139.56,167c.86-.55,1.66-1.23,2.6-1.59.27-.1.92.68,1.34,1.1.18.18.19.52.35.73.63.85,1.8,1.71.42,2.72-1.25.91-2.63,1.57-4.23.41-.49-.36-1.35-.34-2.03-.29-1.63.12-2.66-.6-3.57-1.91-1.11-1.59-2.53-2.96-3.64-4.55-.35-.51-.13-1.41-.17-2.13.6.06,1.35-.09,1.77.22,2.17,1.63,4.27,3.38,6.37,5.11.22.18.31.54.42.83.15.41.26.84.39,1.26.14-.45.29-.91.43-1.36-.15-.18-.3-.37-.45-.55Z"/>
      <path class="cls-1" d="M323.34,89.39c-3.55-.85-7.1-1.68-10.64-2.57-.32-.08-.82-.68-.77-.76.45-.74.89-1.85,1.56-2.03,1.16-.32,2.48-.01,3.73-.06.91-.03,1.82-.21,2.72-.33.09-.01.19-.1.25-.07,1.42.6,2.85,1.19,4.24,1.85.48.23.88.63,1.27,1,.42.4.78.87,1.16,1.3-.55.4-1.06.94-1.68,1.17-.52.2-1.17.04-1.76.04-.03.15-.06.3-.09.45Z"/>
      <path class="cls-1" d="M266.03,14.51c.02,1.62-1.93,3.87-3.54,4.15-.48.08-.91.4-1.39.5-.51.1-1.06.13-1.58.09-.8-.07-1.6-.23-2.4-.37-.33-.06-.65-.17-.98-.26.14-.35.17-.85.42-1.02,2.44-1.62,4.9-3.23,7.41-4.75,1-.61,2.04.29,2.06,1.65Z"/>
      <path class="cls-1" d="M213.82,175.7c-1.46-.33-2.88-.6-4.26-1.01-.38-.12-.85-.66-.88-1.04-.02-.37.39-.89.75-1.13,1.77-1.18,3.64-1.63,5.34.02.62.6.88,1.57,1.3,2.37-.73.26-1.45.52-2.25.8Z"/>
      <path class="cls-1" d="M210.89,145.47s-.34-.06-.65-.11c.14-.26.23-.58.44-.78.41-.4.86-1,1.34-1.05,1.84-.19,2.6-1.45,3.26-2.89.53-1.16,1.03-2.33,1.62-3.45.2-.38.67-.63,1.02-.94.27.44.76.88.78,1.33.14,2.82-4.78,7.9-7.82,7.88Z"/>
      <path class="cls-1" d="M54.46,19.27c1.51-1,2.6-1.72,3.69-2.44.52.99,1.41,1.96,1.48,2.98.13,1.73-1.69,1.69-2.71,1.73-.63.03-1.32-1.16-2.46-2.28Z"/>
      <path class="cls-1" d="M251.33,23.17c-1.12-.19-1.96-.33-2.8-.47.72-.36,1.42-.76,2.16-1.08.99-.42,2-.82,3.02-1.14.19-.06.59.2.73.42.09.14-.06.6-.23.7-.97.58-1.99,1.09-2.88,1.57Z"/>
      <path class="cls-1" d="M316.85,3.82c-.88-.81-1.33-1.22-1.78-1.63.71-.54,1.36-1.24,2.15-1.55.32-.13.96.58,1.46.91-.54.67-1.07,1.33-1.83,2.27Z"/>
      <path class="cls-1" d="M312.69,73.27c-.9.69-1.46,1.47-2.06,1.49-.55.02-1.13-.76-1.69-1.19.76-.49,1.48-1.07,2.29-1.42.2-.09.71.53,1.46,1.12Z"/>
      <path class="cls-1" d="M151.23,20.12c-.95.59-1.58,1.24-1.9,1.12-.85-.34-1.56-1.01-2.33-1.55.65-.29,1.31-.84,1.94-.81.62.03,1.22.63,2.28,1.24Z"/>
      <path class="cls-1" d="M193.82,14.68c.62,1.53,1.04,2.43,1.31,3.38.05.18-.53.53-.82.8-.48-.58-1.18-1.1-1.37-1.77-.14-.49.39-1.16.87-2.41Z"/>
      <path class="cls-1" d="M346.83,18.64c-.39-.27-.73-.52-1.08-.76.24-.33.44-.69.73-.97.22-.21.57-.47.82-.43.61.09,1.2.34,1.79.53-.29.31-.55.66-.89.91-.39.28-.85.46-1.37.73Z"/>
      <path class="cls-1" d="M338.48,15.16c-.67.47-1.11.99-1.62,1.07-.31.05-.73-.59-1.1-.91.56-.45,1.11-.93,1.71-1.31.05-.03.49.55,1,1.16Z"/>
      <path class="cls-1" d="M257.39,21.84c-.85-.93-1.11-1.23-1.38-1.53.51-.4.98-.88,1.55-1.14.19-.09.96.52.93.6-.25.64-.63,1.23-1.09,2.06Z"/>
      <path class="cls-1" d="M204.12,88.84c.43.4.71.67.99.93-.31.25-.62.69-.94.7-.33.01-.67-.4-1-.63.27-.29.54-.57.95-1.01Z"/>
      <path class="cls-1" d="M185.25,18.89c-.49.46-.72.67-.95.88-.4-.45-.81-.9-1.17-1.38-.03-.04.34-.49.39-.46.51.24.99.54,1.72.96Z"/>
      <path class="cls-1" d="M204.79,96.76c-.76.41-1.31.75-1.9.99-.1.04-.38-.36-.57-.56.59-.32,1.17-.66,1.78-.95.07-.04.28.2.69.52Z"/>
      <path class="cls-1" d="M193.56,55.03c.45.27.82.49,1.19.72-.29.14-.6.43-.87.4-.5-.07-.97-.32-1.45-.5.34-.19.68-.37,1.13-.62Z"/>
      <path class="cls-1" d="M287.79,144.47c-.73.53-1.15.88-1.62,1.14-.09.05-.36-.24-.55-.37.36-.41.7-.85,1.11-1.2.09-.08.46.17,1.06.42Z"/>
      <path class="cls-1" d="M82.62,11.59c-.45.49-.77.84-1.08,1.18-.2-.2-.6-.51-.56-.59.2-.41.5-.77.82-1.1.04-.04.42.26.82.52Z"/>
      <path class="cls-1" d="M290.8.96c-.48.23-.85.55-1,.46-.3-.17-.56-.53-.64-.86-.03-.13.53-.61.68-.55.31.12.52.49.97.95Z"/>
      <path class="cls-1" d="M194.9,94.45c.26.41.56.78.52.82-.26.26-.57.5-.91.64-.08.03-.49-.41-.47-.46.19-.31.46-.56.85-1Z"/>
      <path class="cls-1" d="M252.15,17.93c.37.55.71.83.68,1.08-.02.27-.38.51-.59.76-.17-.27-.43-.51-.49-.8-.04-.21.17-.48.4-1.03Z"/>
    </g>
  </g>
</svg>