<?xml version="1.0" encoding="UTF-8"?>
<svg id="Layer_2" data-name="Layer 2" xmlns="http://www.w3.org/2000/svg" viewBox="0 0 288 288">
  <defs>
    <style>
      .cls-1 {
        fill: none;
      }

      .cls-1, .cls-2 {
        stroke-width: 0px;
      }

      .cls-2 {
        fill: #eee;
      }
    </style>
  </defs>
  <g id="Layer_1-2" data-name="Layer 1">
    <g>
      <g>
        <path class="cls-2" d="M102.01,173.79c-.06,1.22,0,2.23,1.14,3.2.8.68.99,2.11,1.37,3.23.07.21-.15.68-.36.79-1.57.8-.45,1.28.15,1.9.55.56,1,1.23,1.53,1.81.4.44.83.88,1.31,1.23,1.59,1.15,1.95,3.19.46,4.32-.1.08.12.95.33,1.01,1.25.39,1.46.9.95,2.2-.46,1.17-.4,2.58-.44,3.88-.04,1.07.26,2.16.11,3.2-.08.54-.86.94-1.25,1.47-.41.55-.75,1.15-1.04,1.77-.03.07.63.35.68.58.22,1.11.33,2.25.48,3.37,0,.03-.03.06-.05.09-1.34,1.86-1.88,3.91-1.85,6.22.01.8-.63,1.63-1.03,2.41-.06.11-.43.09-.66.08-.48-.02-.95-.07-1.42-.1.02.67-.02,1.34.08,1.99.07.5.54,1.33.42,1.41-.79.54-1.69.93-2.56,1.34-.55.26-1.12.47-1.67.73-.9.44-1.76,1.01-2.7,1.33-3.35,1.13-6.6,1.81-10.18.27-2.26-.98-2.36-2.61-2.56-4.38-.12-1.05-.39-1.5-1.48-1.33-1.77.27-3.08-.85-4.52-1.56-1.04-.51-1.33.13-1.55.91-.16.56-.13,1.24-.44,1.69-.35.5-1.17,1.24-1.45,1.12-.78-.35-2.28-.06-2.08-1.69.03-.22-.15-.55-.34-.71-.9-.78-.77-1.71.09-2.47,1.09-.96,2.06-2.07,2.96-3.21.19-.23-.01-1.16-.27-1.29-1.18-.58-.87-1.6-.39-2.13,1-1.1.1-1.26-.56-1.39-.83-.16-.81-.69-1.11-1.3-.94-1.9-1.07-4.4-3.65-5.29-.34-.12-.4-1.67-.22-2.48.28-1.29.93-2.49,1.31-3.76.11-.37-.07-1.13-.31-1.22-.37-.15-1.01-.01-1.35.24-1.09.81-2.01.75-3.21.06-1.83-1.06-3.78-1.95-5.77-2.66-1.4-.5-1.8-1.55-2.22-2.7-.37-1.01-2.32-2.29-3.38-2.21-.75.06-1.43,2.09-.94,2.87.74,1.15.96,2.18.15,3.52-.49.81-.27,2.04-.42,3.07-.08.56-.22,1.56-.38,1.57-.67.05-1.38-.19-2.05-.37-.26-.07-.48-.41-.72-.41-.75.02-1.5.14-2.26.22.45.71.76,1.6,1.38,2.08.67.51,1.72.51,2.45.97.61.38,1.43,1.14,1.39,1.68-.06.87-.53,2.02-1.22,2.47-1.09.71-2.49.94-3.76,1.38-.16.05-.3.14-.46.21.1.13.17.32.3.37.9.33,1.78.75,2.71.92,1.1.2,2.09,1.9,1.77,3.46-.22,1.06-.66,2.08-.84,3.14-.36,2.2-1.89,3.48-3.61,4.5-2.75,1.64-5.53,3.25-8.44,4.57-1.25.57-2.84.5-4.27.47-.53-.01-1.01-.8-1.57-1.14-2.33-1.39-4.7-2.47-7.58-2.1-1.05.13-2.31-.28-3.28-.81-1.73-.94-3.45-1.38-5.4-1.09-2.01.3-3.23-.52-4.04-2.39-.48-1.12-1.15-2.15-1.7-3.24-.12-.24-.27-.62-.17-.82.77-1.57.74-3.24.83-4.93.07-1.37.42-2.73.73-4.07.37-1.58.57-3.29,1.35-4.66.55-.96,1.96-1.42,2.95-2.15.19-.14.38-.62.29-.76-1.01-1.57-.2-4.33,1.54-5.02.83-.33,1.68-.62,2.52-.92-.79-.31-1.57-.64-2.37-.93-.86-.31-1.73-.61-2.62-.86-1.02-.29-1.43-.89-1.04-1.91.35-.93.07-1.3-.92-1.14-.56.09-1.16.02-1.67.22-1.26.5-2.09.28-2.53-1.09-.35-1.09.09-1.6,1.07-2.03,1.15-.51,1.61-2.95,1.19-4.63-.14-.57.22-1.28.39-1.92.17-.64.42-1.26.6-1.9.24-.88.36-1.86,1.7-1.37.14.05.37-.01.5-.11,1.6-1.22,3.64-2.07,3.98-4.39.05-.32-.41-.98-.73-1.05-2.62-.61-3.29-1.71-2.55-4.37.37-1.35.92-2.69,1.03-4.06.19-2.29,2.06-2.55,3.54-2.99,1.54-.45,2.24-1.27,2.93-2.65.83-1.66,2.17-3.09,3.4-4.52.26-.3,1.33.01,1.51-.27.8-1.31,1.43-2.73,2.1-4.11.06-.12,0-.29.06-.41.64-1.47,1.28-2.94,1.95-4.39.37-.81.41-.8-.72-1.09-.26-.07-.58-.12-.82-.03-3.79,1.43-7.58,1.03-11.36,0-.63-.17-1.2-.59-1.78-.91-1.38-.77-2.81-1.49-4.12-2.36-.73-.49-1.36-1.18-1.9-1.89-.75-.97-1.4-2.01-2.04-3.05-.57-.92-1.61-1.72-.87-3.04.09-.16.11-.51,0-.61-1.86-1.88-.44-3.71.05-5.55.44-1.64.58-3.48,1.45-4.86.74-1.17.76-2.05.34-3.12-.94-2.37-.26-3.96,1.86-5.39.64-.43.95-1.74.95-2.65,0-1.09.03-1.63,1.32-1.45.4.06.86-.34,1.3-.53-.31-.41-.57-.88-.95-1.21-.31-.27-.85-.28-1.13-.56-.61-.6-1.11-1.29-1.66-1.95.71-.39,1.42-.79,2.14-1.18.24-.13.49-.22.74-.33-.12-.27-.18-.61-.38-.79-.8-.69-1.89-1.18-2.38-2.03-.33-.57-.1-1.79.33-2.42.92-1.33,1.54-2.53,1.23-4.29-.31-1.75-.73-3.69.83-5.23.02-.02.03-.07.06-.09,2.68-1.41,4.9-4.13,8.31-3.54,1.72.3,3.35.94,5.16.58.93-.19,1.9-.16,2.85-.24.15-.01.29-.14.44-.21-.14-.14-.3-.27-.42-.43-.64-.77-1.34-1.5-1.87-2.34-.11-.17.41-.76.69-1.12.13-.17.39-.26.58-.38-.25-.17-.51-.5-.75-.49-1.69.09-3.37.26-5.05.38-.76.06-1.55.2-2.29.07-1.54-.28-3.04-.91-4.58-1.03-1.76-.13-3.55.23-5.32.2-1.12-.02-2.25-.3-3.34-.59-.25-.07-.48-.7-.47-1.06.01-.2.54-.49.86-.54,1.6-.25,3.39-.06,4.79-.71,2.72-1.27,5.55-.35,8.27-.92,1.58-.33,3.23-.56,4.83-.48,1.99.1,3.99.49,5.94.92,1.06.23,2.04.81,3.07,1.22.11.04.32,0,.38-.07.99-1.15,2.16-.42,3.28-.37.8.04,1.61-.16,2.42-.21.33-.02.66.12.99.12.28,0,.71,0,.81-.16.76-1.2,1.84-.88,2.92-.74.66.08,1.34.03,1.99.13.74.12,1.47.34,2.2.53.09.02.2.2.25.18,1.62-.71,2.31.84,3.29,1.48.78.51,1.71,1.69,1.59,2.41-.12.72-1.37,1.51-2.27,1.8-1.63.53-3.38.65-5.06,1.05-2.11.51-2.77,1.58-2.34,3.78.24,1.24-.25,1.46-1.39,1.75-1.15.3-2.12,1.29-3.17,1.98.22.21.48.4.65.65.25.37.44.78.66,1.17.15.28.23.68.47.83.75.48,1.81.68,1.34,1.99,0,.02.52.15.66.34.37.5,1.08,1.33.94,1.55-1.26,1.89-.04,3.52.27,5.28.42,2.39.64,4.83.73,7.25.02.39-1.06.82-1.64,1.23-.19.13-.38.26-.58.39.18.09.35.22.55.26,1.4.27,1.47,1.25,1.44,2.42-.02.92.23,1.84.29,2.77.17,2.44.22,4.9.48,7.33.16,1.58-.64,3.01-.13,4.76.37,1.27-.65,2.99-1.17,4.46-.44,1.22-1.04,2.39-1.6,3.56-.16.33-.39.63-.62.91-.4.49-1.08.9-1.18,1.43-.26,1.39-1.36,1.77-2.37,2.18-1.91.77-3.89,1.36-5.8,2.11-.18.07-.33.91-.16,1.09.74.81,1.54,1.52.98,2.79-.05.12.29.59.42.58.5-.05,1.02-.17,1.47-.38.08-.04.05-.69-.13-.89-1.3-1.56-.63-3.23,1.26-4.01,1.78-.73,3.54-.93,4.84.32,1.31,1.27,3.6,1.37,4.18,3.59.11.42,1.4.8,2.11.75,1.46-.1,2.01.65,2.47,1.81.3.75.97,1.37,1.22,2.13.28.85.62,1.96.29,2.66-.73,1.55-.23,2.98-.03,4.44.24,1.77-.6,3.63-2.18,4.39-.12.06-.23.15-.34.22.11.12.19.3.32.35,1.22.48,1.33,1.6.99,2.5-.89,2.35-.52,4.55.26,6.8.27.79.39,1.66.46,2.5.09,1.02-.54,1.36-1.48,1.32-.25-.01-.52.16-.77.24.15.23.26.49.45.67.78.78,2.21.99,2.16,2.5,0,.07.4.22.62.22.95,0,1.9,0,2.84-.08.14,0,.38-.38.35-.54-.14-.76-.31-1.53-.59-2.25-.11-.3-.53-.47-.8-.71-.5-.45-1.1-.83-1.46-1.38-1.13-1.71.79-2.87.93-4.39.07-.83.45-1.39-.09-2.38-.37-.68.27-2.6,1.02-3.08,2.1-1.35,2.83-3.54,4.13-5.38.29-.41,1.09-.85,1.48-.72,2.97.95,5.9,2.03,8.83,3.09,1.28.46,2.56.95,3.83,1.45.17.07.38.28.4.44.12,1.2.89,1.08,1.77,1.04,1.1-.06,2.22.03,3.31.17.26.03.45.55.68.85-.25.15-.51.31-.76.45-.12.07-.31.09-.37.19-.85,1.41-1.98,1.1-3.22.64-.38-.14-1.19-.05-1.29.17-1,2.13-2.74,1.2-4.24,1.06-.61-.05-1.2-.41-1.79-.64-.71-.27-1.5-1.04-1.84.43-.03.14-.55.17-.85.25-.25.07-.5.14-.75.2.15.27.24.69.46.79,1.63.7.97,1.37.08,2.17-.28.25-.35.75-.51,1.14.35.07.71.1,1.05.21.73.24,1.45.51,2.17.77-.31.64-.59,1.28-.92,1.9-.12.24-.34.43-.51.64.34.21.65.5,1.02.62.32.11.7.05,1.06.04.89-.01,1.21.37,1.03,1.27-.07.38.19.81.17,1.21-.04.63-.14,1.27-.34,1.87-.1.3-.48.51-.74.76.48.46.89,1.05,1.45,1.37,1.58.9,1.51-1.12,2.41-1.46.52-.19,1.02-.45,1.56-.6.28-.08.61.01.92.02-.2-.36-.33-.82-.63-1.05-1.61-1.22-1.63-1.38-.45-3.15.67-1.01,1.14-2.18,1.92-3.09.55-.64,1.43-1.31,2.21-1.39,1.5-.14,3.07.36,4.55.17,1.54-.2,3.03-.87,4.52-1.42.13-.05,0-.75,0-1.15,0-2.65-.99-3.61-3.36-4.5-1.74-.65-3.32-1.85-4.77-3.05-.36-.3.09-1.56.15-2.38.03-.4.02-.8.02-1.21,0-.42-.01-.84.01-1.26,0-.13.23-.31.2-.36-1.27-1.65.7-3.11.27-4.71-.06-.22-.03-.56.11-.71,1.25-1.4.33-1.79-.91-2.22-2.41-.82-4.94-1.47-6.38-3.92-.16-.26-.59-.37-.89-.54-1.92-1.09-3.6-2.42-4.48-4.52-.08-.2.17-.62.37-.84.14-.15.54-.03.7-.17.33-.3.57-.69.85-1.05-.26-.1-.54-.17-.78-.29-.82-.41-1.68-.77-2.41-1.31-.27-.2-.46-.91-.32-1.21.43-.89,1.05-1.7,1.6-2.54.02-.03.02-.08.04-.1,1.7-.95,1.88-1.63-.04-2.75-1.1-.64-.87-3.9-.03-5.03.04-.06.11-.11.12-.17.14-1.89.25-3.79.41-5.68.03-.33.14-.74.37-.95.72-.64,1.42-1.42,2.28-1.75,1.7-.66.71-1.8.74-2.8.02-.97.13-1.94.23-2.9.1-.99.24-1.97.32-2.96,0-.06-.27-.19-.43-.22-1.28-.21-1.69-1.25-1.46-2.19.14-.56,1.21-.87,1.85-1.32.74-.52,1.46-1.05,2.16-1.62.04-.03-.16-.58-.35-.65-1.26-.53-2.53-1.28-3.84-1.4-1.39-.13-2.85.29-4.24.63-.83.2-1.62,1.12-2.16-.4-.11-.3-.82-.48-1.27-.53-.25-.02-.73.32-.77.56-.19,1.05-.66,1.37-1.62.83-.91-.51-1.44-1.32-.74-2.17.8-.98.18-1.12-.46-1.62-.69-.54-1.1-1.4-1.72-2.05-.24-.25-.69-.42-1.05-.42-.98,0-1.95.12-2.93.13-.07,0-.26-.53-.2-.75.36-1.25.6-2.41-1.05-2.96-.13-.04-.25-.57-.23-.58.85-.42,1.71-.8,2.57-1.19.25-.11.5-.23.76-.34-.26-.13-.52-.37-.78-.37-1.48.04-2.95.15-4.43.2-.16,0-.46-.21-.46-.32,0-.58.1-1.17.13-1.75.05-.9.31-1.89.03-2.68-.35-.97-.27-1.35.73-1.58,1.89-.44,3.77-1.22,5.66-.07.34.21.79.73.72.98-.14.54-.55,1.02-.92,1.47-.24.29-.6.48-.91.71.41.08.88.34,1.22.23,2.08-.71,4.16-1.46,6.19-2.32.43-.18.7-.85.95-1.34.86-1.67,2.76-2.17,4.35-1.19,1.24.77,1.68-.45,1.59-1.1-.3-2.24,1.75-3.19,2.49-4.83.21-.47,1.52-.45,2.33-.64.77-.18,1.62-.18,2.3-.53,1.7-.87,3.12-.82,4.81.26.7.45,2.13-.18,3.21-.39.83-.16,1.66-.65,2.45-.59,1.32.1,2.61.59,3.94.77.67.09,1.4-.28,2.07-.2,1.95.24,3.88.85,5.82.85,1.67,0,3.33-.73,5.02-.93,2.12-.25,4.26-.25,6.38-.41,1.05-.08,2.1-.21,3.13-.43,2.22-.49,3.3,1.3,4.7,2.37.17.13-.13,1.35-.52,1.63-.42.3-1.34.31-1.8.04-.67-.4-1.03-1.28-1.68-1.74-.34-.24-1.33-.22-1.48.01-.86,1.41-2.27,1.46-3.62,1.65-.88.12-1.77.17-2.65.2-1.16.04-2.05.3-1.94,1.75.02.24-.21.69-.37.71-1.53.2-1.28,1.4-1.42,2.39-.03.2-.09.4-.17.59-.12.3-.27.6-.4.89.53.11,1.06.32,1.58.32.72,0,1.43-.16,2.15-.25.11.89.4,1.8.29,2.66-.18,1.38-.57,2.74-1.01,4.06-.2.59-.94,1.02-1.09,1.61-.23.88-.17,1.83-.19,2.75-.01.51.11,1.02.09,1.52-.05,1.86-.28,3.72-.16,5.56.08,1.17-.59,1.16-1.3,1.37-.4.12-.76.36-1.14.54.32.35.63.73.97,1.06.7.67,1.42,1.32,2.15,1.96.08.07.39.06.39.05.2-1.13.35-2.27.58-3.39.09-.43.33-.83.51-1.24.35.32.79.58,1.03.97.21.34.19.82.28,1.23.49-.28.96-.61,1.47-.83.24-.1.57-.03.86,0,1.14.15,2.29.31,3.43.48.15.02.41.13.41.2,0,.33.05.78-.13.97-.52.52-1.16.91-1.71,1.4-.1.09-.08.52,0,.55.68.31,1.38.55,2.07.85.52.23,1.05.45,1.5.78.28.21.4.62.59.94.16-.57.55-1.18.45-1.7-.24-1.23-.68-2.43-1.09-3.63-.45-1.3-.39-2.42.26-3.74.63-1.29.56-2.91.92-4.36.43-1.74,1.08-3.44,1.46-5.19.25-1.18.22-2.43.28-3.65.03-.61.03-1.23.01-1.84,0-.14-.13-.29-.21-.43-.31-.51-.83-1-.89-1.53-.19-1.82,1.8-3.92,3.61-4.06.88-.07,1.76-.25,2.6-.52.26-.08.55-.62.53-.92-.33-3.39.61-4.01,4-3.82.46.03.99-.17,1.38-.43.16-.11.04-.66,0-1.01-.1-.91-.24-1.83-.32-2.74-.02-.17.16-.36.24-.54.15.12.33.22.46.37.71.84,1.39,1.71,2.12,2.52.41.45.79,1.45,1.55.23.09-.15,1.22.02,1.38.31.79,1.43,2.33.94,3.44,1.48.09.04.39-.13.43-.26.8-2.26,2.27-2.98,4.53-2.54,2.49.48,4.26,1.81,5.66,3.86.54.78,1.46,1.29,2.09,2.03,1.1,1.31.7,2.86.5,4.35-.18,1.32-.36,2.64-.66,3.94-.14.59-.48,1.2-.9,1.63-.95.97-.93,2.97-.56,4.17.34,1.1-.1,2.44-.21,3.67-.01.14-.18.33-.14.39.57.77,1.11,1.56,1.76,2.26,1.09,1.17.25,1.88-.54,2.62-.43.41-.91.78-1.31,1.21-.14.15-.24.5-.16.67.38.82.65,1.78,1.27,2.37,1.23,1.17.61,2.15-.2,2.96-1.17,1.17.03.89.53,1.01.46.11,1.26-.01,1.37.22.46.99.87,2.06.97,3.13.04.39-.82.91-1.33,1.3-.44.34-1.08.48-1.37.89-.14.2.32.83.52,1.25.12.25.46.53.4.7-.47,1.5.85,1.98,1.63,2.49,1.18.77,1.24,1.6.98,2.81-.16.73,0,1.54.12,2.3.03.17.46.43.68.4.84-.12,1.68-.28,2.49-.53,1.71-.53,2.51,1.01,3.75,1.54.4.17.85.23,1.25.41.37.17.91.4.96.68.06.32-.31.99-.57,1.03-2,.33-4.02.54-6.04.78-.32.04-.64.08-.97.13.26.22.56.41.77.67.42.53.8,1.11,1.19,1.66-.63.05-1.27.14-1.9.15-.52,0-1.06-.18-1.56-.11-.34.04-.65.36-.98.56.2.26.41.52.59.79.52.78,1.25,1.35.6,2.6-.44.85-.13,2.12-.08,3.19.05,1.08-.37,1.68-1.44,2.03-.46.15-.89.81-1.07,1.32-.52,1.47-1.93,1.49-3,2.1-1.24.71-2.33,1.68-3.54,2.46-.53.34-1.18.65-1.79.66-1.16.04-2.35-.04-3.49-.27-.7-.14-1.32-.67-1.99-1-.93-.47-1.87-.91-2.79-1.39-.85-.44-1.64-.99-2.52-1.33-1.81-.71-3.48-2.07-5.65-1.38-.19.06-.45.04-.62-.05-1.7-.92-3.4-1.86-5.07-2.83-.18-.1-.37-.59-.3-.68,1.45-1.65-.64-1.67-1.14-2.04-.75-.57-1.92-.54-2.85-.93-.6-.25-1.25-.69-1.56-1.23-.18-.31.12-1.15.46-1.47,1.43-1.29.82-2.51.18-3.9-.47-1.01-.8-2.19-.77-3.28.01-.55.92-1.1,1.47-1.62.79-.75.87-1.39.07-2.26-1.01-1.08-1.78-2.18-.82-3.87.83-1.45-.08-2.96-1.61-3.63-1.02-.44-1.92-1.14-2.9-1.7-.81-.46-1.62-.92-2.47-1.31-.16-.08-.66.13-.67.23-.08,1.05-1.2,2.29.56,3.07.25.11.2.92.29,1.41-.37.03-.86.22-1.08.05-1.04-.78-1.91-.14-2.6.4-.39.3-.51,1.19-.44,1.78.12.92,0,1.43-1.02,1.67-.43.1-.81.64-1.06,1.07-.06.11.58.52.73.87.24.57.4,1.19.49,1.8.07.49-.03.99,0,1.49.04.59.06,1.2.22,1.77.15.55.48,1.05.72,1.57.13.27.33.53.35.81,0,.14-.35.27-.49.45-.24.31-.67.73-.59.96.27.75.64,1.49,1.13,2.11.86,1.12.84,2.86-.17,3.5-.18.11-.41.28-.57.24-2.1-.47-.68.52-.48,1.08.55,1.56,1.14,3.12,1.52,4.73.09.39-.59.95-.88,1.46-.16.28-.44.73-.34.87.22.3.76.72.97.63,1.73-.77,2.32.78,3.31,1.52.19.14.41.39.58.37,4.12-.52,6.51,2.39,8.81,4.88.94,1.01.59,3.25.73,4.94.05.62,0,1.35-.3,1.86-.31.53-.96.88-1.47,1.28-.4.31-1.05.5-1.2.89-.44,1.12-.4,2.52-1.07,3.44-.77,1.06-.78,2.36-1.85,3.44-1.16,1.17-3.01,1.52-3.64,3.13-.16.4.05.98.17,1.45.04.15.4.2.5.37.3.51.54,1.06.8,1.59-.54.26-1.07.67-1.63.74-1.35.17-2.73.11-4.08.25-2.01.21-3.1,1.43-3.2,3.45-.02.46,0,.92,0,1.38ZM112.42,148.73c.07-.22.22-.62.3-1.02.09-.43.1-.89.21-1.32.05-.21.26-.38.39-.57-.25-.07-.5-.19-.75-.19-3.29,0-6.15-1.1-8.6-3.29-.14-.12-.35-.16-.53-.23.09.18.17.37.28.53.98,1.38,2.17,2.65,2.89,4.14.83,1.72,2.22,2,3.78,2.15.52.05,1.05-.1,2.04-.2ZM103.83,106.43c.16-.33.41-.74.56-1.19.1-.29-.07-.71.09-.93.9-1.3-.85-1.77-.82-2.78-.57.11-1.17.16-1.72.34-1.49.48-2.55,3.24-1.46,3.92.78.49,1.92.4,3.35.64ZM82.72,133.48c-.28.16-.55.32-.83.48.31.34.59.71.92,1.02.44.41.92.76,1.37,1.15.18.16.3.44.51.51,1.24.46,2.49.92,3.76,1.29.36.1.84-.04,1.19-.22.13-.07.18-.73.07-.8-1-.62-2.03-1.19-3.08-1.73-.86-.45-1.75-.85-2.64-1.25-.38-.17-.79-.28-1.28-.46ZM90.31,210.58c1.01-.67,1.8-1.1,2.45-1.67.16-.14-.04-1.09-.16-1.11-1.19-.18-2.39-.3-3.59-.28-.25,0-.76.86-.68.97.54.7,1.2,1.3,1.98,2.1ZM66.8,86.97c.19-.11.78-.33,1.19-.74.13-.13-.22-1.09-.4-1.1-.58-.04-1.26.04-1.75.33-.53.31-.9.9-1.34,1.37.61.04,1.21.07,2.31.14ZM71.19,90.79c-.81-.58-1.57-1.13-2.34-1.67-.01,0-.12.08-.14.14-.17.44-.51,1.24-.46,1.27.8.39,1.63.7,2.48.98.05.02.24-.38.46-.72ZM85.63,84.58c.56-.7.89-1.12,1.23-1.54-.41-.29-.89-.87-1.23-.79-.44.1-.86.66-1.1,1.12-.07.13.53.61,1.09,1.21ZM78.08,136.48c.46-.35.82-.63,1.18-.91-.44-.29-.86-.77-1.33-.82-.31-.04-.7.53-1.05.82.37.28.73.55,1.2.91ZM39.16,145.85c-.12.25-.23.5-.35.74.34.09.79.35.99.22.48-.3.85-.78,1.26-1.19-.26-.19-.58-.57-.76-.52-.42.14-.77.48-1.15.74ZM95.19,211.4c.46-.28.76-.47,1.06-.66-.5-.27-.97-.59-1.5-.78-.16-.06-.45.26-.69.4.36.32.71.65,1.13,1.03ZM66.85,83.25c.4-.37.67-.63.95-.88-.24-.19-.51-.56-.71-.52-.35.07-.66.38-.98.6.2.22.41.44.74.81ZM89.3,89.86c.66.58,1.01.99,1.44,1.23.29.15.71.04,1.07.05-.22-.25-.39-.59-.66-.72-.46-.22-.99-.31-1.85-.56ZM17.22,87.24c-.4.28-.66.46-.92.64.28.22.53.51.84.62.12.04.52-.31.55-.52.03-.19-.26-.43-.47-.74ZM37.29,155.95c-.37-.33-.64-.67-.72-.63-.32.16-.59.44-.88.68.22.12.45.32.67.33.24,0,.48-.19.93-.38Z"/>
        <path class="cls-2" d="M217.62,169.73c2.31-.42,2.15,1.32,2.56,2.28.53,1.24.71,2.63,1.06,3.95.03.11.22.24.35.25,1.96.22,2.95,1.15,3.06,3.07.05.86.41,1.97-1,2.3-.15.04-.26.52-.29.81-.16,1.54-.12,3.15-1.92,3.89-.17.07-.32.36-.36.58-.22,1.15-.4,2.31-.6,3.46-.02.13-.09.34-.18.37-1.51.44-.86.96-.16,1.67.36.36.54,1.02.57,1.55.05.93-.41,1.41-1.42,1.07-.16-.05-.35-.05-.53-.07.15.14.3.4.45.4,1.78-.01,3.57-.09,5.35-.08.64,0,1.42-.02,1.88.33.24.18.07,1.22-.21,1.69-.59,1-.23,1.83,1.25,2.47,1.56.68,1.53.8.26,1.94-.42.37-.57,1.08-.73,1.67-.03.12.44.58.62.54.55-.1,1.07-.39,1.61-.57.46-.15.98-.4,1.41-.32.31.06.55.59.78.94.13.2.18.46.26.69.21-.18.49-.31.61-.54.59-1.1,1.12-.93,1.63.04.32.61.67,1.21.93,1.85.62,1.55-.41,1.94-1.6,2.16-.38.07-.78.08-1.16.1-.95.06-2.77,1.64-2.68,2.54.03.28.92.77,1.29.67,1.37-.35,2.55-.24,3.75.58.4.27,1.09.12,1.65.14.35.02.8-.14,1.03.03,1.96,1.46,1.41-.71,1.61-1.24.99-2.66,1.83-5.37,2.69-8.08.12-.39.22-1,.01-1.25-1.37-1.66-.65-3.51-.59-5.3,0-.07.03-.14.06-.2.71-1.03.68-1.64.08-2.97-.19-.43-.28-1.16-.04-1.45.29-.36.96-.45,1.49-.59.28-.07.6,0,.9,0,0-.1.03-.28,0-.29-.29-.1-.59-.25-.87-.23-2.39.15-2.86-.24-3.22-2.65-.27-1.82-.57-3.64-.85-5.46-.02-.1-.05-.21-.1-.3-.92-1.82-.6-2.54.92-3.99,2.33-2.22,5.05-1.69,7.76-1.43.86.08,1.89.17,1.95-.86.06-.96.64-2.25-.84-2.92-1.92-.87-3.63-2.15-5.9-2.22-.82-.03-1.78-.71-2.35-1.37-.36-.42-.21-1.37-.11-2.06.13-.89.34-1.8.7-2.62.59-1.36.93-2.54-.38-3.76-.23-.21-.59-1.88,1-1.9.04,0,.27-1.17.07-1.64-.55-1.29.45-1.52,1.13-2.07.17-.14.15-.66.05-.96-.18-.53-.73-1.07-.67-1.53.15-1.04-.13-1.38-1.16-1.31-.35.03-1.03-.22-1.04-.36-.03-.64.11-1.29.25-1.93.03-.15.36-.21.48-.36.83-1.1,1.44-2.51,2.52-3.24,1.22-.83,2.82-1.25,4.31-1.46,1.3-.19,2.69.1,4.03.3,1.13.16,2.25.45,3.35.76.37.11.71.42,1.01.69,2.02,1.83,3.66,4.23,6.86,4.2.55,0,1.06.77,1.65.9,1.6.35,3.23.52,4.84.79,1.24.21,2.47.51,3.71.72.27.05.74,0,.85-.18,1.1-1.8,2.65-1.95,4.56-1.54.97.21,2.06.01,3.06-.18,1.17-.23,1.27.47,1.09,1.2-.16.67-.66,1.24-.95,1.89-.1.22-.07.52-.03.77.28,1.67.17,3.21-1.13,4.53-.3.31-.26,1.07-.2,1.61.13,1.2.35,2.4.56,3.59.08.44.21.87.35,1.3.27.87,1,1.75-.22,2.53-.12.07.06.79.25,1.12.94,1.68.45,3.22-.23,4.84-.38.91-.59,1.95-.64,2.95-.12,2.18-.2,4.37-.1,6.55.1,2.37.35,4.75.66,7.1.35,2.66-.4,4.85-2.3,6.76-.41.41-.38,1.36-.36,2.05,0,.46.51.92.5,1.38-.03,1.95,0,3.79,1.06,5.63.46.8-.34,2.23-.23,3.34.11,1.11.53,2.21,1,3.24.47,1.03.25,2.71-.61,3.41-.18.15-.28.53-.26.79.07.81.26,1.6.31,2.41.06.98,0,1.96.06,2.94.09,1.33-.47,2.22-1.74,2.57-1.21.33-2.51.4-3.67.84-1.46.55-2.88,1.25-4.2,2.08-.87.54-1.41.66-2.23-.07-.34-.3-1.15-.05-1.73-.13-.5-.07-.98-.24-1.47-.38-.35-.1-.77-.4-1.04-.3-.88.34-1.4.28-1.64-.77-.11-.48-.46-1-.86-1.26-.19-.12-1.05.26-1.09.5-.16,1.09-.72,1.54-1.77,1.8-1.11.27-2.12.94-3.23,1.21-1.46.35-2.46-.35-2.94-1.78-.05-.16-.14-.31-.21-.47-.1.16-.23.31-.31.48-.45.9-1.1,1.27-2.08.83-.06-.03-.13-.08-.19-.09-3.65-.35-5.89-3.17-8.61-5.08-1.17-.82-2.88-1.97-1.81-4.13.16-.33-.51-1.07-.79-1.62-.24.38-.47.77-.72,1.13-.5.73-1.03,1.43-1.53,2.16-1.76,2.56-3.75,4.93-6.64,6.22-1.39.62-2.95.93-4.46,1.18-5.3.9-10.62,1.46-15.8-.59-1.36-.54-3.13-1.2-3.7-2.31-.87-1.72-2.34-1.94-3.68-2.68-1.51-.84-1.03-2.37-1.01-3.72,0-.34-.17-.92-.38-.98-1.51-.47-2.26-2.14-1.55-3.62.08-.17.13-.36.19-.54-.14,0-.27,0-.41-.02-.45-.06-1.25-.06-1.27-.21-.16-.8-.48-1.94-.09-2.42,1-1.23.08-1.86-.45-2.64-.42-.61-1.04-1.11-1.35-1.76-.23-.47-.11-1.11-.15-1.68.54.03,1.07.08,1.61.1.37.01,1,.11,1.07-.03.99-2.14,3.32-2.22,4.99-3.3.18-.11.54-.28.53-.29-.82-1.86,2.47-1.78,1.72-3.62-.03-.08.26-.28.39-.43.2-.22.4-.44.61-.66-.33-.14-.73-.46-.99-.38-.85.26-1.62.81-2.47,1-1.35.3-2.74.41-4.11.54-.14.01-.32-.38-.49-.59-.23-.28-.48-.82-.68-.8-.37.04-.95.34-1.02.63-.34,1.41-1.45,1.34-2.45,1.35-1.28.01-2.54.14-3.36-1.39-1.11-2.08-2.59-3.97-3.76-6.02-.8-1.41-1.53-2.91-1.97-4.46-.52-1.81-.54-3.76-1.04-5.58-.8-2.9-1.85-5.74-2.74-8.62-.18-.57-.16-1.23-.11-1.83.07-.71.53-1.48-.63-1.74-.09-.02-.2-.4-.14-.53.38-.85.99-1.65,1.15-2.54.12-.65-.11-1.76-.57-2.06-2.24-1.42-1.45-3.41-1.15-5.26.47-2.87,1.13-5.7,1.62-8.56.39-2.27,1.15-2.81,3.58-2.8.77,0,1.51-.96,2.31-1.05,1.4-.17,1.05-.96.78-1.69-.11-.29-.56-.48-.89-.63-.54-.24-1.11-.42-1.66-.62-.22-.08-.54-.29-.66-.2-1.33.88-1.99-.11-2.74-.91-.14-.15-.53-.28-.65-.19-2.47,1.67-4.8.4-7.12-.35-1.72-.56-3.41-1.76-3.76-3.38-.35-1.65-1.49-2.3-2.33-3.35-.54-.67-1.38-1.14-1.81-1.86-.53-.89-.89-1.94-1.05-2.96-.04-.28.92-.68,1.38-1.07.57-.5,1.1-1.06,1.64-1.6.18-.18.31-.48.52-.55.85-.27,1.54-.33.53-1.47-.5-.56-.2-1.78-.39-2.68-.33-1.61-1.01-3.2-1.03-4.81-.02-1.34-.7-1.97-1.41-2.83-.58-.72-.67-1.83-1.22-2.59-.8-1.09,0-2.75-1.47-3.61-.32-.19-.4-1.35-.14-1.82.7-1.24.04-1.63-.92-2.06-.41-.18-1.07-.57-1.05-.82.04-.56.29-1.27.71-1.61,1.54-1.24,1.88-3.04.78-4.67-.23-.34-.25-.83-.36-1.26-.02-.1.07-.24.03-.31-.76-1.14-1.55-2.25-2.28-3.41-.27-.43-.4-.95-.54-1.45-.09-.32.03-.74-.14-.99-.43-.66-.65-1.2.27-1.62.13-.06.24-.38.2-.54-.33-1.16-.75-2.3-1.05-3.47-.48-1.87-.98-3.75-1.32-5.65-.2-1.15.16-2.47-.26-3.5-.31-.76-1.47-1.16-2.23-1.75-.32-.25-.6-.55-.89-.83.43-.2.84-.49,1.29-.57.51-.09,1.07-.02,1.59.06,1.36.22,2.46.16,2.8-1.57.08-.43.8-.79,1.29-1.09.72-.43,1.51-.73,2.22-1.18.16-.1.19-.65.07-.9-.64-1.34-.25-2.11,1.22-2.02,1.44.09,1.87-.34,1.24-1.68-.04-.09-.1-.23-.07-.31.94-1.99.64-4.63,3.14-5.8,1.11-.52,2.04.16,2.3,1.91.2,1.33.43,2.69.31,4-.04.47-1.06.87-1.65,1.28-.6.42-1.22.81-1.83,1.21.73.1,1.46.22,2.2.3.67.07,1.34.1,2.01.12.59.01,1.51.33.97-.92-.02-.05.6-.53.7-.46,1.66,1.04,3.4.8,5.18.48.48-.09,1,0,1.5.07,2.16.31,4.32.65,6.48.99.49.08.97.19,1.46.24.34.03.88.1.99-.07.22-.33.4-.95.23-1.21-.64-.97-1.37-1.89-2.16-2.74-1.5-1.6-3.14-3.08-4.56-4.75-.38-.44-.43-1.5-.17-2.07.45-1,1.33-1.16,2.19-.28,3.02,3.08,6.24,5.98,8.03,10.05.22.51.98.96,1.57,1.09,1.29.3,2.63.37,3.94.54.21.03.51,0,.61.12.45.58.72,1.46,1.29,1.77,1.04.55.82,1.27.5,1.94-.49,1.03.42,1.55.62,2.32.1.38,0,1.11-.25,1.24-1.55.79-3.19,1.4-4.75,2.17-1.03.5-2.4.74-2.38,2.35,0,.27-.26.57-.19.79,1.05,3.53,2.12,7.06,3.22,10.58.24.77,1.31.6,2.02-.18.3-.33.97-.75,1.23-.62.71.34,1.88.2,1.74,1.68-.13,1.35,1.07.82,1.58.58,1.2-.58,2.2-1.18,2.1.96,0,.21.42.43.6.67.26.34.47.72.71,1.08-.31.16-.62.31-.94.47-.18.09-.36.18-.54.27.12.19.25.37.37.56.25.4.75.84.71,1.21-.15,1.25.71,2.85-1.18,3.58-1.52.58-3.05,1.21-4.45,2.02-.44.26-.78,1.27-.64,1.81.29,1.16.15,1.91-.99,2.43-1.08.49-.96,1.09-.29,2.01.37.51.44,1.55.18,2.14-.42.94-.53,1.6.28,2.35.88.81.75,1.75.14,2.69-.31.47-.64.88.36,1.08.37.08.95,1.09.81,1.41-.68,1.59.18,2.74,1.12,3.59,1.51,1.38.91,3.26,1.55,4.81.25.61.49,1.23.73,1.84.03.06.1.12.11.18,0,2.02.6,4.3-.14,6-.86,1.99-2.3,4.04-4.6,4.98-2.03.83-4.08,1.63-6.1,2.49-.13.06-.2.49-.14.71.17.62.6,1.23.54,1.8-.03.26-1.04.33-1.53.63-.52.32-.96.8-1.39,1.24-.04.04.18.49.32.52.19.04.62-.16.62-.23-.19-1.94,1.31-.94,2.01-1.06,1.08-.19,2.22-.02,3.34-.07.28-.01.64-.2.82-.42,1.04-1.24,2.26-1.99,3.9-2.33,1.18-.25,2.03-.42,3.11.37,1.24.9,2.81,1.33,4.1,2.16,1.32.85,1.64,2.09,1.41,3.75-.12.89.69,2.05,1.33,2.89,1.12,1.48,1.22,2.39.11,3.83-.2.26-.23.64-.34.97.27.02.54.09.8.06.88-.11,1.77.97,1.29,1.72-.77,1.2-.04,1.54.84,1.96.31.15.55.45.82.69-.31.21-.66.38-.91.65-.19.19-.29.49-.36.76-.07.25-.07.53-.05.79.01.24.07.47.15.7.07.21.22.39.3.59.52,1.31.97,2.66,1.6,3.92.2.41.87.58,1.09.72ZM215.52,200.7c-1.14-.79-2-1.82-2.54-1.67-1.13.31-1.71,0-2.38-.76-.2-.23-.66-.32-.99-.3-.19.01-.35.39-.53.6.29.23.56.48.87.67.21.12.48.12.71.21.4.16.79.36,1.18.54-.21.34-.45.66-.62,1.01-.13.26-.19.57-.28.85.25.02.5.08.74.05.77-.12,1.53-.25,2.29-.43.34-.08.65-.31,1.55-.77ZM222.48,215.45c-.43.56-.95.94-.96,1.34-.01.46.42.94.67,1.41.67-.52,1.35-1.04,2.02-1.56-.5-.35-1-.69-1.73-1.19ZM203.85,184.55c.14-.06.57-.26,1.01-.46-.91-.33-1.82-.7-2.75-.94-.12-.03-.4.58-.61.9.31.13.61.3.94.37.34.08.7.07,1.42.13ZM208.25,194.86c-.06-.11-.12-.21-.18-.32-.36.16-.72.31-1.06.5-.04.02.07.48.17.51.44.13.94.3,1.36.21.46-.1.89-.43,1.28-.73.29-.22.52-.53.73-.84.03-.04-.26-.42-.34-.4-.35.09-.7.25-1.02.42-.33.18-.63.42-.95.63ZM203.36,179.29c-.53.42-.95.76-1.37,1.08-.21.16-.44.31-.67.46.4.18.79.48,1.2.49.39,0,.82-.24,1.16-.47.28-.19.47-.52.69-.79-.3-.23-.6-.46-1.02-.77ZM257.24,221.49c-.38.52-.75.86-.69.97.36.66.8,1.28,1.27,1.86.03.04.57-.33.87-.51-.43-.69-.86-1.38-1.45-2.32ZM210.44,187.58c-.52.48-.85.79-1.18,1.1.44.32.85.83,1.32.9.36.05.8-.47,1.2-.74-.38-.36-.77-.73-1.34-1.27ZM221.01,219.85c-.56-1.11-.86-1.81-1.27-2.45-.07-.11-.55.05-.84.08.25.73.47,1.48.77,2.19.08.2.39.44.59.44.3,0,.6-.2.75-.26ZM172.16,79.31c.56-.22.98-.39,1.39-.56-.45-.42-.9-.85-1.35-1.27-.28.4-.6.78-.79,1.22-.03.08.48.39.75.6ZM191.79,69.81c-.5-.38-.79-.77-1.06-.75-.3.02-.85.48-.81.62.11.4.46.74.71,1.11.31-.26.62-.52,1.16-.97ZM215.11,218.14c-.64-.27-.97-.52-1.27-.49-.27.03-.52.37-.77.58.28.21.55.58.84.59.29.02.6-.32,1.2-.68ZM208.11,213.08c-.61-.27-.91-.53-1.19-.5-.28.03-.54.33-.81.51.24.2.48.55.73.55.32,0,.64-.26,1.27-.56ZM202,95.18c-.38.4-.71.62-.82.92-.05.13.31.43.49.65.27-.26.58-.5.78-.8.06-.08-.21-.38-.45-.77ZM261.81,213.62c.42-.14.7-.23.99-.32-.38-.19-.75-.46-1.15-.55-.2-.04-.47.25-.71.38.31.17.61.34.87.49ZM200.77,152.97c-.24.19-.42.33-.6.47.24.22.46.6.71.62.26.02.55-.31.82-.48-.28-.18-.56-.36-.93-.61ZM217.41,220.27c-.21-.13-.41-.3-.47-.27-.48.31-.94.65-1.4.98.07.1.2.29.21.28.53-.3,1.04-.62,1.66-1ZM221.51,202.06c.39-.29.74-.55,1.09-.82-.18-.07-.41-.25-.53-.19-.35.17-.66.44-.99.67.12.1.24.19.43.34ZM255.99,148.28c-.51-.16-.82-.32-1.15-.34-.16-.01-.34.22-.51.35.25.13.5.35.76.37.23.02.48-.18.9-.37Z"/>
        <path class="cls-2" d="M215.54,65.51c2.26-.45,4.52-1.01,6.8-1.31.95-.13,1.96.31,2.95.46.82.12,1.65.24,2.48.27.19,0,.38-.34.58-.53-.22-.18-.46-.34-.65-.54-.69-.73-1.46-1.41-1.97-2.25-.11-.19.6-1.13,1.11-1.4,1.16-.61,2.55-.83,3.63-1.54,1.39-.92,2.95-.91,4.41-1.37.89-.28,1.52-1.34,2.3-2.01.17-.15.47-.16.7-.26,1.78-.7,2.91.15,3.6,1.66.44.94.67,2,.85,3.03.03.17-.66.67-1.01.66-.98-.03-1.45.19-2.15,1.1-.86,1.1-2.52,1.7-3.95,2.21-1.58.57-3.3.78-4.93,1.23-.24.06-.57.69-.48.85.24.43.63.96,1.05,1.05.81.17,1.69.07,2.54.08-.05-1.19.89-.95,1.46-.85,1.45.25,2.97.46,4.27,1.09,1.04.5,1.17.76,1.86-.53.49-.94,2.35-1.19,3.63-1.68,1.29-.49,1.61.79,2.32,1.35.11.09.53,0,.58-.09.12-.28.14-.62.17-.94.19-1.68.9-2.06,2.43-1.3,1.2.6,2.38,1.24,3.57,1.85.12.06.34.14.37.1,1.08-1.35,3.18-.36,4.21-1.83.08-.11.46.02.7,0,.86-.1,1.72-.27,2.58-.33.65-.04,1.34-.05,1.95.12,1.36.39,2.92.05,4.06,1.42.43.52,1.7,1.53,2.43-.28.19-.48,1.36-.72,2.11-.79,2.06-.2,2.65.4,3.37,2.26.21.54,1.3.74,1.99,1.09,1.39.71,2.81,1.35,4.14,2.15.41.25.58.9.86,1.37-.47.16-.95.48-1.4.44-2.04-.16-4.07-.44-6.1-.65-.74-.08-1.19.03-1.28,1.05-.07.72-.74,1.54-1.37,2.03-.88.68-1.98,1.08-2.96,1.65-.24.14-.39.45-.58.68.3-.05.62-.05.9-.15,1.18-.43,2.35-.92,3.54-1.32.88-.3,1.77-.45,2.25.68.5,1.2-.54,1.41-1.2,1.87-1.82,1.27-3.64,2.54-5.46,3.82-.6.42-1.17.93-1.83,1.22-.2.09-.86-.35-.98-.68-.74-2.01-.68-1.93-2.65-1.26-2.22.75-4.5,1.31-6.74,2.01-.18.06-.37.76-.33.78,1.07.61,2.18,1.15,3.26,1.74.54.29,1.04.65,1.55,1,.14.09.2.3.33.4,1.42,1.12,1.35,1.13-.12,2.35-1.07.89-1.97,2-2.88,3.06-.92,1.07-1.82,1.91-3.45,1.52-.6-.15-1.33.32-2.01.43-.36.06-.93.12-1.08-.07-.53-.72-.93-1.53-1.34-2.33,0-.02.5-.26.73-.44.26-.21.48-.48.72-.72-.23-.12-.44-.29-.69-.35-.73-.18-1.57-.15-2.18-.51-.78-.45-1.63-1.09-2-1.87-.35-.73.64-1.85-.46-2.59-.04-.03-.01-.25.05-.29,1.13-.85,2.25-1.7,3.4-2.53.23-.17.54-.22.82-.32-.27-.12-.54-.31-.83-.35-2.06-.26-4.37-2.79-4.23-4.86.08-1.13.24-2.4,1.88-2.54.36-.03.68-.49,1.02-.75-.34-.18-.66-.49-1.01-.52-1.13-.11-2.26-.11-3.39-.16,0,.6-.11,1.21,0,1.79.15.8.66,1.57.66,2.35,0,1.63.1,3.38-.46,4.84-.41,1.07-.47,1.53.42,2.15.1.07-.01.68-.2.86-1.36,1.36-1.42,2.23-.59,4.06.22.48-.26,1.25-.33,1.9-.03.34.04.93.24,1.01,1.07.43.91.94.33,1.7-.19.25-.2.92,0,1.16,1.38,1.69,1.9,3.63,1.95,5.76,0,.22.24.63.36.63,1.06-.03,1.26.62,1.22,1.46-.02.42.03.93-.17,1.26-1.31,2.11-.23,4.02.47,5.95.1.26.62.6.87.55,1.82-.38,3.6-.8,4.88,1.13.09.14.39.13.58.23.17.09.32.23.48.35-.18.13-.36.38-.53.38-1.13,0-2.26,0-3.38-.11-1.63-.16-1.84.15-1.44,1.72.22.88,0,1.87.02,2.81.01.84.09,1.68.09,2.52,0,.41.07.99-.16,1.21-1.44,1.38-.77,3.04-.77,4.63,0,.84-.14,1.68-.16,2.52,0,.23.17.46.26.69.08-.21.12-.44.24-.63.22-.38.51-1.06.71-1.04.75.09,1.51.33,2.18.68.19.1.18.77.11,1.14-.13.69-1.27,1.63.54,1.68-.02.23.05.55-.08.67-1.66,1.61-1.65,3.77-2.08,5.82-.09.43-1.07.87-1.68.93-.41.04-1.21-.56-1.25-.94-.13-1.17.04-2.38.06-3.57,0-.33-.12-.67-.19-1-.26.19-.59.33-.78.57-.73.95-1.42,1.93-2.14,2.9-.19.25-.38.54-.64.7-2.75,1.72-5.41,3.64-8.32,5.02-1.86.88-4.08,1.1-6.17,1.36-1.58.2-3.22-.01-4.83-.04-.07,0-.18,0-.2.03-.87,1.58-1.79.09-2.67.03-.16-.01-.44-.12-.46-.22-.37-1.85-1.87-1.67-3.22-1.97-.7-.16-1.21-1.04-1.91-1.4-1.64-.84-3.38-1.47-5-2.35-.93-.51-1.47-1.93-2.87-.93-.21-.34-.57-.67-.6-1.02-.13-1.76-.63-3.63,1.07-5.01.1-.08.2-.33.17-.36-1.02-.93-.21-1.93-.12-2.88.13-1.35.3-2.69.47-4.03.08-.59.14-1.19.3-1.76.19-.68.5-1.33.72-2.01.1-.31.15-.64.17-.97.04-.63.05-1.27.04-1.9,0-.77-.17-1.58,0-2.31.16-.73.59-1.43,1.02-2.06.26-.39.75-.62,1.14-.92-.35-.19-.68-.44-1.05-.55-1.59-.5-1.97-1.32-1.21-2.92.52-1.1.41-2.49.85-3.65.24-.63.96-1.16,1.58-1.54.55-.34,1.27-.38,1.88-.65.17-.08.35-.58.26-.72-.78-1.23-1-2.9-2.92-3.25-1.2-.22-2.39-3.8-1.74-4.9.17-.28.71-.33,1.06-.52.44-.25.86-.55,1.29-.83-.26-.35-.46-.75-.77-1.05-2.15-2.02-5.08-1.46-7.59-2.3-.44-.15-.84-.44-1.26-.66.45-.19.89-.41,1.35-.57.5-.17,1.07-.2,1.51-.45,1.25-.71,2.44-1.06,3.67.03.63.56,1.02.55,1.06-.48.04-1.03.53-1.33,1.47-.65.22.16.67.01,1.01,0-.16-.25-.27-.56-.48-.74-.7-.58-1.4-1.16-2.17-1.63-.49-.3-1.08-.56-1.64-.6-1.95-.13-2.63-.67-2.87-2.6-.23-1.9-.44-3.8-.58-5.71-.02-.32.33-.69.56-1.01.45-.62.97-1.19,1.41-1.81.84-1.2,1.39-2.81,2.52-3.56,1.58-1.06,3.58-1.49,5.4-2.19.08.27.17.54.25.8ZM216.15,67.16c-.5-.29-.83-.58-.92-.52-.46.33-.86.74-1.29,1.13.14.09.33.3.41.26.52-.22,1.03-.49,1.79-.86Z"/>
        <path class="cls-2" d="M149.21,145.48c3.75,1.25,7.58,1.98,10.43,4.85,1.07,1.07,2.18,2.16,2.95,3.44.45.75.23,1.89.39,2.84.04.21.45.53.66.51.68-.06,1.25-.13,1.14.86,0,.06.46.2.71.27.43.11.87.2,1.31.29-.33.31-.66.62-.99.92-.76.7-2.37-.95-2.66.89-.16,1.02.05,2.1-.08,3.12-.15,1.15-.68,2.27-.72,3.42-.08,2.49-.05,5.01.19,7.49.05.48,1.23.86,1.9,1.26.17.1.38.13.58.19-.13.14-.22.35-.38.42-.82.4-.93.94-.82,1.87.34,2.74.55,5.5.64,8.26.03.95-.51,1.91-.62,2.88-.16,1.43-.17,2.89-.26,4.33-.03.59.11,1.31-.18,1.75-.64.98.08,1.69.17,2.54.17,1.53.38,3.29-.22,4.59-.47,1.01-2.13,1.48-3.27,2.18-.3.18-.66.28-.92.51-.38.34-.69.75-1.03,1.14.66.45,1.29,1.17,2.01,1.27.66.09,1.4-.53,2.13-.73.38-.1,1.15-.05,1.17.04.22,1.12.35,2.26.45,3.4.04.52-.21,1.12-.04,1.57.52,1.39.21,2.46-1.07,3.16-.25.14-.47.35-.7.53.26.18.54.34.78.54.55.46,1.18.88,1.59,1.45.23.32.17.94.06,1.37-.39,1.53-.85,3.04-1.29,4.55-.13.44-.13,1-.41,1.3-1.64,1.72-3.35,3.38-5.04,5.06-.12.12-.31.18-.44.29-2.34,2.01-4.73,3.97-6.98,6.07-2.18,2.04-5.14,2.48-7.97,1.09-.37-.18-1.18-.06-1.44.23-1.17,1.33-2.49.62-3.79.44-.27-.04-.56-.08-.82-.02-2.35.56-5.79-1.25-6.57-3.52-.55-1.61-1.66-2.57-3.26-3.01-.88-.25-2.38-2.73-2.39-3.84,0-.47-.23-.93-.33-1.4-.12-.58-.42-1.23-.29-1.75.25-.94.63-1.78-.25-2.59-.09-.08.02-.39.05-.6.19-1.32.68-2.69.49-3.95-.23-1.5.1-2.6.98-3.73.3-.38.4-1.04.36-1.55-.1-1.45-.68-2.97-.37-4.3.25-1.06,1.44-1.99,2.39-2.77.7-.58,1.74-.75,1.13-2.05-.13-.28.06-.97.32-1.14.91-.59,1.92-1.04,2.89-1.55.23-.12.45-.26.67-.39-.26-.15-.51-.43-.78-.44-1.09-.03-2.19.06-3.29.03-.95-.03-1.91-.08-2.83-.28-.25-.05-.43-.62-.56-.98-.12-.35-.03-.78-.18-1.1-1.15-2.37-.83-2.99,1.75-3.29.21-.02.41-.15.62-.23-.19-.06-.38-.14-.58-.18-1.09-.24-1.72-.53-.8-1.81.55-.77.51-1.77-.9-1.84-1.23-.06-1.79-.55-1.52-1.9.14-.7-.23-1.5-.1-2.21.55-2.99,1.2-5.96,1.86-8.93.06-.25.48-.54.77-.6,1.18-.26,2.38-.4,3.55-.67.29-.07.52-.43.78-.65-.21-.24-.44-.48-.64-.74-.22-.3-.41-.62-.63-.92-.43-.6-.87-1.19-1.32-1.78-.41-.54-.85-1.06-1.25-1.61-.2-.27-.43-.57-.5-.89-.12-.57-.13-1.17-.19-1.76-.09-.88-.28-1.76-.26-2.63.04-1.91.21-3.82.29-5.74.03-.75-.04-1.51-.02-2.27.01-.5-.06-1.34.18-1.45,1.14-.54.74-1.32.54-2.12-.17-.69-.36-1.13.65-1.6,1.33-.62,2.33-1.92,3.6-2.72,1.06-.66,2.31-1.04,3.5-1.48.49-.18,1.08-.08,1.57-.25,1.54-.51,2.43.02,2.78,1.58.19.83.67,1.07,1.4.55,1.08-.76,2.01-.82,3.09.15.47.43,1.41.35,2.14.46.12.02.37-.2.39-.34.11-.86-.13-2.18.32-2.49,1-.67,2.35-.84,3.58-1.21ZM145.26,207.31c.62-.34,1.02-.57,1.43-.8-.75-.55-1.5-1.1-2.25-1.65-.27.46-.87,1.14-.75,1.32.33.48.98.74,1.57,1.12ZM146.78,225.32c.68-.48,1.2-.84,1.71-1.2-.45-.24-.92-.71-1.34-.67-.44.05-.83.59-1.24.92.23.26.47.51.87.95ZM146.89,200.98c-.56.51-.97.88-1.38,1.25.3.23.69.7.9.63.47-.15.85-.57,1.26-.88-.21-.27-.42-.54-.78-1ZM153.91,202.18c.44-.32.77-.57,1.11-.82-.35-.21-.7-.59-1.04-.58-.36.01-.7.4-1.06.63.29.23.58.45.99.77ZM140.68,199.92c.51.37.8.73,1.08.73.28,0,.56-.36.84-.57-.27-.24-.51-.59-.83-.67-.23-.06-.56.24-1.09.5ZM136.7,201.82c.36-.5.64-.89.9-1.29,0-.01-.36-.33-.4-.3-.4.3-.77.64-1.15.98.16.15.31.3.65.62ZM158.13,202.31c-.5-.22-.79-.44-1.06-.42-.2.01-.37.35-.55.55.25.19.49.5.76.53.19.03.43-.32.85-.66ZM152.57,213.97c.56-.17,1.03-.32,1.51-.47-.22-.11-.47-.34-.67-.31-.42.07-.81.28-1.22.43.13.12.25.23.38.35ZM142.04,188.75c.3-.22.56-.41.81-.59-.17-.08-.36-.25-.51-.23-.35.06-.68.22-1.02.34.21.14.42.28.72.48ZM152.6,158.91c-.38-.18-.57-.36-.7-.32-.3.09-.57.29-.85.44.12.13.28.4.35.38.35-.09.67-.27,1.2-.5ZM155.87,197.83c-.62-.15-.88-.29-1.1-.25-.23.04-.42.26-.63.4.23.11.46.31.69.31.22,0,.45-.19,1.04-.47Z"/>
        <path class="cls-2" d="M269.81,131.47c.44.56.82,1.19,1.35,1.65.84.72.8,1.84-.1,2.48-.8.56-1.44,1.42-2.31,1.78-.52.22-1.52-.07-1.97-.48-1.87-1.71-3.17-4.11-5.9-4.76-.33-.08-.77-.23-.99-.09-1.1.74-1.06-.06-1.42-.79-.93-1.89-1.95-3.76-3.14-5.49-.65-.94-.19-1.23.44-1.64-.32-.45-.64-.89-.96-1.34.82-.28,1.62-.73,2.46-.79.84-.06,1.78.11,2.53.48,1,.5,1.81,1.35,2.78,1.92.51.3,1.18.31,1.78.46.77.19,1.72.16,2.28.61,1.81,1.47,3.48,3.12,3.18,5.99Z"/>
        <path class="cls-2" d="M215.49,53.17c-.12,1.72.24,3.43-2.14,3.17-.38-.04-.89.32-1.2.64-1.25,1.29-2.99,1.28-4.13.57-1.21-.76-2.54-.8-3.69-1.42-.28-.15-.48-.8-.42-1.18.18-1.18-.49-1.54-1.43-1.84-.4-.13-.72-.55-1.07-.84.34-.19.68-.38,1.03-.56.18-.09.38-.16.57-.24,1.12-.5,1.75-.05,1.87,1.23.02.22.55.61.75.56,2.02-.55,4.02-1.16,6.03-1.77,1.74-.52,3.81.57,3.83,1.69Z"/>
        <path class="cls-2" d="M271.31,111.64c-2.18-.32-3.78-.42-5.29-.84-.56-.16-.97-1.01-1.37-1.61-.48-.73-.91-1.5-1.3-2.28-.38-.78-.85-1.59-.94-2.42-.03-.3.89-.78,1.44-1.03.21-.1.6.2.9.33.81.34,1.61.69,2.42,1.01.98.38,1.96.75,2.95,1.09.62.22,1.25.39,1.88.56.54.15,1.13.2,1.64.43,1.19.51,1.63,1.29.51,2.31-1.03.94-2.12,1.82-2.85,2.44Z"/>
        <path class="cls-2" d="M275.35,124.32c-1.68-1.03-3.56-1.85-4.96-3.17-1.14-1.08.71-1.38,1.19-2.05.37-.51.78-1.02,1.27-1.4.51-.39,1.11-.72,1.73-.88.21-.05.54.56.88.74.49.24,1.06.55,1.55.49,1.51-.19,3-.6,4.51-.8.29-.04.98.55.94.68-.18.6-.47,1.54-.89,1.64-.99.22-1.12.9-1.6,1.55-.72.98-1.85,1.67-2.87,2.39-.41.29-1,.32-1.5.48-.08.12-.16.23-.23.35Z"/>
        <path class="cls-2" d="M57.59,138.45c-1.9.23-3.8.45-5.7.68-.25.03-.52.22-.72.15-.77-.25-1.51-.58-2.26-.87.43-.54.85-1.09,1.31-1.6.2-.22.51-.35.79-.5,1.22-.63,2.39-1.46,3.69-1.81,1.63-.44,4.6,1.54,5.17,3.21.06.17-.22.64-.41.69-.6.13-1.24.13-1.86.17,0-.04-.01-.08-.02-.13Z"/>
        <path class="cls-2" d="M116.2,180.51c.67-.43,1.3-.96,2.02-1.23.21-.08.71.53,1.04.86.14.14.15.4.27.57.49.66,1.4,1.33.33,2.12-.97.71-2.05,1.23-3.29.32-.38-.28-1.05-.26-1.58-.22-1.27.09-2.07-.47-2.78-1.49-.86-1.24-1.97-2.31-2.83-3.55-.27-.39-.1-1.1-.14-1.66.47.05,1.05-.07,1.38.17,1.69,1.27,3.32,2.63,4.96,3.98.17.14.24.42.33.64.12.32.21.65.31.98.11-.35.22-.71.34-1.06-.12-.14-.23-.29-.35-.43Z"/>
        <path class="cls-2" d="M259.29,120.08c-2.76-.66-5.53-1.31-8.28-2-.25-.06-.64-.53-.6-.59.35-.58.69-1.44,1.21-1.58.9-.25,1.93,0,2.91-.04.71-.03,1.41-.17,2.12-.26.07,0,.15-.08.2-.06,1.11.47,2.22.92,3.3,1.44.37.18.69.49.99.78.33.31.61.67.9,1.02-.43.31-.82.73-1.31.91-.4.15-.91.03-1.37.03-.02.12-.05.23-.07.35Z"/>
        <path class="cls-2" d="M214.67,61.79c.02,1.26-1.5,3.02-2.75,3.23-.37.06-.71.31-1.08.39-.4.08-.83.1-1.23.07-.63-.06-1.25-.18-1.87-.29-.26-.05-.51-.13-.76-.2.11-.27.13-.66.33-.79,1.9-1.26,3.82-2.51,5.77-3.7.78-.47,1.59.22,1.6,1.29Z"/>
        <path class="cls-2" d="M174.02,187.29c-1.13-.26-2.24-.46-3.32-.79-.3-.09-.66-.52-.68-.81-.02-.29.3-.69.58-.88,1.37-.92,2.83-1.27,4.16.01.48.47.68,1.22,1.01,1.84-.57.2-1.13.4-1.75.62Z"/>
        <path class="cls-2" d="M171.74,163.75s-.27-.04-.5-.08c.11-.21.18-.45.34-.61.32-.31.67-.78,1.04-.82,1.43-.15,2.02-1.13,2.54-2.25.42-.9.8-1.82,1.26-2.69.16-.3.52-.49.79-.73.21.35.59.68.61,1.04.11,2.2-3.72,6.15-6.09,6.14Z"/>
        <path class="cls-2" d="M49.94,65.49c1.18-.78,2.03-1.34,2.87-1.9.41.77,1.1,1.52,1.16,2.32.1,1.35-1.31,1.31-2.11,1.35-.49.02-1.03-.91-1.92-1.77Z"/>
        <path class="cls-2" d="M203.22,68.53c-.88-.15-1.53-.26-2.18-.37.56-.28,1.11-.59,1.68-.84.77-.33,1.55-.64,2.35-.89.15-.05.46.16.57.33.07.11-.05.47-.18.55-.76.45-1.55.85-2.24,1.23Z"/>
        <path class="cls-2" d="M254.24,53.46c-.69-.63-1.04-.95-1.39-1.27.55-.42,1.06-.96,1.68-1.21.25-.1.75.45,1.14.71-.42.52-.84,1.04-1.43,1.77Z"/>
        <path class="cls-2" d="M251,107.53c-.7.54-1.14,1.14-1.6,1.16-.43.02-.88-.59-1.32-.93.59-.38,1.15-.83,1.79-1.11.16-.07.55.41,1.14.87Z"/>
        <path class="cls-2" d="M125.29,66.15c-.74.46-1.23.97-1.48.87-.66-.26-1.22-.79-1.81-1.2.5-.23,1.02-.65,1.51-.63.49.02.95.49,1.78.97Z"/>
        <path class="cls-2" d="M158.45,61.92c.48,1.19.81,1.89,1.02,2.63.04.14-.41.41-.64.62-.37-.45-.92-.86-1.06-1.38-.11-.38.3-.91.68-1.88Z"/>
        <path class="cls-2" d="M277.58,65c-.3-.21-.57-.4-.84-.59.19-.26.34-.54.57-.76.17-.16.44-.36.64-.33.48.07.93.27,1.4.41-.23.24-.43.52-.69.7-.3.22-.66.36-1.07.57Z"/>
        <path class="cls-2" d="M271.08,62.29c-.52.37-.87.77-1.26.83-.24.04-.57-.46-.85-.71.44-.35.86-.72,1.33-1.02.04-.02.38.43.78.9Z"/>
        <path class="cls-2" d="M207.94,67.49c-.66-.73-.87-.96-1.07-1.19.4-.31.76-.68,1.21-.88.15-.07.75.4.72.47-.2.5-.49.96-.85,1.61Z"/>
        <path class="cls-2" d="M166.47,119.66c.33.31.55.52.77.73-.24.19-.48.54-.73.54-.25,0-.52-.31-.78-.49.21-.22.42-.45.74-.78Z"/>
        <path class="cls-2" d="M151.77,65.2c-.38.36-.56.52-.74.69-.31-.35-.63-.7-.91-1.07-.02-.03.26-.38.3-.36.4.19.77.42,1.34.75Z"/>
        <path class="cls-2" d="M166.99,125.82c-.59.32-1.02.59-1.48.77-.08.03-.29-.28-.45-.44.46-.25.91-.52,1.39-.74.06-.03.22.16.53.41Z"/>
        <path class="cls-2" d="M158.24,93.33c.35.21.64.39.93.56-.23.11-.47.34-.68.31-.39-.05-.75-.25-1.13-.39.27-.15.53-.29.88-.48Z"/>
        <path class="cls-2" d="M231.62,162.97c-.56.41-.9.68-1.26.89-.07.04-.28-.18-.43-.29.28-.32.54-.66.87-.93.07-.06.36.13.83.33Z"/>
        <path class="cls-2" d="M71.86,59.51c-.35.38-.6.65-.84.92-.15-.16-.47-.39-.43-.46.15-.32.39-.6.64-.86.03-.03.33.2.64.4Z"/>
        <path class="cls-2" d="M233.95,51.23c-.38.18-.67.42-.78.36-.23-.13-.44-.41-.5-.67-.03-.1.41-.48.53-.43.24.09.41.38.75.74Z"/>
        <path class="cls-2" d="M159.29,124.03c.21.32.44.61.41.64-.2.21-.44.39-.71.5-.06.03-.38-.32-.36-.36.15-.24.36-.44.66-.78Z"/>
        <path class="cls-2" d="M203.87,64.45c.29.43.55.65.53.84-.02.21-.3.39-.46.59-.14-.21-.34-.4-.38-.62-.03-.16.13-.37.31-.8Z"/>
      </g>
      <rect class="cls-1" width="288" height="288"/>
    </g>
  </g>
</svg>