<?xml version="1.0" encoding="UTF-8"?>
<svg id="Layer_2" data-name="Layer 2" xmlns="http://www.w3.org/2000/svg" viewBox="0 0 194.9 172.29">
  <defs>
    <style>
      .cls-1 {
        fill: #eee;
        stroke-width: 0px;
      }
    </style>
  </defs>
  <g id="Layer_1-2" data-name="Layer 1">
    <path class="cls-1" d="M12.87,110.11c3.62-6.06,7.56-11.95,10.77-18.21,4.77-9.3,5.67-19.4,5.15-29.74-.13-2.51.94-5.09,2.41-7.51v5.65c3.09,1.2,5.29.79,5.89-2.35,1.08-5.66,1.96-11.36,2.64-17.07.16-1.32-.55-3-1.37-4.14-3.43-4.73-3.25-6.62,1.9-7.95,3.47-.9,4.6-2.83,5.22-5.9,1.04-5.17,2.3-10.3,3.43-15.46.59-2.7,2.32-4.29,4.89-4.84,3.22-.69,6.48-1.56,9.74-1.61,12.86-.21,25.72-.05,38.58-.2C118.52.6,134.91.19,151.31,0c5.98-.07,11.97.39,17.95.29,2.91-.05,3.85,1.2,4.28,3.81.81,4.83,2.77,5.82,7.07,3.84.79-.37,1.44-1.04,2.22-1.46.55-.3,1.21-.42,2.64-.89.48,2.72,1.08,5.21,1.34,7.73,1.53,14.53,2.87,29.09,4.49,43.61.91,8.14,2.03,16.27,3.42,24.34.7,4.07-.57,6.3-3.89,8.79-4.33,3.25-7.91,7.56-11.59,11.62-2.84,3.14-5.64,5.15-10.28,3.88-3.08-.84-4.44.66-4.56,3.99-.07,1.95.26,3.92.44,6.3,2.29.3,4.36.58,6.81.9-.85,4.93-1.84,9.41-4.33,13.51-1.39-2.85-1.68-5.56-.22-8.22-4.43,0-8.89,0-13.34,0-1.29,0-2.57.1-3.86.06-4.77-.17-5.48.6-5.32,5.93.15,5.32,1,6.16,5.61,5.6,1.73-.21,3.48-.33,5.2-.56,1.46-.2,2.91-.52,4.71-.84v-4.86c1.32,3.11,1.98,6.16,6.26,6.67,2.53.3,3.38,2.98,2.79,5.27-1.1,4.29.66,7.75,2.41,11.36,1.35,2.79,2.33,5.75,3.55,8.6,1.8,4.21.68,6.77-3.73,7.71-2.81.6-5.7.94-8.57,1.08-23.25,1.13-46.5,2.19-69.75,3.27-5.31.25-10.64.29-15.92.85-3.84.41-5.86-1.1-6.82-4.6-.98-3.57-2-7.13-2.97-10.6,6.72-4.8,14.05-.85,19.9-3.31.37-3.98.71-7.75,1.07-11.59-4.76-.81-5.45-.44-6.36,3.82-.35,1.65-.72,3.29-1.21,5.58-3.53-2.57-.86-5.9-2.7-8.77h-14.06c.18-2.31.31-3.97.43-5.64-2.94,4.35-9.6,6.02-9.38,12.84-.23-1.2-.29-2.46-.73-3.57-.52-1.32-1.37-2.52-2.08-3.76-1.38.84-2.76,1.67-4.4,2.67.33.16.02.1,0,0-.85-5.45-5.63.48-7.31-2.53-3.3,2.87-2.48,6.68-2.72,10.19,5.63,2.28,11.6-.51,16.65,1.89.94,5.74,1.78,10.93,2.62,16.07-5.07,0-10.13.21-15.17-.04-11.29-.57-22.57-1.36-33.85-2.07-1.11-.07-2.23-.09-3.31-.33-5.15-1.17-6.25-5.18-2.56-9.28,2.22-2.47,4.5-4.88,6.7-7.36.41-.47.54-1.19.61-1.36,6.6,4.83,14.08,1.19,21.54,2.92.47-4.1.86-7.5,1.21-10.62-2.38-.35-4.12-.74-5.88-.85-3.06-.18-6.23-.7-9.18-.17-6.09,1.1-9.52-1.62-12.09-7.16,5.85,2.97,11.57,1.56,17.54.77-1.37-.6-2.74-1.21-4.64-2.05.84-2.4,1.71-4.9,2.71-7.75-2.63-1.24-4.56-.42-5.83,2.6-.78,1.86-.4,4.52-3.73,5.48v-7.4c-3.17-.6-5.98-1.13-9.39-1.77,3.02-6.05,6.85-10.47,11.25-14.46-1.25,3.2-2.5,6.4-3.97,10.18,10.23.31,19.51.65,28.8.86,4.81.11,9.63.06,14.45-.02,3.76-.07,5.52-2.62,3.09-5.41-2.5-2.86,2.03-2.94.84-4.93-.32-.2-.86-.83-1.4-.83-5.17-.01-10.34.11-15.51.14-2.37.01-3.76,1.18-4.18,3.43-.55,2.94-2.47,3.68-4.85,3.71-1.82-4.43,3.85-2.03,3.92-4.87-1.39-3.03-3.64-2.05-6.1-1.57-2.05.4-4.6-.79-6.31.03-1.78.86-2.82,3.27-4.23,5.07q-.96-4.76-4.67-5.66ZM44.81,90.14c-2.08-4.8-5.26-1.26-7.46-1.54v12.52c3.68.06,3.61-2.44,4.3-4.4.82-2.35.09-5.49,3.26-6.7-.18,1.98-.26,3.98-.55,5.94-.4,2.75.14,4.96,3.22,5.54,2.78.52,4.87-.8,5.76-3.35,1.02-2.9,2.21-6.26-.18-8.82-2.76-2.96-5.68-.81-8.35.81ZM95.86,55.33c.33.43.97,1.02,1.31,1.76.94,2.09,2.52,3.6,4.57,2.24,1.02-.68,1.53-3.07,1.29-4.53-.83-5.24-1.89-10.47-3.27-15.59-.36-1.35-2.04-2.82-3.43-3.29-2.09-.7-3.89.5-4.66,2.67-.59,1.66-.96,3.41-1.51,5.09-1.47,4.53-2.98,9.04-4.47,13.56-.94-4.83-.69-9.4-.4-13.96.07-1.1.38-2.19.4-3.29.04-2.11-.26-4.18-2.99-4.26-2.18-.06-3.06,1.43-3.28,3.42-.15,1.32-.01,2.79-.58,3.89-.43.83-1.78,1.19-3.36,2.15,0-2.64.32-4.45-.11-6.06-.32-1.19-1.61-2.13-2.47-3.18-1.05.92-2.85,1.72-3.04,2.79-1.05,6.1-1.81,12.25-2.4,18.41-.09.93,1,2.57,1.9,2.89,1.79.63,3.57-.03,4.11-2.18.38-1.49.35-3.09.76-4.57.35-1.23,1.08-2.35,1.91-4.09,3.13,3.67.61,7.27,2.46,11.13,2.73,0,5.94-.31,9.07.08,4.26.53,3.78-5.57,8.18-5.07ZM111.77,8.31c-3.23-3.26-6.73-2.52-10.03-1.83-1.05.22-2.31,2.09-2.49,3.35-.59,4.15-.9,8.36-1.01,12.55-.13,4.92.44,5.42,5.16,5.52,1.99.04,3.99-.06,5.97-.23q8.76-.78,10.77-9.36c1.34,2.65,2.32,5.11,3.79,7.23.59.85,2.33,1.51,3.36,1.29.97-.2,2.36-1.61,2.41-2.55.28-5.29.32-10.6.14-15.9-.03-.93-1.4-2.44-2.28-2.54-.85-.09-2.28,1.11-2.7,2.08-.62,1.43-.57,3.16-.93,5.64-1.63-2.55-2.46-4.43-3.82-5.78-.94-.93-2.66-1.62-3.93-1.49-.83.09-1.8,1.76-2.12,2.89-.41,1.45-.19,3.07-.29,4.62-.24,3.43-.52,6.86-.78,10.35-2.19.11-3.56.43-4.8.16-1.14-.25-2.73-.94-3.03-1.81-.34-.97.27-2.58.97-3.53.79-1.08,2.14-1.74,3.46-2.74-.99-.82-1.54-1.17-1.95-1.64-.78-.9-2.17-1.98-2.04-2.78.15-.92,1.58-1.78,2.63-2.35,1.09-.58,2.38-.78,3.58-1.15ZM120.87,146.68c2.23,4.93,4.75,7.31,9.23,5.1.33-.16.86.1,1.29.09,7.92-.23,15.85-.35,23.76-.74,4.71-.24,6.23-2.31,5.69-6.95-.54-4.58-2.08-5.82-7.02-5.65-1.1.04-2.2.04-3.29,0-3.26-.11-4.89,1.31-4.98,4.69-.05,1.74.83,4.09-1.84,4.95-3.53-1.54.38-7.47-5.16-8.17-.54,3.28-1.05,6.32-1.55,9.36-.47.01-.94.03-1.41.04-.34-1.31-.88-2.6-.99-3.92-.51-5.86-.52-5.9-7.18-4.03-.18,2.07-.37,4.26-.68,7.94-.48-3.68-.76-5.82-1.03-7.88-2.67-.39-4.97-.93-7.29-.99-1.16-.03-2.71.49-3.46,1.32-1.77,1.96-.91,7.99,1.43,10.85,1.27-1.69,2.48-3.31,4.5-6ZM81.16,94.45c.96,6.64.96,6.69,7.83,5.68,2.99-.44,5.93-1.14,9.03-1.75.39-1.84.88-3.96,1.28-6.1.59-3.18-.5-4.84-3.33-5.19-2.9-.36-4.32.8-4.89,3.96-.35,1.93-.59,3.9-1.19,5.76-.13.42-1.54.62-2.33.56-.38-.03-1.06-1.26-.98-1.35,2.26-2.41-1.08-6.41,2.89-8.4-4.79-.34-9.11-.58-13.38-.21-1.54.13-2.95,1.73-3.62,2.16-2.31-.66-4.42-1.97-6.07-1.54-1.51.4-2.73,2.57-3.66,4.19-.62,1.08-.65,2.58-.68,3.89-.09,3.8,1.71,5.35,5.32,4.8,2.43-.37,4.86-.67,7.56-1.04,1.02-2.76,2.41-5.5,6.21-5.43ZM112.05,49.63c1.72,3.42,2.63,5.95,4.17,8.02.72.97,2.7,1.51,4.01,1.36.85-.1,2.09-1.76,2.15-2.79.36-5.96.51-11.94.47-17.91,0-.96-1.63-2.81-2.08-2.69-1.24.34-2.96,1.33-3.22,2.38-.51,2.04-.15,4.29-.15,6.45-2.15-2-3.02-4.45-4.45-6.53-.73-1.06-2.54-2.11-3.68-1.93-1.12.17-2.75,1.81-2.87,2.94-.63,5.94-.95,11.93-1.1,17.9-.02.93,1.43,2.71,2.13,2.67,1.25-.06,3.12-.95,3.51-1.96.76-2,.68-4.31,1.12-7.9ZM63.3,120.26h35.29c-.08-.54,0-1.58-.3-1.69-2.82-1.09-4.18-2.46-3.1-5.92.71-2.28-1.42-3.54-3.74-3.42-3.05.16-3.13,2.66-3.33,6.09-.75-4.79-2.99-5.92-6.36-5.76-4.26.2-8.55.46-12.8.22-4.05-.23-5.18.3-5.64,4.41-.21,1.92-.04,3.89-.04,6.08ZM66.62,80.99c.36.42.73.84,1.09,1.26,2.26-1.63,4.3-1.6,6.73-.61,1.9.77,4.43.59,6.54.15,4.07-.85,8.09-.83,12.12-.14,2.41.41,4.54.05,5.73-2.19,1.18-2.24-.53-3.67-1.97-5.09-.56-.55-.94-1.27-1.45-1.99.76-.32,1.16-.46,1.54-.66.54-.29,1.06-.61,1.65-.96-2.89-2.36-4.33-2.6-5.97-.85-3.37,3.61,1.11,5.27,2.19,7.93h-5.66c.05-1.02,0-1.69.13-2.32,1.11-5.4-.12-6.99-5.3-6.67-1.96.12-3.9.42-6.14.68-.58,1.7-1.17,3.44-1.87,5.51-.31-.98-.38-1.68-.73-2.19-.79-1.17-1.72-2.24-2.59-3.35-1.05.97-2.51,1.75-3.05,2.95-1.23,2.74-2.01,5.69-2.98,8.56ZM125.75,59.2c4.35-.46,7.62-.59,10.79-1.19,3.21-.61,4.97-3.1,5.1-6.15.17-3.93.15-7.97-.57-11.81-.93-4.94-10.85-7.6-14.33-4.07-.56.57-.94,1.57-.95,2.37-.08,6.56-.04,13.13-.04,20.84ZM70.21,20.55c.75,2.15.98,4.06,2,5.35.75.95,2.52,1.09,3.83,1.59.41-1.12,1.39-2.42,1.12-3.34-1-3.39-.65-6.08,1.47-9.19,2.33-3.42.55-7.07-3.46-8.27-2.05-.61-4.34-.59-6.52-.6-2.23-.01-3.68,1.15-4.14,3.47-1.22,6.02-2.1,12.04-1.18,18.22,6.34,1.12,3.54-5.23,6.88-7.22ZM62.04,126.21c-5.26,0-10.58.23-15.87-.11-2.17-.14-4.59-1.61-6.02.74-1.2,1.98-1.83,4.46-2.12,6.8-.33,2.69,1.5,4.21,4.07,4.07,6.58-.35,13.14-.96,19.36-1.44.21-3.76.4-6.97.57-10.07ZM71.87,136.49c6.4,2.02,9.05-1.1,10.57-6.17.25,2.03.5,4.07.79,6.47,3.69-.17,6.89-.32,10.06-.47.35-2.52.72-4.62.93-6.74.31-3.09-1.03-5.11-3.86-4.8-5.84.64-11.59,1.09-17.49.33-3-.39-3.7,1.09-2.94,4.24.56,2.34,1.25,4.65,1.94,7.15ZM88.82,18.03c.58,1.38,1.43,2.69,1.58,4.08.07.7-1.13,1.53-1.76,2.3-.69-.67-2.07-1.47-1.97-2,.73-3.93-.4-8.32,2.51-11.97.81.51,1.48.74,1.86,1.21,1.42,1.78,3.06,2.82,4.96.92,1.36-1.35.21-4.08-2.07-5.47-3.66-2.23-8.65-1.2-11.25,2.32-2,2.72-2.92,13.46-1.22,16.05,3.03,4.59,7.46,2.51,11.48,2.2.81-.06,1.58-.56,2.22-.8,1.95-9.94,1.2-11.02-6.33-8.83ZM134.52,118.46c-1.27-3.96-2.29-7.11-3.3-10.26-.42,0-.84-.02-1.26-.03-.81,2.77-1.63,5.54-2.44,8.31-.45-.07-.9-.14-1.36-.21-.43-2.66-.86-5.32-1.36-8.42-5.11,1.36-9.9.95-14.72.52-1.05-.09-2.96.89-3.18,1.72-.78,3-2.05,6.3,1.25,9.24,1.57-1.68,2.95-3.14,4.1-4.37,2.06,1.68,3.66,4.09,5.35,4.16,5.56.24,11.16-.38,16.9-.67ZM42.77,76.46c-.39-1.57-.39-2.57-.86-3.24-.79-1.15-1.72-2.51-2.89-2.94-.6-.22-2.3,1.22-2.76,2.24-1.3,2.89-2.21,5.95-3.35,9.14,2.77.16,4.65.14,6.49.41,6.43.91,10.19-2.84,9.61-9.94,2.74-.75,4.87-.73,4.52,3.08-.21,2.31-1.2,4.7.77,6.84q2.66-2.25,5.24-13.19c-2.72,0-5.32-.04-7.91,0-6.45.11-6.64.28-8.87,7.61ZM130.45,80.24c.23-3.54.35-5.93.55-8.31.24-2.72-.99-4.24-3.66-4.46-2.57-.21-4.29.8-4.4,3.67-.05,1.54-.16,3.08-.25,4.77-1.14-2.55.83-5.98-2.4-7.69-3.31,1.25-1.61,4.4-2.92,6.48-.51-1.33-.84-2.64-1.51-3.75-.52-.86-1.67-2.16-2.19-2.02-1.07.3-2.38,1.27-2.73,2.27-.97,2.79-1.5,5.74-2.19,8.55,4.42.37,7.99.69,11.56.96,3.34.25,6.3-2.98,10.13-.47ZM138.99,9.05c2.22,1.5,3.54,2.71,5.1,3.31.71.28,2.1-.42,2.77-1.1.42-.42.34-1.73.03-2.43-1.08-2.39-4.87-4.05-7.97-3.7-3.63.41-6.08,2.29-6.38,5.61-.33,3.73-.38,7.52-.06,11.25.29,3.3,2.71,4.89,6.66,5.12,3.9.22,7.42-1.62,8.04-4.47.19-.9-.22-2.58-.82-2.84-.98-.43-2.57-.36-3.48.19-1.14.7-1.85,2.11-3.22,3.8-2.39-5.12-1.85-9.47-.67-14.74ZM60.88,26.8c-.91-1.03-1.13-1.45-1.48-1.66-1.72-1.01-4.79.19-5.1-3.14-.3-3.17,2.73-2.99,4.26-4.32.28-.24.31-.77.45-1.16-.2-.38-.31-.89-.62-1.11-1.15-.81-3.55-.87-2.59-3,.5-1.13,2.15-1.85,3.4-2.52,1.22-.66,2.59-1.02,4.29-1.66-3.44-2.4-9.88-2.99-12.04-1.35-.66.5-1.34,1.34-1.46,2.11-.98,6.05-1.82,12.12-2.7,18.21,5.04,1.84,9.15,2.56,13.6-.38ZM41.75,37.65c4.52,2.18,4.15,5.47,3.39,9.08-.68,3.24-1.02,6.56-1.48,9.85-.26,1.86-.22,3.73,2.07,4.22,2.23.47,3.99-.3,4.5-2.74.46-2.16.9-4.35,1.12-6.54.51-5.27-.58-11.16,7.15-13.77-6.23-3.25-11.24-1.07-16.75-.08ZM150.68,53.15c-.24-2.78-.52-5.6-.7-8.42-.15-2.42-.06-4.85-.29-7.26-.2-2.06-1.59-3.44-3.59-2.77-1.1.37-2.48,2.02-2.51,3.13-.13,5.71.07,11.44.31,17.15.04.98.7,2.67,1.29,2.76,2.57.42,5.21.49,7.82.48,1.87-.01,3.96.05,4.94-2.86-2.42-.73-4.61-1.39-7.26-2.19ZM158.1,115.89c-.11-2.51-.07-4.9-.42-7.24-.11-.73-1.3-1.29-2-1.92-1.55,3.08-2.59-.43-3.94-.31-1.63.15-3.31-.02-4.89.32-1.56.33-4.09.85-4.32,1.75-.6,2.39-.58,5.14.03,7.53.22.85,2.89,1.58,4.39,1.49,3.42-.2,6.81-.95,11.14-1.62ZM149.36,6.47c1.97,6.13,6.21,11.18,5.86,17.73-.04.67,2.25,2.22,2.63,2,1.11-.67,2.68-2.2,2.51-3.11-.84-4.64.47-8.71,2.46-12.72.29-.59.84-1.14.91-1.75.09-.79.08-2.14-.34-2.34-.87-.42-2.43-.72-2.98-.24-1.37,1.2-2.33,2.86-3.51,4.41-2.29-1.89-2.73-6.03-7.54-3.98ZM126.9,87.11l-.4-1.25c-5.1.23-10.2.45-16.7.74,4.9,3.67.88,9.31,5.82,13.52.8-4,1.43-7.14,2.06-10.28,1.4,2.39,1.5,4.72,1.91,6.99.46,2.57,2.5,2.79,4.6,2.48.96-.14,1.87-.63,3.33-1.14-1.59-1.37-2.62-2.26-3.67-3.17,1.04-1.25,1.83-2.2,2.62-3.15-.98-.87-1.72-1.54-2.52-2.25,1.08-.91,2.02-1.7,2.97-2.5ZM171.55,45.41c-1.55-.96-2.71-1.45-3.57-2.26-.99-.93-2.17-2.05-2.38-3.24-.11-.64,1.52-1.82,2.57-2.37,1.37-.73,3.7.15,4.02-2.69-3.35-1.82-6.86-1.02-10.19-.32-1.09.23-2.57,1.98-2.65,3.12-.33,4.77-.27,9.58,2.5,14.61,3.32-2.34,6.23-4.39,9.7-6.84ZM136.8,135.39l.96-1.73c-4.27-2.03-.79-7.86-5.77-10.22-.67,3.26-1.24,6.03-1.81,8.8-.54,0-1.09,0-1.63,0-.44-2.61-.88-5.22-1.31-7.75-5.98-.73-6.49-.35-6.65,4.74-.02.66.01,1.32,0,1.98-.02,2.59.99,4.21,3.84,4.2,4.12-.02,8.25,0,12.37,0ZM95.82,153.07c2.37.27,4.32.79,6.2.6,1.6-.16,3.46-.79,4.6-1.86,1.68-1.56.46-3.27-.87-4.56-1.28-1.23-.95-1.77.29-3.03,1.8-1.83-.17-2.94-1.69-2.9-2.74.08-5.45.73-8.53,1.19v10.55ZM109.83,135.04c9.03-.18,9.98-1.4,9.15-10.35h-11.15c.73,3.79,1.34,6.93,2,10.35ZM100.18,98.33c.42,1.09.84,2.17,1.26,3.26,2.23-7.27,5.13-.72,8.27-3.4-.49-2.74-.93-5.94-1.71-9.05-.21-.84-1.52-2.04-2.22-1.98-1.08.11-2.63.95-2.97,1.86-1.12,3.01-1.79,6.2-2.63,9.31ZM104.11,81.02c3.72-3.74,1.54-8.77,4.61-13.05-3.18.14-5.25.24-8.67.39,4.24,3.87.24,8.9,4.06,12.66ZM100.92,124.78c-3.61-.81-5.53.24-5.75,3.68-.1,1.53-.21,3.09-.07,4.61.35,3.6,1.29,3.94,5.69,2.24-2.22-3.35-1.15-6.68.12-10.53ZM175.71,55.29c-1.4-.63-1.99-1.13-2.58-1.12-3.84,0-7.68.08-11.51.26-.41.02-1.05.87-1.09,1.38-.03.5.48,1.39.91,1.5,4.49,1.15,8.84,1.05,14.27-2.02ZM37.35,136.32c-4.8-2.84.21-7.72-3.55-10.93-2.71,2.89-2.57,6.27-2.48,9.35.08,3.03,2.31,3.2,6.03,1.58Z"/>
  </g>
</svg>