<?xml version="1.0" encoding="UTF-8"?>
<svg id="Layer_2" data-name="Layer 2" xmlns="http://www.w3.org/2000/svg" viewBox="0 0 288 288">
  <defs>
    <style>
      .cls-1 {
        fill: none;
      }

      .cls-1, .cls-2 {
        stroke-width: 0px;
      }

      .cls-2 {
        fill: #eee;
      }
    </style>
  </defs>
  <g id="Layer_1-2" data-name="Layer 1">
    <path class="cls-2" d="M142.84,164.28c-8.04,9.03-14.59,18.42-20.11,28.54-.76,1.39-1.41,2.84-2.21,4.21-1.59,2.7-2.36,5.54-1.92,8.7,1.01,7.25-2.58,12.07-8.37,15.75-1.49.95-2.78,1.21-4.37.23-8.83-5.45-14.4-12.58-14.74-23.65-.35-11.39,3.33-21.22,9.18-30.56,1.54-2.46,3.33-4.77,4.81-7.26,3.63-6.1,7.28-12.15,12.07-17.49,2.71-3.02,2.67-4.45-.12-7.22-4.87-4.82-10.08-9.31-15.25-13.82-.64-.55-1.92-.36-1.99-.37-2.6-3.55-4.67-6.71-7.1-9.55-1.06-1.24-1.56-2.3-1.4-3.85.37-3.72.15-7.29-1.33-10.87-.63-1.52,0-3.6.2-5.4.24-2.18.64-4.34,1.07-7.15,1.51-.97,3.78-.29,5.94-.33.51,0,1.03.22,1.55.31,17.4,3.12,25.08,9.71,35.1,18.53,2.37,2.09,4.66,4.28,7.33,6.74,1.45-1.35,2.92-2.59,4.26-3.97,9.57-9.85,19.06-19.79,28.71-29.57,2.3-2.33,5.15-4.12,7.67-6.25,1.67-1.42,3.53-1.53,5.1-.36,2.81,2.11,5.62,4.33,7.98,6.92,2.64,2.9,4.77,6.27,7.42,9.83-1.29,3.69-2.71,7.91-4.26,12.07-.25.67-1.01,1.2-1.62,1.68-13.63,10.66-24.77,23.71-35.83,37.15,4.89,5.04,9.71,10.01,14.52,14.98,1.01,1.04,1.96,2.14,2.97,3.19,1.47,1.52,2.74,3.35,4.48,4.46,7.63,4.87,9.95,13.18,13.7,20.57,1.25,2.46.39,4.97-.4,7.32-.71,2.11-2.34,3.97-2.74,6.1-.96,5.05-4.65,7.31-9.02,9.69-3.88-1.77-8.14-3.54-12.2-5.68-1.26-.66-2.13-2.26-2.9-3.6-6.66-11.63-16.08-20.82-26.15-30.02Z"/>
    <rect class="cls-1" width="288" height="288"/>
  </g>
</svg>