<?xml version="1.0" encoding="UTF-8"?>
<svg id="Layer_2" data-name="Layer 2" xmlns="http://www.w3.org/2000/svg" viewBox="0 0 288 288">
  <defs>
    <style>
      .cls-1 {
        fill: none;
      }

      .cls-1, .cls-2 {
        stroke-width: 0px;
      }

      .cls-2 {
        fill: #eee;
      }
    </style>
  </defs>
  <g id="Layer_1-2" data-name="Layer 1">
    <g>
      <path class="cls-2" d="M143.63,159.57c-6.01,6.75-10.91,13.78-15.04,21.35-.57,1.04-1.05,2.13-1.65,3.15-1.19,2.02-1.77,4.14-1.44,6.51.76,5.42-1.93,9.03-6.26,11.78-1.12.71-2.08.91-3.27.17-6.6-4.08-10.77-9.41-11.02-17.69-.26-8.52,2.49-15.87,6.87-22.86,1.15-1.84,2.49-3.57,3.6-5.43,2.72-4.57,5.44-9.09,9.03-13.08,2.03-2.26,2-3.33-.09-5.4-3.64-3.61-7.54-6.96-11.41-10.34-.48-.41-1.44-.27-1.49-.28-1.94-2.65-3.49-5.02-5.31-7.15-.79-.92-1.16-1.72-1.05-2.88.28-2.78.11-5.46-.99-8.13-.47-1.14,0-2.69.15-4.04.18-1.63.48-3.25.8-5.35,1.13-.73,2.83-.22,4.45-.25.38,0,.77.16,1.16.23,13.02,2.33,18.76,7.26,26.25,13.86,1.78,1.56,3.49,3.2,5.48,5.04,1.09-1.01,2.18-1.94,3.18-2.97,7.16-7.37,14.26-14.8,21.47-22.11,1.72-1.74,3.85-3.08,5.73-4.68,1.25-1.06,2.64-1.15,3.81-.27,2.1,1.58,4.21,3.24,5.97,5.18,1.97,2.17,3.57,4.69,5.55,7.35-.96,2.76-2.03,5.91-3.19,9.03-.19.5-.75.9-1.21,1.25-10.2,7.97-18.53,17.74-26.8,27.79,3.66,3.77,7.26,7.48,10.86,11.2.75.78,1.47,1.6,2.22,2.38,1.1,1.14,2.05,2.51,3.35,3.34,5.71,3.64,7.44,9.86,10.25,15.38.94,1.84.29,3.72-.3,5.47-.53,1.57-1.75,2.97-2.05,4.56-.72,3.78-3.48,5.47-6.75,7.25-2.91-1.33-6.09-2.65-9.13-4.25-.94-.5-1.6-1.69-2.17-2.69-4.98-8.7-12.03-15.58-19.56-22.45Z"/>
      <rect class="cls-1" width="288" height="288"/>
    </g>
  </g>
</svg>