<?xml version="1.0" encoding="UTF-8"?>
<svg id="Layer_2" data-name="Layer 2" xmlns="http://www.w3.org/2000/svg" viewBox="0 0 120.2 60.76">
  <defs>
    <style>
      .cls-1 {
        fill: #eee;
        stroke-width: 0px;
      }
    </style>
  </defs>
  <g id="Layer_1-2" data-name="Layer 1">
    <path class="cls-1" d="M0,32.27c.94-4.99,1.21-9.99,4.37-14.12,1.18-1.54,2.38-3.15,3.87-4.35.88-.7,2.37-.62,3.55-.99.26-.08.6-.66.54-.93-.19-.86-.38-1.57.89-1.6.08,0,.18-.61.22-.95.07-.57.1-1.14.14-1.72.45.37.9.73,1.34,1.1,1.03.85-.8,3.18,1.59,3.23,1.33.03,2.66-.43,3.99-.44,1.49-.01,3.01.48,4.47.32,3.19-.33,6.38-.81,9.49-1.54.6-.14.88-1.71,1.28-2.63.1-.23.1-.51.14-.77.21.13.48.22.61.41.65.98,1.36,1.03,2.53.72,3.42-.91,6.9-1.65,10.39-2.25,1.2-.21,2.52.32,3.77.29,1.85-.04,3.7-.28,5.56-.42.76-.06,1.65-.36,2.25-.08,1.36.64,2.14-.39,3.2-.66,1.91-.48,4.12-1.05,5.88-.52,1.37.42,2.25,2.45,3.34,3.78.29.35.48.8.81,1.08.5.42,1.08.75,1.62,1.11.46-.92,1.26-1.85,1.27-2.77,0-.86-.91-1.69-1.3-2.59-.2-.46-.27-1.46-.15-1.5,1.39-.47,2.81-.84,4.24-1.17.65-.15,1.46.07,2-.22,1.67-.91,3.09-.7,4.2.81.22.3.53.53.79.8.18-.36.34-.74.55-1.08.49-.78.91-1.66,1.57-2.28.37-.34,1.16-.38,1.74-.32,2.01.23,4.01.56,6.02.85.58.08,1.3,0,1.72.3,2.48,1.79,4.88,3.68,7.31,5.54.18.14.28.36.45.51,2.97,2.62,5.87,5.33,8.93,7.83,2.97,2.43,4.06,6.11,2.77,9.96-.17.5.13,1.52.54,1.79,1.9,1.26,1.22,3.06,1.22,4.74,0,.35,0,.72.12,1.04,1.12,2.89-.59,7.59-3.34,8.97-1.95.98-2.98,2.56-3.27,4.68-.16,1.16-3.06,3.5-4.47,3.71-.59.09-1.14.46-1.72.67-.72.26-1.49.75-2.17.67-1.23-.15-2.37-.49-3.25.77-.09.13-.5.04-.77.04-1.71-.01-3.54-.4-5.11.06-1.87.55-3.32.32-4.91-.61-.54-.32-1.39-.32-2.03-.19-1.82.38-3.66,1.38-5.4,1.21-1.39-.13-2.78-1.49-3.94-2.56-.86-.79-1.25-2.09-2.81-1.08-.34.22-1.25.09-1.51-.21-.91-1.06-1.66-2.26-2.47-3.41-.19-.27-.41-.52-.62-.79-.15.36-.46.73-.42,1.07.15,1.4.45,2.78.6,4.18.13,1.21.22,2.44.14,3.65-.02.32-.72.66-1.16.88-.42.21-.99.17-1.37.42-2.81,1.88-3.66,1.57-4.49-1.66-.07-.27-.26-.5-.4-.75-.04.26-.11.51-.13.77-.12,1.43-.38,2.28-2.16,1.33-1.07-.57-2.34-.34-2.19,1.46.14,1.57-.39,2.37-2.15,2.27-.92-.06-1.87.56-2.79.51-3.9-.19-7.79-.49-11.68-.81-.33-.03-.76-.51-.9-.88-.53-1.45-.92-2.96-1.46-4.41-.14-.36-.63-.59-.96-.88-.27.32-.53.65-.83.94-.34.34-.72.63-1.07.96-.68.65-1.36,1.31-2.03,1.98-.62.62-1.21,1.26-1.84,1.87-.31.3-.65.65-1.04.79-.71.26-1.47.37-2.2.55-1.1.27-2.19.66-3.3.78-2.44.28-4.9.4-7.35.62-.97.09-1.92.31-2.88.41-.64.07-1.69.3-1.88.02-.88-1.36-1.81-.71-2.79-.31-.84.34-1.38.66-2.15-.55-1.02-1.59-2.85-2.63-4.08-4.11-1.03-1.24-1.73-2.76-2.49-4.2-.31-.59-.29-1.35-.59-1.96-.92-1.88-.4-3.09,1.53-3.81,1.02-.38,1.24-1.04.46-1.87-1.16-1.24-1.39-2.41-.35-3.96.46-.68.21-1.86.21-2.81,0-.15-.32-.44-.5-.44-1.11,0-2.75.55-3.22.02-1.03-1.16-1.47-2.85-2.17-4.35ZM79.38,26.55c-.54-.72-.9-1.2-1.26-1.68-.57,1.05-1.14,2.1-1.71,3.15.63.26,1.6.91,1.81.72.55-.51.77-1.38,1.16-2.19ZM102.03,21.5c-.73-.79-1.27-1.38-1.82-1.97-.23.61-.75,1.3-.62,1.82.14.56.9.96,1.38,1.42.28-.34.57-.69,1.05-1.27ZM71.04,25.58c.74.63,1.29,1.08,1.83,1.54.23-.43.77-1,.64-1.25-.27-.57-.87-.98-1.34-1.45-.31.31-.61.63-1.14,1.16ZM71.34,16.45c-.49-.5-.86-.89-1.23-1.27-.2.48-.63,1-.55,1.43.08.45.63.83.98,1.23.24-.41.47-.82.8-1.39ZM70.76,33.67c.38-.72.79-1.14.75-1.51-.04-.35-.56-.65-.87-.97-.25.39-.66.76-.71,1.17-.03.31.4.67.83,1.3ZM73.87,38.4c-.7-.37-1.24-.67-1.8-.92-.02,0-.36.52-.32.56.45.46.95.87,1.44,1.29.16-.22.32-.45.67-.93ZM70.77,11.04c-.19.68-.43,1.08-.36,1.42.05.25.51.41.79.61.2-.35.55-.71.55-1.06,0-.25-.48-.5-.99-.97ZM86.58,16.1c-.32-.68-.59-1.26-.86-1.84-.1.3-.35.66-.27.91.16.52.49.99.75,1.48.13-.18.25-.36.38-.54ZM56.31,33.88c-.33-.35-.61-.64-.9-.93-.07.23-.26.5-.2.68.14.43.4.83.61,1.24.14-.29.28-.58.48-1ZM16.51,25.63c-.17.51-.36.79-.29.95.17.37.46.68.71,1.01.15-.18.46-.42.42-.52-.18-.42-.46-.81-.84-1.44ZM65.47,14.7c-.09.82-.22,1.17-.13,1.44.09.28.41.49.62.73.1-.31.31-.64.28-.94-.03-.29-.32-.54-.77-1.24Z"/>
  </g>
</svg>