<svg width="397" height="735" viewBox="0 0 397 735" fill="none" xmlns="http://www.w3.org/2000/svg">
<g clip-path="url(#clip0_220_161)">
<path d="M168.67 295.204C164.507 285.844 157.816 282.853 151.841 278.721C141.857 271.803 133.099 262.991 122.635 256.971C113.202 251.57 105.017 244.963 96.5894 237.471C92.7912 237.856 88.7526 238.245 84.4648 238.67C65.3332 219.414 41.0085 210.091 15.4294 206.727C-0.135651 204.677 -16.1418 201.21 -32.3353 203.165C-34.7773 203.469 -37.6135 200.519 -40.8386 198.766C-49.2918 202.351 -58.6866 204.726 -69.5934 204.061C-84.9767 203.121 -100.524 206.242 -114.068 214.142C-135.108 226.396 -155.611 239.582 -176.166 252.582C-180.534 255.346 -185.131 258.459 -188.078 262.561C-198.528 277.175 -213.241 286.883 -226.869 297.907C-228.397 299.14 -229.359 301.072 -230.866 302.994L-238.176 301.035C-238.343 299.999 -238.742 298.934 -238.59 297.982C-237.456 291.068 -234.275 285.454 -229.281 280.224C-216.642 267.018 -204.35 253.446 -192.453 239.563C-184.89 230.744 -176.547 223.23 -166.571 217.282C-148.741 206.664 -130.635 197.318 -110.111 192.349C-98.9551 189.659 -88.8184 182.728 -79.0654 178.123C-72.1368 178.44 -65.8306 179.548 -59.7586 178.849C-43.3993 177.04 -27.0288 178.382 -10.8041 178.863C8.33677 179.442 27.5003 182.49 46.5922 183.124C65.4925 183.707 82.1641 191.458 100.108 194.59C120.054 207.358 144.521 211.553 162.775 227.7C165.341 229.996 169.775 230.431 173.442 231.174C181.719 232.844 184.259 233.833 190.86 239.331C198.869 245.958 201.617 246.558 215.307 246.668C219.538 246.707 223.754 248.213 227.653 248.984C228.605 250.026 229.157 251.029 229.983 251.524C245.954 260.867 247.964 277.245 249.135 292.919C250.367 309.26 256.794 323.709 261.615 338.787C262.247 340.77 263.428 343.002 265.05 344.224C273.566 350.748 276.516 360.296 279.455 370.013C277.158 382.671 276.483 395.148 279.518 408.209C282.367 420.433 282.045 433.381 283.429 445.965C283.993 451.008 283.942 456.947 286.668 460.688C293.569 470.303 293.835 481.185 294.744 491.966C295.655 502.61 296.036 513.317 295.777 523.99C295.624 529.286 293.204 534.487 292.329 539.795C290.849 549.149 285.521 557.54 287.678 568.004C288.76 573.289 286.749 581.303 283.032 584.96C277.824 590.098 282.886 595.594 279.608 600.292C274.87 606.994 269.507 613.22 263.455 618.441C258.737 622.514 253.98 626.097 250.299 631.405C247.457 635.502 242.175 637.849 238.356 641.376C234.658 644.833 230.248 648.27 228.218 652.652C217.737 675.297 200.537 691.864 181.075 706.526C179.882 707.404 178.406 707.932 176.264 709.034C176.67 705.346 177.002 702.321 177.623 696.809C174.92 700.258 173.585 701.919 172.185 703.699L166.726 702.236C168.222 699.079 169.09 696.096 170.804 693.784C182.55 677.91 193.476 661.269 206.572 646.612C220.314 631.205 225.536 612.865 230.129 593.808C226.885 583.189 232.469 573.84 234.828 564.141C238.107 550.754 238.142 537.729 235.453 524.145C233.406 513.778 233.926 502.901 233.528 492.258C232.892 475.221 229.697 466.462 220.169 452.86C215.794 446.59 212.675 439.459 208.47 433.064C205.922 429.166 205.347 423.777 199.768 421.872C198.198 421.348 196.224 418.117 196.524 416.487C199.208 402.256 188.63 392.066 185.536 379.605C180.043 357.333 164.119 341.811 148.174 326.625C139.7 318.539 130.826 310.927 121.295 302.318C115.482 300.521 108.459 299.152 102.193 294.189C96.6722 289.767 86.9701 292.778 82.313 285.133C82.0941 284.801 81.3001 284.827 80.7574 284.682C57.8125 278.637 36.7076 266.618 13.0272 263.318C0.823019 261.622 -11.6383 261.396 -23.9954 261.164C-39.3091 260.858 -54.6274 260.824 -69.9338 261.512C-77.4508 261.859 -84.8386 264.532 -92.3733 265.455C-108.671 267.417 -124.432 270.823 -140.074 276.211C-150.055 279.626 -157.878 286.219 -167.892 290.139C-170.269 298.499 -177.76 302.582 -184.038 307.879C-201.456 322.575 -219.33 336.806 -236.008 352.317C-242.921 358.709 -247.339 367.789 -252.787 375.737C-261.466 388.464 -268.083 402.052 -270.867 417.419C-273.065 429.454 -277.787 440.436 -285.779 449.961C-287.382 451.858 -288.003 454.941 -288.263 457.574C-288.923 464.889 -294.293 471.011 -291.406 479.516C-289.359 485.539 -297.705 492.3 -292.8 499.532C-298.728 518.847 -290.388 538.666 -294.858 558.029C-290.476 569.637 -290.474 582.912 -281.594 592.544C-271.042 594.789 -269.23 604.751 -265.945 612.029C-261.083 622.74 -260.836 635.224 -254.222 645.652C-247.49 656.282 -241.513 667.429 -235.227 678.316C-236.061 684.49 -241.149 690.584 -234.801 697.28C-222.05 699.362 -212.425 707.62 -202.004 715.715C-185.204 728.735 -168.774 742.751 -148.657 751.049C-144.963 752.586 -141.428 754.971 -138.509 757.737C-131.864 763.965 -123.115 766.172 -115.693 770.522C-101.262 778.973 -85.3803 781.757 -69.8809 785.328C-46.6755 790.657 -23.033 790.013 0.817698 787.954C23.2718 785.999 43.473 777.385 64.4995 771.183C68.9225 769.87 73.2844 767.892 77.7957 767.527C87.2673 766.78 95.8847 762.966 102.237 757.005C113.558 746.422 127.911 741.373 139.772 732.988C147.419 734.455 151.006 738.051 148.457 745.647C133.805 760.366 115.161 769.294 97.1347 778.73C86.346 784.392 73.9682 787.301 61.9991 790.218C51.3417 792.836 41.1072 796.046 31.2135 800.922C18.6764 807.107 5.39002 809.705 -9.06356 809.253C-21.778 808.823 -34.36 806.238 -47.4582 808.134C-54.5375 809.145 -62.9025 806.527 -70.669 805.507C-82.0666 803.992 -93.7397 805.038 -104.615 802.98C-116.897 800.681 -130.723 800.568 -140.917 790.858C-142.305 789.528 -145.05 789.682 -147.016 788.847C-152.237 786.627 -158.213 787.352 -162.76 781.721C-165.916 777.796 -173.819 780.092 -178.039 774.137C-180.005 771.387 -186.085 771.605 -187.937 771.109C-197.075 763.46 -204.58 757.378 -211.848 751.052C-221.029 743.05 -230.053 734.85 -239.135 726.737C-241.382 709.201 -258.03 703.406 -267.935 692.233C-277.997 680.882 -289.126 670.579 -295.312 658.042C-306.395 653.054 -309.959 644.265 -311.94 634.805C-314.082 624.413 -316.494 613.879 -316.878 603.308C-317.143 595.745 -318.53 589.044 -323.005 582.508C-320.721 580.623 -319.144 579.335 -317.559 578.015C-324.052 568.03 -321.979 557.228 -319.657 548.305C-323.227 534.177 -326.667 521.863 -329.384 509.401C-332.049 497.26 -330.183 484.931 -329.294 473.059C-327.825 471.024 -325.749 469.151 -325.006 466.887C-322.702 459.567 -321.348 451.959 -318.83 444.731C-316.068 436.85 -312.191 429.404 -303.569 425.317C-301.623 419.202 -300.667 412.445 -295.488 407.161C-292.381 403.991 -290.628 399.364 -288.754 395.179C-286.831 390.939 -287.784 385.175 -282.025 383.092C-278.669 369.418 -268.615 360.24 -259.554 350.558C-251.212 341.64 -246.395 329.794 -235.42 323.053C-229.232 319.238 -223.753 314.24 -218.095 309.598C-203.983 297.916 -191.575 284.169 -174.895 275.673C-168.759 272.562 -162.808 270.017 -155.831 268.876C-145.598 267.204 -135.481 264.305 -126.536 258.628C-113.044 250.03 -97.4908 247.526 -82.3313 245.088C-76.5039 244.152 -70.3043 243.487 -64.3086 242.562C-58.8112 241.708 -53.2757 240.968 -47.7634 240.187C-39.7282 239.056 -31.7523 237.635 -23.7006 236.953C-15.6085 236.248 -6.84826 235.858 0.579694 236.993C10.4787 238.482 20.6611 237.892 30.4266 240.646C53.1093 247.031 76.0314 252.523 98.637 259.196C113.601 263.616 127.077 271.675 140.963 278.714C150.152 283.365 157.282 291.229 168.453 295.248C167.33 294.332 167.079 294.504 166.804 294.635C167.307 295.694 167.811 296.753 168.314 297.811C168.719 297.577 169.164 297.32 169.569 297.087C168.903 296.122 168.238 295.157 168.421 295.24L168.67 295.204ZM146.953 248.058L148.007 248.34L148.862 245.149L147.809 244.866L146.953 248.058Z" fill="#9B866A" fill-opacity="0.7"/>
<path d="M308.337 390.546C311.181 401.127 313.788 410.549 304.412 418.984L311.594 420.909C314.717 426.364 317.451 431.099 320.176 435.866L316.61 449.177C311.062 458.261 304.194 461.039 295.229 461.682C293.894 458.109 292.407 454.084 290.159 448.042C292.875 442.886 290.138 432.162 302.322 423.59C294.504 424.677 291.162 425.15 287.787 425.614C282.834 403.111 283.893 398.776 297.318 386.978C300.787 388.079 304.662 389.322 308.313 390.506L308.337 390.546Z" fill="#9B866A" fill-opacity="0.7"/>
<path d="M331.326 445.457C334.281 443.751 337.154 442.092 340.635 440.083L351.52 442.999L346.739 460.842C342.804 465.056 336.894 463.746 331.926 460.328C326.966 456.878 329.492 451.534 331.326 445.457Z" fill="#9B866A" fill-opacity="0.7"/>
<path d="M213.26 483.371L202.502 480.489C202.141 476.732 201.758 472.797 201.43 469.425C204.425 467.696 206.246 466.645 208.027 465.617L221.944 469.346C221.194 475.337 221.683 481.557 213.26 483.371Z" fill="#9B866A" fill-opacity="0.7"/>
<path d="M306.903 479.658C310.058 476.056 312.878 472.809 315.632 469.681C325.173 475.316 322.064 481.428 318.694 488.77C314.808 485.779 311.437 483.165 306.903 479.658Z" fill="#9B866A" fill-opacity="0.7"/>
</g>
<g clip-path="url(#clip1_220_161)">
<path d="M-359.279 510.404C-361.76 520.343 -358.327 526.819 -356.162 533.753C-352.552 545.351 -351.074 557.687 -346.533 568.872C-342.424 578.935 -340.04 589.18 -338.01 600.272C-334.78 602.307 -331.358 604.486 -327.717 606.791C-324.492 633.743 -311.061 656.063 -292.973 674.46C-281.968 685.656 -271.488 698.242 -257.522 706.668C-255.411 707.932 -254.991 712.003 -253.529 715.37C-244.66 717.748 -235.794 721.659 -227.608 728.897C-216.063 739.107 -201.889 746.218 -186.352 748.329C-162.227 751.623 -137.953 753.852 -113.751 756.259C-108.608 756.769 -103.068 757.146 -98.2207 755.727C-80.9898 750.643 -63.4191 752.048 -45.8923 751.749C-43.9295 751.718 -41.982 750.788 -39.6108 750.2L-35.0556 756.244C-35.5622 757.164 -35.9033 758.248 -36.6088 758.904C-41.759 763.655 -47.7211 766.122 -54.8763 767.17C-72.9659 769.797 -91.0079 772.927 -108.93 776.545C-120.318 778.839 -131.519 779.626 -143.042 778.173C-163.63 775.565 -183.651 771.786 -202.886 763.068C-213.333 758.32 -225.588 757.543 -236.109 755.169C-241.375 750.654 -245.662 745.899 -250.878 742.713C-264.884 734.068 -276.96 722.934 -289.45 712.567C-304.179 700.329 -317.405 686.131 -332.061 673.879C-346.598 661.785 -354.965 645.414 -367.179 631.901C-375.038 609.561 -391.738 591.193 -396.185 567.232C-396.795 563.843 -400.021 560.771 -402.453 557.928C-407.948 551.517 -409.342 549.174 -411.16 540.778C-413.392 530.625 -415.188 528.461 -425.909 519.948C-429.22 517.312 -431.615 513.53 -434.214 510.523C-434.323 509.115 -434.14 507.984 -434.486 507.086C-441.322 489.892 -432.824 475.748 -424.099 462.674C-415.012 449.037 -411.183 433.694 -405.7 418.844C-404.978 416.892 -404.534 414.406 -405.061 412.444C-407.757 402.061 -404.204 392.72 -400.539 383.254C-390.937 374.691 -382.725 365.274 -377.077 353.112C-371.798 341.725 -363.574 331.719 -356.918 320.95C-354.259 316.628 -350.562 311.979 -350.408 307.352C-349.928 295.527 -343.439 286.787 -337.52 277.732C-331.686 268.782 -325.395 260.109 -318.621 251.858C-315.24 247.778 -310.131 245.169 -306.175 241.524C-299.251 235.064 -289.887 231.73 -285.145 222.155C-282.745 217.325 -276.227 212.246 -271.047 211.653C-263.779 210.809 -264.385 203.362 -258.91 201.677C-251.051 199.312 -242.992 197.706 -235.009 197.317C-228.784 197.011 -222.829 197.116 -216.66 195.198C-211.899 193.72 -206.291 195.121 -201.11 194.692C-196.069 194.244 -190.477 194.25 -186.18 192.046C-163.981 180.651 -140.227 178.182 -115.865 178.607C-114.384 178.649 -112.896 179.142 -110.529 179.592C-113.12 182.249 -115.242 184.428 -119.126 188.39C-114.872 187.335 -112.798 186.848 -110.598 186.307L-107.197 190.82C-110.319 192.387 -112.839 194.204 -115.613 194.971C-134.642 200.251 -153.495 206.64 -172.838 210.13C-193.153 213.813 -208.558 225.053 -223.908 237.244C-227.887 247.61 -238.043 251.54 -245.873 257.732C-256.698 266.264 -264.743 276.508 -270.985 288.869C-275.753 298.298 -282.858 306.55 -289.096 315.184C-299.082 329.001 -301.955 337.871 -302.82 354.456C-303.231 362.09 -305.162 369.629 -305.785 377.258C-306.177 381.899 -309.04 386.499 -305.816 391.435C-304.901 392.814 -305.335 396.576 -306.574 397.676C-317.45 407.239 -315.385 421.781 -320.618 433.505C-329.998 454.439 -327.003 476.474 -323.784 498.257C-322.084 509.846 -319.776 521.307 -317.564 533.959C-314.089 538.954 -309.396 544.356 -307.514 552.124C-305.884 559.007 -296.385 562.606 -297.42 571.498C-297.452 571.895 -296.81 572.362 -296.472 572.811C-282.111 591.699 -272.876 614.162 -256.245 631.34C-247.671 640.189 -237.989 648.037 -228.394 655.827C-216.513 665.494 -204.462 674.95 -191.975 683.829C-185.838 688.183 -178.37 690.624 -171.864 694.535C-157.812 703.021 -143.294 710.038 -127.65 715.421C-117.682 718.873 -107.458 718.492 -97.1539 721.567C-90.1342 716.442 -81.7173 717.836 -73.5095 717.526C-50.7364 716.665 -27.889 716.452 -5.19782 714.495C4.18531 713.712 13.2555 709.275 22.4418 706.365C37.1159 701.677 50.6948 695.042 62.3479 684.645C71.4885 676.513 81.9698 670.765 94.131 668.178C96.562 667.67 98.9495 665.622 100.776 663.708C105.799 658.349 113.799 656.829 116.759 648.349C118.853 642.343 129.592 642.152 130.179 633.433C146.74 621.861 152.366 601.107 167.808 588.599C171.5 576.753 179.67 566.291 178.601 553.233C171.667 544.968 176.371 536.002 178.262 528.244C181.023 516.81 188.514 506.819 189.72 494.53C190.958 482.009 193.109 469.545 194.856 457.096C199.314 452.743 207.075 451.072 206.194 441.887C197.427 432.397 194.925 419.965 191.695 407.17C186.469 386.568 182.148 365.409 171.402 346.486C169.437 343.001 168.119 338.946 167.521 334.968C166.118 325.97 160.582 318.845 157.41 310.849C151.238 295.305 140.436 283.335 130.42 270.98C115.412 252.496 96.3826 238.451 76.3185 225.392C57.4194 213.111 36.1968 207.464 15.8077 199.41C11.5142 197.721 6.85863 196.596 3.07873 194.106C-4.84524 188.864 -13.9847 186.566 -22.6606 187.354C-38.0963 188.725 -52.5162 183.869 -67.025 183.176C-72.1482 177.313 -72.7619 172.272 -66.0775 167.854C-45.4698 165.273 -25.2811 169.713 -5.26629 173.373C6.72147 175.552 18.2674 180.878 29.4956 185.947C39.5062 190.444 49.5481 194.214 60.3463 196.462C74.0343 199.304 86.1043 205.435 97.2171 214.688C106.972 222.854 115.297 232.636 126.787 239.204C132.988 242.765 137.969 249.977 143.462 255.562C151.512 263.772 161.355 270.133 168.659 278.45C176.923 287.822 187.75 296.421 189.807 310.349C190.082 312.252 192.34 313.819 193.375 315.687C196.124 320.651 201.28 323.758 201.396 330.995C201.468 336.031 209.109 339.086 208.77 346.377C208.626 349.755 213.552 353.325 214.706 354.856C217.2 366.509 219.37 375.922 221.204 385.382C223.514 397.339 225.579 409.356 227.743 421.34C218.718 436.543 228.272 451.359 229.2 466.26C230.142 481.4 232.571 496.371 229.73 510.059C235.394 520.812 232.792 529.932 228.53 538.607C223.821 548.116 219.239 557.902 213.034 566.469C208.587 572.593 205.555 578.727 205.059 586.633C202.098 586.713 200.063 586.757 198.001 586.822C196.972 598.688 188.689 605.925 181.366 611.527C175.484 624.859 170.615 636.681 165.085 648.175C159.712 659.384 150.652 667.951 142.643 676.76C140.233 677.46 137.444 677.658 135.465 678.985C129.144 683.336 123.393 688.498 116.959 692.644C109.931 697.155 102.293 700.637 92.9823 698.55C87.6839 702.172 82.7716 706.909 75.4378 707.885C71.0375 708.47 66.8073 711.038 62.7545 713.183C58.629 715.341 55.8326 720.469 50.0119 718.567C38.9495 727.277 25.3768 728.321 12.2758 730.375C0.212096 732.267 -10.8758 738.638 -23.6747 737.195C-30.9005 736.393 -38.2948 736.959 -45.6107 737.135C-63.9234 737.654 -82.1636 740.85 -100.539 737.279C-107.29 735.953 -113.547 734.296 -119.748 730.9C-128.841 725.919 -138.599 721.977 -149.143 720.944C-165.068 719.416 -178.867 711.815 -192.315 704.405C-197.484 701.555 -202.779 698.263 -208.074 695.302C-212.931 692.59 -217.75 689.766 -222.574 686.989C-229.603 682.934 -236.764 679.144 -243.529 674.726C-250.341 670.3 -257.484 665.215 -262.64 659.748C-269.524 652.481 -277.912 646.678 -283.913 638.497C-297.859 619.502 -312.543 601.064 -326.251 581.89C-335.323 569.196 -340.983 554.55 -347.594 540.455C-351.972 531.133 -352.751 520.547 -359.081 510.502C-358.76 511.916 -358.456 511.935 -358.158 512C-357.903 510.856 -357.648 509.712 -357.393 508.568C-357.856 508.503 -358.365 508.432 -358.828 508.367C-358.898 509.537 -358.968 510.707 -359.061 510.529L-359.279 510.404ZM-371.185 560.927L-371.841 560.056L-374.48 562.045L-373.824 562.916L-371.185 560.927Z" fill="#7E6E59" fill-opacity="0.8"/>
</g>
<defs>
<clipPath id="clip0_220_161">
<rect width="642.265" height="649.67" fill="white" transform="translate(396.764 274.147) rotate(105)"/>
</clipPath>
<clipPath id="clip1_220_161">
<rect width="642.265" height="649.67" fill="white" transform="translate(-552 386.595) rotate(-37.0079)"/>
</clipPath>
</defs>
</svg>
