<?xml version="1.0" encoding="UTF-8"?>
<svg id="Layer_2" data-name="Layer 2" xmlns="http://www.w3.org/2000/svg" viewBox="0 0 288 288">
  <defs>
    <style>
      .cls-1 {
        fill: none;
      }

      .cls-1, .cls-2 {
        stroke-width: 0px;
      }

      .cls-2 {
        fill: #eee;
      }
    </style>
  </defs>
  <g id="Layer_1-2" data-name="Layer 1">
    <g>
      <path class="cls-2" d="M54.35,17.48c.28.02.94.3,1.24.08,2.02-1.46,4.19-1.03,6.41-.75,3.26.41,6.58.51,9.81,1.09,2.43.44,2.36,1.03,1.67,3.41-.79,2.69-1.2,5.5-1.66,8.28-.07.43.43,1.11.85,1.44,1.33,1.02,2.65,2.15,4.16,2.84,8.62,3.92,14.3,10.89,19.2,18.56,3.83,5.98,8.07,11.57,12.85,16.84,2.4,2.65,4.23,5.89,6,9.04,5.58,9.95,12.83,18.62,20.4,27.06,5.26,5.85,10.53,11.69,15.72,17.61,1.29,1.48,2.16,3.33,3.43,4.83,2.17,2.57,4.38,5.13,6.8,7.45,5.06,4.85,10.44,9.36,15.34,14.36,3.13,3.2,5.53,7.1,8.43,10.54,6.06,7.2,12.26,14.3,18.36,21.47,2.97,3.49,5.85,7.04,8.75,10.58,9.14,11.14,18.28,22.28,27.42,33.42,1.32,1.61,2.79,3.13,3.92,4.87.61.94.97,2.28.9,3.4-.39,6.05-.93,12.08-1.48,18.12-.26,2.87-.59,5.74-.99,8.59-.58,4.08-1.47,4.61-4.89,4.15-5.07-.68-10.1-1.64-15.16-2.37-2.85-.41-5.74-.56-8.61-.89-5.03-.56-8.82-2.6-11.22-7.53-2.19-4.5-5.26-8.6-8.12-12.74-3.62-5.24-7.43-10.36-11.15-15.53-5.26-7.3-10.38-14.71-15.83-21.87-5.45-7.16-11.27-14.03-16.83-21.1-2.16-2.75-3.99-5.74-6.03-8.58-3.96-5.52-7.88-11.07-11.96-16.51-4.24-5.65-8.42-11.36-13.04-16.69-2.54-2.93-5.21-5.69-7.5-8.87-5.3-7.36-11.26-14.26-16.38-21.73-8.09-11.82-16.32-23.55-22.8-36.41-3.23-6.42-7.34-12.4-10.7-18.76-2.75-5.21-4.97-10.69-2.87-16.8.43-1.25.06-1.99-1.26-2.36-4.59-1.28-9.18-2.61-13.75-3.96-.8-.24-1.54-.67-2.31-1.02.47-.6.88-1.27,1.42-1.8,3.4-3.26,6.85-6.48,10.23-9.76.5-.49.77-1.22,1.24-1.99ZM152.07,125.31c-.13-.16-.27-.32-.4-.49-.55.42-1.08.87-1.65,1.25-2.46,1.61-4.91,3.26-7.43,4.76-1.34.79-2.49.95-3.65-.8-1.38-2.1-3.75-2.2-5.68-.78-1.67,1.23-2.25,4.01-1.17,5.59.95,1.37,3.89,1.91,5.56,1.04-1.15-.17-2.36-.35-3.57-.53,1.79.27,3.27-.03,4.78-1.11,1.71-1.22,3.62-2.14,5.41-3.25,1.7-1.07,3.38-2.18,5.02-3.34.98-.7,1.86-1.55,2.78-2.33Z"/>
      <rect class="cls-1" width="288" height="288"/>
    </g>
  </g>
</svg>