<?xml version="1.0" encoding="UTF-8"?>
<svg id="Layer_2" data-name="Layer 2" xmlns="http://www.w3.org/2000/svg" viewBox="0 0 407.6 428.73">
  <defs>
    <style>
      .cls-1 {
        fill: #eee;
        stroke-width: 0px;
      }
    </style>
  </defs>
  <g id="Layer_1-2" data-name="Layer 1">
    <path class="cls-1" d="M21.56,2.61c.52,0,1.78.39,2.3-.06C27.35-.48,31.42-.04,35.56.12c6.09.23,12.21-.14,18.26.41,4.56.42,4.53,1.51,3.63,6.02-1.02,5.09-1.32,10.34-1.7,15.54-.06.81.97,1.98,1.8,2.51,2.62,1.66,5.24,3.53,8.13,4.55,16.54,5.81,28.15,17.74,38.45,31.08,8.04,10.41,16.78,20.02,26.45,28.94,4.87,4.49,8.77,10.16,12.55,15.68,11.93,17.43,26.7,32.24,42.05,46.56,10.65,9.93,21.33,19.83,31.86,29.9,2.63,2.51,4.52,5.79,7.11,8.35,4.42,4.38,8.91,8.74,13.76,12.63,10.12,8.11,20.79,15.55,30.64,23.97,6.3,5.38,11.36,12.19,17.27,18.06,12.36,12.29,24.96,24.36,37.38,36.59,6.04,5.94,11.94,12.03,17.87,18.08,18.69,19.04,37.36,38.09,56.04,57.14,2.7,2.76,5.66,5.32,8.02,8.34,1.28,1.64,2.16,4.04,2.21,6.12.26,11.21.26,22.43.24,33.65,0,5.34-.14,10.68-.43,16.01-.4,7.62-1.97,8.73-8.35,8.45-9.46-.42-18.89-1.38-28.34-1.9-5.33-.29-10.68-.1-16.02-.22-9.37-.22-16.69-3.36-21.93-12.05-4.78-7.94-11.1-14.99-17.06-22.17-7.53-9.08-15.39-17.88-23.11-26.81-10.9-12.6-21.55-25.43-32.77-37.74-11.22-12.31-23.09-24.02-34.49-36.16-4.42-4.71-8.3-9.93-12.52-14.83-8.21-9.54-16.35-19.13-24.76-28.49-8.74-9.73-17.39-19.57-26.79-28.64-5.16-4.98-10.54-9.63-15.28-15.13-10.97-12.71-23.1-24.45-33.76-37.4-16.85-20.47-33.96-40.76-48.01-63.41-7.02-11.31-15.56-21.66-22.81-32.84-5.93-9.15-10.92-18.9-8.04-30.52.59-2.38-.21-3.67-2.71-4.14-8.68-1.61-17.35-3.3-26.01-5.05-1.51-.3-2.95-.99-4.43-1.5.77-1.19,1.41-2.49,2.33-3.55,5.73-6.58,11.57-13.07,17.27-19.67.85-.98,1.21-2.37,1.95-3.88ZM219.43,185.46c-.27-.28-.54-.55-.82-.83-.95.86-1.84,1.78-2.85,2.57-4.28,3.37-8.51,6.81-12.93,9.99-2.33,1.68-4.44,2.17-6.86-.88-2.89-3.64-7.27-3.44-10.6-.51-2.88,2.54-3.5,7.77-1.24,10.5,1.97,2.38,7.49,2.88,10.42,1.01-2.15-.13-4.41-.26-6.67-.4,3.35.21,6.02-.6,8.63-2.83,2.95-2.53,6.33-4.54,9.44-6.89,2.97-2.24,5.89-4.57,8.71-6.99,1.7-1.45,3.18-3.16,4.75-4.75Z"/>
  </g>
</svg>