<svg width="229" height="190" viewBox="0 0 229 190" fill="none" xmlns="http://www.w3.org/2000/svg">
<path d="M225.019 118.713C223.9 119.128 223.476 120.477 224.404 121.091C225.041 121.511 224.941 121.934 224.763 122.438C222.889 127.665 220.728 132.814 217.689 137.653C215.781 140.692 214.052 143.873 211.685 146.604C208.923 149.792 205.716 152.734 202.381 155.445C199.641 157.675 196.285 159.085 192.871 160.273C191.348 160.806 189.963 161.566 188.83 162.827C187.4 164.436 185.769 165.855 183.569 166.698C182.359 167.159 181.118 167.947 180.302 169.146C179.877 169.772 179.034 170.189 178.366 170.681C175.559 172.724 172.826 174.863 169.912 176.754C167.388 178.386 164.687 179.778 162.005 181.163C159.987 182.204 157.895 183.149 155.781 183.985C153.864 184.74 151.86 185.256 149.91 185.956C149.218 186.204 148.613 186.689 147.952 187.011C145.509 188.199 142.883 188.387 140.308 188.563C135.755 188.893 131.171 189.256 126.637 189.206C121.871 189.155 117.089 188.905 112.437 188.25C106.311 187.392 100.3 186.067 94.2319 184.951C94.0302 184.917 93.8227 184.895 93.5636 184.856C93.7894 184.175 93.972 183.63 94.2317 182.818C92.6291 182.572 91.1006 182.159 89.5339 182.133C87.0178 182.079 84.9762 181.066 82.8929 180.139C78.0196 177.99 73.1821 175.768 68.3147 173.607C68.0047 173.471 67.503 173.698 67.128 173.619C66.3077 173.45 65.4557 173.284 64.7163 172.965C59.168 170.518 53.9792 167.581 49.4281 163.812C46.8727 161.691 44.4036 159.486 41.7765 157.219C41.8028 157.149 41.8919 156.858 42.0617 156.602C42.514 155.935 42.2664 155.47 41.7258 155.098C38.5313 152.899 35.3368 150.701 32.2531 148.584C32.5922 148.443 33.2812 148.295 33.3072 148.118C33.3676 147.731 33.1894 147.247 32.9312 146.943C29.8718 143.339 26.7252 139.791 23.7094 136.159C22.0462 134.168 20.4788 132.088 19.0397 129.945C17.0483 126.974 15.2314 123.893 13.2833 120.787C13.3978 121.17 13.4974 121.49 13.5971 121.811C13.538 121.855 13.4884 121.895 13.4294 121.939C13.0436 121.434 12.6424 120.945 12.2943 120.424C11.9194 119.865 11.56 119.29 11.2605 118.7C11.049 118.269 11.0001 117.751 10.7698 117.328C10.3565 116.57 9.94237 115.783 9.37342 115.129C7.60277 113.065 5.91941 110.945 4.98926 108.405C4.40867 106.817 4.23406 105.089 3.75708 103.458C3.34422 102.034 2.78319 100.653 2.24442 99.2718C0.745713 95.4127 0.379004 91.3293 0.426146 87.1528C0.481892 82.4642 0.331006 77.7828 0.558214 73.0818C0.71156 69.908 1.30988 66.7161 1.84822 63.5393C2.28722 60.922 2.91403 58.3052 3.49027 55.6996C3.62288 55.0872 3.89272 54.4863 4.09567 53.8839C4.23292 53.8955 4.37361 53.9155 4.51085 53.9272C4.19874 55.7583 3.88317 57.5811 3.57106 59.4123C3.72117 59.4284 3.86783 59.4361 4.01795 59.4522C4.2963 58.0458 4.56177 56.635 4.8624 55.2292C5.37938 52.8535 5.90923 50.4823 6.43563 48.1027C7.07614 45.2259 7.61363 42.3135 9.15768 39.6201C10.7077 36.9144 12.3384 34.2438 13.8979 31.5343C15.0779 29.4807 16.2064 27.4093 17.3478 25.3423C18.9307 22.4763 20.7354 19.7728 23.7915 17.9596C25.4116 16.9953 27.0791 16.1189 28.7026 15.163C29.4394 14.7307 30.1194 14.2144 30.8167 13.7398C33.659 11.8097 36.7281 10.2943 39.9735 9.20473C42.5106 8.34978 45.1291 7.74476 47.6844 6.96051C48.9667 6.56643 50.2022 6.00591 51.4708 5.57843C57.3038 3.62273 63.2486 2.25655 69.2991 1.49214C72.0247 1.14595 74.7504 0.799768 77.4774 0.589977C79.1345 0.461311 80.7917 0.626041 82.4457 0.596465C84.7582 0.558299 87.0909 0.648729 89.4042 0.346116C92.003 0.0133449 94.4156 0.403244 96.8767 0.724092C98.6954 0.958904 100.542 1.07457 102.355 1.32163C104.094 1.55033 105.795 1.9021 107.525 2.13472C109.634 2.40561 111.795 2.50833 113.878 2.84883C118.163 3.54924 122.344 4.47849 126.431 5.76909C132.609 7.71026 138.639 9.90812 144.281 12.7948C146.787 14.0754 149.193 15.5147 151.521 17.0348C155.727 19.7828 159.902 22.5631 163.951 25.4933C166.471 27.3156 168.795 29.3562 171.069 31.4369C175.398 35.4152 179.801 39.3334 183.842 43.5484C188.291 48.1908 192.431 53.0984 196.592 57.9775C197.727 59.3071 198.55 60.8934 199.349 62.4503C200.335 64.3795 202.148 65.5852 203.648 67.0766C206.761 70.1697 209.886 73.2672 212.884 76.4566C214.896 78.5969 216.644 80.9539 218.616 83.1305C219.567 84.1746 221.072 84.8521 221.763 86.0137C222.986 88.0602 223.862 90.309 224.708 92.5406C225.406 94.3842 225.883 96.3091 226.398 98.2184C227.354 101.754 228.955 105.141 228.551 109.015C228.48 109.749 228.384 110.424 227.369 110.238C226.913 111.855 226.458 113.393 226.054 114.949C225.893 115.574 225.899 116.227 225.738 116.851C225.644 117.183 225.348 117.482 225.139 117.803C225.098 118.104 225.057 118.404 225.006 118.709L225.019 118.713ZM88.0011 9.64209L88.0114 9.66714C87.7241 9.63942 87.4368 9.61169 87.1459 9.57562L87.1836 9.56001C84.7345 8.73532 82.6954 10.3132 80.4912 10.9326L80.4545 11.2705C82.5106 11.4657 84.5701 11.6693 86.6261 11.8644C86.6659 11.7208 86.6998 11.5894 86.7396 11.4458C85.9683 11.3152 85.1876 11.1886 84.4163 11.058C84.4502 10.9267 84.4746 10.7992 84.505 10.6594C85.1551 10.6837 85.813 10.7536 86.4611 10.7199C86.9978 10.6835 87.9397 11.0662 87.7044 9.91165C87.8002 9.82311 87.8925 9.72619 87.9882 9.63764L88.0011 9.64209ZM17.6902 41.3589C17.7856 41.1629 17.8716 40.9708 17.967 40.7748C18.7963 39.7662 19.6291 38.7661 20.4678 37.7537C22.0163 36.1637 23.5614 34.5653 25.11 32.9753C26.4301 32.0863 27.7503 31.1973 29.0645 30.3205C29.1578 30.2526 29.3814 30.1796 29.4011 30.2007C29.9591 30.9086 30.0586 29.8698 30.4386 29.908C29.7513 29.5275 30.4735 29.3263 30.672 29.1658C31.5048 28.4591 32.3704 27.7779 33.2557 27.1178C33.4729 26.9496 33.7719 26.8454 34.0564 26.7863C35.07 26.5426 36.0528 26.3313 36.3937 25.1826C36.5082 24.7929 36.7426 24.3731 37.0384 24.0745C37.4486 23.6797 37.9837 23.3995 38.4593 23.0558C41.2343 21.0166 44.2525 19.4049 47.4749 18.0999C49.3846 17.3287 51.1377 16.1528 52.998 15.2357C54.6922 14.3972 56.4304 13.6383 58.1454 12.8499C58.1868 12.9501 58.2472 13.0425 58.2981 13.1388C58.1666 13.3009 58.041 13.4507 57.7933 13.7586C58.5736 13.4845 59.162 13.2799 59.7505 13.0754C59.7159 12.9919 59.6848 12.9167 59.6502 12.8332L58.9345 12.9437C59.2506 12.5879 59.6057 12.3528 59.9791 12.1884C63.1069 10.815 66.4141 10.2475 69.733 9.84156C74.5732 9.24574 79.4164 8.73675 84.2664 8.24447C86.5217 8.01482 88.6478 8.40595 90.8051 8.87222C94.9918 9.78922 99.2999 10.3332 103.489 11.2296C106.245 11.8098 108.924 12.6566 111.59 13.4991C113.752 14.1886 115.857 15.0089 117.959 15.8209C120.841 16.9455 123.72 18.0618 126.536 19.2922C128.192 20.0147 129.686 21.0101 131.33 21.7572C133.237 22.6305 135.228 23.3613 137.179 24.1572C137.231 24.175 137.312 24.1315 137.473 24.0942C137.245 23.915 137.059 23.7865 136.879 23.6457C136.852 23.6864 136.838 23.7314 136.81 23.7721C140.458 25.5188 144.109 27.2739 148.009 29.1508L147.587 28.1321C148.6 28.5537 149.345 29.2332 150.218 29.7423C152.564 31.1181 154.945 32.4701 157.38 33.7407C158.649 34.4083 160.014 34.9583 161.401 35.4305C163.429 36.1167 165.287 36.9806 166.761 38.4342C167.475 39.1459 168.227 39.8421 169.048 40.4408C171.344 42.1212 173.692 43.7409 176.015 45.3807C177.501 46.4379 178.987 47.4951 180.548 48.5996C180.526 48.4131 180.542 48.3184 180.503 48.2762C177.807 45.7636 175.213 43.1503 172.385 40.7708C170.408 39.1148 168.117 37.765 165.967 36.2783L165.958 36.2822C166.41 36.095 166.872 35.9039 167.343 35.7088C167.098 35.5169 166.765 35.2731 166.457 35.0094C164.454 33.3155 162.658 31.3498 160.392 30.009C157.314 28.173 154.378 26.1711 151.275 24.3551C146.035 21.2924 140.258 19.1462 134.804 16.4749C133.187 15.6872 131.527 14.9563 129.801 14.3601C126.012 13.0438 122.192 11.7598 118.34 10.5866C115.286 9.66025 112.137 8.92989 109.053 8.06482C108.616 7.9425 108.291 7.52953 107.753 7.13614C106.415 7.10324 104.753 7.19461 103.153 7.00649C98.4107 6.42705 93.7219 5.62994 88.9698 5.1329C86.514 4.87829 83.96 5.02622 81.4418 5.10065C78.2591 5.19593 75.0242 5.05853 71.892 5.62198C66.3867 6.61055 60.8901 7.85964 55.4817 9.37538C51.2214 10.5722 47.0551 12.2094 42.9472 13.8811C40.9186 14.7114 39.0311 15.9625 37.2001 17.1902C33.7776 19.4779 30.2899 21.7144 27.1316 24.2937C23.6947 27.1059 21.0085 30.5852 19.0453 34.3716C16.9917 38.3128 15.2892 42.3824 13.4417 46.3948C13.4357 46.4071 13.4624 46.4449 13.5692 46.5963C14.4588 45.3868 15.2635 44.2124 16.1524 43.0814C16.6076 42.5017 17.1795 41.9909 17.706 41.4502L17.7358 41.3889L17.6902 41.3589ZM91.6488 11.2029C91.2368 9.51505 90.2055 10.3822 89.2373 11.1353C90.046 11.1428 90.8546 11.1503 91.6761 11.1622C92.5805 11.8539 93.679 11.8685 94.829 11.9009C94.4447 11.346 94.1569 10.9174 93.8631 10.5011C93.8858 10.6091 93.8955 10.7127 93.9182 10.8207C93.1649 10.9468 92.4116 11.0729 91.6617 11.2073L91.6488 11.2029ZM214.373 98.6789C214.125 97.7348 213.878 96.7907 213.63 95.8466C213.519 96.724 213.62 97.5529 213.644 98.3841C213.671 99.0087 213.918 98.9942 214.381 98.646C214.805 98.9499 215.225 99.2453 215.649 99.5491C215.554 99.6666 215.463 99.7925 215.378 99.9061C214.95 99.7799 214.529 99.6414 214.002 99.4879C214.103 100.16 214.185 100.703 214.275 101.321C215.224 100.948 215.817 101.074 215.864 102.013C215.446 102.284 215.047 102.547 214.833 102.694C215.188 103.153 215.697 103.53 215.796 104.007C216.471 107.024 216.335 110.132 215.915 113.25C215.709 114.802 215.483 116.363 215.174 117.909C214.721 120.2 213.549 122.377 213.704 124.778C213.846 126.959 213.601 129.193 213.511 131.401C213.501 131.562 213.392 131.725 213.23 132.134C212.474 131.4 211.849 130.798 211.169 130.141C210.945 130.508 210.748 130.804 210.59 131.114C210.223 131.853 210.095 132.718 208.834 132.79C208.532 132.808 208.207 133.647 207.788 134.26C208.377 134.085 208.702 133.989 209.014 133.89C209.08 133.97 209.14 134.062 209.206 134.142C208.814 134.501 208.454 134.884 208.039 135.213C207.667 135.514 207.106 135.706 206.867 136.06C205.956 137.405 205.12 138.798 204.333 140.2C204.236 140.367 204.61 140.976 204.803 140.964C205.408 140.958 206.035 140.767 206.864 140.61C205.726 142.205 204.603 143.785 203.484 145.373C203.333 145.593 203.048 145.945 203.125 146.051C203.646 146.803 202.877 147.131 202.478 147.58C201.426 148.769 200.37 149.95 199.317 151.139C199.415 151.215 199.51 151.284 199.608 151.361C201.896 149.024 204.34 146.799 206.42 144.334C210.531 139.472 213.314 134.016 215.636 128.35C217.277 124.345 218.496 120.309 219.264 116.167C219.542 114.653 220.056 113.149 220.239 111.645C220.431 110.03 220.329 108.4 220.406 106.773C220.6 102.605 220.351 98.5119 219.095 94.6009C217.99 91.1853 216.068 88.1959 213.799 85.4087C212.429 83.7263 211.069 82.04 209.712 80.362C211.978 86.2606 214.296 92.0986 215.341 98.4052C214.956 98.5156 214.679 98.5914 214.41 98.6633L214.373 98.6789ZM97.394 15.3772L97.4455 15.395C96.9301 15.1096 96.4146 14.8242 95.8279 14.4998C95.8391 14.2604 95.8559 13.9013 95.8725 13.7282C95.1954 13.5587 94.6552 13.2933 94.0987 13.3085C91.3481 13.3814 88.5945 13.5533 85.8404 13.6178C85.1725 13.6303 84.5148 13.3745 83.855 13.2467C83.7846 13.2367 83.7033 13.2802 83.6245 13.303C83.6221 13.617 83.6257 13.9187 83.6277 14.27C85.5135 14.3205 87.4778 13.7614 89.2081 14.5023C85.0385 14.8791 80.8903 15.2275 76.7398 15.4105C72.6339 15.5947 68.5488 16.895 64.411 16.4957C65.0534 16.2884 65.6993 16.0894 66.3135 15.8938C65.8627 15.4447 65.497 15.0679 65.0428 14.6105C64.5081 14.9981 63.9546 15.3936 63.6997 15.5774C62.6961 15.7387 61.8399 16.1226 61.3015 15.9151C60.2987 15.5186 59.7601 16.2698 59.0294 16.5039C58.2988 16.738 57.4805 16.9203 56.8833 17.3437C56.252 17.7909 55.8393 18.4998 55.5266 18.864C54.1715 19.5621 52.9454 20.1187 51.7935 20.8011C51.1037 21.2139 50.5915 21.8955 49.9086 22.325C48.103 23.4541 46.1743 24.4191 44.4246 25.6033C41.4644 27.6214 38.5936 29.7491 35.716 31.8601C35.2686 32.1921 35.0063 32.7311 34.5891 33.1093C31.9628 35.5075 29.2548 37.8417 26.7007 40.3078C24.6894 42.2459 22.5924 44.1901 21.0004 46.3948C18.1024 50.402 15.4802 54.5688 12.9061 58.7452C10.9784 61.8713 9.88873 65.3155 9.82528 68.7065C9.76063 72.2544 10.3511 75.7855 10.9807 79.2513C12.2321 86.1374 13.7175 92.9755 15.0546 99.8554C15.1305 100.225 14.777 100.704 14.6352 101.134L14.2012 101.099C14.6929 102.499 15.1434 103.907 15.6822 105.288C17.5933 110.17 19.5763 115.012 22.8965 119.193C23.7661 120.28 24.4983 121.542 25.626 122.347C27.957 124.032 30.4786 125.511 32.966 127.015C36.7584 129.298 40.5022 131.65 44.4193 133.755C50.5303 137.054 56.7386 140.215 62.9494 143.355C68.364 146.092 73.864 148.715 79.3153 151.406C82.7449 153.106 86.4437 154.284 90.2394 155.216C95.7232 156.574 101.233 157.863 106.788 159.045C111.445 160.031 116.11 161.092 120.88 161.631C126.183 162.232 131.598 162.386 136.994 162.519C140.574 162.611 144.212 162.337 147.818 162.223C154.224 162.025 160.548 160.776 166.836 159.385C171.772 158.3 176.626 156.779 181.513 155.391C182.709 155.052 184.112 154.765 184.985 154.022C186.694 152.551 188.023 150.7 189.666 149.149C190.687 148.179 191.069 146.436 193.059 146.472C193.228 146.481 193.474 146.007 193.653 145.747C193.85 145.451 193.985 145.111 194.182 144.814C197.121 140.399 199.573 135.794 201.599 131.013C202.201 129.59 202.173 127.763 204.207 126.891C203.749 128.078 203.316 129.217 202.873 130.359C203.068 130.405 203.26 130.442 203.456 130.489C204.05 128.697 204.643 126.906 205.233 125.107C205.146 125.084 205.069 125.057 204.983 125.034C204.787 125.389 204.592 125.744 204.271 126.327C204.334 125.841 204.266 125.517 204.417 125.347C205.395 124.218 205.403 122.904 205.613 121.653C206.18 118.2 206.856 114.742 207.146 111.286C207.422 107.954 207.239 104.636 207.336 101.299C207.359 100.449 207.7 99.5933 207.85 98.7292C207.986 97.9392 208.317 97.0589 208.135 96.352C207.596 94.3057 206.809 92.3235 206.191 90.3001C205.613 88.3975 205.293 86.3979 204.545 84.5654C202.998 80.7754 201.33 77.0154 199.523 73.3429C198.591 71.4398 197.315 69.6894 196.043 67.9763C195.347 67.0419 194.302 66.3302 193.422 65.5111C193.311 65.6158 193.196 65.7121 193.085 65.8168C193.814 66.5125 194.538 67.2203 195.267 67.9159C195.171 68.0045 195.072 68.0847 194.976 68.1732C191.009 64.9352 186.882 61.842 183.315 58.213C183.402 58.1284 183.484 58.0354 183.561 57.9546C184.221 58.4543 184.871 58.9579 185.527 59.4492C185.609 59.3562 185.683 59.2671 185.766 59.1741C185.242 58.6281 184.564 58.1652 184.235 57.529C183.06 55.1985 180.601 54.1628 178.558 52.72C178.323 52.5531 177.879 52.6 177.669 52.4131C177.335 52.1114 177.229 51.5097 176.849 51.364C174.879 50.6048 173.529 49.1294 171.845 48.0467C171.081 47.561 170.228 47.1805 169.418 46.7432C169.091 46.5658 168.763 46.3883 168.482 46.1624C167.751 45.5948 167.11 44.9014 166.303 44.4435C164.253 43.2774 162.133 42.2088 160.05 41.0955C158.191 40.0953 156.373 39.0382 154.471 38.0947C153.724 37.7293 152.777 37.6812 151.981 37.3847C150.07 36.6601 148.18 35.907 146.324 35.101C143.996 34.0892 141.652 33.0936 139.397 31.9637C137.271 30.9073 135.255 29.6883 133.189 28.5384C132.784 28.3053 132.056 28.0394 132.082 27.7839C132.186 26.3815 130.822 26.5256 130.065 26.0566C129.441 25.6694 128.729 25.3874 128.068 25.0447C125.005 23.457 122.036 21.7228 118.861 20.3183C115.189 18.6991 111.366 17.3282 107.547 15.9657C106.355 15.5397 104.981 15.4729 103.686 15.2757C103.181 15.2013 102.65 15.2254 101.911 15.199C101.319 15.6101 100.492 15.9823 99.4331 15.6381C98.8219 15.4412 98.1188 15.4487 97.454 15.3621L97.394 15.3772ZM173.749 162.968C170.924 163.581 168.112 164.305 165.27 164.797C160.46 165.625 155.632 166.49 150.8 166.974C146.874 167.378 142.91 167.425 139.004 167.32C134.774 167.204 130.572 166.783 126.386 166.374C121.833 165.931 117.266 165.455 112.763 164.787C108.532 164.162 104.303 163.438 100.2 162.428C94.0397 160.93 87.9315 159.263 81.9007 157.437C78.027 156.263 74.3457 154.648 70.5485 153.286C62.5491 150.436 55.1843 146.561 47.9048 142.572C42.8975 139.833 38.0089 136.928 33.0715 134.092C32.0595 133.513 31.0629 132.918 29.8395 132.202C30.0504 132.712 30.107 132.982 30.2509 133.196C33.6489 138.097 37.4294 142.723 41.5768 147.09C42.1241 147.665 43.2359 148.085 42.3316 149.232C42.2735 149.305 42.4545 149.583 42.5887 149.693C46.1546 152.442 49.6589 155.256 53.3231 157.895C55.3997 159.393 57.7189 160.623 59.9519 161.938C63.2038 163.849 66.4283 165.8 69.7775 167.573C72.9969 169.272 76.3812 170.756 79.6766 172.345C79.8836 172.445 80.0052 172.659 80.1695 172.816C80.1114 172.889 80.0593 172.949 80.0012 173.022C78.5106 172.407 77.02 171.792 75.5294 171.177C75.5483 171.462 75.6646 171.61 75.826 171.68C77.6423 172.522 79.4433 173.38 81.2776 174.186C87.4518 176.891 94.0713 178.62 100.784 180.095C107.388 181.547 114.221 181.74 121.148 181.307C125.579 181.027 130.01 180.855 134.443 180.555C136.018 180.441 137.607 180.174 139.16 179.795C140.635 179.439 142.065 178.817 143.517 178.353C144.132 178.157 144.758 178.045 145.481 177.872C145.271 178.057 145.141 178.17 144.825 178.447C155.279 174.353 164.747 169.024 173.736 162.964L173.749 162.968ZM80.2057 14.347L80.215 14.0497C77.321 14.3091 74.4304 14.5769 71.5364 14.8363C71.5446 14.9894 71.5434 15.1464 71.5516 15.2995C74.4438 14.9822 77.323 14.6604 80.2151 14.3431L80.2057 14.347ZM12.2956 49.3831C12.4347 49.4527 12.561 49.5177 12.7002 49.5873C13.5093 48.4502 14.3219 47.3214 15.1311 46.1843L14.7746 45.9896C13.9526 47.1223 13.1271 48.2466 12.2956 49.3831ZM61.0163 13.9206C59.2843 13.7085 59.0325 13.7932 57.7618 15.1215C58.8058 14.7381 59.8404 14.3586 61.0163 13.9206ZM85.6371 155.694C85.7567 155.557 85.8669 155.423 85.983 155.277C85.8247 154.335 84.9194 154.387 84.1788 154.224C84.084 154.342 83.9987 154.455 83.9039 154.573L85.6371 155.694ZM86.9267 155.424C87.5566 156.093 88.0187 156.596 88.6753 157.302C88.8016 155.821 88.1788 155.463 86.9267 155.424Z" fill="#FF4040"/>
</svg>
