<svg width="1327" height="1681" viewBox="0 0 1327 1681" fill="none" xmlns="http://www.w3.org/2000/svg">
<path d="M250.536 53.8039C258.119 58.278 267.809 54.4201 267.003 46.2579C266.441 40.6515 269.331 39.2575 273.041 37.9275C311.67 24.3196 351.188 12.7067 393.02 7.57056C419.295 4.33632 445.54 -0.581332 472.185 0.247666C503.287 1.21101 535.047 5.86277 566.087 12.3226C591.602 17.6173 615.288 30.2569 637.983 44.2557C648.121 50.4881 658.913 54.8767 671.404 55.486C687.27 56.1757 702.977 58.9007 718.04 67.5658C726.317 72.3386 736.6 75.7705 747.261 74.8615C752.821 74.379 759.13 77.256 765.054 78.7886C789.807 85.3379 814.772 91.0174 839.156 98.8826C860.245 105.726 880.784 114.697 901.191 123.596C916.546 130.297 931.687 137.868 946.316 146.072C959.555 153.524 971.842 162.584 984.925 170.483C989.563 173.29 995.153 174.491 1000.08 176.771C1018.25 185.22 1031.54 199.371 1044.54 213.284C1067.63 237.797 1091.04 262.335 1111.86 288.504C1133.76 316.011 1154.59 344.534 1172.5 374.205C1196.12 413.246 1216.52 453.808 1238.38 493.72C1239.12 495.032 1239.97 496.32 1240.95 497.986C1236 499.861 1232.03 501.354 1226.18 503.648C1232.23 513.962 1236.98 524.633 1244.13 533.718C1255.53 548.363 1259.24 564.76 1263.64 580.996C1274.03 618.882 1283.84 656.904 1294.13 694.813C1294.8 697.218 1298.44 699.031 1299.73 701.546C1302.58 707.026 1305.6 712.671 1307.21 718.39C1319.04 761.523 1326.39 804.886 1326.02 848.47C1325.78 872.964 1324.66 897.357 1323.92 922.942C1323.4 923.115 1321.32 923.961 1319.06 924.182C1313.14 924.697 1311.64 928.278 1312.02 933.106C1314.31 961.618 1316.61 990.129 1318.85 1017.63C1316.47 1016.34 1312.41 1013.09 1311.28 1013.77C1308.78 1015.22 1306.85 1018.49 1306.31 1021.39C1299.93 1055.67 1294.28 1090.19 1287.54 1124.35C1283.89 1143.14 1279.29 1161.79 1273.73 1180C1266 1205.22 1256.83 1229.96 1248.13 1255.57C1249.79 1253.13 1251.16 1251.07 1252.53 1249.01C1253.05 1249.14 1253.51 1249.24 1254.04 1249.37C1252.95 1253.93 1252.02 1258.5 1250.66 1262.92C1249.2 1267.66 1247.59 1272.4 1245.61 1276.86C1244.13 1280.07 1241.39 1282.76 1240.04 1286.05C1237.63 1291.94 1235.05 1297.98 1233.96 1304.28C1230.39 1324.02 1226.1 1343.52 1215.9 1360.66C1209.52 1371.38 1200.45 1380.42 1193.33 1390.75C1187.11 1399.74 1181.82 1409.38 1176.42 1418.89C1161.32 1445.43 1139.67 1466.54 1115.55 1485.71C1088.47 1507.22 1062.39 1529.88 1034.43 1550.46C1015.56 1564.36 994.512 1575.8 973.83 1587.51C956.812 1597.18 938.922 1605.78 921.332 1614.61C917.21 1616.7 912.517 1617.96 908.125 1619.6C907.553 1618.76 907.012 1617.86 906.44 1617.02C918.369 1610.28 930.267 1603.6 942.197 1596.86C941.59 1595.93 940.952 1595.05 940.345 1594.12C931.003 1599.08 921.695 1604.12 912.252 1608.95C896.253 1617.05 880.22 1625.06 864.155 1633.13C844.714 1642.85 825.549 1653.34 802.951 1657.04C780.254 1660.77 757.383 1663.87 734.621 1667.56C717.378 1670.37 700.273 1673.56 683.134 1676.65C659.367 1680.94 635.497 1683.2 610.895 1674.16C597.836 1669.38 585.06 1663.92 572.032 1659.08C566.128 1656.87 560.009 1655.39 554.047 1653.61C529.772 1646.33 506.814 1635.83 485.471 1622.33C468.768 1611.8 453.117 1599.63 436.733 1588.66C428.509 1583.16 419.55 1578.7 411.199 1573.43C372.854 1549.16 337.362 1521.51 304.82 1490.45C290.151 1476.47 275.481 1462.49 261.585 1447.86C253.134 1438.98 246.362 1428.73 238.492 1419.41C227.508 1406.35 217.166 1392.59 204.665 1380.76C190.662 1367.44 181.661 1351.82 172.039 1336.25C164.916 1324.75 156.981 1313.65 149.956 1302.13C143.169 1291.11 137.26 1279.74 130.54 1268.76C122.269 1255.43 112.795 1242.59 105.046 1229.08C89.106 1201.31 74.9594 1173.06 63.3137 1143.67C45.6597 1099.29 30.161 1054.55 20.4091 1008.83C16.0717 988.537 13.1069 968.072 10.9622 947.672C7.10576 910.817 3.5773 873.988 1.4905 837.179C0.184049 814.277 1.04145 791.482 2.35919 768.785C4.96797 725.498 6.8862 682.064 12.191 639.323C18.0383 592.255 26.8436 545.722 35.3869 499.2C37.708 486.514 42.9553 474.424 48.1421 462.604C54.5873 447.979 53.0481 431.996 54.5962 416.469C57.8023 384.261 60.9738 351.959 65.2646 319.958C68.1443 298.484 73.4899 277.507 76.7639 256.093C78.31 245.792 75.178 234.025 78.6085 224.666C84.6258 208.143 93.4136 192.662 102.239 177.428C109.541 164.856 118.333 153.165 126.86 141.331C142.637 119.397 154.559 94.4719 178.607 78.7465C183.137 75.7386 187.445 73.1412 191.106 79.8149C202.48 74.8967 213.401 70.3404 224.185 65.4066C228.505 63.4214 232.215 60.3493 236.535 58.3641C238.875 57.3549 241.959 57.6571 244.771 57.3572C246.682 56.1923 248.593 55.0274 250.57 53.8983L250.536 53.8039ZM264.383 1345.51L264.478 1345.34C265.657 1347.11 266.836 1348.88 267.983 1350.71L267.719 1350.57C274.402 1368.42 292.923 1372.74 306.728 1382.47L308.832 1381.11C300.377 1368.43 291.954 1355.7 283.499 1343.03C282.491 1343.47 281.582 1343.89 280.575 1344.33C283.419 1349.35 286.329 1354.41 289.173 1359.43C288.263 1359.85 287.42 1360.3 286.479 1360.78C283.591 1356.95 280.928 1352.86 277.718 1349.3C275.012 1346.4 272.816 1339.23 267.306 1345.95C266.354 1345.82 265.37 1345.74 264.417 1345.61L264.383 1345.51ZM773.176 1600.13C771.61 1600.5 770.111 1600.9 768.545 1601.27C758.914 1601.22 749.315 1601.11 739.618 1601.02C723.312 1599.56 706.974 1598.17 690.668 1596.71C679.436 1593.29 668.203 1589.88 657.069 1586.44C656.246 1586.22 654.787 1585.29 654.816 1585.07C656.269 1578.59 649.862 1582.85 648.312 1580.5C649.334 1586.2 644.82 1583.01 642.979 1582.62C635.058 1581.15 627.131 1579.36 619.233 1577.37C617.259 1576.91 615.271 1575.69 613.609 1574.33C607.496 1569.67 601.711 1565.03 593.552 1568.43C590.789 1569.59 587.296 1570.2 584.211 1569.9C580.042 1569.39 575.948 1567.63 571.767 1566.51C547.182 1560.13 523.909 1550.36 501.441 1538C488.138 1530.67 473.249 1526.11 459.342 1519.74C446.657 1513.95 434.223 1507.53 421.728 1501.39C422.108 1500.69 422.356 1499.91 422.67 1499.17C424.21 1499.17 425.651 1499.19 428.566 1499.18C423.365 1495.99 419.455 1493.57 415.546 1491.16C415.229 1491.75 414.944 1492.27 414.627 1492.86L418.591 1496.44C415.083 1496.29 412.085 1495.35 409.407 1493.98C386.987 1482.48 368.344 1466.2 350.571 1449.1C324.628 1424.18 299.169 1398.84 273.773 1373.39C261.96 1361.55 254.299 1347.57 246.924 1333.05C232.679 1304.83 215.736 1277.65 201.362 1249.51C191.85 1231.04 184.223 1211.77 176.631 1192.59C170.513 1177.02 165.406 1161.15 160.267 1145.35C153.283 1123.62 146.267 1101.95 140.198 1080.12C136.62 1067.27 135.362 1054.09 131.98 1041.21C128.101 1026.23 123.013 1011.44 118.481 996.57C118.343 996.192 117.716 995.929 116.752 995.182C116.792 997.324 116.921 998.985 116.952 1000.67C117.311 1000.64 117.636 1000.51 117.996 1000.47C111.009 971.474 104.053 942.415 96.6354 911.364L92.7712 918.52C90.4663 910.76 90.8863 903.335 89.7352 895.971C86.6839 876.142 83.3362 856.228 79.2691 836.38C77.1782 826.009 73.9736 815.642 70.2166 805.507C64.7031 790.711 60.9937 776.057 62.4497 760.858C63.1977 753.459 63.681 745.917 63.281 738.429C62.2069 717.47 60.5429 696.496 59.1091 675.57C58.2394 662.146 57.3697 648.722 56.4225 634.65C55.4582 635.644 54.8422 635.994 54.7845 636.417C52.9587 663.537 50.0826 690.544 49.6351 717.802C49.3632 736.821 52.3083 756.215 53.8089 775.434L53.8751 775.47C50.699 773.755 47.4567 772.004 44.1483 770.217C44.1906 772.513 44.3448 775.55 44.2689 778.54C43.9049 797.888 41.0201 817.315 43.8961 836.52C47.7192 862.675 49.9366 888.796 53.9898 915C60.8648 959.243 75.4807 1002.29 85.5874 1045.93C88.6097 1058.85 92.1557 1071.75 96.7779 1084.39C106.888 1112.2 117.325 1140.04 128.543 1167.53C137.461 1189.32 147.944 1210.74 157.351 1232.41C158.685 1235.48 157.838 1239.26 158.092 1244.17C164.132 1251.98 172.39 1261.06 178.765 1271.09C197.527 1300.92 214.795 1331.46 234.074 1360.96C244.05 1376.2 256.787 1390.12 268.936 1404.18C284.298 1421.95 298.572 1441.1 316.378 1456.39C347.663 1483.29 380.399 1508.92 414.25 1532.81C440.931 1551.61 469.694 1567.83 498.382 1583.55C512.577 1591.29 528.522 1596.26 544.07 1601.02C573.092 1609.95 602.125 1619.5 631.585 1625.56C663.676 1632.13 696.088 1631.3 726.891 1624.91C759 1618.31 790.21 1609.1 821.767 1600.99C821.865 1600.97 821.957 1600.64 822.326 1599.32C811.265 1599.87 800.799 1600.73 790.19 1600.91C784.754 1601 779.169 1600.11 773.625 1599.61L773.135 1599.73L773.176 1600.13ZM256.331 1317.38C248.592 1327.59 258.355 1329.45 267.17 1331.49C263.449 1326.83 259.727 1322.16 255.971 1317.41C255.718 1309.01 250.688 1302.66 245.519 1295.93C244.133 1300.71 243.021 1304.35 242.007 1307.97C242.519 1307.34 243.066 1306.8 243.579 1306.17C247.807 1309.89 252.036 1313.62 256.296 1317.28L256.331 1317.38ZM185.476 207.985C181.226 213.796 176.977 219.608 172.728 225.419C178.265 221.97 182.54 217.536 187.183 213.528C190.631 210.466 189.394 209.117 185.248 208.09C185.014 204.251 184.748 200.471 184.513 196.632C185.627 196.627 186.772 196.564 187.819 196.524C189.087 199.557 190.257 202.613 191.833 206.343C195.204 202.633 197.933 199.637 201.047 196.243C194.494 192.553 192.455 188.573 197.61 183.933C201.103 185.061 204.464 186.119 206.308 186.66C207.279 182.488 207.062 177.825 209.337 175.038C223.452 157.131 241.87 143.441 261.66 131.326C271.506 125.28 281.484 119.305 291.768 113.874C306.981 105.802 324.9 102.373 337.911 90.3085C349.73 79.3429 363.649 70.3447 376.702 60.5758C377.672 59.8875 379.111 59.7555 382.204 58.7747C381.528 66.5155 380.991 72.8917 380.398 79.8444C383.535 79.4171 386.15 79.1631 388.663 78.6259C394.599 77.2866 400.14 73.9908 406.424 80.8696C407.929 82.5153 414.246 80.4722 419.707 80.0126C415.959 77.458 413.902 76.0442 411.88 74.7248C412.029 73.9724 412.277 73.1971 412.427 72.4447C416.303 73.0227 420.173 73.2945 423.988 74.1428C427.441 74.871 431.152 77.1782 434.291 76.9039C446.228 75.85 458.086 74.1483 469.775 72.1276C471.18 71.9011 472.922 66.9332 471.953 65.8795C469.106 62.4478 465.093 59.7503 460.335 55.7415C474.763 54.8212 489.027 53.888 503.323 52.8963C505.285 52.744 508.626 52.73 508.871 51.8016C510.749 45.3162 516.207 48.1877 520.632 48.3807C532.335 48.8673 544.006 49.4125 555.708 49.8991C555.691 48.9809 555.643 48.1213 555.626 47.2031C531.608 44.9901 507.499 41.3641 483.711 40.9417C436.757 40.0539 392.581 49.5302 349.356 62.6262C318.803 71.8833 290.032 83.6942 262.76 98.5868C252.804 104.044 241.808 108.105 232.353 114.06C222.219 120.481 213.362 128.652 203.7 135.782C178.947 154.081 156.69 174.561 140.158 199.951C125.763 222.177 117.607 247.09 112.222 273.046C108.974 288.715 105.659 304.349 102.375 319.924C125.574 279.499 148.183 239.058 179.403 203.721C181.825 205.408 183.551 206.643 185.211 207.842L185.476 207.985ZM253.467 1265.07L253.329 1264.69C254.096 1268.97 254.862 1273.25 255.738 1278.12C254.316 1279.17 252.183 1280.74 251.116 1281.45C253.298 1286.12 254.295 1290.44 256.972 1293.56C270.194 1308.95 283.998 1323.91 297.188 1339.36C300.369 1343.13 301.967 1348.08 304.308 1352.45C304.578 1352.9 305.205 1353.16 305.703 1353.51C307.511 1352.06 309.221 1350.64 311.221 1348.99C302.731 1337.96 290.387 1329.33 286.57 1315.98C308.138 1338.08 329.443 1360.19 349.813 1383.09C369.981 1405.72 396.439 1423.04 413.418 1448.57C409.241 1445.86 405.095 1443.09 401.117 1440.49C400.646 1445.16 400.193 1449.01 399.69 1453.73C404.397 1454.99 409.237 1456.31 411.475 1456.92C417.07 1461.91 423.253 1465.02 424.572 1469.07C426.972 1476.65 433.777 1476.23 438.518 1479.32C443.259 1482.41 448.112 1486.25 453.314 1487.69C458.812 1489.22 464.789 1488.28 468.328 1488.38C478.631 1492.88 487.523 1497.3 496.791 1500.72C502.363 1502.74 508.648 1502.5 514.284 1504.41C529.15 1509.48 543.65 1516.02 558.571 1520.52C583.899 1528.06 609.437 1534.58 634.912 1541.22C638.894 1542.23 643.199 1541.22 647.305 1541.85C673.252 1545.71 699.214 1550.34 725.214 1553.47C745.666 1555.96 766.553 1558.9 786.577 1557.75C822.996 1555.67 859.043 1551.28 894.922 1546.56C921.781 1543.04 946.56 1533.24 966.256 1517.81C986.857 1501.66 1004.31 1481.85 1021.21 1462.11C1054.78 1422.89 1086.99 1382.56 1120.13 1342.88C1121.89 1340.73 1126.27 1340.52 1129.4 1339.33L1131.21 1341.97C1136.94 1332.64 1142.89 1323.51 1148.29 1314C1167.32 1280.34 1185.79 1246.45 1194.25 1207.99C1196.43 1197.95 1200.24 1187.89 1199.59 1177.69C1198.38 1156.51 1195.11 1135.19 1192.13 1113.96C1187.54 1081.64 1183.57 1049.26 1177.37 1017.06C1167.8 966.734 1156.98 916.498 1146.03 866.344C1136.48 822.626 1125.88 778.948 1115.9 735.227C1109.66 707.691 1099.18 681.046 1086.85 654.99C1069.09 617.293 1050.8 579.769 1031.71 542.487C1015.67 511.252 1000.02 479.618 980.902 449.822C959.655 416.682 935.324 384.982 910.963 353.493C894.823 332.579 876.316 313.04 858.881 292.942C827.924 257.209 791.333 226.843 754.104 197.344C724.918 174.158 693.616 153.465 662.921 131.965C655.421 126.703 647.24 120.012 638.925 118.476C622.559 115.546 605.774 116.558 589.258 114.381C578.949 113.056 567.201 118.984 558.144 107.426C557.405 106.421 553.554 107.22 551.232 107.406C548.617 107.66 546.044 108.467 543.428 108.721C504.486 112.463 466.725 119.874 429.941 130.539C418.994 133.718 408.672 142.386 394.218 134.807C403.139 131.898 411.669 129.08 420.265 126.298C419.618 124.964 418.94 123.689 418.293 122.354C405.282 127.298 392.271 132.241 379.228 137.243C379.502 137.845 379.709 138.411 379.982 139.013C382.92 138.478 385.858 137.944 390.69 137.068C387.613 138.967 386.075 140.864 384.404 140.795C373.392 140.454 365.839 146.527 357.703 151.148C335.305 163.976 312.373 176.213 291.25 190.639C270.904 204.575 252.766 221.068 233.226 236.045C228.252 239.874 221.771 241.904 216.13 245.07C210.975 247.968 204.4 250.174 201.204 254.509C192.003 267.116 184.329 280.85 175.626 293.801C167.432 305.967 157.483 317.109 150.48 329.918C136 356.416 122.249 383.46 109.653 410.899C103.102 425.088 99.0299 440.541 95.1511 455.794C93.0446 464.126 93.8382 473.418 93.2479 482.266C94.3643 482.414 95.449 482.621 96.5654 482.77C97.1494 475.358 97.8313 467.923 98.4153 460.512C99.3677 460.647 100.288 460.841 101.241 460.977C101.184 498.749 102.703 536.766 98.5427 574.064C97.6564 573.964 96.7385 573.923 95.9185 573.859C95.7078 567.76 95.5633 561.698 95.321 555.658C94.4031 555.617 93.5514 555.611 92.6335 555.57C91.9494 561.11 92.4536 567.139 90.3484 571.987C82.4834 589.558 88.0069 608.45 89.2632 626.855C89.4005 628.975 91.7362 631.297 91.6433 633.368C91.4752 636.686 88.5245 640.092 89.4615 642.947C94.2872 657.75 92.1323 672.344 93.7785 687.02C94.5558 693.652 96.3489 700.302 97.6182 706.973C98.1265 709.671 98.6348 712.37 98.6511 715.03C98.8097 721.858 97.823 728.75 98.9629 735.501C101.834 752.658 105.588 769.761 108.917 786.862C111.852 802.159 114.263 817.476 117.722 832.753C119.11 838.729 123.243 844.37 125.252 850.304C130.003 864.612 134.492 878.93 138.524 893.304C143.573 911.334 148.786 929.376 152.822 947.54C156.674 964.621 159.088 981.833 162.123 999.002C162.677 1002.41 164.545 1007.81 162.959 1008.85C154.454 1014.78 161.628 1021.92 162.469 1028.43C163.157 1033.8 164.862 1039.19 165.976 1044.57C171.152 1069.48 175.053 1094.54 181.797 1119.25C189.628 1147.79 199.582 1176.05 209.568 1204.24C212.678 1213.04 218.692 1221.22 223.595 1229.55C225.521 1232.78 228.13 1235.71 231.42 1240.06C236.524 1241.53 242.508 1244.53 245.466 1252.19C247.186 1256.6 250.502 1260.59 253.102 1264.8L253.467 1265.07ZM742.422 141.111C759.078 154.424 776.312 167.14 792.358 181.109C819.489 204.776 846.914 228.374 872.178 253.76C892.767 274.348 911.491 296.809 929.075 319.638C948.103 344.384 965.255 370.388 982.404 396.24C1001.07 424.35 1019.61 452.694 1036.74 481.571C1052.87 508.687 1068.41 536.247 1081.74 564.429C1101.84 606.649 1120.74 649.356 1138.37 692.36C1149.69 719.988 1157.59 748.57 1167.47 776.636C1188.41 835.669 1200.52 895.848 1211.59 956.066C1219.23 997.465 1225.37 1038.96 1232.13 1080.41C1233.53 1088.9 1234.76 1097.37 1236.36 1107.7C1238.3 1104.12 1239.58 1102.54 1240.13 1100.72C1252.36 1058.46 1261.22 1015.29 1266.9 971.238C1267.64 965.428 1264.87 957.112 1275.64 956.946C1276.33 956.938 1277.07 954.612 1277.08 953.329C1276.21 920.13 1275.99 886.983 1274.04 853.73C1272.93 834.878 1269.18 815.88 1266.31 796.981C1262.1 769.482 1258.25 741.949 1252.8 714.536C1247.53 688.207 1240.27 661.935 1234.02 635.682C1233.63 634.032 1234.28 632.341 1234.42 630.67C1235.11 630.663 1235.7 630.679 1236.38 630.671C1239.8 642.063 1243.22 653.456 1246.64 664.848C1248.19 663.41 1248.49 662.058 1248.14 660.808C1244.5 646.496 1241.03 632.196 1237.1 617.952C1223.83 570.031 1202.91 524.11 1180.1 478.836C1157.66 434.294 1126.95 394.301 1092.22 356.684C1070 332.637 1048.39 308.086 1026.03 284.12C1018.05 275.641 1009.12 267.792 999.722 260.67C990.819 253.892 980.6 248.601 971.184 242.455C967.206 239.852 963.645 236.793 959.292 233.457C961.329 233.8 962.578 234.02 965.634 234.534C893.542 193.783 818.975 164.423 742.457 141.206L742.422 141.111ZM327.592 1368.21L325.848 1369.54C340.805 1384.89 355.794 1400.18 370.751 1415.53C371.589 1414.77 372.493 1414.05 373.33 1413.29C358.051 1398.22 342.806 1383.24 327.526 1368.17L327.592 1368.21ZM844.2 1593.64C843.95 1592.52 843.735 1591.49 843.485 1590.37C833.212 1591.04 822.971 1591.64 812.698 1592.31L813.243 1595.25C823.551 1594.68 833.826 1594.17 844.2 1593.64ZM414.488 1479.98C421.338 1490.88 422.995 1491.93 436.51 1493.01C429.456 1488.82 422.468 1484.67 414.488 1479.98ZM1111 679.097C1109.66 679.053 1108.38 679.045 1107.01 679.06C1102.36 684.35 1106.87 689.288 1109.38 694.283C1110.5 694.278 1111.55 694.237 1112.66 694.233L1111 679.097ZM1103.46 672.975C1104.35 666.26 1105.08 661.274 1106.06 654.229C1097 660.398 1097.85 665.63 1103.46 672.975Z" fill="#5A544C" fill-opacity="0.7"/>
</svg>
