<svg width="180" height="230" viewBox="0 0 180 230" fill="none" xmlns="http://www.w3.org/2000/svg">
<path d="M47.1088 4.21598C48.0588 4.93877 49.4247 4.5732 49.4458 3.46146C49.4592 2.69769 49.8704 2.55587 50.3909 2.4357C55.808 1.21686 61.3131 0.280722 67.0268 0.253362C70.6159 0.235079 74.2275 -0.0103504 77.8019 0.52431C81.9742 1.14782 86.1764 2.27838 90.2531 3.64095C93.6044 4.75893 96.5927 6.83678 99.4261 9.08189C100.692 10.082 102.075 10.8442 103.748 11.1246C105.873 11.4693 107.944 12.0856 109.835 13.4914C110.873 14.2654 112.203 14.8908 113.653 14.9376C114.41 14.9609 115.213 15.4485 115.987 15.7489C119.215 17.0237 122.487 18.1847 125.645 19.6308C128.375 20.8871 130.998 22.421 133.605 23.9432C135.566 25.0892 137.484 26.349 139.323 27.6857C140.988 28.8994 142.498 30.3142 144.134 31.5854C144.714 32.0371 145.448 32.2875 146.074 32.6726C148.387 34.0987 149.952 36.2151 151.481 38.2947C154.2 41.9616 156.963 45.6371 159.351 49.4912C161.863 53.5423 164.215 57.7135 166.155 61.9926C168.715 67.6239 170.817 73.4091 173.127 79.13C173.207 79.3184 173.3 79.5052 173.405 79.7451C172.71 79.9191 172.152 80.0571 171.327 80.273C171.978 81.7578 172.448 83.2699 173.266 84.6066C174.569 86.7595 174.808 89.026 175.142 91.2818C175.94 96.5477 176.657 101.823 177.441 107.09C177.493 107.425 177.953 107.726 178.087 108.086C178.384 108.869 178.701 109.677 178.827 110.472C179.736 116.468 180.037 122.423 179.294 128.285C178.874 131.579 178.335 134.845 177.829 138.278C177.756 138.293 177.463 138.374 177.156 138.368C176.351 138.344 176.091 138.802 176.066 139.458C175.922 143.333 175.778 147.208 175.644 150.946C175.343 150.735 174.849 150.233 174.685 150.306C174.326 150.462 174.014 150.872 173.895 151.253C172.492 155.768 171.183 160.326 169.733 164.819C168.944 167.29 168.028 169.728 166.99 172.091C165.55 175.365 163.922 178.55 162.344 181.86C162.606 181.558 162.823 181.302 163.04 181.046C163.109 181.072 163.17 181.092 163.238 181.119C163.019 181.715 162.821 182.316 162.567 182.889C162.297 183.505 162.004 184.117 161.666 184.686C161.416 185.095 161.005 185.414 160.771 185.835C160.353 186.59 159.91 187.362 159.663 188.193C158.869 190.794 157.982 193.352 156.336 195.498C155.306 196.84 153.942 197.913 152.82 199.19C151.839 200.301 150.974 201.516 150.097 202.711C147.642 206.044 144.391 208.542 140.84 210.741C136.852 213.207 132.98 215.843 128.89 218.171C126.128 219.743 123.113 220.948 120.142 222.197C117.697 223.229 115.152 224.102 112.644 225.012C112.056 225.229 111.404 225.323 110.786 225.474C110.723 225.352 110.664 225.223 110.6 225.101C112.314 224.383 114.022 223.672 115.735 222.954C115.668 222.819 115.596 222.691 115.529 222.555C114.192 223.074 112.859 223.606 111.511 224.106C109.228 224.943 106.942 225.766 104.651 226.597C101.879 227.599 99.1326 228.706 96.0312 228.846C92.9162 228.987 89.7876 229.042 86.6642 229.178C84.2981 229.282 81.9445 229.44 79.5877 229.584C76.3197 229.784 73.0701 229.709 69.9013 228.101C68.2189 227.25 66.5853 226.312 64.9081 225.454C64.1482 225.063 63.3479 224.766 62.5735 224.431C59.4207 223.066 56.4964 221.288 53.837 219.132C51.7555 217.448 49.8412 215.562 47.8096 213.825C46.7896 212.953 45.6542 212.211 44.6134 211.369C39.8359 207.493 35.4963 203.206 31.6081 198.508C29.855 196.392 28.1018 194.277 26.4631 192.087C25.4663 190.757 24.7172 189.269 23.8057 187.889C22.5341 185.957 21.3602 183.939 19.8648 182.148C18.191 180.133 17.2271 177.887 16.1788 175.637C15.4023 173.976 14.5103 172.355 13.7473 170.692C13.0084 169.102 12.3934 167.477 11.6628 165.892C10.7609 163.966 9.6893 162.086 8.86027 160.145C7.15516 156.153 5.69892 152.125 4.59765 147.982C2.92538 141.727 1.54886 135.458 0.96177 129.147C0.700034 126.345 0.625772 123.543 0.660902 120.762C0.72682 115.739 0.836485 110.724 1.13993 105.735C1.32764 102.631 1.80499 99.5754 2.34277 96.5404C3.38129 90.7536 4.32915 84.9362 5.72197 79.2658C7.25657 73.0213 9.18089 66.8961 11.0698 60.768C11.5837 59.0969 12.4822 57.5523 13.3682 56.0432C14.4682 54.1764 14.5147 52.0001 14.9696 49.9341C15.9127 45.6486 16.8525 41.3498 17.9383 37.1094C18.667 34.2637 19.7198 31.5243 20.5005 28.6932C20.8723 27.3308 20.6374 25.6967 21.2479 24.4911C22.3204 22.3619 23.7494 20.4171 25.1794 18.5061C26.3622 16.9294 27.7316 15.4949 29.0676 14.037C31.54 11.3343 33.5409 8.16769 37.0283 6.43223C37.686 6.09917 38.3074 5.81787 38.6943 6.77454C40.3037 6.29292 41.8465 5.85287 43.3768 5.3598C43.9899 5.16109 44.5382 4.80639 45.1514 4.60768C45.4824 4.50895 45.8929 4.59861 46.2762 4.60287C46.552 4.47637 46.8278 4.34988 47.112 4.22924L47.1088 4.21598ZM28.4648 178.351L28.4804 178.328C28.611 178.586 28.7416 178.843 28.867 179.108L28.8337 179.085C29.4501 181.594 31.8751 182.47 33.5794 183.999L33.8843 183.849C32.9472 182.009 32.0152 180.161 31.078 178.32C30.9354 178.364 30.8063 178.406 30.6637 178.449C30.9669 179.17 31.2784 179.897 31.5816 180.618C31.4525 180.66 31.3318 180.708 31.1975 180.757C30.8695 180.195 30.5759 179.602 30.2001 179.073C29.8818 178.639 29.7 177.639 28.8514 178.457C28.7253 178.423 28.5941 178.397 28.468 178.364L28.4648 178.351ZM92.9259 220.71C92.7093 220.735 92.501 220.765 92.2844 220.79C90.9885 220.63 89.6978 220.463 88.3936 220.298C86.2213 219.843 84.0438 219.395 81.8714 218.94C80.4133 218.302 78.9552 217.664 77.5106 217.024C77.4033 216.982 77.2218 216.832 77.2291 216.804C77.5277 215.954 76.5973 216.426 76.426 216.085C76.473 216.869 75.9161 216.367 75.6743 216.286C74.6312 215.961 73.5922 215.596 72.5605 215.202C72.302 215.109 72.0538 214.912 71.8514 214.704C71.1025 213.979 70.3973 213.262 69.2448 213.59C68.8544 213.702 68.3743 213.73 67.9638 213.64C67.4105 213.505 66.8872 213.204 66.3422 212.986C63.1333 211.736 60.155 210.052 57.3261 208.031C55.6515 206.832 53.7191 205.983 51.9479 204.904C50.3319 203.923 48.7596 202.862 47.1748 201.837C47.2372 201.748 47.2829 201.647 47.3369 201.553C47.5442 201.577 47.7379 201.603 48.1307 201.647C47.481 201.135 46.9929 200.748 46.5049 200.361C46.4529 200.435 46.4062 200.501 46.3542 200.575L46.831 201.12C46.3612 201.044 45.9724 200.87 45.6336 200.643C42.7976 198.739 40.546 196.251 38.4244 193.666C35.3272 189.899 32.3017 186.083 29.2866 182.253C27.8839 180.472 27.0746 178.467 26.312 176.396C24.8422 172.37 22.9924 168.441 21.5039 164.424C20.5165 161.786 19.7956 159.071 19.0778 156.369C18.5015 154.174 18.0657 151.957 17.6247 149.748C17.0293 146.711 16.4287 143.683 15.9583 140.646C15.6805 138.86 15.7203 137.066 15.4696 135.277C15.1851 133.2 14.7349 131.127 14.3608 129.053C14.3483 129 14.268 128.955 14.1501 128.839C14.1214 129.128 14.1124 129.353 14.0898 129.58C14.1388 129.582 14.1846 129.57 14.2336 129.571C13.7532 125.555 13.2781 121.532 12.7724 117.234L12.1385 118.136C11.9513 117.055 12.1258 116.062 12.0877 115.052C11.9917 112.334 11.8571 109.599 11.6247 106.862C11.5078 105.433 11.241 103.986 10.896 102.562C10.3886 100.482 10.1218 98.4504 10.5592 96.4272C10.7774 95.4428 10.9622 94.4351 11.0272 93.4205C11.2154 90.5816 11.3243 87.7312 11.4635 84.891C11.5595 83.0698 11.6556 81.2485 11.7515 79.3389C11.6059 79.4574 11.5174 79.4947 11.5029 79.5508C10.8265 83.1732 10.0105 86.7637 9.51743 90.4266C9.17886 92.9831 9.26746 95.641 9.16437 98.2525L9.17271 98.2583C8.77231 97.977 8.36358 97.6897 7.9465 97.3967C7.91575 97.7064 7.88828 98.1179 7.8306 98.5191C7.47439 101.118 6.77755 103.688 6.85987 106.32C6.95934 109.902 6.84316 113.454 6.97285 117.046C7.19606 123.112 8.48053 129.14 9.14841 135.176C9.35021 136.964 9.62284 138.757 10.0444 140.533C10.964 144.437 11.9275 148.351 13.0012 152.231C13.856 155.306 14.9274 158.356 15.8499 161.423C15.9808 161.857 15.8066 162.354 15.7629 163.019C16.4521 164.166 17.4198 165.519 18.1189 166.972C20.1713 171.286 22.0114 175.671 24.1388 179.95C25.2401 182.159 26.7339 184.236 28.1464 186.322C29.9326 188.958 31.5505 191.763 33.7049 194.105C37.4902 198.223 41.4908 202.194 45.6691 205.948C48.963 208.903 52.5782 211.543 56.1912 214.115C57.9794 215.382 60.0473 216.305 62.0651 217.193C65.8308 218.856 69.5883 220.602 73.4586 221.886C77.6748 223.28 82.0519 223.683 86.3008 223.311C90.7287 222.933 95.0769 222.189 99.4546 221.598C99.4681 221.596 99.4857 221.554 99.5563 221.382C98.0584 221.28 96.6356 221.23 95.2043 221.085C94.471 221.012 93.7332 220.803 92.9945 220.648L92.9268 220.656L92.9259 220.71ZM27.8274 174.435C26.6233 175.687 27.9082 176.093 29.0628 176.507C28.6358 175.82 28.2087 175.133 27.7785 174.433C27.8777 173.299 27.3013 172.364 26.7123 171.376C26.4497 171.997 26.2422 172.47 26.0482 172.941C26.1272 172.864 26.2094 172.801 26.2884 172.724C26.7986 173.292 27.3089 173.86 27.8243 174.421L27.8274 174.435ZM35.9013 23.9419C35.2369 24.6569 34.5725 25.3718 33.9081 26.0868C34.7084 25.7103 35.3544 25.1812 36.0431 24.7154C36.556 24.3578 36.4109 24.1565 35.869 23.9524C35.8984 23.4318 35.9225 22.9186 35.9519 22.3981C36.1019 22.4151 36.2571 22.4248 36.3988 22.436C36.5213 22.8645 36.6303 23.2945 36.7832 23.8217C37.296 23.3757 37.711 23.0157 38.1842 22.6082C37.3605 22.0072 37.1492 21.4391 37.9169 20.8962C38.3693 21.1036 38.805 21.2993 39.0447 21.4015C39.2417 20.8551 39.2865 20.2239 39.637 19.8848C41.8217 17.6979 44.5189 16.1471 47.3757 14.8301C48.7974 14.1724 50.2358 13.5264 51.7065 12.9584C53.883 12.1131 56.3501 11.936 58.2934 10.5182C60.0588 9.22945 62.0757 8.23892 63.9883 7.13089C64.1298 7.05362 64.3256 7.05867 64.7577 6.97574C64.5437 8.00722 64.3701 8.85718 64.18 9.78388C64.6091 9.77615 64.9653 9.78348 65.3121 9.75103C66.1326 9.66497 66.9309 9.30919 67.6679 10.3351C67.8443 10.5806 68.7272 10.4058 69.4699 10.4306C69.0057 10.0272 68.7513 9.80416 68.4999 9.5944C68.532 9.49549 68.5777 9.39503 68.6098 9.29612C69.1225 9.43546 69.6392 9.53351 70.1395 9.70829C70.5928 9.86116 71.0558 10.2307 71.4828 10.2436C73.1067 10.2912 74.7303 10.2504 76.3362 10.1639C76.5289 10.1557 76.8424 9.51453 76.7286 9.35726C76.3997 8.85002 75.9022 8.42311 75.3253 7.80782C77.2825 7.91299 79.2178 8.01382 81.1583 8.10726C81.425 8.11791 81.875 8.16907 81.9227 8.04797C82.2786 7.2046 82.9678 7.67786 83.5606 7.77411C85.1285 8.02542 86.6912 8.28413 88.2591 8.53544C88.2714 8.41154 88.2785 8.29504 88.2908 8.17114C85.0922 7.49187 81.9038 6.62089 78.7077 6.18634C72.3998 5.32131 66.3016 5.89582 60.2739 6.97278C56.0132 7.73405 51.952 8.86748 48.0436 10.4396C46.6166 11.0163 45.0716 11.3885 43.7041 12.0401C42.2377 12.7438 40.9155 13.7033 39.5013 14.5099C35.878 16.5806 32.5563 18.9847 29.9273 22.1407C27.6362 24.9046 26.1426 28.1295 25.0055 31.5386C24.3193 33.5967 23.6248 35.6491 22.9354 37.694C26.7008 32.6194 30.3869 27.5334 35.1513 23.2714C35.4507 23.5369 35.6635 23.7306 35.8679 23.9185L35.9013 23.9419ZM28.2723 167.347L28.2597 167.294C28.295 167.882 28.3303 168.47 28.371 169.139C28.1628 169.258 27.8507 169.436 27.6956 169.515C27.9154 170.178 27.9809 170.776 28.292 171.238C29.8278 173.521 31.4488 175.753 32.9794 178.044C33.3479 178.601 33.4844 179.293 33.7302 179.919C33.7594 179.984 33.8397 180.029 33.9012 180.083C34.1676 179.917 34.4204 179.752 34.7159 179.562C33.7478 177.943 32.223 176.585 31.9211 174.727C34.474 178.045 36.9914 181.36 39.3705 184.766C41.7266 188.134 45.0139 190.886 46.8946 194.593C46.3752 194.162 45.861 193.723 45.3667 193.309C45.2291 193.931 45.1071 194.441 44.9643 195.07C45.5782 195.314 46.2087 195.569 46.5005 195.686C47.1746 196.446 47.9576 196.964 48.071 197.529C48.2737 198.588 49.1966 198.64 49.7858 199.132C50.375 199.623 50.9676 200.216 51.645 200.494C52.361 200.787 53.1806 200.755 53.6557 200.824C54.9713 201.594 56.0984 202.331 57.2919 202.938C58.0101 203.299 58.8601 203.366 59.5887 203.712C61.5097 204.631 63.3581 205.742 65.2956 206.585C68.586 208.002 71.9209 209.285 75.2454 210.583C75.7655 210.783 76.3611 210.716 76.904 210.865C80.3363 211.797 83.7583 212.832 87.2092 213.667C89.9234 214.326 92.6887 215.054 95.4032 215.217C100.339 215.515 105.263 215.496 110.168 215.431C113.841 215.383 117.332 214.457 120.229 212.693C123.259 210.846 125.924 208.455 128.512 206.065C133.655 201.318 138.632 196.399 143.723 191.583C143.995 191.321 144.589 191.362 145.028 191.251L145.231 191.637C146.149 190.471 147.096 189.336 147.974 188.141C151.071 183.911 154.096 179.642 155.846 174.598C156.298 173.281 156.971 171.987 157.045 170.604C157.219 167.732 157.116 164.811 157.052 161.905C156.947 157.479 156.927 153.058 156.604 148.623C156.114 141.696 155.455 134.76 154.777 127.834C154.185 121.796 153.452 115.747 152.803 109.702C152.4 105.895 151.412 102.141 150.164 98.4373C148.372 93.0799 146.506 87.7374 144.527 82.4147C142.864 77.9545 141.259 73.4469 139.157 69.1317C136.823 64.3323 134.05 59.6779 131.27 55.0515C129.429 51.9795 127.248 49.0548 125.219 46.0721C121.619 40.7695 117.174 36.1001 112.63 31.5372C109.069 27.9521 105.183 24.6691 101.391 21.287C100.465 20.4594 99.4698 19.4286 98.3746 19.0898C96.2176 18.4356 93.9416 18.3052 91.7525 17.7499C90.3855 17.4078 88.7096 18.0194 87.6737 16.3195C87.5901 16.1724 87.059 16.2189 86.7434 16.207C86.3872 16.1997 86.028 16.2676 85.6718 16.2603C80.3692 16.1458 75.1674 16.544 70.0455 17.3959C68.5211 17.6501 66.9938 18.6533 65.1681 17.4035C66.4154 17.1534 67.6086 16.9095 68.8101 16.6714C68.7442 16.4815 68.6731 16.299 68.6072 16.1091C66.7769 16.568 64.9467 17.027 63.1112 17.4934C63.1384 17.5788 63.1573 17.6583 63.1845 17.7437C63.5886 17.7184 63.9926 17.6931 64.6571 17.6519C64.2127 17.8587 63.9756 18.0897 63.7516 18.0538C62.2744 17.8331 61.161 18.5308 59.9922 19.0238C56.773 20.3954 53.4911 21.6788 50.418 23.2857C47.4574 24.8391 44.7535 26.7717 41.8848 28.478C41.1543 28.9146 40.2495 29.085 39.4398 29.4217C38.6997 29.73 37.7793 29.9227 37.2802 30.4556C35.8413 32.0068 34.59 33.7342 33.2126 35.3398C31.9162 36.8477 30.3998 38.1899 29.2536 39.8033C26.8832 43.141 24.6025 46.5639 22.4709 50.0583C21.3635 51.8647 20.57 53.8806 19.8056 55.8727C19.3896 56.9611 19.349 58.2248 19.129 59.4067C19.277 59.4444 19.4197 59.4895 19.5677 59.5272C19.764 58.5385 19.9738 57.5483 20.1701 56.5597C20.2962 56.593 20.4171 56.6338 20.5432 56.6672C19.9358 61.7518 19.5368 66.8946 18.3844 71.8503C18.2667 71.8228 18.1438 71.8027 18.0344 71.7811C18.1028 70.9566 18.1796 70.138 18.2429 69.321C18.12 69.3009 18.0054 69.2866 17.8825 69.2665C17.7024 70.0015 17.6745 70.8213 17.3141 71.4406C15.9762 73.6815 16.42 76.3127 16.2969 78.8108C16.2817 79.0984 16.5593 79.4481 16.5139 79.7254C16.4386 80.1695 15.9873 80.5813 16.0681 80.9805C16.4828 83.0502 15.961 84.9809 15.9496 86.9831C15.949 87.8883 16.0848 88.8122 16.1498 89.7304C16.1754 90.1018 16.201 90.4733 16.1609 90.8317C16.0739 91.7535 15.8316 92.6657 15.8779 93.5929C15.992 95.9484 16.226 98.3108 16.4027 100.666C16.555 102.772 16.6364 104.873 16.8596 106.985C16.9515 107.811 17.4184 108.636 17.5947 109.467C18.0072 111.469 18.3843 113.468 18.6989 115.467C19.0925 117.975 19.5079 120.487 19.7629 122.997C20.0104 125.358 20.0621 127.713 20.1981 130.073C20.2187 130.541 20.3844 131.298 20.1544 131.412C18.9151 132.076 19.7677 133.151 19.7775 134.041C19.7849 134.775 19.9288 135.528 19.9935 136.269C20.2948 139.706 20.4221 143.142 20.938 146.575C21.539 150.543 22.4306 154.505 23.3275 158.46C23.6065 159.694 24.2864 160.89 24.8143 162.09C25.0223 162.556 25.3272 162.991 25.7011 163.629C26.3649 163.908 27.1229 164.408 27.3996 165.486C27.561 166.107 27.9442 166.697 28.2274 167.304L28.2723 167.347ZM111.95 23.7807C113.981 25.8375 116.1 27.8233 118.038 29.9587C121.315 33.576 124.633 37.1887 127.632 41.0077C130.077 44.1066 132.241 47.4279 134.246 50.7809C136.415 54.4147 138.312 58.1883 140.21 61.9412C142.277 66.0222 144.323 70.1328 146.172 74.2929C147.912 78.1998 149.567 82.1573 150.914 86.1632C152.951 92.1669 154.817 98.217 156.508 104.287C157.593 108.186 158.203 112.16 159.088 116.096C160.97 124.376 161.646 132.671 162.18 140.955C162.551 146.65 162.718 152.334 162.97 158.023C163.024 159.187 163.056 160.347 163.107 161.764C163.424 161.313 163.622 161.121 163.726 160.884C166.043 155.388 167.922 149.717 169.385 143.876C169.578 143.105 169.336 141.941 170.79 142.09C170.882 142.1 171.019 141.799 171.041 141.626C171.45 137.142 171.947 132.676 172.212 128.168C172.363 125.612 172.159 122.994 172.072 120.404C171.942 116.635 171.861 112.867 171.563 109.089C171.272 105.461 170.711 101.808 170.286 98.1744C170.26 97.946 170.375 97.7288 170.419 97.506C170.512 97.5159 170.591 97.5274 170.684 97.5373C170.964 99.1255 171.243 100.714 171.523 102.302C171.754 102.133 171.816 101.956 171.788 101.782C171.526 99.7968 171.285 97.8163 170.982 95.8361C169.957 89.1735 167.869 82.6585 165.516 76.2006C163.202 69.8472 159.703 63.9751 155.624 58.3591C153.014 54.7684 150.494 51.1198 147.864 47.5381C146.924 46.2698 145.847 45.0713 144.695 43.9631C143.603 42.9092 142.312 42.0345 141.141 41.0576C140.647 40.644 140.216 40.1755 139.683 39.6573C139.952 39.7358 140.117 39.7852 140.52 39.9029C131.46 33.2717 121.887 28.1347 111.953 23.7939L111.95 23.7807ZM36.615 182.41L36.359 182.562C38.1292 184.866 39.9045 187.163 41.6746 189.467C41.7994 189.378 41.9326 189.295 42.0574 189.206C40.2395 186.934 38.4246 184.676 36.6067 182.404L36.615 182.41ZM102.592 220.964C102.576 220.809 102.563 220.668 102.547 220.513C101.154 220.439 99.765 220.358 98.3714 220.285L98.398 220.69C99.7949 220.777 101.186 220.871 102.592 220.964ZM46.5399 198.839C47.2892 200.415 47.4957 200.582 49.2981 200.943C48.4149 200.267 47.54 199.597 46.5399 198.839ZM153.034 102.067C152.854 102.039 152.682 102.018 152.497 101.998C151.786 102.637 152.316 103.373 152.575 104.086C152.725 104.103 152.867 104.114 153.017 104.131L153.034 102.067ZM152.115 101.123C152.342 100.233 152.519 99.5729 152.763 98.64C151.446 99.3268 151.477 100.045 152.115 101.123Z" fill="#FF4040"/>
</svg>
