<?xml version="1.0" encoding="UTF-8"?>
<svg id="Layer_2" data-name="Layer 2" xmlns="http://www.w3.org/2000/svg" viewBox="0 0 288 288">
  <defs>
    <style>
      .cls-1 {
        fill: none;
      }

      .cls-1, .cls-2 {
        stroke-width: 0px;
      }

      .cls-2 {
        fill: #eee;
      }
    </style>
  </defs>
  <g id="Layer_1-2" data-name="Layer 1">
    <g>
      <g>
        <path class="cls-2" d="M206.55,201.26c-1.38.27-2.84.59-4.31.82-1.62.26-3.25.42-4.87.67-.42.07-.81.35-1.24.43-.93.18-1.87.39-2.82.43-1.56.08-3.13-.02-4.69.07-1.08.06-2.13.18-3.23.5-1.38.41-3,.01-4.51-.05-1.91-.08-3.82-.16-5.74-.25-.17,0-.37.05-.5-.02-1.58-.97-3.47-.6-5.14-1.2-1.11-.4-2.5-.07-3.24-1.4-.11-.19-.72-.03-1.05-.16-.68-.27-1.3-.74-1.99-.9-1.19-.27-2.45-.26-3.63-.56-1.06-.28-2.16-.14-3.15-.36-3.25-.72-6.4-1.91-9.66-2.58-2.73-.57-5.57-.63-8.35-.98-1.71-.22-3.41-.6-5.11-.86-1.01-.15-2.05-.19-3.06-.34-.52-.08-1-.36-1.52-.46-1.95-.37-3.93-.64-5.87-1.06-1.8-.4-3.55-1.1-5.36-1.39-2.1-.34-4.08-1.39-6.32-1.04-1.07.17-2.2.23-3.27.12-.85-.09-1.66-.55-2.5-.8-.97-.28-1.94-.56-2.93-.76-1.28-.26-2.59-.43-3.88-.66-.32-.06-.62-.2-.93-.31-.12-.05-.25-.2-.35-.19-2.04.35-3.82-1.19-5.86-.83-.18.03-.44-.03-.58-.15-1.2-1.03-2.7-.58-4.05-.84-1.35-.26-2.72-.38-4.08-.56-.07,0-.13-.02-.2-.05-1.55-.56-1.55-.52-3.25-.31-.43.05-1.06-.05-1.33-.34-.96-1.04-2.14-1-3.36-.89-.45.04-1.24.17-1.29.04-.41-1.07-1.35-.57-2.02-.76-.93-.26-1.89-.38-2.84-.56-.45-.08-.89-.14-1.34-.22-.09-.02-.27-.08-.27-.08-.35,1.04-.86.07-1.29.1-.93.05-1.86.09-2.79.11-.34,0-.67-.06-1.01-.12-.58-.1-1.15-.22-1.72-.31-.79-.12-1.59-.21-2.38-.32-.34-.05-.69-.08-1.02-.19-2.24-.76-4.49-1.49-6.7-2.32-1.59-.6-3.07-1.61-4.7-1.95-1.55-.32-2.22-1.67-3.5-2.21-.24-.1-.26-.67-.48-.94-.69-.86-1.45-1.67-2.15-2.52-1.35-1.66-2.57-3.37-3.19-5.48-.35-1.17-1.03-2.25-1.57-3.36-.6-1.22-1.45-2.02-2.94-2.07-.62-.02-.87-.62-.56-1.24.67-1.36,1.32-2.72,2.06-4.05.56-1.01.14-1.94-.36-2.65-1.33-1.91-2.82-3.71-4.27-5.54-.28-.35-2.02-.09-2.54.31-1.61,1.25-3.22,1.1-4.57-.41-.26-.29-.62-.51-.81-.83-.19-.33-.24-.74-.35-1.12.3-.05.6-.1.9-.13.15-.02.31,0,.41,0-.1-.48-.18-.89-.29-1.46.97.04,2.04.33,2.93.04.66-.22,1.09-1.18,1.62-1.8-.14-.07-.26-.17-.41-.19-.56-.1-1.13-.17-1.77-.26.2-.14.37-.25.55-.38-.07-.06-.13-.14-.15-.13-1.23.48-1.94-.59-2.84-1.01-.88-.41-1.63-1.08-2.45-1.63-.14-.09-.29-.24-.44-.25-1.96-.14-1.74-1.85-2.23-3.05.96.82,1.84,1.74,2.88,2.44,1.3.88,2.55,1.95,4.27,1.94.12,0,.26.09.37.16,1.36.85,2.25.77,3.59-.11,2.66-1.76,3.8-4.39,4.37-7.36.8-4.15,1.54-8.31,2.34-12.45.23-1.17.11-2.47,1.05-3.43.43-.44.84-.91,1.31-1.32.37-.32.92-.43.77-1.15-.03-.14.58-.55.94-.61.95-.17,1.34-.9,1.78-1.58.05-.07-.33-.59-.47-.57-.51.07-1.01.27-1.51.43-.12.04-.23.09-.35.13-.02-.14-.09-.32-.04-.42.83-1.61,1.81-3.03,3.26-4.25,1.36-1.13,2.84-1.59,4.41-2.12.78-.26,1.42-.96,2.13-1.44.48-.32,1-.57,1.48-.88.6-.39.57-.84-.08-1.15-.75-.37-1.23-.82-1.16-1.79.04-.54-.32-1.12-.59-1.94-.17,1.01-.58.92-1.24.85-1.02-.11-2.08.08-3.11.22-.84.11-1.66.34-2.49.51-.42.08-.69.02-.46-.52.09-.21.12-.47.1-.69-.14-1.87.37-2.62,2.15-3.21,1.72-.58,3.34-.36,4.91.51.25.14.78.26.86.16.23-.32.48-.79.42-1.15-.18-1.05-1.07-1.39-1.98-1.65-.3-.08-.57-.26-.85-.39.28-.17.54-.38.84-.51,2.91-1.32,5.8-1.15,8.66.17.03.01.06.03.09.04,2.43.95,2.46.9,4.25-1,.97-1.03,2.11-1.9,3.15-2.87.26-.24.45-.58.66-.87,1.61-2.22,3.19-4.47,4.83-6.67.74-.99,1.77-1.16,2.92-.71,3.22,1.27,5.42,3.67,7.14,6.55.41.69.75,1.01,1.59.72.82-.29,1.49.11,1.82.89.48,1.15,1.35,1.29,2.5,1.4,3.75.38,7.48.92,11.2,1.48,1.81.27,3.58.75,5.38,1.08.63.12,1.28.12,1.92.13,3.42.03,6.58,1.28,9.82,2.12,1.08.28,2.16.61,3.26.78.37.06,1.04-.17,1.16-.46.16-.35.07-1.07-.2-1.32-.64-.59-.41-1.1-.16-1.71,1.05-2.57,2.01-5.18,3.16-7.7.86-1.89,2.3-3.15,4.29-4.08,1.36-.64,1.91-.18,2.63.55.53.54.88.89,1.19-.16.1-.32.45-.57.68-.86.36-.46.82-.5,1.02.03.13.34-.09,1.17-.2,1.18-1.07.09-1.05,1.09-.97,1.56.11.63.75,1.16,1.17,1.73.13.17.44.29.46.46.1.74.05,1.5.18,2.24.49,2.72-.12,5.21-1.3,7.66-.49,1.02-.74,2.17-.99,3.29-.05.23.33.75.61.83.9.28,1.85.44,2.78.61,4.53.85,9.06,1.7,13.59,2.54.46.09.96.19,1.41.12.23-.04.54-.45.57-.72.14-1.67-.01-3.39.36-4.99.62-2.66,1.23-5.38,3.09-7.55.35-.41.87-.68,1.33-.98.16-.1.49-.04.56-.16.69-1.14,1.43-.66,2.2-.12.18.12.41.16.62.24.02-.22.03-.45.06-.67.05-.33.05-.69.18-.99.2-.45.5-1.13,1.07-.62.35.31.35,1.04.45,1.58,0,.02-.48.14-.86.25,0,.25-.03.72.03,1.18.03.23.19.6.35.63.85.17.93.75.95,1.44,0,.32.06.75.27.95.95.94.85,2.1.75,3.23-.26,2.83-.56,5.66-.88,8.49-.09.83.12,1.19,1.03,1.31,4.07.54,8.13,1.21,12.2,1.75,2.72.36,5.47.55,8.2.89.82.1,1.63.43,2.4.74.63.25,1.21.62,1.8.95,1.79,1.01,3.68.6,5.56.4.64-.07,1.29-.33,1.91-.25.73.09,1.48.36,2.12.73.66.38,1.18,1.02,1.82,1.45.26.18.7.22,1.03.15,2.68-.56,5.29-1.49,8.1-1.32.47.03.99-.21,1.44-.42,1.5-.71,2.98-1.48,4.48-2.19,1.23-.58,1.4-.53,1.87.72,1.08,2.85,2.32,5.66,3.12,8.6.62,2.26.68,4.68.97,7.03.13,1.04.23,2.08.32,3.13.12,1.38.18,2.76.35,4.13.08.6.21,1.33.59,1.73,1.4,1.46,2.87,2.86,4.4,4.18,1.22,1.05,2.43,2.06,2.99,3.64.09.26.42.57.68.62.87.18,1.15.74,1.21,1.52.06.72.24,1.07,1.18,1.19,2.33.29,4.1,1.59,5.02,3.8.98,2.36-.3,4.3-3.07,4.77-1.21.21-2.03,1.24-1.77,2.32.08.33.39.68.68.86.86.53,1.6,1.11,1.9,2.15.1.34.43.7.75.88,1.39.77,2.39,1.86,3.01,3.33.15.35.46.68.77.9,1.32.9,2.68,1.72,3.99,2.64.82.57,1.59,1.21,2.33,1.89.51.47.94.65,1.6.26,3.73-2.21,6.91-.94,9.41,1.93,2.49,2.86,4.91,5.78,7.33,8.71,1.39,1.68,3.29,2.17,4.99.87,4.47-3.42,10.44-2.19,14.17.44,2.55,1.79,4.39,4.08,5.25,7.14,1.05,3.72-.47,6.83-3.08,9.1-1.23,1.06-2.5,2.09-3.62,3.26-1.78,1.87-3.78,3.45-5.91,4.9-1.3.89-2.46,2-3.71,2.96-.69.53-1.41,1.02-2.17,1.43-.88.48-1.83.81-2.72,1.26-1.97,1.01-4.16.85-6.24,1.08-1.43.16-2.89-.14-4.1-1.43-1.39-1.49-3.23-2.55-4.71-3.98-1.21-1.16-2.24-2.53-2.33-4.36-.04-.76-.27-1.52-.33-2.28-.26-3.14,1.17-5.54,3.57-7.35,1.58-1.19,1.18-2.47.13-3.61-2.15-2.33-4.21-4.75-6.89-6.53-1.42-.95-2.46-2.33-3.2-3.81-1.05-2.1-.91-4.28.23-6.37.52-.95.46-1.79-.5-2.1-1.06-.35-1.51-1.26-2.29-1.83-1.33-.98-2.57-2.09-3.98-2.92-.84-.49-1.92-.62-2.92-.78-.28-.04-.83.36-.91.65-.17.56-.18,1.21-.09,1.8.15,1.06,0,2-.61,2.9-.43.63-.77,1.32-1.17,1.96-.12.19-.32.33-.52.45-.32.19-.68.31-.99.51-1.2.78-1.48,1.7-1.12,3.08.52,1.99,1.11,3.99,1.38,6.02.18,1.37-.18,2.79-1.49,3.72-1,.71-.96,2.6-.33,3.85,1.08,2.12,2.08,4.3,2.81,6.56.58,1.78-.2,2.76-2.07,3.38-.76.25-.53-.5-.79-.76-.22-.22-.47-.41-.71-.62-.12.3-.34.59-.33.89.06,1.61.16,3.22.27,4.83.03.47.05.99.27,1.38.16.28.73.62.95.53.57-.24.68-.04.69.43.01.78.4,1.68-.45,2.22-.39.25-.99.39-1.41.27-.28-.07-.56-.66-.61-1.04-.12-1-.09-2.02-.17-3.03-.09-1.21-.17-2.44-.41-3.62-.06-.28-.8-.64-1.17-.59-2.44.37-4.85.86-7.28,1.29-1.48.26-2.97.48-4.46.71-.49.08-.94.18-.67.59ZM255.66,205.51c.98-.04,2.12.12,3.13-.16,3.37-.95,5.83-3.36,8.45-5.49,1.02-.82,1.48-2.23,2.92-2.62.52-.14,1.26-.58,1.36-1,.19-.83.76-.67,1.25-.83.24-.08.53-.14.7-.3,1.39-1.34,2.72-2.75,4.16-4.03,1.4-1.25,1.31-2.7.87-4.27-.23-.81-.74-1.43-1.27-2.1-2.36-3-5.5-4-9.13-3.97-.19,0-.4.06-.58.14-1.5.73-2.95,1.62-4.52,2.15-.96.32-2.19.32-3.16.03-1.18-.36-2.24-1.16-3.33-1.8-.52-.3-1.08-.59-1.47-1.03-.99-1.09-1.9-2.25-2.82-3.4-1.15-1.43-2.19-2.96-3.46-4.27-.84-.87-1.86-1.72-3.26-1.63-.72.05-1.03.56-.8,1.1.49,1.11.76,2.38,2.1,2.96.92.41,1.23,2.22.66,3.09-.38.59-1.44.65-2.28,0-.31-.25-.42-.77-.59-1.19-.46-1.1-.84-2.24-1.37-3.3-.26-.51-1.81-.57-2.2-.14-.63.68-.22,1.21.31,1.74,2.18,2.19,4.35,4.37,6.5,6.58.99,1.02,2,2.03,2.86,3.15,1.58,2.07,2.17,6.28-.25,8.52-.79.73-1.4,1.64-2.07,2.5-.62.81-.98,1.71-.72,2.75,1.04,4.11,4.2,5.73,7.99,6.82ZM130.28,154.25c.01-.06.02-.11.04-.17-.5-.17-1.02-.3-1.5-.51-.29-.13-.52-.4-.78-.6.35-.03.69-.08,1.04-.09.13,0,.25.09.38.14.98.37,1.84.42,2.4-.7.13-.26.38-.48.64-.63.33-.2.71-.3,1.07-.44-.15.3-.33.59-.43.9-.07.23-.04.48-.06.73.23-.07.62-.1.66-.22.3-1.15,1.88-2.06.67-3.51-.1-.13,0-.46.06-.68.13-.46.32-.89.45-1.35.06-.22.08-.65.01-.67-.35-.12-.74-.16-1.11-.18-.14,0-.31.21-.43.18-.92-.25-1.83-.54-2.74-.81-.04.11-.08.23-.12.34.15.13.29.25.62.54-.95-.14-1.94.01-2.32-.4-.65-.7-1.39-.92-2.19-1.12-1.32-.32-2.67-.51-3.98-.84-2.55-.65-5.08-1.38-7.63-2.06-.21-.06-.55-.11-.64,0-.6.72-1.13,0-1.25-.25-.79-1.65-2.04-2.28-3.82-2.04-.5.07-.81.09-.8.74,0,.68-.3,1.15-1.15,1.01-.24-.04-.65.14-.79.35-.85,1.24-1.48,2.59-1.67,4.12.53-.5.94-1.07,1.4-1.6.16-.18.42-.27.64-.4.14.25.41.51.38.74-.04.43-.26.83-.38,1.19.68.23,1.36.45,2.04.67-.03.1-.06.19-.09.29-1.12.08-2.18-1.04-3.39-.23.38.26.87.42.99.72.27.72.88.8,1.43,1.11,1.13.64,2.42-.08,3.58.63.66.41,1.65.29,2.49.41,0,.04,0,.08.01.12-.53.08-1.07.15-1.6.23,2.7-.17,4.93,1.14,7.26,2.18.67.3,1.45.32,2.18.47.01-.07.03-.14.04-.21-.91-.23-1.82-.47-2.87-.74.25-.17.32-.25.36-.23,1.06.29,2.16.47,3.15.91,1.3.57,2.89.34,3.99,1.44.01.01.07,0,.09-.03.67-.56,1.24-.1,1.86.13.58.21,1.21.29,1.82.42ZM257.09,206.9c.03-.11.07-.22.1-.32-.34-.09-.69-.18-1.03-.25-4.23-.84-7.37-3.15-9.37-6.97-1.03-1.97-1.19-4.03.05-5.91.7-1.07,1.76-1.95,2.78-2.76,1.81-1.42,2.24-2.6,1.14-4.61-.6-1.1-1.47-2.09-2.36-3.01-2.21-2.29-4.56-4.45-6.74-6.78-1.02-1.09-1.97-2.36-2.55-3.72-.54-1.27.13-2.55,1.15-3.55-1.42.8-2.24,2.94-1.91,4.46.46,2.1,2,3.41,3.39,4.84,2.45,2.54,4.96,5.02,7.36,7.61,1.36,1.46,1.85,3.83-.63,4.98-.15.07-.27.2-.41.29-2.36,1.59-2.97,5.17-2.5,7.01.55,2.16,1.37,4.15,3.22,5.73,2.47,2.11,5.26,2.84,8.33,2.98ZM261.68,180.72c-1.2-.81-2.42-1.51-3.5-2.39-.75-.61-1.3-1.47-1.94-2.21-2.18-2.54-4.33-5.11-6.55-7.62-.47-.53-1.18-.84-1.78-1.26-.07.08-.14.16-.2.25.13.27.23.56.4.79.85,1.18,1.7,2.36,2.58,3.51,2.06,2.67,4.1,5.37,6.85,7.41,1.25.93,2.67,1.34,4.14,1.52ZM269.85,177.35c2.59.52,4.84,1.73,6.81,3.43,1.24,1.07,2.31,2.35,3.47,3.52.22.23.52.38.78.57-.03-.31.05-.69-.1-.9-.89-1.25-1.71-2.61-2.8-3.67-2.23-2.18-5.08-2.95-8.17-2.95ZM40.47,112.3c.6-.1,1.38-.17,2.13-.39.27-.08.45-.49.67-.74-.31-.07-.62-.18-.93-.22-.42-.05-.85-.03-1.27-.05.29-.28.58-.56.86-.85.08-.08.13-.18.2-.28-.69-.29-1.49,1.33-1.95-.41-.13.85-.77,1.64.42,2,.04.01-.07.51-.13.93ZM228.04,145.58c.12,1.39.19,2.38.29,3.36.03.32.16.63.25.94.35-.23.83-.38,1-.7.18-.34.21-.92.04-1.25-.4-.77-.96-1.46-1.58-2.36ZM238.58,166.49c.04-.06.09-.12.13-.18-2.59-1.83-5.17-3.67-7.51-5.32.59,1.04,1.45,2.19,2.98,2.86,1.55.68,2.94,1.74,4.4,2.64ZM226.2,149.46c.09,0,.17.02.26.03-.1-.91-.08-1.85-.36-2.7-.13-.4-.83-.61-1.27-.9.06.51.02,1.06.21,1.52.3.72.76,1.38,1.16,2.06ZM124.41,79.7c-.1.09-.19.18-.29.26,1.13,1.33,2.26,2.66,3.39,3.99.08-.06.17-.12.25-.18-.82-.75-.28-2.26-1.79-2.71-.6-.18-1.04-.9-1.55-1.37ZM152.43,86.92s-.23.07-.24.14c-.02.15,0,.37.1.46.62.57,1.26,1.12,1.92,1.64.04.03.43-.22.46-.38.05-.25.02-.67-.13-.77-.65-.41-1.35-.72-2.12-1.1ZM27.37,141.45l-.24,1.69c1.07-.21,2.35-1.87,2.17-2.86-.02-.11-.13-.29-.21-.29-.14,0-.38.06-.41.15-.11.28-.12.59-.2.88-.08.32-.18.63-.27.95-.28-.17-.56-.34-.84-.52ZM222.5,142.96c-1.32.42-2.02,1.45-2.72,2.67,1.55-.38,2.03-1.63,2.72-2.67ZM214.87,145.27s-.11.1-.09.17c.21,1.03.43,2.05.65,3.08.16-.07.47-.16.46-.2-.09-.68-.18-1.36-.36-2.02-.1-.34-.39-.63-.65-1.03ZM51.06,102.73c-.08-.03-.16-.05-.24-.08-.22.53-.32,1.19-.69,1.56-.32.32-.96.31-1.44.44.4.46.82.92,1.56.42.14-.1.49.12.74.17.25.05.51.08.77.11-1.65-.54-1.66-.58-.78-2.12.08-.14.06-.33.08-.5ZM26.91,145.31c-1.38-.3-2.81.74-4.14-.28.57,1.04,1.9,1.12,4.14.28ZM52.14,107.55l.11-.41c-.78.04-1.1-1.55-2.29-.47.8.32,1.49.6,2.18.89ZM267.03,178.4l-.18-.27c-.94.64-1.87,1.29-2.81,1.93.07.1.14.2.2.3.93-.65,1.85-1.31,2.78-1.96ZM32.83,130.85l-.34-.03-.35,2.45c.11.02.22.03.33.05l.36-2.47ZM226.54,158.51c-.02.05-.05.1-.07.16,1.21.6,2.43,1.21,3.64,1.81l.1-.2c-1.22-.59-2.44-1.18-3.67-1.76Z"/>
        <path class="cls-2" d="M15.91,130.63c-.8-2.28-1.07-4.61-.83-6.97.36-3.58,1.28-6.97,3.23-10.07.78-1.25,1.26-2.68,1.89-4.03.14-.3.29-.71.54-.82,1.29-.56,1.72-1.81,2.26-2.9,1.26-2.52,3.51-3.92,5.8-5.23,1.13-.65,2.47-.95,3.85-1.47-2.32-.93-4.09-.11-5.55,1.3-1.79,1.74-3.56,3.55-5.03,5.56-2.09,2.87-3.93,5.93-5.83,8.93-1.58,2.51-2.06,5.39-2.38,8.24-.27,2.36-.1,4.77-.02,7.21-.17-.67-.43-1.33-.5-2-.32-3.42.18-6.76,1.1-10.05.92-3.3,2.56-6.22,4.49-9.04,1.3-1.89,2.24-4.03,3.44-5.99.52-.85,1.22-1.66,2-2.27,1.29-1.01,2.61-2.18,4.12-2.67,2.58-.84,5.27-.85,7.71.75.17.11.37.18.56.24.16.05.33.05.62.09-.69.78-.37,1.13.63,1.2-.24.21-.36.29-.46.4-.2.23-.39.47-.59.7.33.21.64.55,1,.6.56.09,1.15-.04,1.72-.04,1.49-.01,2.98,0,4.47,0,.1,0,.24.06.3.02.42-.3.83-.62,1.25-.93-.35-.21-.69-.59-1.05-.6-1.39-.05-2.77.03-4.16.04-.41,0-.82-.02-1.23-.04,0-.14-.01-.28-.02-.42,1.83-.21,3.65-.41,5.48-.65.68-.09,1.35-.3,2.08-.46.23.7.32,1.64-.36,2.52-.11.14-.14.42-.08.59.46,1.26-.53,1.48-1.32,1.77-.21.08-.58-.18-.84-.34-.57-.37-.99-.47-1.57.14-.68.71-1.37,1.59-2.63,1.37-.25-.04-.63.31-.86.56-1.06,1.17-2.05,2.39-3.14,3.52-.22.23-.8.17-1.2.14-.06,0-.19-.6-.1-.86.25-.72.1-1.48,1.15-2.02.76-.39.94-1.93,1.35-2.97.04-.11-.06-.37-.17-.42-1.29-.6-.94-1.8-.87-2.74.06-.79-.23-.97-.82-1.06-1.29-.2-2.48.09-3.65.65-3.87,1.86-6.91,4.62-9.21,8.23-1.01,1.59-2.09,3.13-2.99,4.82,1.16-.52,2.34-1,3.47-1.57,2.86-1.45,5.84-1.19,8.84-.68.27.05.53.08.8.13.89.17,1.01.86.78,1.71-.45,1.67-1.72,1.98-3.08,2.18-.66.1-1.35,0-2.02-.01-.4,0-1.13-.09-1.15,0-.33,1.35-2.18,1.3-2.46,2.68-.02.09-.36.1-.52.19-.42.25-1.08.43-1.2.8-.27.8-.57.76-1.25.49-.54-.21-1.37-.62-1.6.51-.01.05-.1.09-.15.13-.58.41-1.44.7-1.71,1.26-1.24,2.65-2.64,5.29-2.34,8.38.04.41,0,.83,0,1.25Z"/>
        <path class="cls-2" d="M12.1,122.05c-.07,1.06-.1,2.11-.2,3.17-.25,2.53.36,4.94,1.22,7.25,1.09,2.91,2.4,5.74,3.58,8.61.09.23-.05.55-.08.83-.22-.18-.5-.31-.65-.53-1.23-1.78-1.21-4.07-2.25-5.89-1.36-2.36-1.66-4.95-2.04-7.51-.26-1.72-.07-3.5-.05-5.25,0-.23.18-.47.28-.7.06.01.13.02.19.04Z"/>
        <path class="cls-2" d="M20.05,147.64c-.51-.07-1.17.03-1.49-.26-.58-.52-.98-1.25-1.39-1.93-.09-.15.09-.46.15-.69.2.08.44.12.58.26.73.77,1.44,1.56,2.16,2.34,0,.09,0,.19-.01.28Z"/>
        <path class="cls-2" d="M15.9,147.63c-.51.56-.94,1.06-1.41,1.52-.05.05-.44-.11-.47-.22-.08-.3-.1-.64-.03-.94.07-.27.29-.5.47-.72.16-.21.36-.39.55-.58.29.31.57.62.89.96Z"/>
        <path class="cls-2" d="M31.99,116.62c.67,1.85.06,3.36-.35,4.88-.12-.01-.23-.03-.35-.04l.69-4.83Z"/>
        <path class="cls-2" d="M34.49,112.53c.89-.95,1.76-1.87,2.63-2.8-.4,2.08-1.22,2.88-2.63,2.8Z"/>
        <path class="cls-2" d="M20.48,147.83c.33.11.51.12.64.21.36.27.7.56,1.04.85-.4.44-.79.89-1.22,1.31-.06.06-.34-.03-.44-.13-.1-.09-.16-.4-.13-.42.82-.47.25-1.09.11-1.82Z"/>
        <path class="cls-2" d="M20.18,144.52c-1.34-.19-1.99-1.26-2.86-1.98-.06-.05.04-.28.07-.42.18.06.4.08.53.2.75.7,1.47,1.42,2.27,2.2Z"/>
        <path class="cls-2" d="M28.93,132.3c-.47.93-.95,1.86-1.48,2.92-.41-1.42.58-2.15,1.19-3.03.1.04.2.07.3.11Z"/>
        <path class="cls-2" d="M123.85,145.21c-1.44.53-2.32-.5-3.4-.74.03-.1.06-.21.09-.31,1.05.33,2.09.67,3.32,1.06Z"/>
      </g>
      <rect class="cls-1" width="288" height="288"/>
    </g>
  </g>
</svg>