<?xml version="1.0" encoding="UTF-8"?>
<svg id="Layer_2" data-name="Layer 2" xmlns="http://www.w3.org/2000/svg" viewBox="0 0 466.98 196.7">
  <defs>
    <style>
      .cls-1 {
        fill: #eee;
        stroke-width: 0px;
      }
    </style>
  </defs>
  <g id="Layer_1-2" data-name="Layer 1">
    <g>
      <path class="cls-1" d="M342.71,184.73c-2.23.77-4.58,1.65-6.96,2.4-2.63.82-5.3,1.48-7.93,2.28-.69.21-1.27.77-1.95,1.01-1.51.53-3.02,1.09-4.58,1.39-2.57.5-5.21.71-7.78,1.23-1.78.36-3.5.81-5.24,1.61-2.19,1.01-4.98.73-7.51.99-3.2.33-6.4.64-9.59.96-.28.03-.61.18-.83.08-2.86-1.23-5.91-.16-8.82-.76-1.93-.4-4.17.48-5.73-1.55-.22-.29-1.2.12-1.78-.02-1.19-.28-2.33-.93-3.53-1.02-2.05-.17-4.14.16-6.17-.07-1.83-.21-3.63.29-5.32.16-5.58-.42-11.1-1.64-16.67-1.99-4.68-.29-9.41.29-14.11.36-2.9.04-5.8-.18-8.7-.2-1.72-.02-3.45.18-5.17.16-.88,0-1.75-.36-2.63-.39-3.34-.15-6.68-.12-10.01-.37-3.09-.23-6.16-.98-9.24-1.04-3.58-.07-7.12-1.33-10.75-.23-1.75.53-3.59.91-5.41.97-1.44.05-2.89-.52-4.35-.73-1.68-.24-3.36-.47-5.05-.56-2.2-.12-4.4-.1-6.6-.18-.54-.02-1.09-.18-1.62-.3-.22-.05-.46-.28-.63-.22-3.31,1.07-6.63-1.07-9.94.02-.29.1-.74.05-1-.12-2.24-1.42-4.63-.32-6.94-.43-2.3-.11-4.61.02-6.91.04-.11,0-.23,0-.34-.03-2.72-.56-2.7-.5-5.48.26-.71.19-1.78.17-2.29-.24-1.85-1.51-3.79-1.15-5.8-.67-.74.17-2.03.59-2.14.38-.94-1.68-2.38-.62-3.54-.77-1.6-.2-3.23-.18-4.85-.25-.76-.03-1.52-.03-2.28-.05-.16,0-.46-.07-.46-.07-.34,1.82-1.41.33-2.11.47-1.53.31-3.07.6-4.61.84-.56.09-1.13.06-1.7.04-.98-.02-1.96-.1-2.94-.11-1.34-.01-2.69.03-4.03.03-.58,0-1.17.04-1.74-.07-3.9-.73-7.81-1.4-11.69-2.26-2.78-.62-5.48-1.95-8.27-2.11-2.64-.16-4.08-2.24-6.34-2.83-.43-.11-.59-1.05-1.02-1.45-1.35-1.26-2.8-2.43-4.17-3.68-2.64-2.43-5.07-4.99-6.61-8.35-.86-1.87-2.25-3.49-3.42-5.21-1.29-1.89-2.9-3.01-5.39-2.73-1.03.11-1.59-.82-1.23-1.92.79-2.42,1.55-4.84,2.45-7.21.69-1.81-.23-3.25-1.23-4.33-2.66-2.86-5.57-5.5-8.42-8.18-.55-.52-3.39.33-4.14,1.11-2.38,2.46-5.09,2.6-7.69.41-.5-.42-1.15-.7-1.54-1.19-.4-.5-.57-1.18-.84-1.78.49-.15.97-.31,1.46-.44.25-.07.52-.08.67-.1-.28-.78-.51-1.44-.83-2.35,1.62-.16,3.48.06,4.88-.63,1.05-.52,1.53-2.21,2.26-3.38-.24-.08-.48-.22-.72-.23-.96-.03-1.91-.01-3-.01.31-.28.56-.51.83-.76-.12-.08-.24-.2-.28-.18-1.93,1.09-3.37-.51-4.96-1-1.55-.48-2.97-1.4-4.45-2.12-.25-.12-.53-.32-.79-.31-3.28.24-3.33-2.66-4.43-4.53,1.78,1.14,3.48,2.45,5.37,3.37,2.37,1.15,4.7,2.63,7.56,2.21.2-.03.45.08.65.17,2.46,1.09,3.92.75,5.93-1.05,4-3.56,5.26-8.21,5.5-13.28.33-7.08.57-14.17.93-21.25.1-2-.4-4.13.92-5.95.61-.84,1.18-1.72,1.86-2.5.53-.62,1.43-.93,1.01-2.1-.08-.23.84-1.05,1.41-1.24,1.54-.5,2.02-1.81,2.58-3.06.06-.13-.69-.9-.92-.83-.84.23-1.62.69-2.41,1.07-.19.09-.36.2-.54.31-.06-.23-.23-.5-.16-.69.99-2.88,2.28-5.47,4.41-7.84,1.99-2.2,4.34-3.32,6.82-4.57,1.24-.62,2.12-1.94,3.2-2.9.72-.64,1.52-1.19,2.25-1.82.91-.78.75-1.53-.4-1.9-1.33-.43-2.24-1.07-2.35-2.7-.06-.91-.8-1.78-1.44-3.09-.04,1.72-.75,1.67-1.86,1.71-1.72.06-3.44.63-5.12,1.11-1.37.39-2.68.97-4.02,1.44-.69.24-1.14.19-.88-.76.1-.37.09-.8,0-1.18-.68-3.07,0-4.44,2.81-5.85,2.73-1.37,5.46-1.39,8.28-.32.46.17,1.36.25,1.46.06.31-.59.61-1.42.43-2-.55-1.71-2.1-2.06-3.69-2.27-.51-.07-1.01-.29-1.51-.45.42-.35.81-.76,1.27-1.05,4.53-2.88,9.37-3.29,14.44-1.78.05.02.11.03.16.04,4.26,1,4.3.9,6.83-2.67,1.37-1.94,3.05-3.66,4.55-5.51.38-.47.61-1.06.89-1.61,2.14-4.08,4.23-8.19,6.43-12.23.99-1.82,2.66-2.36,4.68-1.88,5.66,1.34,9.88,4.8,13.42,9.19.84,1.05,1.49,1.5,2.81.82,1.3-.67,2.5-.18,3.24,1.05,1.08,1.8,2.55,1.82,4.49,1.74,6.32-.26,12.65-.26,18.97-.22,3.07.02,6.14.38,9.21.51,1.07.04,2.16-.1,3.23-.24,5.69-.77,11.24.56,16.83,1.19,1.87.21,3.74.49,5.61.52.64,0,1.68-.54,1.83-1.04.18-.63-.13-1.8-.64-2.15-1.2-.83-.94-1.74-.67-2.81,1.14-4.52,2.11-9.08,3.42-13.55.98-3.35,3.07-5.78,6.15-7.81,2.11-1.39,3.13-.75,4.51.29,1.01.77,1.68,1.26,1.94-.55.08-.56.62-1.05.93-1.58.49-.85,1.25-1.02,1.71-.2.29.53.13,1.96-.06,2.01-1.76.41-1.48,2.05-1.24,2.82.33,1.01,1.52,1.76,2.36,2.59.26.26.8.37.87.65.34,1.21.43,2.49.83,3.67,1.46,4.4,1.04,8.7-.34,13.04-.58,1.82-.72,3.79-.87,5.71-.03.4.73,1.16,1.21,1.24,1.57.25,3.17.29,4.76.36,7.73.34,15.46.66,23.2.97.79.03,1.64.1,2.37-.14.37-.12.8-.88.77-1.33-.16-2.8-.83-5.63-.59-8.39.39-4.57.76-9.24,3.33-13.28.49-.76,1.28-1.34,1.98-1.95.24-.21.8-.18.9-.4.87-2.06,2.22-1.43,3.63-.73.32.16.72.18,1.08.26-.02-.38-.06-.75-.06-1.13,0-.56-.09-1.16.06-1.68.22-.79.56-2,1.63-1.29.66.43.82,1.64,1.13,2.52.01.04-.77.35-1.37.61.07.42.13,1.21.34,1.95.1.37.47.94.73.96,1.45.07,1.73,1.02,1.93,2.17.09.54.28,1.23.67,1.51,1.81,1.33,1.91,3.28,2.01,5.2.24,4.77.42,9.54.56,14.32.04,1.4.48,1.95,2.03,1.93,6.9-.08,13.8.07,20.7,0,4.61-.05,9.22-.39,13.83-.47,1.39-.02,2.8.33,4.17.66,1.1.27,2.15.74,3.21,1.15,3.22,1.26,6.27.12,9.33-.67,1.05-.27,2.07-.85,3.11-.87,1.23-.02,2.54.25,3.69.71,1.19.48,2.2,1.41,3.37,1.98.48.23,1.22.2,1.74.01,4.32-1.56,8.44-3.73,13.15-4.13.79-.07,1.59-.58,2.29-1.04,2.33-1.54,4.6-3.17,6.93-4.71,1.9-1.26,2.2-1.21,3.28.75,2.47,4.48,5.2,8.86,7.23,13.54,1.57,3.61,2.24,7.61,3.29,11.44.46,1.7.88,3.41,1.28,5.12.53,2.26.95,4.55,1.57,6.79.27.98.66,2.16,1.4,2.74,2.67,2.09,5.45,4.07,8.3,5.9,2.28,1.46,4.53,2.84,5.84,5.34.22.42.83.85,1.29.87,1.49.08,2.09.96,2.38,2.24.27,1.19.66,1.73,2.24,1.7,3.94-.07,7.2,1.66,9.25,5.11,2.2,3.69.52,7.21-3.97,8.67-1.96.63-3.09,2.55-2.38,4.28.21.53.8,1.03,1.34,1.27,1.55.68,2.92,1.47,3.67,3.12.25.54.88,1.06,1.46,1.28,2.49.95,4.42,2.51,5.79,4.81.33.55.92,1.03,1.5,1.31,2.4,1.18,4.87,2.23,7.26,3.43,1.5.75,2.94,1.64,4.32,2.59.96.66,1.71.86,2.73.05,5.68-4.56,11.25-3.21,16.11.97,4.83,4.16,9.55,8.44,14.26,12.73,2.71,2.47,5.99,2.82,8.5.26,6.61-6.75,16.82-6.13,23.66-2.65,4.66,2.37,8.27,5.73,10.43,10.61,2.63,5.94.86,11.46-2.96,15.87-1.78,2.06-3.66,4.07-5.24,6.28-2.52,3.53-5.46,6.63-8.65,9.54-1.96,1.79-3.61,3.9-5.46,5.81-1.02,1.04-2.1,2.04-3.27,2.9-1.35,1-2.86,1.78-4.22,2.75-3.03,2.15-6.71,2.41-10.12,3.29-2.34.6-4.84.46-7.15-1.41-2.67-2.15-5.98-3.47-8.78-5.48-2.29-1.64-4.33-3.67-4.91-6.7-.24-1.26-.8-2.45-1.09-3.71-1.19-5.16.62-9.49,4.18-13.06,2.34-2.35,1.37-4.39-.65-6.03-4.13-3.36-8.14-6.89-13.02-9.21-2.59-1.23-4.64-3.28-6.23-5.58-2.25-3.24-2.54-6.9-1.14-10.64.64-1.7.33-3.08-1.33-3.38-1.84-.33-2.8-1.73-4.24-2.5-2.44-1.31-4.77-2.86-7.32-3.9-1.51-.62-3.34-.58-5.03-.59-.47,0-1.29.79-1.36,1.3-.14.97,0,2.05.27,3.01.51,1.73.47,3.33-.33,4.96-.56,1.15-.96,2.38-1.48,3.54-.15.34-.46.63-.75.87-.49.39-1.06.68-1.53,1.09-1.81,1.58-2.05,3.18-1.13,5.38,1.35,3.19,2.8,6.37,3.73,9.68.63,2.24.37,4.68-1.58,6.54-1.49,1.41-.98,4.55.37,6.47,2.3,3.26,4.48,6.66,6.23,10.23,1.38,2.82.33,4.64-2.63,6.11-1.2.6-1-.71-1.49-1.08-.42-.32-.88-.58-1.32-.86-.12.52-.42,1.07-.33,1.55.48,2.66,1.03,5.32,1.6,7.96.17.77.32,1.64.77,2.23.33.43,1.37.85,1.7.65.89-.54,1.12-.23,1.24.55.2,1.29,1.06,2.69-.21,3.8-.58.5-1.55.88-2.28.79-.49-.05-1.09-.96-1.26-1.59-.44-1.63-.64-3.33-1.01-4.99-.45-1.99-.86-4.01-1.55-5.92-.16-.45-1.48-.88-2.08-.7-3.96,1.2-7.86,2.59-11.79,3.88-2.4.79-4.82,1.5-7.24,2.25-.8.25-1.53.53-.97,1.14ZM425.34,180.07c1.62-.3,3.55-.3,5.16-1.02,5.37-2.38,8.88-6.97,12.74-11.14,1.49-1.61,1.92-4.06,4.24-5.06.84-.36,1.95-1.26,2.01-1.99.12-1.43,1.11-1.3,1.89-1.67.39-.18.85-.36,1.1-.67,2-2.55,3.86-5.21,5.95-7.69,2.03-2.4,1.54-4.81.42-7.3-.58-1.29-1.57-2.2-2.61-3.19-4.64-4.42-10.09-5.34-16.12-4.42-.32.05-.66.19-.93.37-2.33,1.57-4.52,3.4-7,4.65-1.52.76-3.56,1.05-5.25.8-2.05-.31-3.99-1.4-5.96-2.2-.93-.38-1.93-.73-2.69-1.36-1.9-1.58-3.69-3.29-5.51-4.98-2.25-2.1-4.35-4.39-6.77-6.27-1.6-1.25-3.5-2.41-5.8-1.93-1.18.25-1.59,1.18-1.06,2.02,1.08,1.73,1.84,3.77,4.2,4.43,1.63.45,2.57,3.4,1.84,4.98-.5,1.07-2.24,1.42-3.79.53-.58-.33-.88-1.19-1.26-1.83-1.02-1.72-1.92-3.52-3.07-5.16-.55-.78-3.14-.51-3.69.29-.88,1.28-.07,2.07.92,2.82,4.14,3.11,8.28,6.23,12.38,9.39,1.89,1.46,3.81,2.9,5.51,4.56,3.13,3.06,5.1,9.92,1.61,14.22-1.13,1.4-1.94,3.07-2.84,4.65-.84,1.49-1.22,3.07-.53,4.74,2.7,6.58,8.35,8.52,14.91,9.44ZM204.73,124.78c0-.1.01-.19.02-.29-.88-.16-1.77-.25-2.62-.5-.52-.15-.96-.54-1.44-.82.57-.13,1.13-.29,1.71-.39.21-.03.44.09.66.14,1.71.39,3.17.26,3.82-1.74.15-.46.52-.9.91-1.21.5-.4,1.11-.67,1.67-.99-.17.53-.4,1.06-.5,1.6-.07.39.04.82.07,1.23.36-.17,1.02-.31,1.04-.52.22-1.98,2.63-3.87.28-5.99-.2-.18-.12-.76-.07-1.14.11-.79.33-1.56.42-2.35.05-.38-.02-1.1-.14-1.12-.61-.11-1.26-.09-1.89-.03-.24.02-.47.43-.67.4-1.59-.2-3.17-.45-4.75-.69-.04.2-.07.4-.11.59.28.18.55.35,1.16.74-1.61,0-3.22.49-3.95-.11-1.24-1.02-2.53-1.2-3.91-1.33-2.27-.21-4.55-.21-6.81-.45-4.4-.48-8.78-1.08-13.17-1.6-.36-.04-.95-.05-1.07.15-.82,1.33-1.87.28-2.13-.12-1.71-2.55-3.93-3.3-6.83-2.48-.81.23-1.33.34-1.16,1.41.18,1.13-.22,1.99-1.68,1.95-.42-.01-1.05.39-1.24.77-1.12,2.27-1.84,4.66-1.79,7.25.76-.95,1.31-2,1.95-2.99.22-.34.64-.54.97-.81.29.38.8.74.81,1.13.03.72-.23,1.45-.34,2.06,1.19.21,2.37.42,3.55.63-.03.17-.05.34-.08.51-1.84.4-3.87-1.21-5.69.42.69.35,1.55.49,1.81.97.62,1.13,1.65,1.12,2.64,1.51,2.04.79,4-.71,6.09.19,1.2.52,2.81.09,4.23.09.02.07.03.13.05.2-.87.25-1.74.51-2.61.76,4.45-.93,8.47.72,12.58,1.89,1.18.33,2.49.19,3.74.27,0-.12,0-.23.01-.35-1.56-.17-3.13-.34-4.95-.54.38-.34.47-.48.55-.48,1.82.23,3.7.27,5.46.76,2.3.64,4.88-.12,6.98,1.45.02.02.11-.03.15-.07.97-1.1,2.04-.46,3.13-.23,1.02.21,2.08.19,3.12.27ZM428.04,182.05c.03-.19.06-.37.09-.56-.59-.06-1.18-.14-1.78-.17-7.22-.39-13-3.47-17.24-9.34-2.18-3.02-2.93-6.42-1.33-9.83.91-1.94,2.46-3.66,3.96-5.24,2.66-2.8,3.1-4.86.79-7.94-1.27-1.69-2.95-3.13-4.64-4.44-4.23-3.28-8.65-6.31-12.81-9.66-1.96-1.57-3.83-3.46-5.13-5.58-1.21-1.99-.39-4.27,1.06-6.17-2.16,1.66-3.02,5.41-2.11,7.86,1.26,3.39,4.14,5.18,6.78,7.23,4.68,3.63,9.44,7.16,14.04,10.89,2.6,2.11,3.98,5.92.14,8.42-.23.15-.41.4-.62.59-3.55,3.21-3.7,9.29-2.49,12.24,1.43,3.47,3.27,6.58,6.72,8.75,4.61,2.91,9.42,3.47,14.55,2.96ZM429.42,137.44c-2.19-1.06-4.39-1.94-6.39-3.14-1.39-.84-2.51-2.13-3.75-3.22-4.23-3.71-8.42-7.46-12.71-11.1-.91-.77-2.16-1.12-3.26-1.66-.09.15-.19.31-.28.46.28.41.51.87.85,1.22,1.69,1.75,3.38,3.51,5.13,5.21,4.07,3.95,8.1,7.95,13.16,10.69,2.3,1.24,4.75,1.6,7.25,1.54ZM442.2,129.89c4.43.24,8.46,1.73,12.14,4.08,2.32,1.49,4.4,3.36,6.61,5.03.43.32.96.51,1.44.76-.12-.5-.07-1.15-.38-1.48-1.78-1.87-3.46-3.93-5.52-5.43-4.23-3.09-9.14-3.69-14.28-2.95ZM45.47,76.48c.97-.31,2.26-.62,3.45-1.15.43-.19.63-.92.94-1.4-.53-.05-1.07-.16-1.6-.14-.71.03-1.41.15-2.12.23.41-.54.83-1.07,1.23-1.61.11-.15.17-.33.26-.52-1.22-.32-2.16,2.57-3.34-.21-.02,1.44-.89,2.91,1.18,3.23.07.01,0,.87,0,1.58ZM365.14,87.07c.53,2.28.88,3.91,1.29,5.52.13.52.42,1.01.63,1.51.52-.46,1.29-.83,1.5-1.4.22-.61.13-1.57-.24-2.09-.84-1.19-1.94-2.19-3.18-3.54ZM387.65,119.3c.06-.11.12-.22.18-.33-4.74-2.43-9.47-4.86-13.74-7.05,1.23,1.59,2.93,3.29,5.63,4.05,2.74.77,5.3,2.2,7.93,3.34ZM363.01,93.96c.14,0,.29-.01.43-.02-.38-1.48-.58-3.06-1.24-4.4-.31-.63-1.52-.81-2.32-1.2.22.83.28,1.76.71,2.47.68,1.13,1.6,2.11,2.42,3.15ZM177.2,2.28c-.14.17-.28.34-.42.51,2.19,1.94,4.39,3.89,6.58,5.83.12-.12.25-.24.37-.36-1.54-1.06-1-3.68-3.63-4.07-1.04-.15-1.94-1.24-2.91-1.91ZM225.49,7.6c-.07.05-.36.17-.36.29,0,.26.09.62.28.75,1.17.8,2.36,1.56,3.59,2.27.07.04.66-.46.68-.73.03-.42-.12-1.12-.4-1.24-1.17-.52-2.42-.87-3.79-1.33ZM30.64,128.05v2.87c1.73-.61,3.46-3.66,2.93-5.27-.06-.18-.29-.45-.43-.44-.23.02-.61.19-.65.36-.11.48-.07,1-.12,1.51-.05.55-.14,1.09-.22,1.64-.5-.22-1.01-.44-1.52-.66ZM355.3,84.03c-2.1,1.01-3.01,2.9-3.88,5.09,2.48-1,2.98-3.19,3.88-5.09ZM343.17,89.69s-.16.19-.11.31c.59,1.66,1.2,3.31,1.81,4.96.25-.15.74-.37.71-.45-.31-1.11-.62-2.22-1.09-3.27-.24-.54-.79-.95-1.32-1.55ZM60.79,58.04c-.14-.03-.27-.05-.41-.08-.24.94-.24,2.05-.78,2.76-.46.6-1.52.74-2.29,1.08.78.67,1.57,1.33,2.69.32.21-.19.84.09,1.28.11.43.03.87,0,1.3,0-2.87-.51-2.9-.57-1.8-3.34.1-.25.01-.57.01-.86ZM30.81,134.57c-2.37-.16-4.49,1.89-6.95.53,1.2,1.58,3.43,1.41,6.95-.53ZM63.72,65.8l.09-.71c-1.28.25-2.2-2.31-3.92-.24,1.4.35,2.62.65,3.83.95ZM437.77,132.31l-.36-.41c-1.4,1.29-2.8,2.59-4.21,3.88.14.15.27.3.41.45,1.38-1.31,2.77-2.62,4.15-3.92ZM37.19,109.13l-.57.04v4.16c.19,0,.38,0,.57,0v-4.2ZM365.73,108.91c-.03.09-.06.18-.09.28,2.16.72,4.32,1.43,6.49,2.15l.12-.36c-2.17-.69-4.34-1.37-6.52-2.06Z"/>
      <path class="cls-1" d="M9.01,112.8c-1.88-3.6-2.88-7.4-3.05-11.39-.26-6.04.47-11.89,2.96-17.51,1-2.26,1.45-4.76,2.17-7.14.16-.53.31-1.25.7-1.5,2.02-1.25,2.42-3.42,3.06-5.36,1.49-4.5,4.9-7.34,8.39-10.07,1.73-1.35,3.87-2.17,6.05-3.36-4.07-.99-6.83.8-8.91,3.49-2.56,3.31-5.07,6.75-7.03,10.44-2.8,5.27-5.12,10.79-7.56,16.24-2.03,4.54-2.13,9.45-1.99,14.26.11,3.99.98,7.95,1.68,11.98-.44-1.07-1.04-2.1-1.3-3.21-1.34-5.61-1.31-11.28-.56-16.97.74-5.71,2.77-10.96,5.31-16.1,1.7-3.46,2.76-7.22,4.3-10.77.67-1.54,1.62-3.05,2.78-4.25,1.91-1.98,3.82-4.25,6.21-5.42,4.08-2,8.55-2.66,12.98-.59.3.14.65.21.99.26.27.04.56,0,1.04,0-.96,1.46-.35,1.96,1.33,1.84-.35.4-.53.58-.66.78-.28.43-.54.87-.81,1.31.6.27,1.2.76,1.8.76.95,0,1.9-.34,2.86-.48,2.47-.38,4.95-.73,7.42-1.08.17-.02.41.05.5-.04.63-.6,1.24-1.22,1.85-1.84-.63-.27-1.29-.81-1.89-.75-2.31.25-4.6.7-6.91,1.06-.68.11-1.37.16-2.05.23-.04-.23-.09-.46-.13-.69,2.98-.79,5.98-1.55,8.95-2.38,1.11-.31,2.17-.81,3.35-1.27.55,1.11.93,2.65,0,4.28-.14.25-.13.73.01,1,1.06,1.98-.53,2.59-1.76,3.25-.33.18-1.01-.16-1.47-.37-1.04-.47-1.75-.54-2.57.61-.96,1.34-1.9,2.97-4.04,2.91-.42-.01-.97.66-1.29,1.14-1.48,2.19-2.83,4.46-4.38,6.6-.32.44-1.28.47-1.96.52-.1,0-.46-.95-.37-1.4.24-1.25-.18-2.48,1.43-3.63,1.17-.84,1.1-3.44,1.53-5.26.04-.19-.19-.61-.37-.66-2.29-.68-1.98-2.77-2.09-4.35-.09-1.33-.61-1.55-1.62-1.56-2.19-.02-4.1.75-5.9,1.95-5.99,4.01-10.38,9.32-13.34,15.87-1.3,2.88-2.72,5.7-3.83,8.72,1.8-1.14,3.65-2.22,5.39-3.44,4.41-3.1,9.42-3.38,14.53-3.23.45.01.9.01,1.36.03,1.52.07,1.88,1.19,1.7,2.66-.36,2.88-2.39,3.69-4.6,4.36-1.07.32-2.24.31-3.37.46-.67.09-1.9.13-1.91.28-.23,2.33-3.31,2.68-3.44,5.04,0,.16-.57.25-.82.44-.65.51-1.68.98-1.8,1.61-.26,1.4-.76,1.4-1.96,1.12-.95-.22-2.43-.7-2.53,1.22,0,.09-.14.18-.22.25-.87.83-2.23,1.51-2.53,2.51-1.44,4.7-3.13,9.41-1.89,14.48.16.68.21,1.38.3,2.08Z"/>
      <path class="cls-1" d="M.63,99.45c.14,1.77.34,3.54.42,5.31.19,4.26,1.77,8.12,3.76,11.76,2.5,4.58,5.36,8.96,8.01,13.46.21.35.05.93.06,1.4-.41-.24-.9-.4-1.21-.73-2.47-2.67-2.99-6.48-5.15-9.25-2.82-3.6-3.93-7.84-5.18-12-.83-2.79-.95-5.8-1.33-8.72-.05-.39.2-.82.3-1.23.11,0,.22.01.32.02Z"/>
      <path class="cls-1" d="M19.96,140.08c-.86,0-1.94.33-2.53-.07-1.08-.72-1.92-1.84-2.77-2.88-.18-.22.05-.78.09-1.19.35.09.77.09,1.02.29,1.4,1.1,2.77,2.25,4.14,3.38.01.16.03.31.04.47Z"/>
      <path class="cls-1" d="M13.05,141.05c-.72,1.06-1.31,1.98-1.98,2.86-.07.09-.76-.08-.83-.26-.2-.48-.32-1.05-.27-1.55.05-.46.37-.9.61-1.32.22-.39.51-.74.77-1.1.55.44,1.1.89,1.71,1.38Z"/>
      <path class="cls-1" d="M32.4,85.69c1.56,2.92.9,5.56.59,8.19-.2,0-.39,0-.59,0v-8.2Z"/>
      <path class="cls-1" d="M35.58,78.28c1.25-1.79,2.48-3.54,3.7-5.28-.17,3.55-1.34,5.08-3.7,5.28Z"/>
      <path class="cls-1" d="M20.71,140.3c.58.1.88.08,1.11.2.66.36,1.29.77,1.94,1.16-.56.83-1.11,1.67-1.72,2.46-.08.11-.56.03-.76-.11-.18-.13-.37-.63-.32-.67,1.26-.98.15-1.88-.25-3.05Z"/>
      <path class="cls-1" d="M19.43,134.87c-2.27,0-3.6-1.61-5.23-2.61-.11-.06,0-.47,0-.72.31.07.68.04.92.21,1.41.99,2.79,2.02,4.3,3.12Z"/>
      <path class="cls-1" d="M31.06,112.47c-.56,1.66-1.13,3.32-1.77,5.2-1.02-2.26.45-3.71,1.25-5.32.17.04.35.08.52.11Z"/>
      <path class="cls-1" d="M191.9,111.29c-2.27,1.23-3.97-.28-5.83-.42.02-.18.04-.36.07-.54,1.82.3,3.64.61,5.76.96Z"/>
    </g>
  </g>
</svg>