<svg width="949" height="906" viewBox="0 0 949 906" fill="none" xmlns="http://www.w3.org/2000/svg">
<g clip-path="url(#clip0_405_250)">
<path d="M720.67 295.204C716.507 285.844 709.816 282.853 703.841 278.721C693.857 271.804 685.099 262.991 674.635 256.971C665.202 251.57 657.017 244.964 648.589 237.471C644.791 237.856 640.753 238.245 636.465 238.67C617.333 219.415 593.009 210.092 567.429 206.727C551.864 204.678 535.858 201.21 519.665 203.166C517.223 203.469 514.386 200.52 511.161 198.766C502.708 202.351 493.313 204.726 482.407 204.061C467.023 203.121 451.476 206.242 437.932 214.142C416.892 226.397 396.389 239.582 375.834 252.582C371.466 255.346 366.869 258.459 363.922 262.562C353.472 277.175 338.759 286.883 325.131 297.907C323.603 299.14 322.641 301.072 321.134 302.994L313.824 301.036C313.657 299.999 313.258 298.934 313.41 297.983C314.544 291.068 317.725 285.455 322.719 280.224C335.358 267.019 347.65 253.446 359.547 239.563C367.11 230.745 375.453 223.23 385.429 217.282C403.259 206.665 421.365 197.318 441.889 192.35C453.045 189.66 463.182 182.728 472.935 178.123C479.863 178.44 486.169 179.548 492.241 178.849C508.601 177.04 524.971 178.382 541.196 178.864C560.337 179.442 579.5 182.49 598.592 183.124C617.493 183.707 634.164 191.458 652.108 194.59C672.054 207.358 696.521 211.554 714.775 227.7C717.341 229.996 721.775 230.431 725.442 231.174C733.719 232.845 736.259 233.833 742.86 239.331C750.869 245.959 753.617 246.558 767.307 246.668C771.538 246.707 775.754 248.213 779.653 248.984C780.605 250.026 781.157 251.03 781.983 251.524C797.954 260.867 799.964 277.245 801.135 292.92C802.367 309.261 808.794 323.709 813.615 338.788C814.247 340.77 815.428 343.002 817.05 344.224C825.566 350.748 828.516 360.296 831.455 370.013C829.158 382.671 828.483 395.148 831.518 408.209C834.367 420.433 834.045 433.381 835.429 445.965C835.993 451.009 835.942 456.947 838.668 460.689C845.569 470.303 845.835 481.185 846.744 491.966C847.655 502.61 848.036 513.318 847.777 523.99C847.624 529.286 845.204 534.488 844.329 539.795C842.849 549.149 837.521 557.54 839.678 568.005C840.76 573.289 838.749 581.303 835.032 584.96C829.824 590.099 834.886 595.595 831.608 600.293C826.87 606.994 821.507 613.22 815.455 618.441C810.737 622.514 805.98 626.097 802.299 631.405C799.457 635.502 794.175 637.85 790.356 641.376C786.658 644.833 782.248 648.27 780.218 652.652C769.737 675.297 752.537 691.864 733.075 706.526C731.882 707.404 730.406 707.932 728.264 709.034C728.67 705.346 729.002 702.322 729.623 696.809C726.92 700.259 725.585 701.919 724.185 703.699L718.726 702.237C720.222 699.08 721.09 696.096 722.804 693.785C734.55 677.911 745.476 661.269 758.572 646.613C772.314 631.205 777.536 612.865 782.129 593.809C778.885 583.189 784.469 573.841 786.828 564.141C790.107 550.754 790.142 537.729 787.453 524.145C785.406 513.778 785.926 502.901 785.528 492.258C784.892 475.222 781.697 466.463 772.169 452.86C767.794 446.59 764.675 439.459 760.47 433.064C757.922 429.166 757.347 423.778 751.768 421.872C750.198 421.349 748.224 418.117 748.524 416.487C751.208 402.256 740.63 392.066 737.536 379.606C732.043 357.334 716.119 341.811 700.174 326.626C691.7 318.539 682.826 310.927 673.295 302.318C667.482 300.521 660.459 299.152 654.193 294.189C648.672 289.768 638.97 292.779 634.313 285.133C634.094 284.801 633.3 284.828 632.757 284.682C609.813 278.637 588.708 266.619 565.027 263.318C552.823 261.622 540.362 261.396 528.005 261.164C512.691 260.858 497.373 260.825 482.066 261.513C474.549 261.859 467.161 264.532 459.627 265.455C443.329 267.417 427.568 270.823 411.926 276.211C401.945 279.626 394.122 286.22 384.108 290.139C381.731 298.5 374.24 302.582 367.962 307.879C350.544 322.575 332.67 336.807 315.992 352.317C309.079 358.709 304.661 367.789 299.213 375.737C290.534 388.464 283.917 402.052 281.133 417.419C278.935 429.454 274.213 440.436 266.221 449.961C264.618 451.858 263.997 454.941 263.737 457.574C263.077 464.889 257.707 471.011 260.594 479.517C262.641 485.539 254.295 492.3 259.2 499.533C253.272 518.847 261.612 538.666 257.142 558.029C261.524 569.638 261.526 582.912 270.406 592.544C280.958 594.79 282.77 604.752 286.055 612.029C290.917 622.74 291.164 635.225 297.778 645.652C304.51 656.282 310.487 667.429 316.773 678.316C315.939 684.49 310.851 690.584 317.199 697.28C329.95 699.363 339.575 707.621 349.996 715.716C366.796 728.736 383.226 742.751 403.343 751.05C407.037 752.587 410.572 754.971 413.491 757.737C420.136 763.965 428.885 766.173 436.307 770.522C450.738 778.973 466.62 781.757 482.119 785.329C505.325 790.657 528.967 790.013 552.818 787.954C575.272 785.999 595.473 777.386 616.5 771.183C620.922 769.871 625.284 767.892 629.796 767.527C639.267 766.781 647.885 762.966 654.237 757.005C665.558 746.422 679.911 741.374 691.772 732.988C699.419 734.456 703.006 738.051 700.457 745.647C685.805 760.366 667.161 769.294 649.135 778.73C638.346 784.392 625.968 787.302 613.999 790.218C603.342 792.836 593.107 796.047 583.213 800.922C570.676 807.108 557.39 809.705 542.936 809.254C530.222 808.823 517.64 806.239 504.542 808.134C497.463 809.145 489.098 806.528 481.331 805.507C469.933 803.993 458.26 805.039 447.385 802.98C435.103 800.681 421.277 800.568 411.083 790.858C409.695 789.528 406.95 789.682 404.984 788.848C399.763 786.627 393.787 787.353 389.24 781.721C386.084 777.796 378.181 780.092 373.961 774.137C371.995 771.387 365.915 771.605 364.063 771.109C354.925 763.461 347.42 757.378 340.152 751.052C330.971 743.05 321.947 734.85 312.865 726.738C310.618 709.201 293.97 703.406 284.065 692.234C274.003 680.882 262.874 670.579 256.688 658.042C245.605 653.054 242.041 644.265 240.06 634.805C237.918 624.413 235.506 613.88 235.122 603.308C234.857 595.745 233.47 589.044 228.995 582.508C231.279 580.623 232.856 579.335 234.441 578.015C227.948 568.03 230.021 557.228 232.343 548.305C228.773 534.178 225.333 521.863 222.616 509.401C219.951 497.261 221.817 484.932 222.706 473.059C224.175 471.024 226.251 469.151 226.994 466.887C229.298 459.567 230.652 451.959 233.17 444.731C235.932 436.85 239.809 429.405 248.431 425.318C250.377 419.202 251.333 412.445 256.512 407.162C259.619 403.992 261.372 399.364 263.246 395.179C265.169 390.939 264.216 385.176 269.975 383.092C273.331 369.418 283.385 360.241 292.446 350.558C300.788 341.641 305.605 329.794 316.58 323.053C322.768 319.238 328.247 314.24 333.905 309.598C348.017 297.916 360.425 284.169 377.105 275.673C383.241 272.562 389.192 270.017 396.169 268.876C406.402 267.205 416.519 264.305 425.464 258.628C438.956 250.03 454.509 247.526 469.669 245.088C475.496 244.152 481.696 243.487 487.691 242.562C493.189 241.709 498.724 240.968 504.237 240.187C512.272 239.056 520.248 237.635 528.299 236.953C536.392 236.248 545.152 235.858 552.58 236.993C562.479 238.482 572.661 237.892 582.427 240.646C605.109 247.032 628.031 252.524 650.637 259.197C665.601 263.617 679.077 271.675 692.963 278.714C702.152 283.366 709.282 291.229 720.453 295.249C719.33 294.332 719.079 294.504 718.804 294.636C719.307 295.694 719.811 296.753 720.314 297.811C720.719 297.578 721.164 297.321 721.569 297.087C720.903 296.122 720.238 295.157 720.421 295.24L720.67 295.204ZM698.953 248.058L700.007 248.341L700.862 245.149L699.809 244.867L698.953 248.058Z" fill="#9B866A" fill-opacity="0.7"/>
<path d="M860.337 390.547C863.181 401.127 865.788 410.55 856.412 418.985L863.594 420.909C866.717 426.364 869.451 431.1 872.176 435.867L868.61 449.177C863.062 458.262 856.194 461.04 847.229 461.682C845.894 458.109 844.407 454.084 842.159 448.042C844.875 442.886 842.138 432.163 854.322 423.591C846.504 424.677 843.162 425.15 839.787 425.614C834.834 403.111 835.893 398.776 849.318 386.978C852.787 388.079 856.662 389.322 860.313 390.506L860.337 390.547Z" fill="#9B866A" fill-opacity="0.7"/>
<path d="M883.326 445.457C886.281 443.751 889.154 442.092 892.635 440.082L903.52 442.999L898.739 460.842C894.804 465.056 888.894 463.746 883.926 460.328C878.966 456.878 881.492 451.534 883.326 445.457Z" fill="#9B866A" fill-opacity="0.7"/>
<path d="M765.26 483.372L754.502 480.489C754.141 476.732 753.758 472.798 753.43 469.425C756.425 467.696 758.246 466.645 760.027 465.617L773.944 469.346C773.194 475.337 773.683 481.558 765.26 483.372Z" fill="#9B866A" fill-opacity="0.7"/>
<path d="M858.903 479.658C862.058 476.056 864.878 472.809 867.632 469.681C877.173 475.316 874.064 481.428 870.694 488.77C866.808 485.779 863.437 483.165 858.903 479.658Z" fill="#9B866A" fill-opacity="0.7"/>
</g>
<g clip-path="url(#clip1_405_250)">
<path d="M192.721 510.404C190.24 520.344 193.673 526.819 195.838 533.754C199.448 545.351 200.926 557.687 205.467 568.873C209.576 578.935 211.96 589.181 213.99 600.273C217.22 602.307 220.642 604.487 224.283 606.791C227.508 633.743 240.939 656.064 259.027 674.46C270.032 685.657 280.512 698.242 294.478 706.669C296.589 707.933 297.009 712.003 298.471 715.37C307.34 717.749 316.206 721.66 324.392 728.897C335.937 739.108 350.111 746.219 365.648 748.33C389.773 751.623 414.047 753.852 438.249 756.26C443.392 756.77 448.932 757.146 453.779 755.727C471.01 750.643 488.581 752.049 506.108 751.749C508.071 751.718 510.018 750.788 512.389 750.201L516.944 756.244C516.438 757.164 516.097 758.249 515.391 758.905C510.241 763.656 504.279 766.122 497.124 767.17C479.034 769.798 460.992 772.927 443.07 776.545C431.682 778.839 420.481 779.626 408.958 778.173C388.37 775.565 368.349 771.786 349.114 763.068C338.667 758.321 326.412 757.544 315.891 755.17C310.625 750.655 306.338 745.9 301.122 742.713C287.116 734.069 275.04 722.934 262.55 712.568C247.821 700.329 234.595 686.131 219.939 673.879C205.402 661.786 197.035 645.415 184.821 631.902C176.962 609.561 160.262 591.194 155.815 567.233C155.205 563.844 151.979 560.771 149.547 557.929C144.052 551.517 142.658 549.174 140.84 540.778C138.608 530.625 136.812 528.462 126.091 519.948C122.78 517.312 120.385 513.531 117.786 510.523C117.677 509.116 117.86 507.985 117.514 507.087C110.678 489.893 119.176 475.748 127.901 462.674C136.988 449.038 140.817 433.695 146.3 418.844C147.022 416.893 147.466 414.406 146.939 412.445C144.243 402.061 147.796 392.721 151.461 383.254C161.063 374.692 169.275 365.274 174.923 353.113C180.202 341.726 188.426 331.719 195.082 320.95C197.741 316.628 201.438 311.979 201.592 307.353C202.072 295.527 208.561 286.788 214.48 277.732C220.314 268.783 226.605 260.109 233.379 251.858C236.76 247.779 241.869 245.169 245.825 241.525C252.749 235.064 262.113 231.731 266.855 222.156C269.255 217.325 275.773 212.247 280.953 211.653C288.221 210.81 287.615 203.362 293.09 201.677C300.949 199.312 309.008 197.707 316.991 197.318C323.216 197.012 329.171 197.117 335.34 195.199C340.101 193.72 345.709 195.121 350.89 194.692C355.931 194.244 361.523 194.251 365.82 192.046C388.019 180.652 411.773 178.183 436.135 178.607C437.616 178.65 439.104 179.142 441.471 179.593C438.88 182.249 436.758 184.429 432.874 188.39C437.128 187.336 439.202 186.848 441.402 186.308L444.803 190.82C441.681 192.388 439.161 194.205 436.387 194.971C417.358 200.251 398.505 206.641 379.162 210.13C358.847 213.814 343.442 225.053 328.092 237.244C324.113 247.61 313.957 251.541 306.127 257.732C295.302 266.264 287.257 276.508 281.015 288.869C276.247 298.299 269.142 306.551 262.904 315.184C252.918 329.001 250.045 337.871 249.18 354.456C248.769 362.091 246.838 369.63 246.215 377.258C245.823 381.899 242.96 386.499 246.184 391.435C247.099 392.815 246.665 396.576 245.426 397.676C234.55 407.239 236.615 421.782 231.382 433.506C222.002 454.44 224.997 476.475 228.216 498.258C229.916 509.846 232.224 521.308 234.436 533.959C237.911 538.954 242.604 544.356 244.486 552.124C246.116 559.007 255.615 562.607 254.58 571.498C254.548 571.895 255.19 572.363 255.528 572.811C269.889 591.7 279.124 614.162 295.755 631.34C304.329 640.189 314.011 648.038 323.606 655.827C335.487 665.495 347.538 674.95 360.025 683.83C366.162 688.184 373.63 690.625 380.136 694.535C394.188 703.021 408.706 710.039 424.35 715.421C434.318 718.874 444.542 718.493 454.846 721.568C461.866 716.442 470.283 717.836 478.49 717.526C501.264 716.665 524.111 716.452 546.802 714.495C556.185 713.713 565.255 709.276 574.442 706.366C589.116 701.678 602.695 695.043 614.348 684.645C623.488 676.514 633.97 670.765 646.131 668.179C648.562 667.67 650.949 665.623 652.776 663.708C657.799 658.349 665.799 656.83 668.759 648.35C670.853 642.344 681.592 642.153 682.179 633.434C698.74 621.861 704.366 601.108 719.808 588.599C723.5 576.753 731.67 566.291 730.601 553.234C723.667 544.969 728.371 536.002 730.262 528.245C733.023 516.811 740.514 506.82 741.72 494.53C742.958 482.009 745.109 469.546 746.856 457.096C751.314 452.743 759.075 451.072 758.194 441.888C749.427 432.398 746.925 419.965 743.695 407.171C738.469 386.569 734.148 365.409 723.402 346.486C721.437 343.001 720.119 338.946 719.521 334.969C718.118 325.97 712.582 318.846 709.41 310.849C703.238 295.306 692.436 283.336 682.42 270.98C667.412 252.497 648.383 238.451 628.318 225.393C609.419 213.111 588.197 207.465 567.808 199.41C563.514 197.722 558.859 196.596 555.079 194.107C547.155 188.865 538.015 186.567 529.339 187.354C513.904 188.726 499.484 183.869 484.975 183.177C479.852 177.313 479.238 172.272 485.922 167.854C506.53 165.274 526.719 169.714 546.734 173.374C558.721 175.553 570.267 180.879 581.496 185.948C591.506 190.445 601.548 194.214 612.346 196.462C626.034 199.305 638.104 205.436 649.217 214.689C658.972 222.854 667.297 232.636 678.787 239.205C684.988 242.766 689.969 249.978 695.462 255.563C703.512 263.772 713.355 270.133 720.659 278.45C728.923 287.822 739.75 296.422 741.807 310.349C742.082 312.252 744.34 313.82 745.375 315.688C748.124 320.651 753.28 323.759 753.397 330.995C753.468 336.031 761.109 339.087 760.77 346.377C760.626 349.755 765.552 353.326 766.706 354.856C769.2 366.509 771.37 375.922 773.204 385.382C775.514 397.339 777.579 409.357 779.743 421.341C770.718 436.544 780.272 451.359 781.2 466.261C782.143 481.4 784.571 496.371 781.73 510.059C787.394 520.812 784.792 529.933 780.53 538.608C775.821 548.116 771.239 557.902 765.034 566.469C760.587 572.594 757.555 578.728 757.059 586.634C754.098 586.713 752.063 586.758 750.001 586.822C748.972 598.688 740.689 605.925 733.366 611.528C727.484 624.859 722.615 636.682 717.085 648.175C711.712 659.384 702.652 667.951 694.643 676.761C692.233 677.461 689.444 677.659 687.465 678.985C681.144 683.336 675.393 688.499 668.959 692.645C661.931 697.156 654.293 700.637 644.982 698.551C639.684 702.172 634.772 706.91 627.438 707.885C623.038 708.471 618.807 711.039 614.755 713.183C610.629 715.341 607.833 720.47 602.012 718.567C590.95 727.278 577.377 728.322 564.276 730.375C552.212 732.268 541.124 738.639 528.325 737.196C521.1 736.393 513.705 736.959 506.389 737.135C488.077 737.655 469.836 740.851 451.461 737.279C444.71 735.954 438.453 734.297 432.252 730.901C423.159 725.919 413.401 721.977 402.857 720.945C386.932 719.416 373.133 711.815 359.685 704.405C354.516 701.556 349.221 698.264 343.926 695.302C339.069 692.591 334.25 689.767 329.426 686.989C322.397 682.935 315.236 679.145 308.471 674.726C301.659 670.301 294.516 665.215 289.36 659.749C282.476 652.482 274.088 646.679 268.087 638.498C254.141 619.503 239.457 601.065 225.749 581.891C216.677 569.196 211.017 554.55 204.406 540.455C200.028 531.133 199.249 520.547 192.919 510.503C193.24 511.916 193.544 511.936 193.842 512.001C194.097 510.857 194.352 509.713 194.607 508.569C194.144 508.504 193.635 508.432 193.172 508.367C193.102 509.537 193.032 510.707 192.939 510.529L192.721 510.404ZM180.815 560.927L180.159 560.057L177.52 562.046L178.176 562.916L180.815 560.927Z" fill="#7E6E59" fill-opacity="0.8"/>
<path d="M141.339 349.293C145.61 339.204 149.356 330.173 161.937 329.297L157.462 323.359C158.359 317.138 159.119 311.723 159.905 306.289L170.909 297.994C180.873 294.249 187.996 296.288 195.457 301.3C194.309 304.938 193.004 309.025 191.056 315.17C185.741 317.562 181.298 327.698 166.419 326.953C173.25 330.909 176.175 332.594 179.12 334.306C169.171 355.089 165.668 357.854 147.826 358.887C145.77 355.885 143.482 352.52 141.332 349.339L141.339 349.293Z" fill="#7E6E59" fill-opacity="0.8"/>
<path d="M157.022 291.867C153.643 291.393 150.357 290.931 146.377 290.372L139.594 281.374L154.345 270.255C160.04 269.355 163.891 274.026 165.703 279.778C167.488 285.55 162.207 288.207 157.022 291.867Z" fill="#7E6E59" fill-opacity="0.8"/>
<path d="M273.408 334.663L280.111 343.556C278.083 346.74 275.963 350.076 274.146 352.936C270.721 352.455 268.639 352.162 266.602 351.876L257.93 340.37C262.209 336.11 265.652 330.907 273.408 334.663Z" fill="#7E6E59" fill-opacity="0.8"/>
<path d="M197.322 279.947C192.618 280.844 188.397 281.667 184.301 282.437C180.251 272.123 186.463 269.22 193.638 265.508C194.859 270.257 195.907 274.392 197.322 279.947Z" fill="#7E6E59" fill-opacity="0.8"/>
</g>
<defs>
<clipPath id="clip0_405_250">
<rect width="642.265" height="649.67" fill="white" transform="translate(948.764 274.147) rotate(105)"/>
</clipPath>
<clipPath id="clip1_405_250">
<rect width="642.265" height="649.67" fill="white" transform="translate(0 386.595) rotate(-37.0079)"/>
</clipPath>
</defs>
</svg>
