<?xml version="1.0" encoding="UTF-8"?>
<svg id="Layer_2" data-name="Layer 2" xmlns="http://www.w3.org/2000/svg" viewBox="0 0 215.19 251.37">
  <defs>
    <style>
      .cls-1 {
        fill: #eee;
        stroke-width: 0px;
      }
    </style>
  </defs>
  <g id="Layer_1-2" data-name="Layer 1">
    <path class="cls-1" d="M103.67,177.11c-3.1-.93-6.24-1.9-9.4-2.82-8.67-2.52-12.96-4.81-21.02-8.87-4.38-2.2-7.31-5.34-7.98-10.14-.66-4.71-3.44-7.72-6.93-10.5-14.07-11.22-32.06-18.3-46.13-29.51-6.66-5.3-6.25-16.48-4.89-23.75,2.46-13.09,5.16-26.14,7.64-39.23.71-3.75,1.37-7.59,1.34-11.38-.01-2.34-.8-5.11-2.22-6.91-2.96-3.77-6.55-7.05-9.92-10.49-1.34-1.36-2.78-2.62-4.18-3.92.14-.39.28-.78.43-1.16,1.72-.05,3.5-.41,5.15-.1,4.57.86,9.09,1.99,13.63,3.04,3.54.82,9.84,2.48,10.24,6.47.08.76.62,1.46,1.01,2.31,3.75-.35,7.71-4.72,11.09,1.58-1.93,3.57-4.15,7.68-6.67,12.33,2.52,1.1,4.42,1.93,6.96,3.05-1.15,1.8-2.14,3.6-3.37,5.23-1.81,2.4-2.75,4.81-1.76,7.88.66,2.04,1.03,4.25,1.06,6.39.03,2.61-.26,5.26-.73,7.83-.33,1.78-.75,4.6-1.01,6.41-1.07,7.44-1.15,8.48-1.7,15.95-.17,2.26,1.67,3.79,3.81,4.92,6.32,3.35,10.77,6.73,17.04,10.2,1.81,1,2.77,2.27,6.65,2.75-2.28-10.89,2.51-22.36,7.53-31.74,3.83-7.16,5.33-15.06,7.61-22.7,1.96-6.54,3.49-13.21,5.29-19.8,1.48-5.41,1.34-10.81.73-16.35-.58-5.26-.57-10.61-.57-15.92,0-3.36,1.39-6.55,4.57-7.7,3.28-1.18,6.56.01,9.05,2.7,2.33,2.51,3.67,5.35,4.14,8.85.5,3.75,1.39,7.55,2.78,11.06,1.32,3.32,2.69,6.42,1.56,10.06-.17.55.17,1.26.34,2.31,1.87-.26-.2.06,2.12-.26.21,1.43.85,2.92.54,4.16-2.05,8.22-4.26,16.4-6.52,24.57-1.2,4.35-5.12,15.79-5.92,18.29-2.75,8.63-3.23,13.51-8.04,21.15-1.85,2.94-2.55,5.62-.44,8.74,1.65,2.43,2.98,5.08,4.57,7.84,3.58-1.43,3.34-2.57,6.4-3.79,5.58-2.22,11.02-2.24,16.21,1.13,5.03,3.26,10.17,6.38,15.05,9.84,4.66,3.31,8.21,7.68,10.95,12.76,2.27,4.22,3.28,7.85,7.67,6.15,4.59-2.48,8.76-4.6,13.77-3.05,1.55.48,9.69,2.29,11.24,2.97,5.8,2.53,12.09,2.82,18.11,4.3,1.17.29,2.59.3,3.7-.09,1.71-.59,3.34-1.53,4.87-2.53,5.07-3.31,10.34-3.1,16.06-1.12-1.19,3.02-3.12,4.26-6.34,4.18-2.28-.06-4.64.46-6.84,1.11-1.26.37-2.28,1.53-3.52,2.4,1.9,2.83,4.44,1.21,6.29,2.05-2.64,6.1-11.41,4.74-14.65,4.23-10.17-1.57-20.49-2.51-30.31-5.88-2.57-.88-4.37-.5-6.11,1.7-1.95,2.48-4.31,4.63-6.42,6.99-3.41,3.82-3.03,5.73,1.48,7.83,5.78,2.69,9.73,9.47,9.23,15.8-.53,6.64-8.03,11.71-14.5,9.8-2.88-.85-5.74-1.75-8.62-2.57-2.89-.81-4.39-2.36-4.5-5.66-.21-6.22-4.99-7.84-10.74-5.51-3.02,1.22-5.49,7.61-6.84,12-1.45,10.62-.28,19.6-1.53,30.19-.4,3.37-1.14,6.44-3.07,9.34-1.51,2.26-2.15,7.29-4.4,7.25-1.2-.96-.62-4.27-.52-6.34-2.71-.43-6.8-.2-7.52,1.25-1.18,2.37-2.59,4.8-2.99,7.35-.58,3.71-2.34,6-6.04,7.34-.58-6.2-.1-11.95,4.17-16.89,1.3-1.51,2.3-3.27,3.51-4.86,1.64-2.17,2.8-4.14,1.66-7.22-.66-1.79-.58-19.77,0-23.43.63-3.93,2.51-9.55,4.04-13.99.86-2.48,3.14-4.94,3.56-7.87Z"/>
  </g>
</svg>