<?xml version="1.0" encoding="UTF-8"?>
<svg id="Layer_2" data-name="Layer 2" xmlns="http://www.w3.org/2000/svg" viewBox="0 0 325.03 390.03">
  <defs>
    <style>
      .cls-1 {
        fill: #eee;
        stroke-width: 0px;
      }
    </style>
  </defs>
  <g id="Layer_1-2" data-name="Layer 1">
    <g>
      <path class="cls-1" d="M6.59,57.91c.98.3.97-.87,1.39-1.39.34-.42.65-1.13,1.25-.78.74.44-.29.56-.33.91-.04.39.18.56.47.68,1.74.75,3.02,2.21,4.85,2.93,1.33.52,2.97,1.36,1.88,3.6-.44.92.31,2.02,1.28,2.6.84.5,1.76.86,2.62,1.32.87.46,1.81.94,1.87,2.06.06,1.06.57,1.88,1.18,2.63,2.28,2.82,4.1,5.92,5.57,9.23.82,1.84,2.04,2.9,4.3,2.27.61.04,1.35.06,2.07.15,4.73.56,9.29.14,13.51-2.3.21-.12.44-.22.66-.32,1.35-.59,2.32-.31,2.98,1.12.7,1.51,1.21,3.07,1.67,4.66.3,1.04.8,1.29,1.66.42,1.59-1.62,3.08-3.32,4.31-5.24,2.43-3.78,2.45-6.42-.17-10.12-3.69-5.22-8.39-9.4-13.86-12.64-2.26-1.34-3.93-2.97-5.16-5.26-3.93-7.32-9.34-12.97-17.61-15.39-4.26-1.25-8.62-1.7-13.01-2.06-3.39-.28-6.18.38-8.33,3.37-2.29,3.17-2.33,6.66.64,9.19,2.04,1.73,3.87,3.31,3.29,6.36-.14.72.2,1.76,1.01,2.01Z"/>
      <path class="cls-1" d="M252.12,305.1c-.93.24-.93.22-.91-.86,0-.37.02-.74-.05-1.1-.81-4-3.08-7.11-6.03-9.8-.24-.22-.57-.38-.82-.16-1.95,1.72-1.68-.14-1.84-1.16-.14-.88-.51-1.62-1.05-2.3-.14-.17-.28-.49-.21-.64.12-.28.4-.12.62-.01.39.2.76.95,1.2.42.42-.51-.21-.99-.53-1.41-1.37-1.8-3.47-2.46-5.37-3.4-1.39-.69-2.84-1.28-4.25.06-.15.14-.46.22-.66.18-.29-.05-.32-.35-.21-.59.99-2.12-.62-3.12-1.86-4.26-.4-.37-.92-.64-1.1-1.19-.63-1.91-2.21-3.2-3.17-4.89-.36-.64-1.04-1.04-1.75-1.28-.58-.2-1.28-.43-1.64.25-.35.65.32.98.75,1.27,1.31.88,2.13,2.18,3.03,3.41.88,1.2.9,2.08-.75,2.58-1,.3-1.93.84-2.63,1.62-1.4,1.58-3.11,2.04-5.14,1.69-1.85-.32-3.5.05-4.92,1.39-2.7,2.57-4.69,5.57-6.17,9.01-1.85,4.3-.44,8.53-.14,12.79.08,1.08.6,2.17-.64,2.97-.52.33-.41.93-.1,1.31,1.1,1.35,1.81,2.99,2.91,4.28,1.3,1.53,2.72,2.96,4.01,4.52,2.1,2.55,4.21,5.1,6.93,7.05,3.54,2.55,7.29,4.23,11.82,3.22,1.29-.29,2.57-.6,3.9-1.05-.04.74-.53.84-.84,1.1-.27.22-.85.32-.71.7.18.5.75.25,1.14.17,1.65-.33,3.14-1.01,4.31-2.27.57-.61.97-1.98,2.02-.34.34.53.85.06,1.1-.43.18-.34.42-1.17.72-.78,1.64,2.1,1.67.26,2.1-.75.06-.15.27-.29.43-.32,1.72-.4,2.12-1.41,1.51-3-.12-.3-.04-.77.12-1.06,1.24-2.3,1.82-4.97,3.95-6.76.49-.41.86-.81.68-1.7-.48-2.4.43-4.72.72-7.07.04-.36.07-.73.04-1.09-.02-.27-.18-.39-.51-.31ZM211.67,314.64c-.72.04-.97-.51-.84-1.11.19-.85.22-2.02,1.4-2.04.82-.01,1.09.84,1.19,1.62-.17.98-.81,1.48-1.76,1.53Z"/>
      <path class="cls-1" d="M211.33,277.38c-.26-.21-.55.13-.78.31-1.87,1.39-3.48,3.04-4.94,4.86-1.2,1.49-2.15,3.1-2.92,4.84-.15.33-.52.77.1,1.06.69-.24,1.15-.76,1.49-1.32,1.98-3.22,4.19-6.27,6.84-8.98.19-.2.52-.5.21-.75Z"/>
      <path class="cls-1" d="M156.77,375.36c-1.29,0-1.79.58-1.29,1.86.48,1.22,1.21,2.26,2.27,3.04.96.71,1.61,1.65,2.15,2.69,1.48,2.88,2.68,2.94,4.44.18.6-.94,1.56-2.03.54-3.15-2.19-2.37-4.74-4.22-8.11-4.62Z"/>
      <path class="cls-1" d="M148.47,373.75c.02-.34-.16-.57-.54-.59-.85-.06-3.24,1.97-3.24,2.54.24,2.89,1.57,4.93,3.63,6.53.6.47,1.31,1.15,2.1.51.7-.57.2-1.35.01-2.04-.64-2.32-2.11-4.4-1.97-6.95Z"/>
      <path class="cls-1" d="M150.25,199.78c-.41-.19-.92-.69-1.32-.28-.44.46.02,1.03.24,1.51,1.68,3.68,4.62,5.89,8.36,7.16.37.13.8.24,1-.1.75-1.25,1.42-2.54,2.03-3.65-.04-1.18-.83-1.38-1.48-1.65-2.88-1.19-6-1.66-8.84-2.99Z"/>
      <path class="cls-1" d="M323.29,255.1c-.27.24-.02,1.09-.7.77-.46-.21-.29-.88-.36-1.35-.28-2.03.11-4.19-1.22-6.02-.44-.6-.83-1.28-1.7-1.18-.82.1-1.02.82-1.18,1.47-.42,1.78-.79,3.58-1.2,5.37-.08.33-.13.91-.51.85-.46-.07-.21-.6-.19-.93.13-2.1.87-4.06,1.31-6.09.43-1.99-.53-3.01-2.5-2.58-1.01.23-1.91.19-2.85-.17-1.76-.68-3.36-.27-4.86.76-2.13,1.45-4.2,3.04-5.78,5.06-1.88,2.41-3.42,5.06-4.23,8.06-.14.51-.46,1.25.07,1.53.74.39,1.03-.49,1.32-.94,1.16-1.79,2.57-3.41,3.51-5.36.92-1.9,4.52-3.4,5.98-2.22,1.88,1.52,2.63.62,3.53-.86.19-.32.41-.91.94-.58.34.21.1.67.02,1.02-.42,1.78-1.87,2.45-3.34,3.13-.47.22-1.17.44-.88,1.16.23.56.84.44,1.3.29,1.17-.37,2.34-.32,3.41.17.79.36,2.03-.38,2.29.51.26.89-.92,1.46-1.48,2.17-.26.34-.62.67-.35,1.13.25.42.71.44,1.14.45,1.14.01,1.98-.62,2.66-1.43,1.01-1.2,1.94-2.47,2.9-3.71-.67,2.37-2.24,4.07-3.81,5.77-.94,1.02-1.96,1.63-3.4,1.06-.44-.18-1.03-.35-1.3.22-.26.55.28.87.6,1.22,1.51,1.72,3.69,2.16,5.73,2.63,1.51.35,2.44-1.19,3.55-2,.49-.36.92-.8,1.37-1.22,2.63-2.45,2.16-4.77,1.12-7.74-.13-.37-.32-.91-.9-.41Z"/>
      <path class="cls-1" d="M297.24,255.71c.47-.84.9-1.9-.29-2.58-1.14-.64-1.87.16-2.44.98-.83,1.21-1.56,2.49-2.37,3.71-.28.42-.48,1.28-1.1.96-.55-.28-.1-1.02.08-1.5.65-1.78,1.27-3.6,2.44-5.12.65-.85.63-1.36-.36-1.84-2.93-1.39-5.71-3.07-8.79-4.17-6.86-2.46-13.71-4.94-20.12-8.47-1.47-.81-2.96-.99-4.61-.74-2.89.45-5.69,1.46-8.69,1.27-5.99-.39-11.92-1.28-17.84-2.27-1.16-.2-2.43-.59-3.34.28-1.44,1.37-3.27,1.63-5.01,2.08-1.47.37-3.19.86-4.5.09-3.57-2.09-7.22-4.13-7.96-8.94-.82-5.32-2.03-10.58-3.09-15.86-.52-2.6-1.78-3.65-4.45-3.69-1.03-.01-2.08.1-3.1.27-1.89.31-3.88,1.22-4.99-1.36-.1-.23-.55-.28-.76-.49-.99-.98-2.85-1.48-1.91-3.54.19-.43-.33-.77-.68-.99-3.41-2.14-7.26-3.19-11.09-4.16-1.05-.27-2.15-.4-3.05-.99-2.86-1.88-5.94-3.2-9.29-3.92-.94-.2-1.83-.17-2.68.24-.29.14-.83.35-.4.77,1.35,1.31-.08,2.43-.2,3.64-.03.29-.42.6-.69.35-1.55-1.47-1.91.27-2.34.98-1.75,2.93-3.38,5.94-5.01,8.95-.72,1.32-1.64,2.53-3.24,2.2-1.46-.3-2.01-1.68-2.15-3.1-.1-1.01-.25-2-1.12-2.61-3.68-2.58-4.94-6.57-6.2-10.56-1.07-3.38-2.62-6.34-6.14-7.79-.38-.16-.8-.44-.98-.78-.67-1.23-1.77-1.39-2.98-1.34-5.21.23-9.78,1.61-12.4,6.68-.28.55-.96,1.48-1.43,1.17-.65-.42.28-1.12.42-1.72.09-.43.78-.88.27-1.25-.28-.21-.95.02-1.4.16-.26.08-.46.37-.66.6-.33.37-.69.55-1.1.17-.32-.3-.22-.64,0-.99,1.19-1.86-.79-2.11-1.58-2.76-.9-.75-1.68-.07-2.14.9-.37.79-.63,1.58-.62,2.47,0,.43-.07.9-.58,1.03-.51.13-.77-.27-1.04-.61-1.02-1.29-.91-2.77.52-3.83,1.27-.95.84-1.34-.3-1.82-1.72-.72-3.53-1.01-5.34-1.31-.35-.06-.83-.07-.89-.5-.06-.47.41-.53.75-.64,2.53-.87,5.09-.42,7.64-.17.51.05.98.39,1.08.89.47,2.5,2.73,2.91,4.47,3.94,1.57.92,2.86.74,4.32-.4,3.44-2.68,7.48-3.49,11.76-3.32,1.22.05,2.42.93,3.58.52,1.42-.5.81-2.15,1.3-3.22.18-.39.29-.86.81-.89.51-.02.76.39.91.79.48,1.21,1.26,2.24,1.94,3.32.74,1.17.9,2.42.12,3.64-.75,1.19-.63,2.32.11,3.44.35.52.42,1.47,1.33,1.25.72-.17.71-.95.71-1.55-.03-2.76,1.33-4.92,2.99-6.93.74-.9,1.42-1.67.56-2.89-.87-1.24-1.86-2.19-3.5-1.71-1.34.39-2.64.56-3.91-.16-.48-.27-1.17-.63-.99-1.19.49-1.54-.22-3-.11-4.53.66-8.6,1-17.23,1.77-25.82.58-6.4-.72-13.07,2.52-19.13.08-.14.1-.46.03-.51-.4-.27-.47.18-.66.37-.2.21-.36.63-.69.43-.3-.18-.1-.57.04-.83.2-.37.41-.77.7-1.07,2.02-2.07,3.05-4.74,4.18-7.29.65-1.46,1.78-2.69,2.1-4.24.53-2.54.83-4.98.17-7.72-.56-2.32.22-5.1.91-7.54,1.04-3.65,2.21-7.27,3-10.97,1.25-5.82,3.56-11.46,3.12-17.58-.02-.24-.02-.6.12-.7,1.72-1.29.88-2.9.43-4.33-1.16-3.68-2.22-7.38-2.87-11.2-.41-2.45.11-4.57,1.51-6.59,1.19-1.73,1.74-3.64.79-5.72-.39-.85-.45-1.79-.39-2.71.11-1.68-.61-2.88-2.11-3.51-1.89-.8-3.61-1.61-2.64-4.42-.91.62-.52,1.46-1.45,1.98.58-2.98,1.21-5.72,2.39-8.22.39-.84,1.51-1.39,1.78-2.53.41-1.68,1.19-3.2,2.1-4.67.25-.41.34-1,.97-.92,1.98.24,1.43-.94,1.08-1.93-.46-1.29-1-2.6-.19-3.88.8-1.28,1.44-2.67,2.77-3.6,1.22-.85,1.96-2.19,2.57-3.53.87-1.91-.14-4.2-2.2-4.65-6.48-1.42-12.99-1.9-19.38.45-5.35,1.97-9.58,5.01-10.09,11.33-.25,3.06-.93,6.03-1.81,8.97-.17.56-1.26,1.76.71,1.45.4-.06.74.76.5.99-.62.59.21,2.87-1.95,1.75-.41-.21-.62.31-.74.63-.33.85-.67,1.71-.92,2.59-.33,1.16-1.13,2.32-.57,3.54.92,2.01.97,4.03.35,6.1-.16.54.08,1.44-.76,1.47-.79.03-.97-.8-1.23-1.41-.09-.22-.19-.44-.28-.66-.38,2.85,1.13,5.01,2.74,7.07,1.02,1.3,2.17,2.4.83,4.17-.21.28-.04.97.13,1.41.52,1.34.3,2.62-.06,3.95-1.09,4.08-2.32,8.14-3.12,12.28-2.26,11.78-4.36,23.6-6.48,35.41-.6,3.37-1.08,6.77-1.57,10.16-.07.5-.43,1.21.14,1.51.47.25.76-.47,1.16-.72.56-.36,1.1-.8,1.71-1.05.56-.23.92.15.62.66-.62,1.04-1.15,2.42-2.11,2.92-1.58.83-1.94,2.11-2.22,3.55-.32,1.6-1.25,2.92-1.85,4.38-.09.22-.31.48-.56.35-.28-.15-.08-.42.02-.64.48-1.12.99-2.24,1.43-3.38.16-.41.71-1.01.17-1.27-.43-.21-.76.54-.95.94-2.36,4.98-6.2,8.92-9.31,13.38-3.18,4.58-6.15,9.21-7.62,14.76-2.24,8.46-4.74,16.85-6.77,25.37-.41,1.73-.62,3.59-1.45,5.11-3.1,5.71-3.8,7.1-9.7,4.99-4.67-1.67-9.41-3.13-14.13-4.66-3.55-1.15-7.26-1.94-10.53-3.77-1.74-.97-4.3-1.1-4.82-3.75-.15-.77-.69-1.31-1.53-1.37-.2-.02-.56.12-.61.26-.24.82.47,1.18.91,1.65.57.62.81,1.35.9,2.16.06.59-.07,1.18-.67,1.38-1.87.62-3.84.91-5.78.62-1.54-.23-1.67-1.99-2.41-3.05-.72-1.04.06-2.18.79-2.98.81-.89,1.23.15,1.7.63.38.39.81.68,1.24.14.45-.56.13-1.07-.35-1.42-1.98-1.43-2.19-3.39-1.77-5.58.23-1.2.36-2.42.63-3.61.37-1.66.23-3.17-1.01-4.44-.91-.93-1-2.03-.77-3.24,1.64-8.91,3.22-17.84,4.92-26.74.94-4.93,1.94-9.88,4.52-14.29,1.15-1.96,1.37-3.72-.76-5.21-.48-.33-.83-.91-1.12-1.44-2.03-3.75-5.42-5.12-9.43-5.3-2.22-.1-4.39-.45-6.54-.91-1.11-.24-3.02-.3-2.79-1.67.21-1.24,2.05-.82,3.25-.79,1.54.03,2.96.84,4.52.73.42-.03.93,0,1.12-.47.24-.59-.27-.88-.66-1.16-1.07-.77-2.37-.95-3.59-1.36-.34-.12-.76-.25-.72-.71.04-.45.46-.53.82-.59,1.77-.28,3.48-.42,5.13.67,2.11,1.38,2.73,1.18,4.2-.9.14-.2.26-.41.42-.6.5-.61.93-1.49,1.76-.27.45.66.72.12.87-.28.48-1.33.9-2.67.8-4.12-.05-.81-.49-1.35-1.21-1.7-.77-.37-1.28-.02-1.74.55-.61.75-1.43.92-2.32.69-1.19-.3-2.22.15-3.34.37-.92.18-1.37-1.68-2.58-1.94-.3-.06-.59-.17-.89-.21-3.35-.44-6.71-.48-10.08-.41-1.19.02-1.9.54-2.37,1.65-1.17,2.75-1.72,5.61-1.78,8.57-.04,1.76-.91,2.9-2.59,2.87-2.7-.05-5.34.79-8.05.38-1.22-.19-1.8.41-1.95,1.61-.45,3.65-1.01,7.28-1.41,10.93-1.03,9.37-1.78,18.77-3.19,28.1-1.79,11.81-3.09,23.66-3.5,35.61-.3,8.75,3.92,14.98,10.63,19.56,9,6.14,18.65,11.28,27.82,17.17,6.39,4.1,12.84,8.09,19.02,12.51,6.07,4.34,12.06,8.84,18.9,11.99.5.23,1.03.45,1.33.95,1.26,2.14,3.44,2.63,5.6,3.15.29.07.64.13.84-.17.26-.4-.02-.69-.3-.94-.43-.38-1.24-.64-.57-1.4.6-.68,1.43-1.01,2.32-.76.78.22.6.95.55,1.56-.12,1.34-.3,2.68-.36,4.02-.24,4.87,1.09,8.94,5.79,11.28.79.4,1.47.95,1.74,1.8.68,2.13,2.26,2.97,4.3,3.49,3.85.97,7.75,1.89,11.23,3.93.44.26,1.33.44,1.05,1.02-.25.51-1.02.03-1.48-.19-3.79-1.77-7.88-2.68-11.79-4.1-.75-.27-1.68-.92-2.36-.02-.76,1.01.03,1.87.67,2.6,1.25,1.43,2.58,2.78,3.84,4.21,2.22,2.53,4.45,5.06,6.16,7.99.28.48.7,1.03,1.28.87.69-.19.08-.7.04-1.06-.07-.65.34-.76.81-.66.59.13,1.17.34,1.75.54,4.45,1.57,8.7,3.62,13.06,5.42,2.34.97,3.87.37,4.66-1.98.61-1.81,1.75-2.14,3.34-2.11,1.69.04,2.77.68,3.48,2.38,1.94,4.63,3.62,9.38,6.05,13.79,1.53,2.78,1.42,5.51.91,8.51-.94,5.47-2.29,10.87-2.95,16.4-.31,2.56.04,5.14-.57,7.68-.65,2.71-.87,5.43.51,8.05.54,1.03.73,2.2.9,3.36.96,6.57,3.18,12.67,6.75,18.28.26.41.72.79.37,1.31-1.18,1.76-.21,3.71-.53,5.54-.11.6.35.65.83.67,1.84.05,2.02,1.36,1.85,2.72-.23,1.83.29,2.43,1.92,1.6,2.68-1.37,5.58-1.27,8.41-1.65.8-.11,1.59,0,2.35.28.28.1.64.22.58.59-.06.38-.45.38-.74.34-1.49-.21-2.93.03-4.37.38-1.58.38-2.32,1.52-2.56,3.02-.17,1.08.08,1.64,1.4,1.24,2.39-.73,4.86-.59,7.27-.14,2.66.5,3.8-.47,3.42-3.21-.15-1.1-.33-2.2-.08-3.29,1.32-5.72.19-11.46.12-17.18-.06-4.78-1.15-9.34-3.62-13.5-.35-.6-.41-1.25-.28-1.95.77-4.12,1.05-8.37,3.18-12.14.36-.63.54-1.37.72-2.08.94-3.63.13-5.33-3.24-6.94-.77-.37-1.52-.79-2.29-1.18-.47-.24-.97-.71-1.5-.24-.49.43-.19,1.02-.12,1.56.08.63.79,1.63.21,1.79-.71.21-.91-.94-1.21-1.57-.18-.38-.3-.8-.42-1.22-.49-1.76-1.76-2.58-3.46-2.86-1.15-.19-2.52.21-3.11-1.35-.43-1.14-1.08-2.2-1.45-3.36-.29-.92.09-2.08,1.17-1.68,2.34.88,4.99,1.51,6.24,4.07.75,1.54,1.73,2.79,3.19,3.69.77.48,1.43.7,1.99-.28.35-.63.93-.57,1.59-.58,2.11,0,2.85,1.96,4.34,2.78,1.55.86,2.45,1.72,1.68,3.59-.25.61.13,1.21.71,1.55.61.34,1.05-.07,1.45-.45.71-.67,1.43-1.34,2.11-2.05,1.27-1.33,2.74-1.7,4.5-1.15,3.88,1.2,7.89.94,11.86.79,3.31-.13,5.58-3.12,5.27-6.41-.06-.65.07-1.34.21-1.99.49-2.25.25-4.51.24-6.77,0-.29,0-.7-.34-.77-.38-.08-.46.33-.56.6-.34.92-.61,1.86-.97,2.77-.31.79-.12,2.19-1.11,2.15-.53-.02-.18-1.53-.09-2.36.52-4.41,2.58-8.3,4.45-12.2,2.78-5.79,6.73-10.51,13.34-12.28,2.44-.65,4.47-2.24,6.79-3.19,1.52-.62,1.53-1.53.59-2.7-.92-1.15-1.8-2.32-2.66-3.51-.33-.46-.54-1.01-.11-1.52.42-.49.88-.21,1.32.03.41.23.83.72,1.29.23.4-.43.08-.95-.14-1.37-1.26-2.37-2.35-4.83-4.3-6.79-1.64-1.64-2.79-3.72-4.49-5.33-.22-.21-.41-.49-.28-.82.11-.27.41-.34.61-.22,1.58,1,3.78.76,5.09,1.83,2.03,1.67,4.03,3.49,5.03,6.19,1.36,3.67,2.74,7.35,4.76,10.73.5.83.31,1.5-.13,2.22-.94,1.57-.66,3.32-.66,5.02,0,.69.4,1.3,1.11,1.55.72.26,1.14-.25,1.57-.69,1.89-1.92,3.9-3.74,4.94-6.32.3-.75.8-1.38,1.68-1.56,1.37-.28,2.44-1.1,3.49-1.95,2.09-1.7,4.16-3.42,6.26-5.11.77-.62,1.62-1.26,2.64-1.12,2.11.29,3.96-.4,5.84-1.2,1.12-.48,2.34-.71,3.52-1.03.29-.08.69-.18.85.12.23.44-.18.72-.5.83-1.53.55-2.87,1.67-4.62,1.57-.41-.02-1.05-.17-1.13.3-.1.55.59.52.95.59,2.34.45,4.71,1.25,7.05,1.2,5.76-.14,11.3,1.27,16.94,1.96,3.21.39,6.38,1.06,9.66.91,1.24-.06,2.72-.46,3.89.53.57.49,1.13,1.05,1.94.69.85-.38,1-1.25.95-2.04-.17-2.84.48-5.45,1.87-7.92ZM88.27,231.87c-3.94,1.1-7.29-.86-10.78-2.06-.34-.12-.67-.39-.58-.83.09-.43.47-.54.84-.55.61-.02,1.22,0,2.23,0,2.48.14,5.32.72,8.21.67.77-.01,1.52.27,1.57,1.2.05.98-.65,1.34-1.48,1.58ZM103.9,184.21c-1.47,0-2.93,0-4.4,0-1.89.02-3.79-.24-5.67.13-.22.04-.6.04-.66-.08-.17-.33.11-.6.38-.71.44-.18.92-.37,1.39-.39,2.99-.14,5.98-.05,8.96.31.33.04.86-.03.79.49-.04.31-.51.24-.8.24ZM117.02,252.17c-.26.83-1.06,1.15-1.9,1.08-.9-.08-1.52-.69-2.1-1.31-.26-.28-.36-.64-.13-.99.3-.47.79-.5,1.5-.53.32.08.86.16,1.36.36.63.26,1.59.41,1.28,1.41ZM118.21,200.71c-.26,1.03-.95,1.81-1.59,2.62-.2.25-.78.63-.06.91.33.13,1.11-.52.93.42-.14.74-.82,1.16-1.61,1.3-1.16-.36-1.6-1.23-1.23-2.26.52-1.44,1.6-2.56,2.63-3.67.2-.22.51-.4.8-.16.27.22.2.55.13.85ZM139.7,198.42c.98.15,1.48.77,1.44,1.64-.06,1.16-.84,1.96-1.93,2.13-1.03.16-1.36-.7-1.31-1.56.06-1.15.68-1.92,1.81-2.21ZM134.89,211.63c.42-.94.97-1.82,1.54-2.68.33-.5.81-1.01,1.51-.77.77.26.79,1,.83,1.67-.05,1.12-.51,2.13-.97,3.12-.37.8-.93,1.33-1.87.86-.89-.45-1.52-1.14-1.04-2.2ZM134.94,266.27c-.32.2-.57-.03-.78-.27-.04-.04-.07-.1-.12-.14q-2.03-1.92-3.06,1.06c-.31-2.54-.26-4.57-.08-6.59.07-.78.57-.56,1.02-.15,1.58,1.44,2.43,3.31,3.16,5.26.11.29.17.63-.14.83ZM142.28,222.82c-.33.7-1.1.14-1.62-.09-2.11-.96-4.38-1.54-6.34-2.87-1.22-.83-1.46-1.87-1.11-3.18.08-.3.22-.57.67-.69.12.1.36.22.46.41,1.43,2.75,4.05,3.97,6.68,5.17.06.03.12.04.16.08.44.34,1.45.44,1.1,1.17ZM158.34,358.59c1.45-.7,3.02-.87,4.61-.95.62.13,1.72-.25,1.77.35.05.63-1.06.47-1.67.61-1.48.34-2.97.6-4.46.89-.35.07-.84.32-.99-.06-.22-.54.39-.67.74-.84ZM161.15,295.52c-.22.15-.71,0-1.03-.13-1.37-.55-2.57-1.4-3.68-2.36-1.27-1.1-2.28-2.41-4.13-2.82-1.4-.31-1.59-1.54-.6-2.59,1.02-1.08.54-2.12.16-3.22-.14-.4-.54-.9.13-1.23.51.08.79.43.97.81.71,1.49,2,2.41,3.21,3.44,2.22,1.89,3.82,4.26,4.92,6.95.15.36.51.85.05,1.15ZM165.7,293.77c-.63.32-1.44.29-1.88,1.01-.12.19.09.97-.54.48-.31-.24-.54-.82-.06-1.11,1.45-.89,2.94-1.72,4.43-2.53.32-.17.56.01.6.41-.67.88-1.63,1.28-2.55,1.74ZM179.66,302.04c-.69,1.85-3.87,4.01-5.77,3.96-.37,0-.76-.03-.97-.38-.25-.4.02-.7.3-.94,1.59-1.41,3.16-2.86,4.96-4.02.46-.3,1.02-.57,1.52-.13.53.47.15,1.03-.03,1.52ZM183.14,302.94c-.32.29-.9.25-.85-.18.29-2.25-1.84-3.38-2.32-5.24-.09-.36-.78-.72-.15-1.06.9-.48,1.67-1.43,2.78-1.22.69.13.47.92.4,1.43-.2,1.57.81,2.79,1.16,4.09-.03.96-.43,1.64-1.03,2.19ZM179.77,212.94c-4.32-3.13-9.29-3.82-14.34-4.41-.6-.07-1.23-.06-1.8-.24-1.69-.53-1.81-1.1-.9-2.61.87-1.44,1.59-2.8,3.69-2.65,1.11.08,1.77-.95,2.09-2.03.21-.7.35-1.43.65-2.1.59-1.31,1.98-1.82,3.21-1.19,1.37.7,1.08,1.68.45,2.76-.81,1.41-.52,2.61.93,3.4,3.08,1.69,5.71,3.96,8.31,6.28.52.46.86,1.02,1.26,1.56,1.24,1.69,2.33,1.93,4.04.96.65-.37,1.44-1.16,1.98-.02.45.97.18,2.02-.9,2.46-.77.32-1.66.34-2.4.48-2.48-.15-4.48-1.36-6.26-2.65ZM204.53,230.85c-1.13-.29-2.26-.52-3.4-.75-.28-.05-.76-.08-.83.05-.17.32.22.51.44.69,1.19.94,2.39,1.87,3.58,2.81-.11.13-.21.25-.32.38-6.5-4.13-11.42-9.97-16.66-15.66,1.44.36,1.5.41,3.07,2.33,1.8,2.2,2.18,2.18,3.61-.18.93-1.52,1.8-3.07,2.37-4.76.65-1.94,2.18-2.1,3.84-2.07,1.63.02,2.23,1.15,2.49,2.48.9,4.56,1.59,9.17,2.83,13.66.26.93-.06,1.27-1.03,1.02ZM215.11,269.65c.39-1.17,1.18-2.18,2.51-2.44.64-.12,1.24.15,1.34.93.13,1.01-1.27,2.02-2.89,2.07-.37-.06-1.21.19-.96-.57ZM211.7,237.73c.21-1.26,1.43-1.36,2.4-1.6.64-.16,1.16.31,1.06.92-.21,1.22-1.35,1.2-2.19,1.44-.63-.03-1.39-.03-1.27-.76ZM213.2,240.56c.43-1.4,1.89-1.42,2.99-1.62,1.36-.25,1.73.97,1.8,2.01.09,1.33-.97,1.66-1.93,1.84-1.14.04-3.1-1.45-2.86-2.23ZM225.94,254.26c-.09.08-.21.24-.36.29-.52.17-.93,0-1.31-.4-.92-.97-1.88-1.91-2.79-2.89-1.66-1.78-3.3-3.58-4.95-5.37-.4-.44-.65-.91-.25-1.47.33-.46.79-.79,1.38-.77.59.02.9.47.91.97.04,4.42,3.85,6.03,6.39,8.57.86.86,1.02.79.98,1.06Z"/>
      <path class="cls-1" d="M148.23,383.04c-1.28-1.39-2.72-2.62-3.56-4.39-.36-.75-.12-2.33-1.12-2.12-.93.2-.74,1.77-.9,2.78-.06.35.02.73.09,1.09.08.48-.07.77-.49,1.06-1.65,1.13-2.57,2.9-3.72,4.45-.57.77-.42,1.37.38,2.01,1.68,1.34,3.47,2.26,5.29,2.07,1.37.16,2.03-.29,2.5-1.1.47-.82.51-1.63-.05-2.41-.64-.89-1.33-1.75-1.97-2.64-.27-.38-.71-.89-.28-1.3.49-.47.86.14,1.21.43.51.43.95.95,1.49,1.35.52.39,1.2,1.01,1.77.38.6-.67-.2-1.21-.62-1.67Z"/>
    </g>
  </g>
</svg>