<svg width="300" height="300" viewBox="0 0 300 300" fill="none" xmlns="http://www.w3.org/2000/svg">
<g clip-path="url(#clip0_225_586)">
<path d="M122.502 141.495C125.662 134.062 120.696 129.693 120.068 124.356C119.745 121.551 115.989 122.067 112.99 121.051C114.779 120.406 115.714 120.084 116.827 119.681V116.005C115.311 113.296 110.523 114.005 110.491 109.588C111.41 109.265 112.329 108.943 113.731 108.459C112.474 106.347 111.281 104.299 109.781 101.784C109.249 103.332 108.943 104.267 108.588 105.299C108.217 105.218 107.605 105.218 107.524 105.009C106.782 103.155 106.137 101.268 105.106 98.4146C106.218 98.0276 107.54 97.5762 108.653 97.1892C108.62 97.1247 109.12 98.1405 109.62 99.1723C109.942 98.7854 110.442 98.4791 110.523 98.076C111.007 95.5931 109.555 92.8521 111.829 90.4982C112.441 89.8533 112.377 87.5477 111.732 86.8866C109.41 84.5004 110.926 81.7757 110.603 79.2605C110.442 78.019 110.345 76.181 111.071 75.5038C113.941 72.8113 110.942 69.0547 113.602 65.9429C117.649 61.1866 120.164 55.5114 126.307 52.2062C130.999 49.691 136.174 48.8365 140.834 46.2729C144.703 44.1447 149.411 47.0307 153.716 47.7562C156.183 48.1593 158.408 49.8683 161.133 49.2557C162.858 52.1094 168.211 49.433 168.856 54.5924C169.017 55.8983 172.403 56.7851 174.37 57.8976C176.611 61.0093 178.965 64.2984 181.528 67.8615C181.27 71.7956 181.415 75.9069 184.737 79.0993C184.737 83.9361 184.737 88.773 184.737 93.5293C186.059 95.2222 187.333 96.8668 188.832 98.7854C188.493 100.398 187.994 102.768 187.462 105.331C186.365 104.864 185.14 104.364 183.447 103.655V112.957C182.286 113.361 181.367 113.683 180.448 114.005C179.916 115.876 179.368 117.746 178.787 119.777C179.094 120.261 179.658 121.083 180.513 122.389C179.287 122.938 178.465 123.325 177.272 123.857C176.24 125.84 174.982 128.274 173.483 131.176V138.657C178.336 141.35 179.948 146.445 182.625 151.266C188.461 154.458 194.604 157.812 200.811 161.197V164.938C198.973 165.131 196.99 165.325 194.781 165.551C194.636 166.212 194.475 166.937 194.185 168.243C193.25 168.356 192.008 168.485 190.493 168.662C190.541 168.646 190.154 168.695 190.106 168.856C188.751 173.66 184.995 174.612 180.706 175.144C179.803 175.257 179.158 177.095 178.288 178.03C177.353 179.029 176.288 179.9 174.805 181.254V184.366C174.015 184.495 173.515 184.576 173.015 184.656C172.628 184.35 171.871 183.995 171.919 183.737C172.37 180.19 172.967 176.659 173.467 173.112C173.967 169.565 172.37 165.825 174.966 162.407C175.74 161.391 175.079 159.279 175.079 157.666C175.079 152.152 175.079 146.638 175.079 141.124C173.983 145.784 171.951 149.831 170.516 154.119C169.372 157.537 168.291 159.053 164.809 158.94C164.228 158.924 163.616 159.891 162.616 160.73C162.374 158.505 162.149 156.522 161.858 153.942C159.392 155.506 157.183 156.925 154.329 158.747H145.864C141.689 156.135 137.674 153.636 132.901 150.653C133.353 152.314 133.643 153.394 133.804 153.958C132.627 155.296 131.37 156.747 130.451 157.795C129.08 156.103 127.146 153.716 125.211 151.33C125.372 151.266 125.533 151.201 125.695 151.137C124.856 149.331 124.034 147.525 123.05 145.413C122.438 146.397 121.938 146.816 121.938 147.235C121.97 149.879 121.245 153.055 122.454 155.022C123.937 157.457 123.083 159.633 123.502 161.891C123.953 164.374 122.389 167.292 125.082 169.291V190.38C122.228 184.189 119.906 179.142 117.794 174.547C113.554 172.693 109.91 171.113 105.863 169.339C107.25 164.164 102.574 163.938 98.1404 162.729C102.074 159.972 104.896 157.57 108.088 155.877C111.152 154.265 113.941 152.781 115.924 149.669C117.988 146.413 120.793 143.607 122.551 141.463L122.502 141.495ZM130.451 108.604H122.97C120.825 107.911 120.729 105.428 118.294 106.315C119.729 110.265 121.615 113.731 123.308 117.311C125.066 121.051 127.275 124.292 129.806 127.517C131.757 129.983 132.773 133.192 134.32 136.304C136.11 136.578 138.754 135.336 140.399 137.932C140.608 138.271 140.721 138.674 141.624 140.721C140.56 141.011 138.883 141.479 137.48 141.882C139.238 145.397 140.576 148.057 141.689 150.298C144.429 150.943 146.88 151.54 148.557 151.943C152.152 151.378 155.135 150.911 157.586 150.54C159.633 148.476 161.488 146.622 163.664 144.446C169.694 135.352 171.484 123.599 177.868 114.376V103.284C173.725 109.41 167.147 105.605 163.213 108.298C155.587 107.153 154.942 98.5597 148.202 95.3351C147.122 97.9631 146.203 100.188 145.284 102.413C141.527 102.365 142.462 106.895 139.738 108.088C137.577 109.04 135.755 110.749 133.837 112.087C132.595 110.813 131.66 109.862 130.451 108.637V108.604ZM177.417 86.677C177.304 83.8878 176.562 81.7273 177.272 80.2601C179.062 76.5841 178.32 73.4401 176.724 70.0381C175.676 67.7971 175.144 65.298 174.112 62.0412C170.726 58.8327 170.5 59.3809 164.454 56.7851C162.181 55.8177 160.633 59.2035 158.553 56.4304C157.441 54.9471 154.555 54.6568 152.394 54.1248C151.137 53.8184 149.508 53.6411 148.444 54.1893C144.01 56.4787 139.302 56.9785 134.433 57.43C131.563 57.688 128.822 59.3164 126.049 60.3966C125.695 60.5417 125.517 61.106 125.291 61.4285C125.807 62.0573 126.291 62.6538 126.614 63.0569C126.065 65.2335 125.936 67.3779 125.001 69.0708C123.663 71.5053 127.452 73.1338 125.324 76.0198C124.034 77.7611 125.082 81.2114 125.082 84.6133C124.243 85.2099 122.986 86.1127 121.841 86.935C122.841 88.0314 123.55 88.8214 124.227 89.5792C130.064 86.5964 136.207 88.4828 141.946 87.8863C143.091 89.031 144.026 89.9661 145.252 91.1915C146.751 88.9343 148.67 89.1277 150.83 90.2725C150.218 91.0464 149.782 91.5784 149.363 92.1266C150.266 92.965 150.991 93.6583 152.072 94.674C152.362 92.8199 152.588 91.3366 152.829 89.7243C154.587 88.6602 156.328 87.6283 158.344 86.4191C162.842 85.8225 167.985 87.5477 171.822 85.0003C174.096 85.6774 175.756 86.1772 177.433 86.677H177.417Z" fill="#EEEEEE"/>
<path d="M136.094 210.614H131.757V216.66C130.064 216.757 128.629 216.854 126.92 216.951V194.862C128.693 193.137 131.725 195.346 134.014 193.072C134.901 192.186 138.158 193.701 140.882 194.217C141.705 197.555 142.543 200.924 143.365 204.197C140.979 206.309 138.996 208.051 136.11 210.598L136.094 210.614ZM131.805 197.797V205.116C132.66 205.971 133.224 206.535 133.675 206.987C135.223 205.665 136.787 204.359 138.109 203.23C137.282 199.833 135.18 198.022 131.805 197.797Z" fill="#EEEEEE"/>
<path d="M161.246 205.632C160.117 207.696 159.44 208.954 158.715 210.276H150.798C148.783 208.228 146.38 205.793 144.204 203.585C145.236 200.57 146.026 198.216 146.913 195.636C148.783 194.652 150.782 193.621 153.152 192.379C155.49 193.556 157.924 194.781 160.359 196.007V202.343H151.04V205.648H161.246V205.632Z" fill="#EEEEEE"/>
<path d="M84.5972 188.058V192.186C81.7273 193.814 77.9384 191.089 75.4232 195.023V201.988C76.3583 202.827 77.7449 204.068 79.6152 205.729H86.7899C85.9837 207.503 85.4355 208.744 84.839 210.034C80.4213 211.05 76.5196 210.679 73.166 207.712C70.8281 205.648 68.2968 202.988 68.8934 200.038C69.4416 197.313 69.6189 194.072 71.989 191.75C75.4071 188.397 79.4378 187.413 84.5972 188.058Z" fill="#EEEEEE"/>
<path d="M122.551 207.535C116.166 211.759 111.651 210.921 107.476 206.567V198.457C109.168 197.006 111.168 195.314 113.844 193.04C116.564 192.933 119.842 194.163 123.679 196.732C123.308 200.263 122.889 204.213 122.551 207.535ZM118.633 204.826C118.568 201.763 119.407 198.232 114.924 197.522C111.732 199.376 111.829 202.166 112.441 205.068C113.796 205.713 115.102 206.358 116.456 207.003C116.924 206.535 117.488 205.971 118.633 204.826Z" fill="#EEEEEE"/>
<path d="M206.487 210.469H199.489C197.716 207.825 195.765 204.923 194.12 202.456C195.378 196.7 198.361 193.766 204.068 192.444C206.551 194.088 209.469 196.039 211.952 197.684C212.936 203.665 210.034 207.212 206.471 210.469H206.487ZM201.65 197.555C200.94 198.973 200.231 200.441 199.522 201.859C200.747 203.697 201.94 205.487 202.972 207.051C204.665 205.584 206.067 204.391 207.341 203.278C206.761 199.946 204.858 198.038 201.634 197.555H201.65Z" fill="#EEEEEE"/>
<path d="M89.3857 207.809C88.8375 205.1 88.1765 201.908 87.4348 198.28C90.5143 196.184 93.3842 194.233 96.4476 192.154C99.1723 193.572 101.575 194.83 103.945 196.071V206.664C99.9462 210.518 95.5285 212.065 89.3696 207.825L89.3857 207.809ZM99.124 197.49C95.5017 197.985 93.4433 199.629 92.9489 202.424C94.7063 203.939 96.1896 205.213 97.6568 206.471C97.8341 206.293 98.3984 205.729 99.124 205.004V197.49Z" fill="#EEEEEE"/>
<path d="M176.675 196.539C179.142 188.445 184.334 187.3 190.847 188.058V192.653H183.415C182.593 195.717 181.819 198.619 181.125 201.214C182.883 202.972 184.221 204.31 185.817 205.906H192.653V210.227H184.64C176.192 207.777 176.353 201.489 176.675 196.539Z" fill="#EEEEEE"/>
<path d="M229.865 198.974V210.195C228.446 210.308 226.995 210.405 225.27 210.534V197.861C223.609 197.732 222.158 197.635 220.433 197.506V208.083C219.063 209.083 217.87 209.969 216.838 210.743C216.096 210.082 215.419 209.76 215.419 209.421C215.338 206.761 215.548 204.068 215.306 201.44C215.129 199.489 214.403 197.587 213.807 195.217C215 194.556 216.451 193.734 217.918 192.911C218.353 193.314 218.934 193.846 219.546 194.427C221.417 193.782 223.271 193.137 225.77 192.282C226.866 194.072 227.963 195.878 229.865 198.99V198.974Z" fill="#EEEEEE"/>
<path d="M151.298 185.882C152.185 186.188 153.104 186.51 154.039 186.833V190.622H147.38C148.67 187.091 149.847 183.866 151.379 179.723C149.605 180.206 148.46 180.287 147.557 180.803C145.59 181.915 144.913 184.898 141.721 184.672C142.334 179.658 146.687 177.385 149.492 173.693C148.992 172.741 148.444 171.693 147.928 170.694C148.396 170.516 149.186 170.081 149.25 170.194C152.12 174.015 157.618 175.434 159.65 182.27C157.812 180.932 157.215 180.513 156.506 179.997C154.893 181.835 153.184 183.753 151.314 185.882H151.298Z" fill="#EEEEEE"/>
<path d="M166.615 193.169C166.824 193.363 167.405 193.879 168.211 194.604C169.469 193.975 170.775 193.314 172.645 192.363C173.257 193.395 173.935 194.507 174.644 195.717C173.048 196.765 170.952 198.167 168.695 199.651V208.325C167.324 209.228 166.083 210.034 164.519 211.066C162.536 205.487 165.422 199.78 162.455 194.894C163.551 194.443 164.664 193.975 166.615 193.169Z" fill="#EEEEEE"/>
<path d="M147.815 139.044C144.881 136.803 140.883 133.756 136.868 130.677C138.432 129.951 140.447 128.145 142.076 128.452C144.478 128.903 146.413 125.808 148.686 127.984C150.734 125.775 152.427 126.388 154.845 127.871C156.538 128.919 159.408 128.032 160.698 131.725C157.57 131.209 154.942 130.773 151.491 130.209C151.459 130.241 150.653 130.838 149.686 131.58C148.251 130.967 146.719 130.29 143.72 129C144.946 131.789 145.59 133.224 146.09 134.369C149.17 135.385 150.798 131.354 153.797 133.385C155.554 134.578 158.054 134.659 160.391 135.288V137.368C156.554 137.868 152.83 138.351 147.815 139.012V139.044Z" fill="#EEEEEE"/>
<path d="M141.221 119.407V115.424C142.656 115.779 143.913 116.085 145.606 116.489C145.703 116.408 146.251 115.924 147.025 115.247C147.332 116.214 147.606 117.101 148.089 118.665C149.96 118.069 151.814 117.472 155.377 116.311C153.62 119.036 152.846 120.197 152.104 121.39C151.346 122.599 150.605 123.841 149.508 125.63C148.638 124.615 147.96 123.824 146.332 121.922C145.526 121.519 143.349 120.455 141.237 119.407H141.221Z" fill="#EEEEEE"/>
<path d="M150.008 300L0 150.008L150.008 0L300.016 150.008L150.008 300.016V300ZM11.3989 150.008L150.008 288.617L288.601 150.008L150.008 11.3989L11.3989 150.008Z" fill="#FF4040"/>
</g>
<defs>
<clipPath id="clip0_225_586">
<rect width="300" height="300" fill="white"/>
</clipPath>
</defs>
</svg>
