<svg width="360" height="656" viewBox="0 0 360 656" fill="none" xmlns="http://www.w3.org/2000/svg">
<g clip-path="url(#clip0_223_576)">
<path d="M236.291 618.986C238.183 618.784 240.093 618.582 242.787 618.304C241.62 619.274 241.129 620.037 240.484 620.173C220.425 624.424 200.398 628.966 180.243 632.691C156.419 637.087 132.258 639.941 108.653 645.234C100.74 647.018 94.2478 645.145 87.1549 644.246C63.3911 641.233 39.5316 638.688 15.923 634.707C-13.6689 629.735 -38.9389 615.588 -59.6231 594.037C-72.8391 580.257 -80.1261 562.807 -81.5383 543.937C-83.0041 524.367 -82.5236 504.644 -82.331 484.987C-82.1277 463.89 -81.2901 442.794 -80.7099 421.694C-80.5714 416.458 -82.7992 412.528 -85.2902 407.823C-97.394 385.122 -108.313 361.793 -102.031 334.635C-100.953 330.002 -101.488 324.99 -101.329 320.147C-100.634 299.281 -99.0526 278.643 -88.7948 259.679C-85.4326 253.469 -82.7973 246.8 -80.4364 240.128C-79.2415 236.74 -79.0479 232.89 -79.0154 229.237C-78.617 192.151 -78.2869 155.07 -78.0594 117.993C-77.7613 73.0612 -47.1602 37.8646 -7.61776 26.5288C15.3042 19.968 38.3775 16.6395 62.046 14.2057C107.406 9.56126 151.982 14.5409 196.588 21.0963C200.147 21.6136 203.25 24.8977 206.819 25.6203C215.17 27.3108 223.647 28.4462 232.131 29.3926C248.823 31.2484 265.722 31.8248 282.227 34.7018C308.593 39.2763 323.528 57.0987 329.082 82.0789C332.328 96.6704 333.075 111.992 333.31 127.015C334.205 182.342 334.432 237.67 334.882 293.003C335.159 328.905 335.505 364.82 335.559 400.716C335.619 440.349 335.525 479.99 335.208 519.625C334.995 547.118 323.773 568.961 301.328 585.32C285.852 596.602 269.466 604.879 250.349 608.138C245.065 609.048 240.475 614.07 235.564 617.207C235.799 617.777 236.019 618.366 236.254 618.936L236.291 618.986ZM102.646 288.908C92.2788 301.826 82.7042 313.503 73.4497 325.403C71.0555 328.476 68.2003 332.242 68.059 335.781C67.7402 343.478 62.5572 346.989 57.8147 351.385C51.6822 357.07 43.8044 361.835 47.2714 372.764C48.0296 375.142 45.5576 379.025 43.7027 381.59C42.1035 383.799 39.1641 384.964 37.0152 386.825C31.0116 392.024 32.4246 407.619 39.2145 411.585C39.9215 411.994 40.8095 412.257 41.6364 412.334C48.0438 412.908 54.4564 413.911 60.8452 413.801C68.9978 413.65 74.9939 417.847 80.7721 422.466C84.4212 425.378 85.963 429.961 82.5795 433.789C79.2122 437.599 75.6365 435.437 72.2105 432.529C68.7126 429.557 64.6339 427.284 61.2571 424.991C59.0701 429.409 58.3256 433.545 55.8764 435.232C52.1372 437.827 42.2902 434.415 38.9691 430.559C35.1003 426.063 26.2395 424.794 21.5 428.59C18.4717 431.01 16.2308 433.407 11.8147 431.237C8.38357 429.548 3.00135 430.222 0.919493 427.777C-3.95649 422.048 -9.23767 424.003 -13.3934 426.5C-19.5276 430.18 -25.0959 428.601 -30.5623 426.675C-38.6836 423.806 -39.3945 423.98 -40.1359 432.78C-41.2937 446.418 -42.779 460.021 -43.6794 473.663C-44.9335 492.69 -47.342 511.605 -44.8646 530.848C-40.1446 567.461 -18.8093 591.635 17.3269 598.821C27.3221 600.803 37.6562 601.721 47.8655 601.892C77.808 602.406 107.772 602.352 137.723 602.368C148.558 602.369 159.403 601.907 170.248 601.77C177.032 601.674 181.416 598.634 183.84 592.181C187.996 581.13 191.439 569.893 190.219 558.007C189.868 554.563 187.644 550.05 184.862 548.309C164.288 535.461 143.431 523.09 122.48 510.896C119.863 509.369 116.056 509.019 112.938 509.387C102.325 510.678 82.0601 496.51 80.5672 485.959C80.1368 482.964 80.35 479.49 81.4573 476.724C84.5665 468.95 88.954 462.018 96.5966 457.677C104.905 452.958 132.227 457.791 137.9 465.33C139.41 467.326 139.928 470.024 141.208 472.221C142.317 474.083 143.542 476.214 145.278 477.289C157.163 484.607 169.176 491.747 181.235 498.798C183.482 500.121 186.09 500.826 189.838 502.345C189.794 491.975 189.648 483.239 189.775 474.507C189.853 469.428 188.705 465.819 183.018 464.264C179.227 463.227 175.548 461.053 176.37 455.782C178.044 445.134 179.51 434.445 181.321 423.808C181.726 421.386 182.664 417.669 184.263 417.105C190.609 414.855 189.735 409.929 189.662 405.235C189.108 369.279 188.451 333.329 187.897 297.373C187.457 268.869 187.171 240.357 186.731 211.853C186.69 209.747 185.946 207.642 185.419 205.098C183.58 205.674 182.367 205.755 181.523 206.347C162.497 219.888 143.563 233.561 124.481 247.019C119.884 250.259 115.065 253.528 109.873 255.547C99.3053 259.681 93.6558 256.872 88.8722 246.338C88.1748 244.797 87.4413 243.224 86.4612 241.852C76.9693 228.478 77.8614 224.214 92.1127 215.756C93.3431 215.024 94.7066 214.541 95.9011 213.776C110.255 204.662 124.591 195.531 138.908 186.35C139.522 185.958 139.78 185.002 140.206 184.294C140.689 183.686 141.155 183.079 141.638 182.488C139.197 181.038 135.636 180.143 134.599 178.02C133.18 175.128 132.401 170.712 133.648 167.989C137.353 159.807 148.67 159.2 154.12 166.391C155.28 167.925 156.341 169.549 157.453 171.137C157.595 170.581 157.72 170.009 157.862 169.453C164.214 169.619 170.773 168.831 176.862 170.194C185.032 172.031 187.062 171.514 187.259 163.12C187.445 155.173 186.943 147.193 186.7 139.234C186.258 124.514 189.547 109.65 184.451 95.1037C183.082 91.1977 182.381 87.2912 177.663 86.2343C173.656 85.3459 170.621 86.3099 168.303 90.1852C166.268 93.5828 163.468 94.1231 161.259 89.9009C158.744 85.0775 154.027 84.689 151.623 88.243C147.264 94.7277 141.295 93.3587 135.593 93.4845C110.778 93.9894 85.9519 93.9463 61.1343 94.7256C36.1276 95.4975 11.4138 95.6372 -10.8031 81.5202C-13.6582 79.6975 -16.8839 79.317 -18.9023 83.0224C-26.9137 97.7207 -30.6659 113.551 -32.2047 131.718C20.3759 124.503 71.522 131.866 122.817 132.878C122.812 142.324 115.634 149.316 105.244 151.606C95.1926 153.81 94.884 153.809 95.0374 163.659C95.1243 169.603 92.3328 171.96 87.0271 172.46C80.4932 173.074 73.7823 172.927 67.4648 174.405C60.9609 175.927 54.3065 178.177 48.6763 181.659C41.3026 186.226 41.8021 193.178 49.1037 203.015C46.7137 206.825 44.6077 211.152 41.604 214.703C37.9873 218.989 38.3942 222.191 42.5128 225.559C43.9987 226.768 45.21 228.299 47.2039 230.372C44.7093 232.508 42.2332 234.009 40.6655 236.165C39.5291 237.715 38.5447 241.195 39.3236 241.995C42.8698 245.564 46.9686 250.854 51.0582 251.035C56.2636 251.244 58.7665 253.873 61.8993 256.419C67.645 261.074 73.0685 266.123 78.8448 270.708C86.3914 276.692 94.1639 282.407 102.607 288.824L102.646 288.908ZM320.371 153.748C321.202 150.944 321.154 147.381 322.716 146.442C328.218 143.121 326.604 138.799 325.217 134.551C323.339 128.786 321.481 123.397 326.496 117.992C327.649 116.749 326.834 113.62 326.786 111.377C326.654 106.549 325.885 101.652 326.339 96.8797C327.364 86.2829 322.58 77.3947 316.236 70.4736C302.44 55.4206 285.201 45.3815 264.401 43.3113C257.077 42.5787 249.114 40.4565 240.991 47.7374C244.57 49.9681 247.321 53.082 250.244 53.2553C259.462 53.8035 264.896 59.7092 269.099 66.3475C271.415 69.9984 271.461 75.4819 271.273 80.1034C271.217 81.6493 267.098 82.8754 265.112 84.5733C263.815 85.6866 262.01 87.5636 262.244 88.7515C262.524 90.177 264.537 91.6321 266.134 92.3375C268.607 93.4257 272.106 93.1234 273.856 94.798C277.484 98.2776 274.065 111.965 269.885 115.303C267.827 116.936 265.64 120.033 265.695 122.413C266.027 136.659 267.008 150.889 267.75 165.114C268.058 171.029 268.248 176.968 268.522 182.886C268.718 187.316 266.285 188.985 262.211 189.095C256.802 189.257 251.371 189.334 245.973 189.701C238.217 190.226 236.331 189.553 235.914 181.894C234.978 164.593 233.986 147.21 234.715 129.943C235.538 110.219 234.736 115.541 217.92 114.274C216.836 114.194 215.718 114.783 214.601 115.047C211.585 115.736 208.03 117.259 206.496 113.155C204.882 108.834 203.063 104.197 203.279 99.7797C203.385 97.8713 208.246 95.0978 211.179 94.7906C213.411 94.5371 216.131 97.3783 218.383 99.1467C219.366 99.9184 219.69 101.513 220.242 102.564C222.738 102.434 224.704 102.332 226.687 102.228C230.688 102.02 234.071 101.466 233.648 95.9852C233.053 88.5244 230.864 85.3298 225.563 85.2633C218.736 85.1905 211.905 85.0494 205.085 85.0964C200.098 85.1334 194.465 83.9527 192.352 90.7831C192.279 91.0269 190.045 90.5948 190.303 90.6156C192.954 118.782 196.513 146.935 197.951 175.181C198.905 193.818 196.233 212.609 196.164 231.334C195.944 288.948 196.187 346.572 196.294 404.204C196.299 407.255 196.595 410.308 196.748 413.232C207.421 413.755 209.842 411.863 210.581 403.013C211.093 397.038 211.26 391.046 211.875 385.082C212.823 375.964 218.361 370.395 227.137 369.371C236.078 368.334 241.027 363.407 241.985 354.591C242.17 352.884 241.793 350.915 242.527 349.54C243.636 347.459 245.489 344.208 247.065 344.177C256.985 344.055 266.604 338.822 277.016 343.868C283.277 346.901 284.594 349.799 283.406 356.272C280.465 372.215 278.079 388.266 276.071 404.348C275.308 410.44 276.306 416.748 276.235 422.958C276.128 434.055 274.707 445.273 275.929 456.215C277.004 465.982 272.473 472.133 267.018 478.658C265.517 480.45 263.69 482.894 263.782 484.981C264.384 499.162 265.465 513.317 266.357 527.483C266.518 529.909 266.75 532.383 266.497 534.779C265.629 543.122 270.73 547.896 278.967 546.404C278.763 556.306 288.202 566.375 280.735 575.73C274.733 583.26 266.174 588.764 257.906 595.898C261.54 595.246 264.804 595.367 267.394 594.083C275.569 590.074 283.811 586.062 291.422 581.105C306.294 571.398 316.406 557.207 325.329 542.239C328.072 537.638 329.398 532.477 324.184 527.503C322.524 525.927 322.97 521.326 323.622 518.361C324.187 515.725 327.008 513.607 327.71 510.964C329.273 505.088 333.857 498.643 325.354 493.721C323.905 492.888 323.356 488.922 323.788 486.688C327.707 466.494 319.842 445.852 326.151 425.79C326.24 425.529 326.122 425.226 326.141 424.934C326.355 416.556 326.571 408.196 326.825 398.274C329.127 401 330.023 402.067 330.936 403.134C331.577 402.929 332.201 402.743 332.842 402.538L329.715 342.544C329.886 342.535 330.057 342.526 330.211 342.518C329.797 353.991 329.401 365.464 328.988 376.954C327.518 363.882 327.351 350.81 327.579 337.752C328.345 295.864 324.36 253.95 328.658 212.084C328.909 209.671 327.741 205.343 326.203 204.789C319.529 202.394 321.142 197.801 321.519 192.878C322.183 184.237 322.226 175.526 322.581 165.222C318.255 168.739 315.554 171.177 312.611 173.267C306.495 177.632 295.079 177.661 291.02 173.467C285.712 168.001 284.619 158.526 288.662 152.88C293.648 145.934 302.438 143.539 309.854 147.353C313.343 149.159 316.615 151.406 320.439 153.727L320.371 153.748ZM13.7876 228.994C14.3919 228.088 14.6009 227.494 15.0123 227.164C23.2905 220.544 22.9745 220.732 17.9454 211.736C15.7527 207.822 13.3812 203.437 17.3187 198.397C23.6513 190.301 20.5947 182.968 11.4199 177.978C2.79198 173.284 -6.22739 172.263 -15.5627 171.43C-23.434 170.726 -23.9511 170.015 -24.0342 161.842C-24.0426 160.694 -23.9989 159.56 -23.938 158.425C-23.6703 154.023 -26.5307 151.772 -30.1328 152.062C-31.6869 152.178 -33.968 155.777 -34.1634 157.947C-35.2222 169.866 -36.21 181.832 -36.324 193.787C-36.6976 229.705 -36.7104 265.639 -36.7231 301.573C-36.7325 311.259 -36.4153 320.963 -35.928 330.641C-35.6286 336.386 -31.936 338.816 -28.4791 335.739C-24.3677 332.062 -21.2051 327.285 -16.9831 323.756C-10.6249 318.453 -4.33005 311.936 3.1659 309.385C12.6832 306.146 16.6626 301.91 12.8702 292.302C10.7772 287.011 8.36464 281.839 6.07001 276.627C1.21198 265.651 5.07772 256.603 12.455 248.487C15.2604 245.409 21.1106 242.858 21.1354 240.046C21.1741 236.512 16.6156 232.927 13.7894 229.028L13.7876 228.994ZM-36.5698 373.911C-39.5403 383.032 -39.3442 409.817 -35.9797 415.162C-25.6795 402.933 -11.7636 410.077 0.969471 409.002C-1.42926 401.463 -3.55939 394.803 -5.99855 387.147C-7.34771 389.549 -8.09976 390.908 -8.8689 392.268C-9.56882 391.996 -10.2517 391.723 -10.9516 391.451C-10.0961 388.458 -9.2398 385.481 -8.38434 382.488C-7.61497 382.448 -6.8456 382.408 -6.07622 382.368C-3.88675 385.562 -1.84493 388.885 0.541689 391.915C3.07578 395.143 6.50598 396.815 10.1059 393.85C13.5411 391.014 10.8421 388.24 9.11302 385.656C8.63017 384.944 8.06541 384.305 7.50064 383.666C-2.00499 372.658 -1.82128 370.591 9.4789 361.43C15.4823 356.557 15.2353 352.147 8.70826 347.961C2.35813 343.881 1.95912 339.295 7.51124 334.206C10.2912 331.627 13.5043 328.476 9.46492 324.984C5.33562 321.41 3.13829 317.736 4.30208 311.778C-7.32895 322.156 -18.9771 332.535 -31.493 343.696C-18.0073 341.931 -9.8728 345.381 -5.9034 353.78C-2.70523 360.54 -4.04277 368.427 -9.26434 373.499C-16.281 380.311 -24.1718 380.551 -36.5869 373.912L-36.5698 373.911ZM-52.3875 70.4529C-59.654 74.7747 -62.0274 81.2072 -64.408 87.5031C-72.2307 108.123 -73.0371 129.818 -73.5025 151.477C-73.9486 172.519 -73.7766 193.579 -73.7764 214.631C-73.7829 216.809 -73.1542 219.005 -72.6815 222.152C-62.7765 215.498 -56.9106 208.644 -57.7868 197.426C-58.5904 186.942 -58.2666 176.381 -58.9847 165.893C-61.1055 135.402 -62.3301 105.001 -52.7859 75.3082C-52.4029 74.1053 -52.5434 72.724 -52.3857 70.4871L-52.3875 70.4529ZM-57.6372 583.459C-56.8255 583.245 -56.0137 583.031 -55.2029 582.8C-56.3382 578.779 -57.5078 574.76 -58.626 570.738C-63.9227 551.676 -66.724 532.467 -64.8153 512.515C-62.6353 489.875 -61.3514 467.144 -60.1702 444.419C-59.7703 436.632 -65.9409 430.404 -75.3105 427.927C-75.5898 430.462 -76.0976 432.888 -76.1078 435.323C-76.1751 459.688 -76.379 484.06 -76.0512 508.438C-75.9124 518.665 -74.7964 528.893 -73.666 539.069C-71.8672 555.159 -64.601 569.25 -57.6723 583.443L-57.6372 583.459ZM229.096 470.108C230.003 469.735 230.908 469.345 231.797 468.973C230.251 465.282 229.611 460.567 226.913 458.153C223.262 454.863 201.734 460.871 199.232 465.167C198.272 466.812 197.696 468.916 197.658 470.821C197.452 481.341 197.025 491.907 197.692 502.398C197.9 505.73 200.518 509.897 203.313 511.894C211.148 517.486 219.575 522.275 227.919 527.121C234.372 530.865 237.596 529.239 237.446 521.755C237.236 511.806 236.187 501.883 235.327 491.95C234.986 488.042 234.555 484.053 233.484 480.286C232.478 476.772 230.593 473.493 229.096 470.108ZM-57.5119 289.199C-56.9533 282.483 -56.0527 273.779 -55.5651 265.045C-55.3417 261.107 -53.167 256.125 -59.0005 254.063C-64.6936 252.063 -67.9939 255.183 -70.8964 259.689C-73.4188 263.592 -74.6192 267.204 -72.0083 271.576C-70.8988 273.456 -70.0731 275.813 -70.0292 277.971C-69.7429 295.631 -69.0788 313.305 -69.7374 330.929C-70.3093 346.268 -72.6683 361.529 -73.8404 376.865C-74.2146 381.856 -73.8231 387.065 -72.6792 391.908C-72.3272 393.399 -68.1689 394.896 -65.8995 394.692C-64.2446 394.537 -61.6696 391.643 -61.5733 389.872C-61.2813 383.634 -61.27 377.273 -62.2423 371.118C-66.3845 344.932 -62.2942 318.815 -62.0452 292.675C-62.0385 291.818 -59.8884 290.968 -57.5281 289.217L-57.5119 289.199ZM212.534 54.021C209.774 48.1131 205.333 45.1216 199.501 43.7455C194.015 42.4371 188.705 40.2281 183.184 39.213C179.445 38.5335 175.442 39.0335 171.603 39.3708C169.111 39.5864 166.589 41.1923 164.226 40.9211C128.7 36.8926 93.2423 38.7752 57.7173 41.9984C66.5689 43.7485 75.4686 44.7761 84.3882 45.5284C113.625 47.9646 143.437 44.9877 171.831 55.2682C176.689 57.0208 175.463 52.2502 175.432 50.0231C187.078 60.6452 200.265 52.4832 212.518 54.0389L212.534 54.021ZM-10.7332 73.3219C10.3126 68.5904 30.4717 62.6366 51.0513 59.8152C71.9207 56.9616 93.1925 57.2243 114.29 56.1246C107.538 54.1964 100.782 53.1771 93.982 52.9658C74.9392 52.3812 55.6299 53.9191 36.9239 51.2426C17.9065 48.5137 5.8245 59.1211 -7.6757 68.1737C-9.08351 69.1214 -9.61913 71.3437 -10.7512 73.3057L-10.7332 73.3219ZM196.81 556.841C196.14 558.127 195.592 558.807 195.427 559.587C192.698 571.353 197.456 584.031 191.007 595.494C190.474 596.447 193.797 601.331 194.921 601.187C204.711 599.888 214.697 598.733 224.056 595.742C230.093 593.816 229.853 588.549 224.629 584.364C219.548 580.308 214.388 576.36 209.39 572.232C208.189 571.231 206.438 569.54 206.62 568.433C207.95 560.392 201.571 559.713 196.845 556.856L196.81 556.841ZM12.3166 39.9418C13.5365 40.3239 14.6933 41.138 15.5033 40.89C58.0565 27.7857 102.167 31.7268 147.539 29.6189C106.045 14.3639 24.3655 27.056 12.2995 39.9427L12.3166 39.9418ZM-5.08205 51.4949C-11.1836 47.5785 -17.4754 51.5237 -22.5388 56.9994C-27.1322 61.9533 -31.0485 67.7291 -34.3224 73.66C-43.093 89.5807 -45.4679 115.06 -40.1384 127.846C-37.2387 116.38 -34.6889 104.452 -31.1629 92.8334C-27.6819 81.3371 -23.2086 70.132 -19.1708 58.7953L-17.0448 59.456C-17.832 62.7715 -18.6372 66.0707 -19.3677 69.1603C-14.664 63.3606 -9.91268 57.4898 -5.06408 51.5111L-5.08205 51.4949ZM15.0724 617.402C15.0532 618.02 15.0169 618.639 14.9977 619.257C50.6141 632.916 87.3852 630.245 124.293 626.572C123.149 625.346 121.892 624.915 120.621 624.535C105.696 620.067 90.7477 627.001 75.6804 624.409C71.3212 623.659 66.1777 627.27 63.7003 620.525C63.3822 619.684 61.2454 619.144 59.9226 619.093C44.975 618.466 30.0336 617.959 15.0742 617.436L15.0724 617.402ZM84.0279 608.922C84.0445 609.898 84.0602 610.857 84.0768 611.834C87.3595 611.662 90.6665 611.301 93.9455 611.388C96.4352 611.464 98.9608 611.898 101.36 612.544C106.142 613.838 110.797 616.304 115.615 616.653C125.544 617.37 135.601 617.565 145.527 616.911C152.567 616.458 159.499 614.28 166.472 612.87C166.343 611.711 166.197 610.553 166.067 609.377C138.715 609.226 111.38 609.073 84.0279 608.922ZM-37.0649 573.592C-27.5369 590.29 -14.6431 604.139 4.92376 607.542C24.4384 610.931 44.4548 611.447 64.2548 613.072C65.7529 613.2 67.3705 612.001 68.9167 611.407C69.0071 610.51 69.0814 609.632 69.1718 608.736C28.0715 613.536 -8.12761 604.485 -37.0649 573.592ZM238.825 384.757C238.73 378.659 235.074 373.964 230.3 373.801C224.941 373.618 220.171 380.106 220.248 387.509C220.298 393.078 224.868 397.211 230.935 397.169C236.865 397.134 238.973 393.836 238.824 384.74L238.825 384.757ZM170.432 622.419C183.349 618.951 195.729 618.649 205.672 610.759C192.252 607.532 179.801 607.444 170.432 622.419ZM153.638 172.279C149.506 168.98 147.209 165.705 144.515 165.331C140.647 164.796 137.39 167.434 137.824 172.143C138.257 176.818 141.544 179.698 145.778 179.358C148.014 179.172 149.977 175.727 153.638 172.279ZM-71.4972 570.809C-70.6351 570.576 -69.7729 570.342 -68.9108 570.109C-71.7967 559.801 -74.6997 549.495 -77.5848 539.205C-78.3119 539.397 -79.022 539.588 -79.7492 539.781C-76.9982 550.129 -74.2473 560.478 -71.5143 570.81L-71.4972 570.809Z" fill="#EEEEEE"/>
<path d="M176.626 276.514C175.453 281.633 177.028 286.522 170.472 289.024C167.211 290.257 169.134 304.455 173.364 307.337C184.741 315.11 183.69 326.84 183.448 337.996C183.046 356.909 172.391 371.539 161.489 385.72C154.313 395.06 132.148 392.787 127.308 382.17C122.176 370.865 117.284 359.24 114.158 347.282C112.467 340.821 114.042 333.213 115.312 326.341C117.026 317.114 119.26 307.689 130.185 304.479C130.438 304.397 130.787 304.19 130.845 303.982C134.272 293.105 144.668 285.346 144.123 272.585C143.682 262.151 145.357 261.069 155.308 260.55C157.188 260.452 159.526 258.599 160.689 256.893C164.016 251.988 166.477 251.516 169.101 256.797C172.206 263.081 174.157 269.923 176.61 276.532L176.626 276.514Z" fill="#EEEEEE"/>
<path d="M34.9728 552.213C38.136 551.722 39.9385 551.44 42.4888 551.033C42.0208 565.406 47.035 579.048 42.6898 593.041C41.5299 596.77 39.7789 598.37 36.0951 598.082C32.2566 597.785 26.382 598.88 26.3027 593.741C26.1299 581.218 16.6871 572.401 14.6045 560.732C13.4649 554.328 10.8811 548.171 8.77499 541.972C7.45781 538.081 8.35963 532.359 1.28317 532.762C0.479604 532.804 -1.10523 529.698 -1.33469 527.927C-3.53879 510.967 -5.67541 493.986 -7.33418 476.963C-7.52037 475.036 -4.91889 471.334 -3.11996 470.983C3.21095 469.762 9.76113 469.129 16.2146 469.273C20.6084 469.369 25.8621 470.176 24.3415 477.181C24.2035 477.822 24.8381 479.144 25.3959 479.32C33.4228 482.022 32.1736 489.63 34.2141 495.559C39.4497 510.818 39.6696 526.218 36.1802 541.83C35.5129 544.813 35.4537 547.953 34.9719 552.196L34.9728 552.213Z" fill="#EEEEEE"/>
<path d="M283.268 483.554C282.794 472.144 293.361 464.376 303.966 468.537C306.819 469.657 310.014 471.085 311.864 473.354C314.371 476.395 317.721 480.815 317.056 483.833C316.253 487.509 312.105 491.137 308.515 493.313C305.308 495.263 300.902 495.595 296.976 495.92C288.253 496.632 283.62 492.279 283.251 483.555L283.268 483.554Z" fill="#EEEEEE"/>
<path d="M227.566 162.837C227.948 170.154 220.925 177.515 213.049 178.028C206.591 178.451 200.653 172.417 200.086 164.835C199.53 157.441 205.126 149.04 210.947 148.548C218.236 147.945 227.173 155.623 227.566 162.82L227.566 162.837Z" fill="#EEEEEE"/>
<path d="M204.791 493.216C204.426 486.549 210.149 479.256 215.821 479.201C221.784 479.147 230.437 486.942 230.68 492.604C230.969 499.463 223.261 507.477 215.948 507.944C210.121 508.316 205.279 501.917 204.807 493.198L204.791 493.216Z" fill="#EEEEEE"/>
<path d="M141.038 422.556C140.528 421.679 139.336 421.521 138.957 422.387C138.698 422.983 138.328 422.96 137.88 422.885C133.228 422.077 128.6 421.018 124.103 419.177C121.278 418.022 118.361 417.038 115.728 415.453C112.655 413.603 109.723 411.346 106.965 408.947C104.697 406.977 103.027 404.371 101.533 401.684C100.865 400.486 100.027 399.436 98.8048 398.671C97.248 397.708 95.8218 396.549 94.7951 394.828C94.2316 393.882 93.3908 392.957 92.2673 392.448C91.681 392.183 91.2086 391.539 90.6991 391.051C88.5787 388.997 86.3879 387.019 84.3787 384.854C82.6433 382.977 81.0831 380.918 79.5322 378.873C78.3655 377.334 77.2693 375.719 76.2603 374.07C75.3487 372.574 74.6235 370.971 73.7527 369.439C73.4445 368.895 72.9499 368.459 72.5833 367.953C71.2319 366.079 70.6919 363.907 70.1687 361.775C69.2281 358.009 68.256 354.221 67.6364 350.416C66.9842 346.416 66.4962 342.373 66.3671 338.38C66.1919 333.123 66.4258 327.894 66.4761 322.648C66.4751 322.474 66.4629 322.297 66.4582 322.074C67.0611 322.164 67.5444 322.237 68.2623 322.337C68.2348 320.958 68.3584 319.617 68.1518 318.301C67.8298 316.185 68.3808 314.327 68.8538 312.447C69.9433 308.051 71.0996 303.674 72.2002 299.281C72.2687 299.002 72.0051 298.615 72.017 298.289C72.0389 297.577 72.0533 296.839 72.2135 296.173C73.4538 291.168 75.1581 286.393 77.6518 282.031C79.0558 279.581 80.5433 277.19 82.0594 274.659C82.1216 274.671 82.3785 274.703 82.6179 274.808C83.2422 275.09 83.5955 274.815 83.829 274.307C85.2048 271.31 86.5807 268.314 87.9047 265.422C88.0717 265.685 88.2965 266.241 88.4486 266.237C88.7816 266.231 89.1608 266.011 89.3777 265.75C91.951 262.662 94.4648 259.508 97.0678 256.452C98.4934 254.769 100.007 253.152 101.593 251.634C103.791 249.533 106.108 247.561 108.425 245.476C108.121 245.628 107.867 245.758 107.613 245.888C107.568 245.845 107.527 245.81 107.481 245.767C107.848 245.37 108.2 244.962 108.585 244.595C108.999 244.199 109.428 243.814 109.879 243.477C110.209 243.237 110.635 243.121 110.956 242.866C111.531 242.409 112.13 241.948 112.595 241.376C114.066 239.591 115.597 237.872 117.589 236.722C118.835 236.004 120.256 235.606 121.554 234.969C122.686 234.415 123.762 233.744 124.84 233.091C127.854 231.273 131.222 230.37 134.727 229.801C138.664 229.163 142.563 228.354 146.535 227.859C149.216 227.525 151.977 227.561 154.717 227.548C156.974 227.535 159.257 227.678 161.524 227.781C162.057 227.803 162.599 227.941 163.134 228.023C163.144 228.14 163.148 228.261 163.158 228.377C161.578 228.383 160.005 228.384 158.426 228.39C158.434 228.518 158.449 228.642 158.458 228.77C159.676 228.798 160.897 228.815 162.118 228.862C164.184 228.948 166.248 229.047 168.318 229.141C170.822 229.258 173.34 229.283 175.821 230.184C178.314 231.088 180.789 232.065 183.287 232.976C185.179 233.665 187.079 234.308 188.977 234.963C191.609 235.871 194.137 236.989 196.102 239.285C197.146 240.502 198.123 241.771 199.16 242.991C199.63 243.546 200.162 244.04 200.661 244.555C202.692 246.655 204.41 249.005 205.796 251.565C206.882 253.566 207.771 255.671 208.8 257.697C209.317 258.714 209.967 259.667 210.51 260.668C212.999 265.269 215.01 270.05 216.533 275.008C217.221 277.241 217.908 279.474 218.482 281.728C218.831 283.097 218.935 284.509 219.201 285.891C219.57 287.822 219.834 289.79 220.425 291.684C221.083 293.812 221.108 295.89 221.198 297.999C221.267 299.557 221.439 301.121 221.496 302.675C221.558 304.165 221.512 305.642 221.569 307.125C221.65 308.932 221.879 310.757 221.897 312.552C221.935 316.243 221.766 319.881 221.281 323.494C220.556 328.952 219.594 334.325 217.998 339.473C217.291 341.758 216.436 343.984 215.502 346.156C213.813 350.08 212.093 353.983 210.229 357.803C209.069 360.18 207.699 362.424 206.287 364.632C203.586 368.839 200.945 373.099 198.003 377.099C194.763 381.503 191.255 385.687 187.775 389.884C186.826 391.03 185.617 391.95 184.43 392.846C182.957 393.954 182.211 395.648 181.181 397.123C179.043 400.181 176.904 403.251 174.669 406.228C173.17 408.225 171.45 410.034 169.914 412.003C169.178 412.952 168.83 414.312 167.958 415.06C166.421 416.383 164.665 417.444 162.919 418.479C161.477 419.332 159.933 420.013 158.409 420.722C155.586 422.039 152.983 423.874 149.678 424.101C149.053 424.148 148.473 424.166 148.481 423.289C147.06 423.143 145.705 422.986 144.342 422.874C143.796 422.83 143.25 422.93 142.703 422.886C142.411 422.856 142.118 422.652 141.818 422.524C141.561 422.533 141.303 422.543 141.04 422.545L141.038 422.556ZM212.433 291.864L212.413 291.876C212.395 291.631 212.376 291.387 212.364 291.138L212.382 291.167C212.716 288.995 211.097 287.517 210.256 285.761L209.968 285.779C210.104 287.53 210.234 289.285 210.37 291.036C210.497 291.048 210.612 291.058 210.738 291.07C210.735 290.405 210.727 289.732 210.724 289.067C210.839 289.076 210.949 289.078 211.071 289.083C211.145 289.631 211.183 290.193 211.305 290.731C211.414 291.175 211.231 292.02 212.164 291.655C212.252 291.722 212.346 291.785 212.435 291.852L212.433 291.864ZM175.609 237.586C175.787 237.637 175.961 237.681 176.139 237.732C177.104 238.28 178.064 238.832 179.034 239.387C180.592 240.452 182.156 241.514 183.714 242.579C184.652 243.555 185.589 244.532 186.515 245.505C186.586 245.573 186.679 245.75 186.664 245.769C186.153 246.34 187.038 246.272 187.061 246.596C187.28 245.965 187.553 246.54 187.717 246.683C188.43 247.278 189.127 247.904 189.809 248.549C189.982 248.707 190.113 248.942 190.204 249.171C190.556 249.985 190.876 250.778 191.888 250.896C192.231 250.935 192.617 251.07 192.91 251.274C193.301 251.56 193.614 251.968 193.971 252.316C196.084 254.343 197.874 256.637 199.438 259.146C200.362 260.634 201.603 261.931 202.642 263.356C203.592 264.653 204.481 265.998 205.392 267.32C205.314 267.369 205.245 267.433 205.172 267.49C205.017 267.403 204.873 267.32 204.579 267.157C204.923 267.771 205.18 268.234 205.437 268.697C205.502 268.656 205.56 268.619 205.625 268.578L205.428 267.995C205.772 268.208 206.021 268.471 206.213 268.76C207.82 271.18 208.778 273.868 209.602 276.589C210.807 280.557 211.939 284.54 213.059 288.531C213.58 290.387 213.563 292.225 213.487 294.101C213.329 297.742 213.501 301.43 213.361 305.07C213.277 307.464 212.958 309.832 212.641 312.188C212.379 314.1 211.999 315.983 211.625 317.862C211.103 320.441 210.588 323.015 209.968 325.554C209.604 327.047 208.988 328.443 208.602 329.93C208.148 331.654 207.826 333.429 207.444 335.18C207.437 335.225 207.485 335.287 207.54 335.417C207.656 335.199 207.737 335.025 207.829 334.854C207.791 334.837 207.751 334.831 207.713 334.814C206.781 338.125 205.843 341.439 204.84 344.98L205.632 344.478C205.426 345.389 204.966 346.112 204.666 346.917C203.856 349.083 203.07 351.275 202.361 353.5C201.987 354.661 201.725 355.884 201.532 357.115C201.253 358.914 200.8 360.597 199.797 362.044C199.305 362.746 198.831 363.477 198.45 364.252C197.377 366.421 196.362 368.624 195.327 370.809C194.658 372.209 193.989 373.608 193.291 375.076C193.444 375.031 193.526 375.03 193.556 374.991C195.268 372.366 197.079 369.812 198.66 367.096C199.759 365.198 200.555 363.082 201.487 361.064L201.483 361.057C201.706 361.409 201.933 361.767 202.165 362.134C202.29 361.9 202.446 361.586 202.622 361.29C203.749 359.364 205.134 357.573 205.926 355.479C207.016 352.633 208.265 349.881 209.334 347.018C211.135 342.18 212.091 337.028 213.533 332.069C213.957 330.6 214.328 329.102 214.576 327.57C215.126 324.203 215.644 320.816 216.066 317.418C216.396 314.725 216.549 311.98 216.824 309.27C216.863 308.886 217.161 308.554 217.412 308.045C217.245 306.92 216.926 305.541 216.85 304.173C216.644 300.116 216.628 296.071 216.352 292.018C216.207 289.923 215.71 287.805 215.281 285.707C214.737 283.054 214.38 280.324 213.451 277.782C211.821 273.314 209.973 268.892 207.914 264.582C206.29 261.187 204.311 257.936 202.312 254.738C201.32 253.16 199.997 251.761 198.701 250.406C196.286 247.872 193.904 245.277 191.282 243.007C188.425 240.538 185.119 238.795 181.66 237.702C178.059 236.556 174.401 235.724 170.771 234.761C170.759 234.758 170.732 234.786 170.62 234.897C171.763 235.466 172.865 235.969 173.942 236.549C174.494 236.845 175.005 237.25 175.535 237.612L175.59 237.628L175.609 237.586ZM211.657 295.147C213.011 294.556 212.134 293.819 211.362 293.117C211.474 293.796 211.585 294.474 211.695 295.164C211.248 296.023 211.395 296.945 211.536 297.913C211.945 297.51 212.262 297.207 212.568 296.9C212.481 296.935 212.395 296.958 212.308 296.993C212.093 296.38 211.877 295.767 211.655 295.159L211.657 295.147ZM156.27 410.716C157.025 410.371 157.779 410.026 158.534 409.681C157.783 409.715 157.103 409.921 156.41 410.062C155.891 410.176 155.939 410.381 156.298 410.718C156.106 411.117 155.92 411.512 155.727 411.912C155.615 411.849 155.496 411.791 155.388 411.736C155.432 411.36 155.486 410.987 155.538 410.523C154.99 410.706 154.546 410.853 154.042 411.019C154.493 411.76 154.474 412.275 153.694 412.451C153.406 412.141 153.128 411.845 152.973 411.687C152.64 412.051 152.399 412.533 152.013 412.685C149.585 413.69 146.961 414.029 144.288 414.133C142.957 414.186 141.617 414.225 140.276 414.191C138.291 414.146 136.296 413.481 134.308 413.961C132.501 414.398 130.594 414.519 128.731 414.766C128.595 414.78 128.442 414.712 128.076 414.637C128.58 413.896 128.994 413.285 129.445 412.62C129.105 412.486 128.828 412.364 128.545 412.276C127.873 412.077 127.13 412.096 126.885 411.05C126.827 410.8 126.076 410.649 125.501 410.388C125.734 410.856 125.861 411.114 125.99 411.36C125.933 411.428 125.864 411.492 125.807 411.559C125.449 411.282 125.076 411.037 124.74 410.737C124.433 410.469 124.19 410.028 123.859 409.878C122.599 409.312 121.311 408.815 120.021 408.359C119.867 408.303 119.412 408.704 119.45 408.865C119.543 409.371 119.795 409.868 120.047 410.539C118.544 409.819 117.057 409.109 115.563 408.403C115.358 408.308 115.021 408.121 114.944 408.201C114.389 408.747 114.002 408.151 113.568 407.882C112.419 407.173 111.276 406.461 110.126 405.753C110.076 405.846 110.032 405.935 109.982 406.028C112.273 407.604 114.494 409.328 116.862 410.71C121.535 413.446 126.511 414.982 131.597 416.1C135.191 416.891 138.75 417.324 142.332 417.363C143.641 417.376 144.976 417.587 146.262 417.521C147.643 417.446 148.995 417.123 150.368 416.95C153.889 416.505 157.281 415.699 160.375 414.077C163.075 412.653 165.299 410.607 167.303 408.3C168.513 406.907 169.727 405.522 170.935 404.14C166.324 406.899 161.771 409.692 156.64 411.487C156.492 411.181 156.388 410.959 156.288 410.745L156.27 410.716ZM208.998 300.569L208.99 300.615C209.154 300.141 209.318 299.668 209.504 299.129C209.707 299.104 210.01 299.065 210.157 299.054C210.201 298.462 210.344 297.971 210.25 297.507C209.788 295.213 209.243 292.931 208.787 290.633C208.679 290.076 208.798 289.487 208.808 288.916C208.806 288.856 208.758 288.794 208.728 288.731C208.464 288.775 208.212 288.822 207.918 288.875C208.151 290.462 208.905 292.026 208.537 293.584C207.613 290.146 206.717 286.721 205.958 283.271C205.205 279.858 203.52 276.625 203.251 273.101C203.518 273.609 203.779 274.121 204.033 274.607C204.343 274.163 204.606 273.802 204.923 273.355C204.52 272.964 204.108 272.558 203.917 272.371C203.635 271.554 203.189 270.892 203.284 270.411C203.47 269.513 202.762 269.171 202.46 268.593C202.157 268.015 201.885 267.356 201.443 266.918C200.976 266.454 200.322 266.212 199.972 266.003C199.189 264.97 198.544 264.024 197.804 263.158C197.358 262.64 196.712 262.311 196.253 261.801C195.044 260.453 193.954 258.978 192.707 257.685C190.584 255.499 188.383 253.405 186.195 251.302C185.852 250.975 185.362 250.834 184.984 250.54C182.592 248.689 180.242 246.761 177.803 244.981C175.887 243.579 173.952 242.105 171.873 241.093C168.093 239.25 164.22 237.661 160.346 236.113C157.446 234.954 154.402 234.543 151.552 234.985C148.57 235.448 145.698 236.457 142.886 237.49C137.3 239.543 131.788 241.784 126.219 243.908C125.92 244.025 125.468 243.799 125.086 243.743L125.053 243.374C123.951 243.99 122.838 244.573 121.759 245.226C117.948 247.539 114.181 249.906 111.163 253.297C110.378 254.184 109.428 254.982 108.918 256.044C107.846 258.242 106.975 260.571 106.078 262.874C104.718 266.384 103.293 269.863 102.102 273.452C100.229 279.052 98.4862 284.714 96.761 290.375C95.2582 295.31 93.8629 300.3 92.4027 305.26C91.4786 308.381 91.0313 311.651 90.8039 314.967C90.4659 319.759 90.19 324.563 90.0097 329.389C89.8624 333.434 89.6539 337.497 89.898 341.571C90.1674 346.102 90.8282 350.661 91.5039 355.201C91.9487 358.213 92.709 361.221 93.33 364.225C94.43 369.563 96.3989 374.679 98.4809 379.744C100.11 383.721 102.092 387.566 103.967 391.458C104.425 392.409 104.871 393.543 105.621 394.166C107.102 395.383 108.847 396.227 110.385 397.377C111.347 398.091 112.863 398.157 113.123 399.83C113.14 399.972 113.573 400.109 113.817 400.221C114.094 400.343 114.398 400.407 114.676 400.529C118.803 402.347 123.018 403.729 127.319 404.729C128.599 405.026 130.126 404.736 131.152 406.313C130.091 406.103 129.074 405.906 128.053 405.701C128.043 405.872 128.039 406.038 128.029 406.209C129.616 406.445 131.203 406.681 132.797 406.913C132.803 406.837 132.815 406.768 132.821 406.692C132.495 406.58 132.17 406.469 131.634 406.284C132.051 406.267 132.312 406.163 132.477 406.264C133.565 406.919 134.667 406.733 135.745 406.727C138.721 406.699 141.717 406.761 144.654 406.5C147.486 406.245 150.239 405.608 153.048 405.203C153.764 405.098 154.531 405.259 155.276 405.259C155.958 405.258 156.744 405.406 157.309 405.15C158.945 404.401 160.491 403.452 162.096 402.64C163.606 401.878 165.234 401.318 166.66 400.424C169.61 398.575 172.517 396.63 175.33 394.58C176.788 393.523 178.068 392.198 179.318 390.882C179.999 390.163 180.443 389.184 181.001 388.327C180.897 388.249 180.8 388.167 180.696 388.09C180.219 388.802 179.732 389.511 179.255 390.224C179.167 390.157 179.086 390.085 178.997 390.018C181.132 386.222 183.121 382.313 185.641 378.796C185.725 378.856 185.815 378.912 185.894 378.965C185.571 379.59 185.244 380.208 184.928 380.829C185.018 380.885 185.103 380.933 185.193 380.989C185.574 380.471 185.863 379.836 186.348 379.467C188.129 378.143 188.638 375.932 189.549 374.01C189.655 373.789 189.551 373.424 189.677 373.221C189.881 372.896 190.369 372.72 190.436 372.38C190.785 370.619 191.824 369.273 192.485 367.704C192.781 366.994 192.975 366.224 193.224 365.481C193.325 365.181 193.425 364.881 193.574 364.613C193.943 363.917 194.43 363.28 194.696 362.536C195.374 360.649 195.96 358.717 196.589 356.81C197.156 355.106 197.776 353.43 198.289 351.698C198.486 351.019 198.389 350.219 198.521 349.509C198.849 347.802 199.205 346.109 199.609 344.436C200.117 342.338 200.61 340.23 201.227 338.176C201.802 336.241 202.53 334.374 203.192 332.476C203.328 332.102 203.444 331.454 203.662 331.439C204.852 331.321 204.533 330.199 204.815 329.497C205.049 328.918 205.181 328.279 205.372 327.676C206.255 324.879 207.275 322.138 207.989 319.274C208.81 315.961 209.401 312.559 209.985 309.16C210.168 308.1 210.024 306.939 210 305.825C209.989 305.391 209.891 304.95 209.806 304.327C209.375 303.892 208.943 303.252 209.077 302.315C209.152 301.775 209.044 301.187 209.019 300.617L208.998 300.569ZM96.4871 386.058C95.5622 383.78 94.5454 381.53 93.7188 379.221C92.3237 375.312 90.8952 371.393 89.7848 367.417C88.8742 364.186 88.2567 360.872 87.7746 357.585C87.2552 354.024 86.9956 350.442 86.7276 346.876C86.4344 342.997 86.1672 339.102 86.0707 335.232C85.977 331.596 85.9669 327.948 86.2146 324.363C86.5717 318.984 87.0773 313.624 87.7276 308.305C88.1461 304.889 88.9625 301.569 89.5498 298.189C90.7705 291.072 92.9431 284.337 95.2233 277.657C96.7876 273.063 98.5087 268.544 100.165 263.994C100.502 263.062 100.855 262.14 101.276 261.011C100.88 261.262 100.662 261.349 100.504 261.5C96.8931 265.062 93.5689 268.904 90.5157 273.015C90.1134 273.557 89.9238 274.55 88.8309 273.96C88.7613 273.922 88.5555 274.114 88.4823 274.242C86.6994 277.63 84.8535 280.976 83.1764 284.431C82.2248 286.389 81.5321 288.511 80.7559 290.574C79.6295 293.577 78.4651 296.563 77.4686 299.627C76.5148 302.572 75.765 305.623 74.9141 308.616C74.8604 308.804 74.6991 308.937 74.5916 309.097C74.522 309.059 74.4636 309.024 74.394 308.986C74.692 307.648 74.99 306.309 75.2879 304.971C75.0515 305.029 74.9449 305.147 74.9097 305.293C74.469 306.937 74.0126 308.571 73.6053 310.225C72.239 315.792 71.7559 321.59 71.4991 327.429C71.246 333.173 72.0809 338.926 73.4537 344.666C74.3339 348.337 75.1242 352.024 76.022 355.694C76.3473 356.996 76.8024 358.289 77.3465 359.535C77.8601 360.718 78.5896 361.826 79.1903 362.975C79.4438 363.461 79.6295 363.969 79.8793 364.55C79.6937 364.4 79.5805 364.308 79.3022 364.084C84.2564 372.245 90.1015 379.4 96.489 386.046L96.4871 386.058ZM207.354 286.019L207.605 285.984C206.965 283.597 206.32 281.215 205.68 278.828C205.553 278.857 205.422 278.879 205.295 278.908C205.982 281.285 206.671 283.65 207.359 286.027L207.354 286.019ZM168.1 234.236C168.062 234.363 168.026 234.478 167.988 234.605C169.059 235.117 170.123 235.633 171.193 236.145L171.304 235.818C170.236 235.295 169.173 234.767 168.1 234.236ZM204.913 269.881C204.838 268.399 204.731 268.201 203.433 267.33C203.906 268.149 204.375 268.96 204.913 269.881ZM89.7325 311.181C89.8652 311.261 89.9932 311.334 90.1324 311.41C90.8984 311.14 90.7227 310.389 90.7512 309.745C90.6389 309.683 90.5313 309.628 90.419 309.566L89.7325 311.181ZM90.1467 312.222C89.6786 312.847 89.3246 313.308 88.8287 313.961C90.0873 313.851 90.2966 313.277 90.1467 312.222Z" fill="#FF4040"/>
<path d="M284.373 333.015C284.489 334.023 285.518 334.645 286.213 334.003C286.689 333.561 287.018 333.73 287.398 333.978C291.337 336.581 295.155 339.405 298.539 342.892C300.664 345.082 302.943 347.151 304.721 349.658C306.797 352.584 308.58 355.826 310.147 359.128C311.436 361.842 311.923 364.898 312.216 367.959C312.349 369.324 312.696 370.621 313.51 371.812C314.551 373.318 315.393 374.951 315.645 376.939C315.783 378.031 316.183 379.215 317.009 380.132C317.44 380.609 317.615 381.389 317.886 382.04C319.007 384.771 320.222 387.461 321.197 390.249C322.035 392.664 322.64 395.176 323.243 397.671C323.696 399.548 324.054 401.467 324.318 403.382C324.554 405.117 324.577 406.877 324.761 408.629C324.826 409.251 325.105 409.848 325.238 410.459C325.726 412.717 325.351 414.924 324.977 417.087C324.331 420.915 323.705 424.775 322.749 428.51C321.745 432.436 320.574 436.336 319.093 440.047C317.149 444.935 314.841 449.633 312.694 454.42C312.625 454.579 312.566 454.746 312.481 454.953C311.964 454.629 311.551 454.368 310.933 453.99C310.406 455.264 309.756 456.443 309.418 457.732C308.866 459.799 307.617 461.281 306.431 462.815C303.672 466.407 300.86 469.955 298.093 473.539C297.918 473.768 298.005 474.228 297.864 474.522C297.559 475.166 297.25 475.836 296.836 476.382C293.696 480.472 290.222 484.165 286.19 487.164C283.923 488.847 281.603 490.441 279.2 492.154C279.148 492.118 278.925 491.986 278.748 491.794C278.289 491.286 277.855 491.397 277.438 491.768C274.977 493.963 272.516 496.158 270.145 498.278C270.098 497.97 270.114 497.371 269.973 497.314C269.666 497.185 269.23 497.235 268.927 497.387C265.332 499.187 261.766 501.07 258.157 502.828C256.177 503.8 254.142 504.675 252.082 505.432C249.226 506.477 246.314 507.356 243.355 508.339C243.695 508.321 243.979 508.304 244.264 508.286C244.289 508.344 244.312 508.393 244.336 508.45C243.841 508.667 243.356 508.9 242.855 509.082C242.318 509.279 241.771 509.46 241.223 509.588C240.824 509.676 240.387 509.612 239.991 509.717C239.281 509.905 238.548 510.089 237.892 510.427C235.83 511.473 233.739 512.435 231.453 512.691C230.024 512.85 228.562 512.646 227.118 512.711C225.859 512.764 224.604 512.949 223.355 513.115C219.864 513.575 216.417 513.053 212.977 512.172C209.115 511.179 205.217 510.359 201.38 509.223C198.789 508.456 196.273 507.317 193.758 506.231C191.684 505.341 189.649 504.295 187.613 503.293C187.134 503.06 186.692 502.716 186.235 502.426C186.273 502.315 186.318 502.203 186.355 502.092C187.805 502.719 189.247 503.348 190.696 503.975C190.74 503.855 190.776 503.735 190.819 503.614C189.714 503.101 188.602 502.596 187.501 502.064C185.643 501.158 183.791 500.242 181.932 499.327C179.685 498.217 177.388 497.185 175.474 495.366C173.552 493.54 171.675 491.654 169.752 489.819C168.293 488.43 166.81 487.079 165.333 485.719C163.285 483.833 161.416 481.797 160.535 478.907C160.065 477.374 159.678 475.819 159.216 474.285C159.007 473.589 158.718 472.923 158.467 472.252C157.446 469.514 156.814 466.673 156.569 463.772C156.374 461.504 156.403 459.219 156.271 456.95C156.204 455.811 155.99 454.677 155.893 453.543C155.455 448.33 155.526 443.144 156.116 437.991C156.38 435.67 156.644 433.349 157.021 431.054C157.249 429.659 157.72 428.323 158.029 426.951C158.464 425.033 159.01 423.124 159.227 421.152C159.476 418.938 160.285 417.024 161.047 415.056C161.608 413.601 162.076 412.099 162.646 410.651C163.186 409.261 163.82 407.927 164.361 406.545C165.01 404.857 165.531 403.092 166.233 401.44C167.676 398.042 169.288 394.776 171.179 391.66C174.029 386.949 177.061 382.411 180.585 378.333C182.148 376.522 183.823 374.825 185.548 373.208C188.667 370.289 191.806 367.401 195.044 364.647C197.058 362.933 199.212 361.426 201.39 359.967C205.55 357.194 209.675 354.348 213.972 351.861C218.705 349.122 223.595 346.693 228.465 344.24C229.792 343.571 231.269 343.211 232.716 342.865C234.509 342.44 235.87 341.186 237.405 340.248C240.588 338.301 243.778 336.344 247.018 334.511C249.192 333.281 251.491 332.313 253.687 331.123C254.742 330.548 255.605 329.442 256.704 329.105C258.641 328.508 260.676 328.239 262.69 327.989C264.354 327.786 266.04 327.78 267.721 327.74C270.835 327.663 273.956 327.024 277.074 328.14C277.666 328.347 278.205 328.562 277.846 329.363C279.09 330.066 280.269 330.753 281.473 331.401C281.956 331.659 282.496 331.787 282.979 332.045C283.235 332.19 283.422 332.495 283.645 332.732C283.885 332.827 284.125 332.921 284.367 333.024L284.373 333.015ZM166.622 424.187L166.645 424.184C166.564 424.416 166.483 424.647 166.395 424.88L166.39 424.846C165.214 426.703 166.106 428.706 166.173 430.651L166.445 430.75C167.021 429.091 167.604 427.431 168.181 425.772C168.07 425.71 167.968 425.655 167.858 425.593C167.594 426.204 167.332 426.824 167.069 427.434C166.967 427.38 166.866 427.334 166.757 427.281C166.908 426.749 167.099 426.219 167.202 425.677C167.28 425.226 167.786 424.525 166.785 424.487C166.731 424.39 166.67 424.294 166.616 424.197L166.622 424.187ZM178.633 488.669C178.49 488.55 178.349 488.441 178.206 488.322C177.54 487.434 176.882 486.544 176.215 485.647C175.214 484.047 174.206 482.448 173.205 480.848C172.737 479.578 172.269 478.308 171.81 477.045C171.772 476.955 171.757 476.755 171.779 476.743C172.476 476.425 171.638 476.133 171.746 475.827C171.293 476.318 171.273 475.681 171.18 475.484C170.765 474.654 170.377 473.801 170.01 472.937C169.915 472.723 169.889 472.455 169.898 472.209C169.901 471.322 169.925 470.468 169.045 469.954C168.746 469.781 168.446 469.503 168.259 469.198C168.016 468.779 167.893 468.281 167.705 467.819C166.58 465.115 165.858 462.296 165.43 459.371C165.179 457.638 164.561 455.952 164.179 454.231C163.828 452.662 163.552 451.073 163.247 449.497C163.338 449.483 163.427 449.452 163.516 449.429C163.624 449.571 163.722 449.705 163.927 449.971C163.858 449.271 163.807 448.744 163.757 448.217C163.681 448.229 163.613 448.239 163.537 448.251L163.484 448.864C163.254 448.531 163.131 448.191 163.071 447.849C162.567 444.988 162.766 442.142 163.1 439.318C163.585 435.199 164.142 431.096 164.714 426.99C164.98 425.081 165.732 423.404 166.552 421.716C168.155 418.442 169.473 414.993 171.059 411.714C172.095 409.554 173.335 407.512 174.569 405.48C175.575 403.833 176.677 402.26 177.772 400.688C179.283 398.534 180.786 396.381 182.371 394.303C183.302 393.081 184.425 392.048 185.374 390.84C186.481 389.441 187.486 387.944 188.537 386.493C188.562 386.454 188.543 386.378 188.545 386.237C188.35 386.39 188.207 386.517 188.054 386.637C188.082 386.668 188.117 386.689 188.145 386.72C190.324 384.059 192.51 381.398 194.848 378.555L193.921 378.698C194.474 377.946 195.186 377.468 195.782 376.849C197.392 375.189 198.989 373.495 200.531 371.74C201.338 370.826 202.068 369.81 202.738 368.759C203.714 367.223 204.803 365.862 206.301 364.938C207.033 364.492 207.76 364.011 208.42 363.453C210.271 361.896 212.083 360.283 213.907 358.695C215.08 357.681 216.253 356.667 217.48 355.6C217.322 355.581 217.247 355.549 217.204 355.573C214.585 357.293 211.902 358.908 209.366 360.764C207.599 362.063 206.022 363.683 204.36 365.158L204.361 365.167C204.298 364.756 204.233 364.336 204.167 363.907C203.959 364.071 203.69 364.297 203.41 364.498C201.607 365.811 199.621 366.898 198.056 368.499C195.918 370.671 193.672 372.692 191.546 374.889C187.958 378.6 185.019 382.939 181.712 386.905C180.735 388.082 179.796 389.305 178.955 390.61C177.103 393.475 175.272 396.371 173.525 399.316C172.144 401.652 170.905 404.106 169.568 406.479C169.379 406.815 168.972 407.001 168.538 407.366C168.241 408.464 167.981 409.855 167.503 411.139C166.067 414.94 164.463 418.652 163.093 422.477C162.387 424.454 161.994 426.594 161.547 428.689C160.984 431.337 160.217 433.982 160.05 436.683C159.756 441.43 159.679 446.223 159.839 450.996C159.968 454.757 160.48 458.529 161.032 462.26C161.308 464.103 161.961 465.915 162.605 467.675C163.804 470.964 164.948 474.296 166.441 477.426C168.071 480.832 170.403 483.753 173.134 486.139C175.975 488.631 178.994 490.859 181.935 493.195C181.944 493.202 181.981 493.188 182.127 493.13C181.308 492.151 180.5 491.249 179.745 490.287C179.358 489.794 179.052 489.218 178.711 488.674L178.667 488.637L178.633 488.669ZM168.648 421.489C167.17 421.489 167.679 422.516 168.105 423.467C168.275 422.801 168.444 422.135 168.62 421.458C169.374 420.851 169.607 419.946 169.866 419.003C169.33 419.208 168.918 419.36 168.515 419.518C168.609 419.521 168.696 419.534 168.79 419.537C168.742 420.185 168.694 420.833 168.654 421.479L168.648 421.489ZM265.675 337.766C264.845 337.78 264.015 337.794 263.185 337.808C263.888 338.077 264.593 338.161 265.284 338.309C265.806 338.413 265.844 338.205 265.649 337.752C265.986 337.464 266.315 337.176 266.651 336.887C266.729 336.99 266.815 337.09 266.891 337.184C266.701 337.511 266.501 337.832 266.268 338.236C266.844 338.288 267.309 338.33 267.838 338.38C267.721 337.521 267.945 337.056 268.73 337.207C268.869 337.607 269.006 337.989 269.085 338.197C269.536 337.995 269.949 337.651 270.363 337.666C272.992 337.717 275.532 338.457 278.022 339.432C279.263 339.917 280.507 340.418 281.722 340.985C283.523 341.821 285.085 343.23 287.099 343.586C288.929 343.909 290.725 344.562 292.531 345.081C292.662 345.123 292.774 345.246 293.08 345.462C292.321 345.938 291.698 346.333 291.018 346.762C291.275 347.021 291.481 347.243 291.705 347.437C292.241 347.889 292.93 348.169 292.735 349.225C292.688 349.478 293.316 349.917 293.738 350.387C293.712 349.864 293.699 349.577 293.679 349.299C293.759 349.261 293.847 349.229 293.927 349.191C294.144 349.587 294.388 349.962 294.576 350.371C294.749 350.739 294.795 351.241 295.039 351.511C295.966 352.534 296.948 353.506 297.947 354.439C298.066 354.553 298.644 354.367 298.673 354.205C298.79 353.704 298.759 353.147 298.796 352.431C299.885 353.693 300.964 354.939 302.05 356.184C302.2 356.354 302.434 356.66 302.536 356.618C303.263 356.339 303.379 357.04 303.669 357.461C304.439 358.57 305.201 359.68 305.971 360.79C306.054 360.724 306.13 360.66 306.213 360.595C304.745 358.233 303.4 355.765 301.783 353.55C298.597 349.172 294.652 345.772 290.44 342.711C287.463 340.547 284.375 338.725 281.108 337.255C279.913 336.72 278.775 335.992 277.57 335.537C276.274 335.053 274.907 334.808 273.579 334.416C270.174 333.414 266.743 332.794 263.259 333.042C260.215 333.266 257.357 334.25 254.597 335.562C252.931 336.354 251.263 337.137 249.603 337.919C254.933 337.238 260.224 336.501 265.644 336.911C265.658 337.251 265.664 337.496 265.67 337.732L265.675 337.766ZM173.255 417.586L173.28 417.547C172.941 417.915 172.601 418.283 172.215 418.702C172.019 418.645 171.726 418.558 171.586 418.51C171.31 419.035 170.981 419.428 170.882 419.89C170.387 422.177 169.973 424.487 169.47 426.775C169.346 427.329 169.002 427.82 168.763 428.34C168.741 428.396 168.76 428.472 168.763 428.541C169.022 428.607 169.272 428.665 169.563 428.734C169.985 427.186 169.92 425.451 170.881 424.171C170.35 427.691 169.801 431.188 169.115 434.654C168.438 438.083 168.688 441.72 167.523 445.057C167.481 444.485 167.447 443.911 167.41 443.364C166.948 443.646 166.563 443.872 166.093 444.155C166.306 444.675 166.521 445.212 166.621 445.459C166.552 446.321 166.696 447.106 166.416 447.509C165.886 448.257 166.398 448.854 166.444 449.504C166.49 450.155 166.475 450.868 166.704 451.447C166.946 452.058 167.449 452.542 167.686 452.874C167.99 454.134 168.202 455.26 168.533 456.349C168.735 457.002 169.195 457.563 169.412 458.213C169.98 459.933 170.388 461.721 171.013 463.405C172.083 466.258 173.261 469.058 174.424 471.862C174.608 472.298 175 472.624 175.228 473.045C176.679 475.698 178.061 478.406 179.583 481.013C180.778 483.066 181.961 485.191 183.461 486.951C186.186 490.153 189.099 493.16 192.029 496.13C194.222 498.353 196.848 499.948 199.636 500.685C202.554 501.454 205.59 501.679 208.58 501.858C214.521 502.214 220.469 502.367 226.422 502.651C226.743 502.663 227.067 503.052 227.394 503.256L227.277 503.607C228.533 503.484 229.787 503.396 231.036 503.229C235.455 502.636 239.855 501.975 243.978 500.076C245.052 499.577 246.242 499.227 247.134 498.458C248.997 496.872 250.728 495.088 252.472 493.337C255.123 490.665 257.822 488.047 260.351 485.236C264.309 480.853 268.173 476.363 272.021 471.866C275.374 467.946 278.651 463.932 281.974 459.972C284.071 457.482 285.79 454.664 287.326 451.717C289.555 447.461 291.731 443.169 293.828 438.82C295.583 435.172 297.401 431.532 298.809 427.701C300.376 423.442 301.596 418.999 302.794 414.569C303.593 411.63 304.101 408.569 304.734 405.568C305.864 400.236 306.108 394.76 306.228 389.285C306.328 384.989 306.051 380.672 305.891 376.355C305.852 375.299 305.898 374.082 305.46 373.211C304.59 371.503 303.329 370.03 302.38 368.361C301.784 367.321 300.422 366.654 300.854 365.017C300.895 364.88 300.553 364.581 300.374 364.381C300.169 364.158 299.916 363.978 299.71 363.755C296.656 360.437 293.347 357.482 289.807 354.844C288.753 354.059 287.238 353.713 286.928 351.858C287.817 352.475 288.669 353.063 289.523 353.659C289.601 353.507 289.671 353.356 289.748 353.203C288.388 352.352 287.029 351.5 285.661 350.649C285.625 350.716 285.587 350.775 285.551 350.842C285.805 351.075 286.058 351.307 286.475 351.691C286.086 351.54 285.805 351.531 285.695 351.372C284.96 350.336 283.876 350.065 282.885 349.639C280.147 348.473 277.427 347.217 274.631 346.28C271.934 345.38 269.156 344.861 266.419 344.107C265.721 343.917 265.084 343.463 264.4 343.164C263.775 342.892 263.115 342.442 262.494 342.45C260.695 342.481 258.898 342.732 257.102 342.833C255.414 342.927 253.698 342.788 252.033 343.036C248.59 343.549 245.147 344.168 241.749 344.92C239.989 345.305 238.285 346.007 236.614 346.712C235.701 347.098 234.902 347.818 234.048 348.379C234.112 348.492 234.169 348.606 234.233 348.719C234.955 348.257 235.685 347.802 236.407 347.34C236.461 347.437 236.507 347.535 236.561 347.632C233.086 350.256 229.697 353.041 225.98 355.255C225.928 355.166 225.867 355.079 225.816 354.999C226.362 354.556 226.909 354.12 227.447 353.678C227.387 353.59 227.329 353.512 227.268 353.425C226.712 353.747 226.193 354.213 225.601 354.357C223.438 354.857 222.087 356.68 220.482 358.076C220.297 358.236 220.246 358.613 220.05 358.748C219.733 358.964 219.214 358.93 219.017 359.214C217.993 360.688 216.502 361.506 215.267 362.678C214.712 363.211 214.225 363.839 213.701 364.42C213.488 364.655 213.275 364.889 213.032 365.076C212.416 365.565 211.714 365.954 211.172 366.529C209.795 367.987 208.485 369.522 207.145 371.018C205.943 372.353 204.703 373.641 203.54 375.022C203.087 375.565 202.857 376.338 202.451 376.935C201.467 378.368 200.463 379.777 199.423 381.148C198.117 382.867 196.822 384.601 195.433 386.236C194.132 387.779 192.718 389.199 191.351 390.673C191.077 390.961 190.71 391.509 190.505 391.435C189.367 391.067 189.211 392.222 188.671 392.753C188.225 393.19 187.848 393.722 187.432 394.198C185.502 396.408 183.47 398.511 181.669 400.85C179.591 403.556 177.687 406.438 175.791 409.318C175.198 410.216 174.866 411.337 174.441 412.368C174.278 412.77 174.191 413.213 174.02 413.819C174.24 414.39 174.38 415.149 173.882 415.954C173.596 416.419 173.461 417.001 173.255 417.533L173.255 417.586ZM310.583 384.298C310.519 386.755 310.55 389.224 310.383 391.671C310.096 395.812 309.836 399.975 309.261 404.063C308.802 407.388 308.041 410.672 307.166 413.877C306.216 417.348 305.02 420.735 303.838 424.11C302.553 427.782 301.239 431.458 299.777 435.043C298.407 438.412 296.956 441.759 295.294 444.945C292.813 449.731 290.203 454.44 287.478 459.053C285.726 462.016 283.649 464.731 281.758 467.593C277.789 473.626 273.102 478.928 268.338 484.136C265.065 487.719 261.678 491.171 258.339 494.677C257.657 495.397 256.964 496.1 256.126 496.966C256.589 496.895 256.824 496.902 257.03 496.827C261.765 495.009 266.349 492.82 270.793 490.275C271.379 489.939 271.95 489.105 272.715 490.084C272.763 490.146 273.029 490.053 273.147 489.964C276.138 487.574 279.169 485.247 282.089 482.752C283.745 481.339 285.23 479.672 286.767 478.093C289.001 475.792 291.264 473.522 293.404 471.113C295.457 468.797 297.366 466.301 299.344 463.899C299.468 463.748 299.669 463.691 299.832 463.587C299.881 463.65 299.92 463.705 299.969 463.768C299.16 464.875 298.351 465.982 297.542 467.089C297.782 467.131 297.927 467.065 298.017 466.946C299.08 465.615 300.152 464.301 301.188 462.948C304.668 458.394 307.433 453.275 310.006 448.027C312.538 442.865 314.076 437.259 315.116 431.45C315.78 427.734 316.532 424.039 317.178 420.316C317.402 418.992 317.502 417.626 317.503 416.266C317.506 414.976 317.281 413.669 317.19 412.376C317.153 411.829 317.186 411.289 317.19 410.656C317.3 410.868 317.367 410.998 317.532 411.314C316.26 401.852 313.769 392.956 310.577 384.308L310.583 384.298ZM168.936 431.576L168.692 431.509C168.322 433.952 167.96 436.393 167.59 438.836C167.718 438.86 167.848 438.893 167.976 438.917C168.297 436.464 168.613 434.021 168.934 431.568L168.936 431.576ZM184.172 494.744C184.258 494.644 184.337 494.552 184.423 494.451C183.647 493.554 182.878 492.654 182.102 491.757L181.869 492.012C182.639 492.919 183.401 493.828 184.172 494.744ZM164.711 447.342C164.186 448.73 164.205 448.955 165.046 450.272C164.94 449.333 164.835 448.401 164.711 447.342ZM286.792 455.615C286.703 455.489 286.614 455.371 286.517 455.245C285.707 455.186 285.568 455.944 285.284 456.523C285.362 456.625 285.438 456.719 285.516 456.821L286.792 455.615ZM286.829 454.495C287.509 454.11 288.017 453.83 288.733 453.43C287.536 453.027 287.114 453.469 286.829 454.495Z" fill="#FF4040"/>
</g>
<defs>
<clipPath id="clip0_223_576">
<rect width="633.438" height="448.623" fill="white" transform="translate(-88.0269 655.932) rotate(-92.9838)"/>
</clipPath>
</defs>
</svg>
