<svg width="210" height="286" viewBox="0 0 210 286" fill="none" xmlns="http://www.w3.org/2000/svg">
<g clip-path="url(#clip0_277_1891)">
<path d="M155.783 269.885C156.608 269.797 157.44 269.709 158.615 269.588C158.106 270.011 157.892 270.343 157.611 270.403C148.865 272.256 140.133 274.236 131.345 275.861C120.958 277.777 110.423 279.022 100.131 281.33C96.681 282.107 93.8503 281.291 90.7578 280.899C80.3965 279.585 69.9935 278.475 59.6999 276.74C46.7975 274.572 35.7795 268.404 26.7609 259.007C20.9986 252.999 17.8214 245.391 17.2057 237.163C16.5665 228.63 16.7761 220.031 16.8601 211.46C16.9487 202.261 17.3139 193.063 17.5669 183.864C17.6273 181.581 16.6559 179.867 15.5698 177.816C10.2924 167.918 5.53146 157.746 8.27045 145.905C8.7407 143.885 8.50719 141.699 8.57652 139.588C8.87969 130.49 9.56925 121.492 14.0417 113.223C15.5077 110.516 16.6567 107.608 17.6861 104.699C18.2071 103.222 18.2915 101.543 18.3057 99.9502C18.4794 83.7806 18.6233 67.6125 18.7225 51.4468C18.8525 31.856 32.1949 16.5099 49.4358 11.5673C59.43 8.70675 69.4903 7.25548 79.81 6.19433C99.5874 4.16929 119.023 6.3405 138.472 9.19867C140.024 9.42427 141.376 10.8562 142.933 11.1712C146.574 11.9083 150.27 12.4033 153.969 12.816C161.247 13.6251 168.615 13.8764 175.811 15.1308C187.307 17.1254 193.819 24.8961 196.24 35.7878C197.656 42.1498 197.982 48.8303 198.084 55.3804C198.474 79.5037 198.573 103.627 198.769 127.753C198.89 143.407 199.041 159.066 199.065 174.717C199.091 191.997 199.05 209.281 198.912 226.563C198.819 238.55 193.926 248.074 184.139 255.206C177.392 260.125 170.247 263.734 161.912 265.155C159.608 265.552 157.607 267.742 155.466 269.109C155.568 269.358 155.664 269.615 155.767 269.863L155.783 269.885ZM97.512 125.968C92.9918 131.6 88.8172 136.691 84.7821 141.88C83.7382 143.22 82.4933 144.862 82.4317 146.405C82.2927 149.761 80.0329 151.291 77.9651 153.208C75.2912 155.687 71.8565 157.765 73.3681 162.53C73.6987 163.566 72.6209 165.259 71.8121 166.378C71.1148 167.341 69.8332 167.849 68.8963 168.66C66.2787 170.927 66.8947 177.727 69.8552 179.456C70.1635 179.635 70.5507 179.749 70.9112 179.782C73.7049 180.033 76.5008 180.47 79.2864 180.422C82.841 180.357 85.4554 182.186 87.9748 184.2C89.5658 185.47 90.2381 187.468 88.7628 189.137C87.2946 190.798 85.7356 189.856 84.2418 188.588C82.7167 187.292 80.9383 186.301 79.466 185.301C78.5125 187.227 78.1879 189.031 77.12 189.767C75.4896 190.898 71.1963 189.41 69.7482 187.729C68.0614 185.769 64.198 185.215 62.1315 186.87C60.8111 187.926 59.8341 188.971 57.9086 188.025C56.4126 187.288 54.0659 187.582 53.1582 186.516C51.0322 184.018 48.7295 184.87 46.9176 185.959C44.243 187.563 41.8152 186.875 39.4318 186.035C35.8908 184.785 35.5808 184.861 35.2576 188.697C34.7528 194.643 34.1052 200.575 33.7126 206.523C33.1658 214.818 32.1156 223.066 33.1958 231.456C35.2538 247.419 44.5562 257.96 60.312 261.093C64.67 261.957 69.1758 262.358 73.6272 262.432C86.6824 262.656 99.7471 262.633 112.806 262.64C117.53 262.64 122.259 262.438 126.987 262.379C129.945 262.337 131.857 261.011 132.913 258.198C134.725 253.379 136.227 248.48 135.695 243.298C135.542 241.796 134.572 239.828 133.359 239.069C124.389 233.467 115.295 228.073 106.16 222.757C105.019 222.091 103.359 221.938 102 222.099C97.3721 222.662 88.5364 216.484 87.8854 211.884C87.6978 210.578 87.7907 209.063 88.2735 207.857C89.6292 204.468 91.5422 201.445 94.8745 199.553C98.4971 197.495 110.41 199.602 112.883 202.889C113.542 203.76 113.767 204.936 114.326 205.894C114.809 206.706 115.343 207.635 116.1 208.104C121.282 211.294 126.52 214.407 131.778 217.482C132.757 218.059 133.894 218.366 135.529 219.028C135.51 214.507 135.446 210.698 135.501 206.891C135.535 204.676 135.035 203.103 132.555 202.425C130.902 201.973 129.298 201.025 129.657 198.726C130.386 194.084 131.025 189.423 131.815 184.785C131.992 183.73 132.401 182.109 133.098 181.863C135.865 180.882 135.484 178.734 135.452 176.687C135.21 161.01 134.924 145.336 134.682 129.659C134.49 117.23 134.366 104.799 134.174 92.3708C134.156 91.4523 133.832 90.5348 133.602 89.4256C132.8 89.6767 132.271 89.7117 131.903 89.9701C123.608 95.8741 115.352 101.836 107.032 107.704C105.028 109.116 102.927 110.541 100.663 111.422C96.0555 113.224 93.5922 112 91.5065 107.407C91.2024 106.735 90.8826 106.049 90.4553 105.451C86.3167 99.6193 86.7057 97.7602 92.9194 94.0727C93.4559 93.7532 94.0504 93.5428 94.5712 93.2092C100.83 89.2352 107.08 85.2542 113.323 81.2513C113.59 81.0803 113.703 80.6633 113.889 80.3547C114.099 80.0895 114.302 79.8248 114.513 79.5672C113.449 78.935 111.896 78.545 111.444 77.6193C110.825 76.3584 110.486 74.4326 111.029 73.2457C112.645 69.6782 117.579 69.4135 119.955 72.5487C120.461 73.2175 120.924 73.9259 121.408 74.6182C121.471 74.3758 121.525 74.1263 121.587 73.8838C124.356 73.9563 127.216 73.6128 129.871 74.207C133.433 75.008 134.319 74.7825 134.404 71.1228C134.485 67.6577 134.267 64.1784 134.16 60.7081C133.968 54.2898 135.402 47.8092 133.18 41.4667C132.583 39.7637 132.277 38.0604 130.22 37.5996C128.473 37.2122 127.15 37.6325 126.139 39.3222C125.252 40.8036 124.031 41.0392 123.068 39.1983C121.972 37.0952 119.915 36.9258 118.867 38.4754C116.966 41.3028 114.364 40.7059 111.877 40.7608C101.058 40.9809 90.2332 40.9621 79.4125 41.3019C68.5093 41.6385 57.7338 41.6993 48.047 35.5442C46.8021 34.7495 45.3957 34.5836 44.5157 36.1992C41.0226 42.6078 39.3866 49.5101 38.7156 57.431C61.6414 54.2851 83.9416 57.4954 106.307 57.9367C106.305 62.0555 103.175 65.1039 98.6447 66.1025C94.2623 67.0634 94.1277 67.063 94.1946 71.3575C94.2325 73.9493 93.0154 74.977 90.702 75.1947C87.8532 75.4628 84.9272 75.3986 82.1726 76.043C79.3369 76.7065 76.4355 77.6875 73.9807 79.2058C70.7656 81.1972 70.9834 84.2281 74.167 88.5171C73.1249 90.1785 72.2067 92.0652 70.8971 93.6135C69.3201 95.4822 69.4975 96.8782 71.2933 98.3468C71.9412 98.8736 72.4693 99.5413 73.3387 100.445C72.251 101.377 71.1714 102.031 70.4878 102.971C69.9924 103.647 69.5632 105.164 69.9028 105.513C71.449 107.069 73.2361 109.376 75.0192 109.455C77.2888 109.546 78.3801 110.692 79.746 111.802C82.2512 113.832 84.6159 116.033 87.1345 118.032C90.4248 120.641 93.8137 123.133 97.4952 125.931L97.512 125.968ZM192.443 67.0361C192.805 65.8138 192.784 64.2601 193.465 63.8509C195.864 62.4028 195.16 60.5185 194.555 58.6664C193.736 56.1526 192.926 53.8029 195.113 51.4465C195.616 50.9045 195.261 49.5402 195.239 48.5621C195.182 46.4572 194.847 44.3219 195.045 42.2411C195.491 37.6208 193.406 33.7454 190.64 30.7278C184.624 24.1645 177.108 19.7873 168.039 18.8847C164.845 18.5653 161.374 17.64 157.832 20.8145C159.392 21.7871 160.592 23.1448 161.866 23.2204C165.885 23.4594 168.255 26.0343 170.087 28.9287C171.097 30.5205 171.117 32.9114 171.035 34.9264C171.011 35.6004 169.215 36.1351 168.349 36.8754C167.784 37.3608 166.997 38.1792 167.098 38.6971C167.22 39.3187 168.098 39.9531 168.794 40.2606C169.873 40.7351 171.399 40.6033 172.162 41.3334C173.743 42.8506 172.253 48.8184 170.43 50.2739C169.533 50.9859 168.579 52.3362 168.603 53.374C168.748 59.5855 169.176 65.7897 169.499 71.9919C169.633 74.5712 169.716 77.1606 169.836 79.7407C169.921 81.6722 168.861 82.4002 167.084 82.448C164.726 82.5186 162.358 82.5523 160.004 82.7124C156.623 82.941 155.8 82.6475 155.618 79.3082C155.21 71.765 154.778 64.1856 155.096 56.6569C155.455 48.0571 155.105 50.3776 147.773 49.8254C147.3 49.7902 146.813 50.0473 146.325 50.1624C145.011 50.4627 143.461 51.1265 142.792 49.3375C142.088 47.4532 141.295 45.4315 141.389 43.5055C141.435 42.6734 143.555 41.4641 144.834 41.3302C145.807 41.2197 146.993 42.4585 147.975 43.2295C148.403 43.566 148.544 44.2613 148.785 44.7196C149.873 44.6629 150.731 44.6182 151.595 44.5731C153.34 44.4822 154.815 44.2409 154.63 41.8511C154.371 38.5981 153.416 37.2052 151.105 37.1762C148.129 37.1445 145.15 37.083 142.176 37.1034C140.002 37.1196 137.546 36.6048 136.625 39.5829C136.593 39.6892 135.619 39.5008 135.731 39.5099C136.887 51.7906 138.439 64.0655 139.066 76.3813C139.482 84.5071 138.317 92.7005 138.287 100.865C138.191 125.985 138.297 151.11 138.344 176.238C138.346 177.568 138.475 178.899 138.541 180.174C143.195 180.402 144.251 179.577 144.573 175.719C144.796 173.113 144.869 170.501 145.137 167.9C145.55 163.925 147.965 161.497 151.792 161.05C155.69 160.598 157.848 158.45 158.265 154.606C158.346 153.862 158.182 153.003 158.502 152.404C158.985 151.496 159.793 150.079 160.48 150.066C164.805 150.012 168.999 147.73 173.539 149.931C176.269 151.253 176.843 152.517 176.325 155.339C175.043 162.29 174.003 169.289 173.127 176.301C172.795 178.957 173.23 181.707 173.199 184.415C173.152 189.253 172.532 194.144 173.065 198.915C173.534 203.174 171.558 205.856 169.18 208.701C168.526 209.482 167.729 210.548 167.769 211.458C168.031 217.64 168.503 223.813 168.892 229.989C168.962 231.047 169.063 232.125 168.953 233.17C168.575 236.807 170.798 238.889 174.39 238.239C174.301 242.556 178.417 246.946 175.161 251.025C172.544 254.308 168.812 256.708 165.207 259.819C166.792 259.534 168.215 259.587 169.344 259.027C172.908 257.279 176.502 255.53 179.82 253.369C186.305 249.136 190.714 242.949 194.604 236.422C195.8 234.417 196.378 232.166 194.105 229.998C193.381 229.31 193.576 227.304 193.86 226.011C194.106 224.862 195.336 223.939 195.643 222.787C196.324 220.225 198.323 217.414 194.615 215.268C193.983 214.905 193.744 213.176 193.932 212.202C195.641 203.397 192.212 194.397 194.963 185.65C195.002 185.536 194.95 185.404 194.958 185.276C195.052 181.624 195.146 177.978 195.257 173.652C196.26 174.841 196.651 175.306 197.049 175.771C197.328 175.682 197.601 175.601 197.88 175.511L196.517 149.353C196.591 149.349 196.666 149.345 196.733 149.342C196.552 154.345 196.38 159.347 196.2 164.357C195.559 158.657 195.486 152.957 195.585 147.264C195.919 129.001 194.182 110.725 196.056 92.4715C196.165 91.4193 195.656 89.5323 194.985 89.2907C192.076 88.2464 192.779 86.2439 192.943 84.0975C193.233 80.33 193.251 76.5318 193.406 72.0389C191.52 73.5724 190.342 74.6354 189.059 75.5469C186.393 77.45 181.415 77.4628 179.645 75.634C177.331 73.2505 176.854 69.1194 178.617 66.658C180.791 63.6295 184.624 62.5851 187.857 64.2479C189.378 65.0356 190.805 66.0153 192.472 67.0271L192.443 67.0361ZM58.7688 99.8443C59.0323 99.4493 59.1234 99.1904 59.3028 99.0466C62.9122 96.16 62.7744 96.2419 60.5817 92.3198C59.6256 90.6131 58.5916 88.7011 60.3084 86.5037C63.0695 82.9737 61.7368 79.7767 57.7364 77.6007C53.9746 75.5544 50.042 75.109 45.9718 74.7457C42.5398 74.4387 42.3143 74.129 42.2781 70.5654C42.2744 70.0648 42.2935 69.5705 42.32 69.0757C42.4367 67.1561 41.1896 66.1746 39.619 66.3014C38.9414 66.3516 37.9468 67.9209 37.8616 68.8671C37.4 74.0638 36.9693 79.2812 36.9196 84.4937C36.7567 100.154 36.7511 115.822 36.7456 131.49C36.7415 135.713 36.8798 139.944 37.0923 144.164C37.2228 146.668 38.8328 147.728 40.3401 146.386C42.1327 144.783 43.5116 142.7 45.3524 141.162C48.1247 138.85 50.8693 136.008 54.1376 134.896C58.2873 133.484 60.0223 131.637 58.3688 127.447C57.4562 125.14 56.4043 122.885 55.4038 120.613C53.2857 115.827 54.9712 111.882 58.1878 108.344C59.411 107.002 61.9617 105.889 61.9725 104.663C61.9894 103.122 60.0018 101.559 58.7696 99.8592L58.7688 99.8443ZM36.8124 163.03C35.5173 167.007 35.6028 178.685 37.0697 181.016C41.5607 175.684 47.6282 178.798 53.18 178.33C52.1341 175.043 51.2053 172.139 50.1418 168.801C49.5536 169.848 49.2257 170.441 48.8903 171.034C48.5851 170.915 48.2874 170.796 47.9822 170.677C48.3552 169.372 48.7286 168.075 49.1016 166.769C49.437 166.752 49.7725 166.734 50.108 166.717C51.0626 168.11 51.9528 169.558 52.9934 170.88C54.0983 172.287 55.5939 173.016 57.1635 171.724C58.6613 170.487 57.4845 169.278 56.7306 168.151C56.5201 167.84 56.2739 167.562 56.0276 167.283C51.8831 162.483 51.9632 161.582 56.8902 157.588C59.5077 155.463 59.4 153.54 56.5542 151.715C53.7854 149.936 53.6115 147.937 56.0322 145.718C57.2443 144.593 58.6453 143.22 56.8841 141.697C55.0836 140.139 54.1256 138.537 54.633 135.939C49.5618 140.464 44.483 144.989 39.026 149.856C44.9059 149.086 48.4526 150.59 50.1833 154.253C51.5777 157.2 50.9946 160.639 48.7179 162.85C45.6585 165.82 42.2181 165.925 36.805 163.03L36.8124 163.03ZM29.9157 30.7187C26.7474 32.6031 25.7126 35.4077 24.6747 38.1528C21.2639 47.1434 20.9123 56.6024 20.7094 66.0462C20.5149 75.2205 20.5899 84.4031 20.5899 93.5822C20.5871 94.5316 20.8612 95.4891 21.0673 96.8612C25.386 93.9601 27.9436 90.9714 27.5616 86.0803C27.2112 81.5091 27.3524 76.9047 27.0393 72.3315C26.1146 59.0371 25.5807 45.7822 29.742 32.8357C29.909 32.3112 29.8477 31.7089 29.9165 30.7336L29.9157 30.7187ZM27.6268 254.395C27.9807 254.302 28.3347 254.208 28.6882 254.108C28.1932 252.355 27.6832 250.602 27.1957 248.849C24.8863 240.537 23.6648 232.162 24.4971 223.463C25.4476 213.591 26.0074 203.68 26.5224 193.772C26.6967 190.377 24.0063 187.662 19.9211 186.581C19.7993 187.686 19.5779 188.744 19.5734 189.806C19.5441 200.429 19.4552 211.056 19.5981 221.685C19.6586 226.144 20.1452 230.604 20.6381 235.041C21.4224 242.056 24.5905 248.2 27.6115 254.388L27.6268 254.395ZM152.646 204.973C153.041 204.81 153.436 204.64 153.823 204.478C153.149 202.869 152.87 200.813 151.694 199.76C150.102 198.326 140.715 200.945 139.624 202.819C139.206 203.536 138.955 204.453 138.938 205.284C138.848 209.87 138.662 214.477 138.953 219.052C139.044 220.504 140.185 222.321 141.404 223.192C144.82 225.63 148.494 227.718 152.133 229.831C154.946 231.463 156.352 230.755 156.286 227.492C156.195 223.153 155.737 218.827 155.362 214.496C155.214 212.792 155.026 211.053 154.559 209.41C154.12 207.878 153.298 206.449 152.646 204.973ZM27.6814 126.094C27.925 123.166 28.3177 119.371 28.5303 115.563C28.6277 113.846 29.5758 111.674 27.0324 110.775C24.5501 109.903 23.1112 111.263 21.8457 113.228C20.7459 114.93 20.2225 116.504 21.3609 118.411C21.8446 119.23 22.2046 120.258 22.2238 121.199C22.3486 128.899 22.6381 136.605 22.351 144.289C22.1016 150.977 21.0731 157.631 20.562 164.318C20.3989 166.494 20.5696 168.765 21.0683 170.877C21.2218 171.527 23.0349 172.179 24.0244 172.091C24.7459 172.023 25.8686 170.761 25.9106 169.989C26.0379 167.269 26.0429 164.496 25.6189 161.812C23.8129 150.395 25.5963 139.007 25.7049 127.61C25.7078 127.236 26.6453 126.866 27.6744 126.102L27.6814 126.094ZM145.424 23.5542C144.221 20.9783 142.284 19.674 139.742 19.074C137.35 18.5035 135.035 17.5404 132.627 17.0978C130.997 16.8015 129.252 17.0195 127.578 17.1666C126.491 17.2606 125.392 17.9608 124.362 17.8425C108.872 16.0861 93.4119 16.9069 77.9226 18.3122C81.782 19.0753 85.6624 19.5234 89.5514 19.8514C102.299 20.9136 115.297 19.6156 127.678 24.098C129.795 24.8622 129.261 22.7822 129.248 21.8111C134.325 26.4424 140.075 22.8837 145.417 23.562L145.424 23.5542ZM48.0775 31.9696C57.2536 29.9067 66.0433 27.3107 75.0162 26.0806C84.1155 24.8364 93.3902 24.9509 102.589 24.4714C99.6451 23.6307 96.6993 23.1863 93.7344 23.0942C85.4316 22.8393 77.0125 23.5098 68.8565 22.3428C60.5647 21.153 55.2968 25.7779 49.4106 29.725C48.7967 30.1382 48.5632 31.1071 48.0696 31.9626L48.0775 31.9696ZM138.569 242.789C138.276 243.35 138.038 243.647 137.966 243.987C136.775 249.117 138.85 254.644 136.038 259.642C135.806 260.058 137.255 262.188 137.745 262.125C142.014 261.558 146.368 261.055 150.448 259.751C153.08 258.911 152.976 256.614 150.698 254.789C148.483 253.021 146.233 251.3 144.054 249.5C143.53 249.064 142.766 248.326 142.846 247.843C143.426 244.337 140.645 244.041 138.584 242.796L138.569 242.789ZM58.1274 17.4155C58.6593 17.5822 59.1637 17.9371 59.5169 17.829C78.0705 12.1154 97.3031 13.8337 117.086 12.9147C98.994 6.26327 63.3809 11.7972 58.12 17.4159L58.1274 17.4155ZM50.5414 22.4528C47.8811 20.7452 45.1378 22.4654 42.9301 24.8528C40.9273 27.0128 39.2198 29.5311 37.7923 32.1171C33.9682 39.0587 32.9328 50.1679 35.2565 55.7426C36.5208 50.7433 37.6325 45.5427 39.1699 40.4768C40.6876 35.4643 42.638 30.5788 44.3986 25.6359L45.3255 25.9239C44.9823 27.3695 44.6312 28.808 44.3127 30.1551C46.3636 27.6264 48.4352 25.0667 50.5493 22.4599L50.5414 22.4528ZM59.329 269.194C59.3206 269.464 59.3048 269.734 59.2964 270.003C74.8256 275.959 90.8581 274.794 106.95 273.193C106.451 272.658 105.903 272.47 105.349 272.305C98.8417 270.357 92.3242 273.38 85.7548 272.25C83.8541 271.923 81.6115 273.497 80.5313 270.556C80.3926 270.189 79.4609 269.954 78.8842 269.932C72.3668 269.659 65.8522 269.437 59.3298 269.209L59.329 269.194ZM89.3943 265.497C89.4016 265.923 89.4084 266.341 89.4157 266.767C90.8469 266.692 92.2889 266.535 93.7185 266.572C94.8041 266.605 95.9053 266.795 96.9515 267.076C99.0365 267.64 101.066 268.716 103.167 268.868C107.496 269.18 111.881 269.266 116.209 268.98C119.278 268.783 122.301 267.833 125.341 267.219C125.285 266.713 125.221 266.208 125.164 265.696C113.238 265.629 101.32 265.563 89.3943 265.497ZM36.5966 250.093C40.7509 257.373 46.3727 263.412 54.9041 264.895C63.4127 266.373 72.1401 266.598 80.773 267.307C81.4262 267.362 82.1315 266.84 82.8057 266.58C82.8451 266.19 82.8775 265.807 82.9169 265.416C64.9967 267.509 49.2135 263.562 36.5966 250.093ZM156.888 167.759C156.846 165.1 155.252 163.053 153.17 162.982C150.834 162.902 148.754 165.731 148.788 168.958C148.81 171.387 150.802 173.189 153.447 173.171C156.033 173.155 156.952 171.717 156.887 167.751L156.888 167.759ZM127.068 271.382C132.7 269.87 138.097 269.738 142.433 266.298C136.581 264.891 131.152 264.853 127.068 271.382ZM119.745 75.116C117.943 73.6776 116.942 72.2498 115.768 72.0867C114.081 71.8533 112.661 73.0037 112.85 75.0568C113.039 77.0951 114.472 78.3509 116.318 78.2024C117.293 78.1216 118.149 76.6194 119.745 75.116ZM21.5837 248.879C21.9596 248.778 22.3355 248.676 22.7114 248.574C21.4531 244.08 20.1874 239.586 18.9294 235.1C18.6124 235.184 18.3028 235.267 17.9858 235.351C19.1852 239.863 20.3846 244.375 21.5762 248.88L21.5837 248.879Z" fill="#EEEEEE"/>
<path d="M129.768 120.564C129.257 122.796 129.943 124.927 127.085 126.018C125.663 126.556 126.501 132.746 128.346 134.003C133.307 137.392 132.848 142.506 132.743 147.37C132.567 155.617 127.921 161.996 123.168 168.179C120.039 172.251 110.375 171.26 108.265 166.631C106.027 161.702 103.894 156.633 102.531 151.419C101.794 148.602 102.481 145.285 103.035 142.289C103.782 138.266 104.756 134.156 109.519 132.757C109.63 132.721 109.782 132.631 109.807 132.54C111.301 127.798 115.834 124.415 115.596 118.851C115.404 114.301 116.135 113.83 120.473 113.603C121.293 113.561 122.312 112.753 122.819 112.009C124.27 109.87 125.343 109.664 126.487 111.967C127.841 114.707 128.692 117.69 129.761 120.572L129.768 120.564Z" fill="#EEEEEE"/>
<path d="M68.0058 240.772C69.385 240.558 70.1709 240.434 71.2829 240.257C71.0788 246.524 73.2651 252.472 71.3705 258.573C70.8648 260.199 70.1013 260.897 68.4952 260.771C66.8215 260.642 64.2601 261.119 64.2256 258.878C64.1503 253.418 60.0331 249.574 59.125 244.486C58.6282 241.694 57.5016 239.009 56.5833 236.306C56.009 234.61 56.4022 232.115 53.3168 232.291C52.9664 232.309 52.2754 230.955 52.1754 230.183C51.2144 222.788 50.2828 215.384 49.5595 207.962C49.4784 207.121 50.6126 205.508 51.397 205.355C54.1573 204.822 57.0133 204.546 59.8271 204.609C61.7428 204.651 64.0335 205.002 63.3705 208.057C63.3103 208.336 63.587 208.912 63.8302 208.99C67.33 210.168 66.7853 213.485 67.675 216.07C69.9578 222.723 70.0537 229.438 68.5323 236.244C68.2413 237.545 68.2155 238.914 68.0055 240.764L68.0058 240.772Z" fill="#EEEEEE"/>
<path d="M176.265 210.835C176.058 205.86 180.666 202.473 185.29 204.288C186.534 204.776 187.927 205.399 188.733 206.388C189.827 207.714 191.287 209.641 190.997 210.957C190.647 212.56 188.839 214.142 187.273 215.09C185.875 215.941 183.954 216.086 182.242 216.227C178.439 216.537 176.419 214.64 176.258 210.836L176.265 210.835Z" fill="#EEEEEE"/>
<path d="M151.979 70.9992C152.145 74.1898 149.083 77.3991 145.649 77.6229C142.833 77.8071 140.244 75.1763 139.997 71.8704C139.754 68.6465 142.195 64.9837 144.732 64.7692C147.91 64.5064 151.807 67.8538 151.978 70.9917L151.979 70.9992Z" fill="#EEEEEE"/>
<path d="M142.049 215.048C141.89 212.141 144.385 208.962 146.858 208.937C149.458 208.914 153.23 212.313 153.337 214.781C153.463 217.772 150.102 221.266 146.913 221.47C144.373 221.632 142.261 218.842 142.056 215.04L142.049 215.048Z" fill="#EEEEEE"/>
<path d="M114.252 184.24C114.029 183.857 113.509 183.788 113.344 184.166C113.231 184.426 113.07 184.416 112.875 184.383C110.846 184.031 108.828 183.569 106.868 182.766C105.636 182.263 104.364 181.834 103.216 181.143C101.876 180.336 100.597 179.352 99.3951 178.306C98.4062 177.447 97.6781 176.311 97.0269 175.139C96.7354 174.617 96.37 174.159 95.8372 173.826C95.1584 173.406 94.5366 172.9 94.089 172.15C93.8433 171.738 93.4767 171.334 92.9868 171.112C92.7312 170.997 92.5252 170.716 92.3031 170.503C91.3786 169.608 90.4233 168.745 89.5473 167.801C88.7906 166.983 88.1104 166.085 87.4342 165.193C86.9255 164.522 86.4475 163.818 86.0076 163.099C85.6101 162.447 85.2939 161.748 84.9143 161.08C84.7799 160.843 84.5642 160.653 84.4044 160.432C83.8152 159.615 83.5797 158.668 83.3516 157.738C82.9415 156.096 82.5177 154.445 82.2475 152.786C81.9631 151.042 81.7503 149.279 81.6941 147.538C81.6177 145.246 81.7197 142.966 81.7416 140.679C81.7411 140.603 81.7358 140.526 81.7338 140.428C81.9966 140.468 82.2074 140.5 82.5204 140.543C82.5084 139.942 82.5623 139.357 82.4722 138.783C82.3318 137.861 82.572 137.051 82.7783 136.231C83.2533 134.314 83.7575 132.406 84.2373 130.491C84.2672 130.369 84.1523 130.2 84.1574 130.058C84.167 129.747 84.1733 129.426 84.2431 129.135C84.7839 126.953 85.527 124.871 86.6143 122.969C87.2265 121.901 87.875 120.859 88.5361 119.755C88.5632 119.76 88.6752 119.774 88.7796 119.82C89.0518 119.943 89.2058 119.823 89.3076 119.602C89.9075 118.295 90.5074 116.988 91.0847 115.727C91.1575 115.842 91.2555 116.085 91.3218 116.083C91.467 116.08 91.6324 115.984 91.7269 115.871C92.8489 114.524 93.945 113.149 95.0799 111.817C95.7015 111.083 96.3615 110.378 97.0527 109.716C98.0111 108.8 99.0213 107.94 100.032 107.031C99.8993 107.097 99.7885 107.154 99.6777 107.211C99.6579 107.192 99.6401 107.176 99.6203 107.158C99.7803 106.985 99.9335 106.807 100.102 106.647C100.282 106.474 100.469 106.306 100.666 106.159C100.809 106.055 100.995 106.004 101.135 105.893C101.386 105.694 101.647 105.492 101.85 105.243C102.491 104.465 103.159 103.715 104.027 103.214C104.571 102.901 105.19 102.727 105.756 102.45C106.25 102.208 106.719 101.915 107.189 101.631C108.503 100.838 109.971 100.444 111.5 100.196C113.216 99.9184 114.916 99.5657 116.648 99.3498C117.817 99.204 119.021 99.2196 120.216 99.2142C121.2 99.2082 122.195 99.2708 123.184 99.3156C123.416 99.3251 123.652 99.3855 123.885 99.4213C123.89 99.4721 123.891 99.5248 123.896 99.5757C123.207 99.5781 122.521 99.5787 121.833 99.5812C121.836 99.637 121.843 99.6911 121.846 99.7469C122.378 99.7592 122.91 99.7664 123.443 99.7869C124.343 99.8247 125.243 99.8674 126.146 99.9084C127.237 99.9595 128.335 99.9706 129.417 100.363C130.504 100.758 131.583 101.183 132.672 101.581C133.497 101.881 134.326 102.162 135.153 102.447C136.301 102.843 137.403 103.33 138.26 104.331C138.715 104.862 139.141 105.415 139.593 105.948C139.798 106.189 140.03 106.405 140.248 106.629C141.133 107.545 141.882 108.569 142.486 109.686C142.96 110.558 143.347 111.476 143.796 112.359C144.022 112.803 144.305 113.218 144.542 113.655C145.627 115.661 146.504 117.746 147.168 119.907C147.468 120.881 147.768 121.854 148.018 122.837C148.17 123.434 148.215 124.05 148.331 124.652C148.492 125.494 148.607 126.352 148.865 127.178C149.152 128.106 149.163 129.012 149.202 129.931C149.232 130.611 149.307 131.293 149.332 131.97C149.359 132.62 149.339 133.264 149.364 133.91C149.399 134.698 149.499 135.494 149.507 136.277C149.523 137.886 149.45 139.472 149.238 141.048C148.922 143.427 148.503 145.77 147.807 148.014C147.499 149.011 147.126 149.981 146.719 150.929C145.982 152.639 145.232 154.341 144.419 156.006C143.914 157.043 143.316 158.021 142.701 158.984C141.523 160.818 140.372 162.676 139.089 164.42C137.676 166.34 136.147 168.164 134.629 169.995C134.216 170.494 133.688 170.895 133.171 171.286C132.529 171.769 132.203 172.508 131.754 173.15C130.822 174.484 129.889 175.823 128.915 177.12C128.261 177.991 127.511 178.78 126.842 179.638C126.521 180.052 126.369 180.645 125.989 180.971C125.319 181.548 124.553 182.011 123.792 182.462C123.163 182.834 122.49 183.131 121.825 183.44C120.595 184.014 119.459 184.814 118.019 184.913C117.746 184.934 117.493 184.942 117.497 184.559C116.877 184.495 116.286 184.427 115.692 184.378C115.454 184.359 115.216 184.403 114.978 184.384C114.85 184.371 114.722 184.281 114.592 184.226C114.479 184.23 114.367 184.234 114.252 184.235L114.252 184.24ZM145.38 127.256L145.372 127.262C145.364 127.155 145.355 127.048 145.35 126.94L145.358 126.953C145.504 126.006 144.798 125.361 144.431 124.595L144.306 124.603C144.365 125.367 144.422 126.132 144.481 126.896C144.536 126.901 144.586 126.905 144.641 126.91C144.64 126.62 144.636 126.327 144.635 126.037C144.685 126.041 144.733 126.042 144.786 126.044C144.819 126.283 144.835 126.528 144.889 126.762C144.936 126.956 144.856 127.325 145.263 127.165C145.301 127.195 145.343 127.222 145.381 127.251L145.38 127.256ZM129.325 103.591C129.402 103.613 129.478 103.632 129.556 103.655C129.977 103.893 130.395 104.134 130.818 104.376C131.497 104.84 132.179 105.303 132.859 105.768C133.267 106.193 133.676 106.619 134.08 107.043C134.111 107.073 134.151 107.15 134.145 107.159C133.922 107.408 134.308 107.378 134.318 107.519C134.413 107.244 134.533 107.495 134.604 107.557C134.915 107.816 135.219 108.089 135.516 108.371C135.591 108.439 135.648 108.542 135.688 108.642C135.842 108.997 135.981 109.342 136.423 109.394C136.572 109.411 136.74 109.47 136.868 109.559C137.039 109.684 137.175 109.861 137.331 110.013C138.252 110.897 139.033 111.897 139.714 112.991C140.117 113.64 140.658 114.205 141.112 114.827C141.526 115.392 141.913 115.979 142.31 116.555C142.276 116.577 142.246 116.604 142.214 116.629C142.147 116.591 142.084 116.555 141.956 116.484C142.106 116.752 142.218 116.954 142.33 117.156C142.358 117.138 142.384 117.122 142.412 117.104L142.326 116.849C142.476 116.942 142.585 117.057 142.668 117.183C143.369 118.238 143.787 119.41 144.146 120.596C144.671 122.326 145.165 124.063 145.653 125.803C145.881 126.613 145.873 127.414 145.84 128.232C145.771 129.819 145.846 131.427 145.785 133.015C145.748 134.058 145.609 135.091 145.471 136.118C145.357 136.951 145.191 137.773 145.028 138.592C144.801 139.716 144.576 140.839 144.305 141.946C144.147 142.597 143.878 143.205 143.71 143.854C143.512 144.605 143.372 145.379 143.205 146.143C143.202 146.163 143.223 146.19 143.247 146.246C143.298 146.151 143.333 146.075 143.373 146.001C143.356 145.993 143.339 145.991 143.322 145.983C142.916 147.427 142.507 148.872 142.07 150.416L142.415 150.197C142.325 150.594 142.124 150.909 141.994 151.26C141.641 152.205 141.298 153.16 140.989 154.131C140.826 154.637 140.712 155.17 140.627 155.707C140.506 156.491 140.308 157.225 139.871 157.856C139.656 158.162 139.45 158.48 139.283 158.819C138.816 159.764 138.373 160.725 137.922 161.678C137.63 162.288 137.339 162.898 137.034 163.538C137.101 163.518 137.137 163.518 137.15 163.501C137.896 162.356 138.686 161.243 139.375 160.058C139.854 159.231 140.202 158.308 140.608 157.429L140.606 157.425C140.703 157.579 140.802 157.735 140.903 157.895C140.958 157.793 141.026 157.656 141.103 157.527C141.594 156.687 142.198 155.906 142.543 154.994C143.018 153.753 143.563 152.553 144.029 151.304C144.815 149.195 145.231 146.948 145.86 144.786C146.045 144.146 146.206 143.493 146.315 142.825C146.554 141.357 146.781 139.88 146.964 138.399C147.108 137.224 147.175 136.027 147.295 134.846C147.312 134.679 147.442 134.533 147.551 134.312C147.478 133.821 147.339 133.22 147.306 132.623C147.216 130.854 147.209 129.091 147.089 127.324C147.026 126.41 146.809 125.487 146.622 124.572C146.385 123.415 146.229 122.225 145.824 121.117C145.113 119.169 144.308 117.24 143.41 115.361C142.702 113.881 141.839 112.463 140.967 111.069C140.535 110.381 139.958 109.771 139.393 109.18C138.34 108.076 137.301 106.944 136.158 105.954C134.913 104.878 133.471 104.118 131.963 103.641C130.393 103.142 128.798 102.779 127.215 102.359C127.21 102.358 127.198 102.37 127.15 102.418C127.648 102.666 128.128 102.886 128.598 103.138C128.838 103.268 129.061 103.444 129.292 103.602L129.317 103.609L129.325 103.591ZM145.042 128.688C145.632 128.43 145.25 128.109 144.913 127.803C144.962 128.099 145.011 128.395 145.059 128.695C144.864 129.07 144.928 129.472 144.989 129.894C145.168 129.718 145.306 129.586 145.439 129.452C145.401 129.467 145.364 129.478 145.326 129.493C145.232 129.226 145.138 128.958 145.041 128.693L145.042 128.688ZM120.893 179.077C121.222 178.927 121.551 178.776 121.88 178.626C121.552 178.641 121.256 178.73 120.954 178.792C120.727 178.842 120.749 178.931 120.905 179.078C120.821 179.252 120.74 179.425 120.656 179.599C120.607 179.571 120.555 179.546 120.508 179.522C120.527 179.358 120.551 179.195 120.573 178.993C120.334 179.073 120.141 179.137 119.921 179.209C120.118 179.532 120.11 179.757 119.77 179.834C119.644 179.698 119.523 179.57 119.455 179.5C119.31 179.66 119.205 179.869 119.037 179.936C117.978 180.374 116.834 180.522 115.668 180.567C115.088 180.59 114.504 180.607 113.919 180.593C113.054 180.573 112.184 180.283 111.317 180.492C110.529 180.683 109.698 180.735 108.885 180.843C108.826 180.849 108.76 180.82 108.6 180.787C108.82 180.464 109 180.198 109.197 179.907C109.049 179.849 108.928 179.796 108.804 179.758C108.511 179.67 108.187 179.679 108.081 179.223C108.055 179.114 107.728 179.048 107.477 178.934C107.579 179.138 107.634 179.251 107.69 179.358C107.665 179.388 107.635 179.415 107.61 179.445C107.455 179.324 107.292 179.217 107.145 179.086C107.012 178.97 106.906 178.777 106.761 178.712C106.212 178.465 105.65 178.248 105.088 178.05C105.021 178.025 104.822 178.2 104.839 178.27C104.879 178.491 104.989 178.708 105.099 179C104.444 178.686 103.795 178.377 103.144 178.069C103.054 178.027 102.908 177.946 102.874 177.981C102.632 178.219 102.464 177.959 102.274 177.842C101.773 177.533 101.275 177.222 100.773 176.913C100.752 176.954 100.733 176.993 100.711 177.033C101.71 177.721 102.678 178.472 103.71 179.075C105.748 180.267 107.918 180.937 110.135 181.425C111.702 181.77 113.254 181.959 114.816 181.976C115.386 181.981 115.968 182.073 116.529 182.044C117.131 182.012 117.721 181.871 118.319 181.796C119.855 181.601 121.334 181.25 122.682 180.543C123.86 179.922 124.829 179.03 125.703 178.024C126.231 177.417 126.76 176.812 127.287 176.21C125.276 177.413 123.291 178.631 121.054 179.413C120.989 179.28 120.944 179.183 120.901 179.09L120.893 179.077ZM143.883 131.052L143.879 131.072C143.951 130.866 144.022 130.659 144.103 130.424C144.192 130.413 144.324 130.396 144.388 130.391C144.407 130.133 144.47 129.919 144.429 129.717C144.227 128.717 143.989 127.722 143.791 126.72C143.744 126.477 143.795 126.22 143.8 125.971C143.799 125.945 143.778 125.918 143.765 125.891C143.65 125.91 143.54 125.93 143.412 125.953C143.513 126.645 143.842 127.327 143.682 128.006C143.279 126.507 142.888 125.014 142.557 123.51C142.229 122.022 141.494 120.612 141.377 119.075C141.494 119.297 141.607 119.52 141.718 119.732C141.853 119.539 141.968 119.381 142.106 119.186C141.93 119.016 141.751 118.839 141.667 118.757C141.544 118.401 141.35 118.113 141.391 117.903C141.472 117.511 141.164 117.362 141.032 117.11C140.9 116.858 140.781 116.571 140.589 116.38C140.385 116.178 140.1 116.072 139.947 115.981C139.606 115.53 139.325 115.118 139.002 114.74C138.807 114.515 138.526 114.371 138.326 114.149C137.798 113.561 137.323 112.918 136.78 112.354C135.854 111.401 134.894 110.488 133.94 109.571C133.791 109.429 133.577 109.367 133.412 109.239C132.369 108.432 131.345 107.591 130.282 106.815C129.446 106.204 128.602 105.561 127.696 105.12C126.048 104.316 124.359 103.623 122.67 102.949C121.405 102.443 120.078 102.264 118.835 102.457C117.535 102.659 116.283 103.099 115.057 103.549C112.621 104.444 110.218 105.421 107.79 106.347C107.66 106.398 107.463 106.3 107.296 106.275L107.282 106.114C106.801 106.383 106.316 106.637 105.846 106.922C104.184 107.93 102.541 108.962 101.225 110.441C100.883 110.828 100.469 111.175 100.247 111.639C99.7795 112.597 99.3995 113.612 99.0085 114.616C98.4156 116.147 97.7944 117.664 97.2747 119.228C96.4582 121.67 95.6983 124.139 94.9461 126.607C94.2909 128.759 93.6825 130.935 93.0458 133.097C92.6429 134.458 92.4479 135.884 92.3487 137.33C92.2014 139.419 92.0811 141.514 92.0025 143.618C91.9383 145.381 91.8473 147.153 91.9538 148.929C92.0712 150.905 92.3594 152.893 92.654 154.872C92.8479 156.186 93.1794 157.497 93.4502 158.807C93.9298 161.134 94.7882 163.365 95.696 165.573C96.4062 167.307 97.2705 168.983 98.0882 170.68C98.2878 171.095 98.4822 171.59 98.8091 171.861C99.4548 172.392 100.216 172.76 100.886 173.261C101.306 173.573 101.967 173.601 102.08 174.331C102.088 174.393 102.276 174.453 102.383 174.501C102.503 174.555 102.636 174.582 102.757 174.635C104.557 175.428 106.395 176.031 108.27 176.467C108.828 176.597 109.493 176.47 109.941 177.157C109.478 177.066 109.035 176.98 108.59 176.891C108.585 176.965 108.584 177.038 108.579 177.112C109.271 177.215 109.963 177.318 110.658 177.419C110.661 177.386 110.666 177.356 110.669 177.323C110.527 177.274 110.385 177.225 110.151 177.145C110.333 177.137 110.447 177.092 110.519 177.136C110.993 177.422 111.473 177.341 111.944 177.338C113.241 177.326 114.547 177.353 115.828 177.239C117.063 177.128 118.263 176.85 119.488 176.674C119.8 176.628 120.134 176.698 120.459 176.698C120.757 176.697 121.099 176.762 121.346 176.651C122.059 176.324 122.733 175.91 123.433 175.556C124.091 175.224 124.801 174.98 125.423 174.59C126.709 173.784 127.976 172.936 129.203 172.042C129.839 171.581 130.397 171.003 130.942 170.43C131.239 170.116 131.432 169.689 131.676 169.316C131.63 169.282 131.588 169.246 131.543 169.212C131.335 169.523 131.122 169.832 130.915 170.143C130.876 170.113 130.841 170.082 130.802 170.053C131.733 168.398 132.6 166.693 133.699 165.16C133.735 165.186 133.775 165.21 133.809 165.233C133.668 165.506 133.526 165.775 133.388 166.046C133.427 166.071 133.464 166.092 133.504 166.116C133.67 165.89 133.796 165.613 134.007 165.452C134.784 164.875 135.006 163.911 135.403 163.073C135.449 162.977 135.404 162.817 135.458 162.729C135.547 162.588 135.76 162.511 135.789 162.362C135.942 161.595 136.395 161.008 136.683 160.324C136.812 160.014 136.897 159.678 137.005 159.354C137.049 159.224 137.093 159.093 137.158 158.976C137.318 158.672 137.531 158.394 137.647 158.07C137.942 157.248 138.198 156.405 138.472 155.574C138.719 154.831 138.99 154.1 139.214 153.345C139.3 153.049 139.257 152.7 139.315 152.39C139.458 151.646 139.613 150.908 139.789 150.179C140.011 149.264 140.225 148.345 140.495 147.449C140.745 146.605 141.062 145.791 141.351 144.964C141.41 144.801 141.461 144.518 141.556 144.511C142.075 144.46 141.936 143.971 142.059 143.665C142.161 143.412 142.218 143.134 142.302 142.871C142.687 141.651 143.131 140.456 143.443 139.207C143.801 137.763 144.058 136.28 144.313 134.798C144.393 134.336 144.33 133.83 144.32 133.344C144.315 133.155 144.272 132.962 144.235 132.69C144.047 132.501 143.859 132.222 143.917 131.813C143.95 131.578 143.903 131.321 143.892 131.073L143.883 131.052ZM94.8267 168.326C94.4234 167.333 93.9801 166.352 93.6197 165.345C93.0114 163.641 92.3886 161.932 91.9044 160.198C91.5074 158.79 91.2382 157.345 91.0279 155.912C90.8015 154.359 90.6883 152.797 90.5715 151.242C90.4436 149.551 90.3271 147.853 90.285 146.165C90.2442 144.58 90.2398 142.99 90.3478 141.426C90.5035 139.081 90.7239 136.744 91.0075 134.425C91.1899 132.935 91.5459 131.488 91.802 130.014C92.3342 126.911 93.2815 123.975 94.2757 121.062C94.9577 119.059 95.7081 117.089 96.4302 115.105C96.5772 114.698 96.7311 114.297 96.9149 113.804C96.7422 113.914 96.6472 113.951 96.5781 114.018C95.0037 115.571 93.5543 117.246 92.2231 119.038C92.0477 119.275 91.965 119.707 91.4885 119.45C91.4582 119.433 91.3684 119.517 91.3365 119.573C90.5592 121.05 89.7543 122.509 89.0231 124.016C88.6082 124.869 88.3062 125.795 87.9677 126.694C87.4766 128.003 86.9689 129.305 86.5344 130.641C86.1186 131.925 85.7916 133.256 85.4206 134.56C85.3972 134.642 85.3269 134.7 85.28 134.77C85.2497 134.754 85.2242 134.739 85.1939 134.722C85.3238 134.139 85.4537 133.555 85.5836 132.971C85.4805 132.996 85.434 133.048 85.4187 133.112C85.2266 133.829 85.0276 134.541 84.85 135.262C84.2543 137.69 84.0436 140.217 83.9317 142.763C83.8213 145.268 84.1853 147.776 84.7839 150.279C85.1677 151.879 85.5122 153.487 85.9037 155.087C86.0455 155.655 86.244 156.218 86.4812 156.762C86.7051 157.278 87.0232 157.761 87.2851 158.262C87.3956 158.473 87.4766 158.695 87.5855 158.948C87.5046 158.883 87.4553 158.843 87.3339 158.745C89.494 162.303 92.0425 165.423 94.8275 168.321L94.8267 168.326ZM143.166 124.708L143.275 124.693C142.996 123.652 142.715 122.613 142.436 121.573C142.381 121.585 142.323 121.595 142.268 121.608C142.568 122.644 142.868 123.675 143.168 124.711L143.166 124.708ZM126.051 102.13C126.034 102.186 126.018 102.236 126.002 102.291C126.469 102.514 126.933 102.739 127.399 102.963L127.448 102.82C126.982 102.592 126.519 102.362 126.051 102.13ZM142.102 117.672C142.069 117.026 142.022 116.939 141.456 116.559C141.663 116.916 141.867 117.27 142.102 117.672ZM91.8816 135.679C91.9395 135.714 91.9953 135.746 92.056 135.779C92.39 135.661 92.3134 135.334 92.3258 135.053C92.2768 135.026 92.2299 135.002 92.1809 134.975L91.8816 135.679ZM92.0622 136.133C91.8581 136.405 91.7038 136.606 91.4875 136.891C92.0363 136.843 92.1276 136.593 92.0622 136.133Z" fill="#FF4040"/>
<path d="M176.747 145.199C176.798 145.638 177.247 145.91 177.549 145.63C177.757 145.437 177.9 145.51 178.066 145.619C179.784 146.754 181.448 147.985 182.924 149.505C183.85 150.46 184.844 151.363 185.619 152.455C186.524 153.731 187.302 155.145 187.985 156.585C188.547 157.768 188.759 159.1 188.887 160.435C188.945 161.03 189.097 161.596 189.451 162.115C189.905 162.771 190.272 163.483 190.382 164.35C190.442 164.826 190.617 165.343 190.977 165.742C191.165 165.95 191.241 166.291 191.359 166.574C191.848 167.765 192.378 168.938 192.803 170.154C193.168 171.206 193.432 172.302 193.695 173.389C193.892 174.208 194.048 175.045 194.164 175.88C194.267 176.636 194.276 177.404 194.357 178.168C194.385 178.439 194.507 178.699 194.565 178.965C194.778 179.95 194.614 180.912 194.451 181.855C194.169 183.524 193.896 185.207 193.48 186.836C193.042 188.548 192.531 190.248 191.886 191.866C191.038 193.997 190.031 196.045 189.096 198.133C189.066 198.202 189.04 198.275 189.003 198.365C188.777 198.224 188.597 198.11 188.328 197.945C188.098 198.501 187.814 199.015 187.667 199.577C187.427 200.478 186.882 201.124 186.365 201.793C185.162 203.359 183.936 204.906 182.729 206.469C182.653 206.569 182.691 206.769 182.629 206.897C182.496 207.178 182.362 207.47 182.181 207.709C180.812 209.492 179.298 211.102 177.54 212.409C176.551 213.143 175.539 213.839 174.492 214.585C174.469 214.57 174.372 214.512 174.295 214.428C174.094 214.207 173.905 214.255 173.723 214.417C172.65 215.374 171.578 216.331 170.544 217.255C170.523 217.121 170.53 216.86 170.469 216.835C170.335 216.779 170.145 216.801 170.013 216.867C168.445 217.652 166.89 218.473 165.317 219.239C164.453 219.663 163.566 220.045 162.668 220.374C161.423 220.83 160.153 221.213 158.863 221.642C159.011 221.634 159.135 221.627 159.259 221.619C159.27 221.644 159.28 221.666 159.291 221.691C159.075 221.785 158.863 221.887 158.645 221.966C158.411 222.052 158.172 222.131 157.933 222.187C157.76 222.225 157.569 222.197 157.396 222.243C157.087 222.325 156.767 222.405 156.481 222.552C155.582 223.008 154.67 223.428 153.674 223.54C153.05 223.609 152.413 223.52 151.783 223.548C151.234 223.572 150.687 223.652 150.143 223.725C148.621 223.925 147.118 223.698 145.618 223.313C143.934 222.88 142.235 222.523 140.561 222.027C139.432 221.693 138.335 221.197 137.238 220.723C136.334 220.335 135.447 219.879 134.559 219.442C134.35 219.34 134.157 219.19 133.958 219.064C133.974 219.016 133.994 218.967 134.01 218.918C134.642 219.192 135.271 219.466 135.903 219.739C135.922 219.687 135.938 219.635 135.957 219.582C135.475 219.358 134.99 219.138 134.51 218.906C133.7 218.511 132.893 218.112 132.082 217.713C131.102 217.229 130.1 216.779 129.266 215.986C128.428 215.189 127.61 214.367 126.771 213.567C126.135 212.961 125.488 212.373 124.844 211.78C123.951 210.957 123.137 210.069 122.752 208.809C122.548 208.141 122.379 207.463 122.177 206.794C122.086 206.491 121.96 206.2 121.851 205.908C121.406 204.714 121.13 203.475 121.023 202.211C120.938 201.222 120.951 200.225 120.893 199.236C120.864 198.739 120.771 198.245 120.729 197.751C120.538 195.478 120.569 193.216 120.826 190.97C120.941 189.958 121.056 188.945 121.22 187.945C121.32 187.337 121.525 186.754 121.66 186.156C121.85 185.32 122.087 184.487 122.182 183.628C122.291 182.662 122.644 181.828 122.976 180.97C123.22 180.335 123.424 179.68 123.673 179.049C123.908 178.443 124.185 177.861 124.421 177.259C124.704 176.523 124.931 175.753 125.237 175.033C125.866 173.552 126.569 172.128 127.393 170.769C128.636 168.715 129.958 166.736 131.494 164.958C132.176 164.168 132.906 163.428 133.659 162.723C135.018 161.451 136.387 160.192 137.799 158.991C138.677 158.244 139.616 157.586 140.566 156.95C142.38 155.741 144.178 154.5 146.052 153.416C148.115 152.222 150.247 151.163 152.371 150.093C152.949 149.801 153.593 149.645 154.224 149.494C155.006 149.308 155.6 148.762 156.269 148.352C157.657 147.503 159.047 146.65 160.46 145.851C161.408 145.315 162.411 144.893 163.368 144.374C163.828 144.123 164.204 143.641 164.683 143.494C165.528 143.234 166.415 143.116 167.293 143.008C168.019 142.919 168.754 142.916 169.487 142.899C170.845 142.866 172.205 142.587 173.565 143.073C173.823 143.164 174.058 143.257 173.901 143.607C174.444 143.913 174.958 144.213 175.483 144.495C175.693 144.608 175.929 144.663 176.14 144.776C176.251 144.839 176.333 144.972 176.43 145.076C176.535 145.117 176.639 145.158 176.744 145.203L176.747 145.199ZM125.407 184.951L125.417 184.949C125.381 185.051 125.346 185.152 125.307 185.253L125.305 185.238C124.793 186.048 125.181 186.921 125.211 187.769L125.329 187.812C125.58 187.089 125.835 186.365 126.086 185.642C126.038 185.615 125.993 185.591 125.945 185.564C125.83 185.83 125.716 186.1 125.601 186.367C125.557 186.343 125.513 186.323 125.465 186.3C125.531 186.068 125.614 185.837 125.659 185.6C125.693 185.404 125.914 185.098 125.478 185.082C125.454 185.039 125.427 184.998 125.404 184.955L125.407 184.951ZM130.643 213.066C130.581 213.014 130.519 212.966 130.457 212.915C130.167 212.527 129.88 212.139 129.589 211.748C129.153 211.05 128.713 210.353 128.277 209.656C128.073 209.102 127.869 208.548 127.668 207.998C127.652 207.958 127.646 207.871 127.655 207.866C127.959 207.727 127.594 207.6 127.641 207.466C127.443 207.68 127.434 207.403 127.394 207.317C127.213 206.955 127.044 206.583 126.884 206.206C126.842 206.113 126.831 205.996 126.835 205.889C126.836 205.502 126.847 205.13 126.463 204.906C126.333 204.83 126.202 204.709 126.12 204.576C126.014 204.394 125.96 204.176 125.879 203.975C125.388 202.796 125.073 201.567 124.887 200.291C124.777 199.536 124.508 198.801 124.341 198.05C124.188 197.366 124.068 196.673 123.935 195.986C123.975 195.98 124.013 195.967 124.052 195.957C124.099 196.018 124.142 196.077 124.231 196.193C124.201 195.888 124.179 195.658 124.157 195.428C124.124 195.433 124.094 195.438 124.061 195.443L124.038 195.71C123.938 195.565 123.884 195.417 123.858 195.268C123.639 194.02 123.725 192.779 123.871 191.548C124.082 189.752 124.325 187.963 124.575 186.173C124.69 185.341 125.018 184.609 125.376 183.873C126.075 182.446 126.65 180.942 127.341 179.512C127.793 178.571 128.333 177.68 128.871 176.794C129.31 176.076 129.791 175.39 130.268 174.705C130.927 173.766 131.582 172.827 132.273 171.921C132.679 171.388 133.169 170.938 133.583 170.411C134.065 169.801 134.503 169.149 134.962 168.516C134.973 168.499 134.964 168.466 134.965 168.404C134.88 168.471 134.818 168.526 134.751 168.579C134.763 168.592 134.778 168.601 134.791 168.615C135.741 167.455 136.694 166.294 137.713 165.055L137.309 165.117C137.55 164.789 137.861 164.581 138.121 164.311C138.823 163.587 139.519 162.849 140.191 162.083C140.543 161.685 140.861 161.242 141.153 160.784C141.579 160.114 142.054 159.521 142.707 159.118C143.026 158.923 143.343 158.714 143.631 158.47C144.438 157.791 145.228 157.088 146.023 156.396C146.535 155.954 147.046 155.511 147.581 155.046C147.512 155.038 147.48 155.024 147.461 155.034C146.319 155.784 145.149 156.488 144.043 157.298C143.273 157.864 142.585 158.57 141.861 159.214L141.861 159.217C141.833 159.038 141.805 158.855 141.776 158.668C141.686 158.74 141.569 158.838 141.447 158.926C140.66 159.498 139.794 159.972 139.112 160.67C138.18 161.617 137.2 162.499 136.273 163.456C134.709 165.074 133.428 166.966 131.986 168.695C131.56 169.209 131.151 169.742 130.784 170.311C129.976 171.56 129.178 172.823 128.416 174.107C127.814 175.125 127.274 176.195 126.691 177.23C126.608 177.376 126.431 177.457 126.242 177.617C126.112 178.095 125.999 178.702 125.791 179.262C125.165 180.919 124.465 182.538 123.868 184.205C123.56 185.067 123.389 186 123.194 186.914C122.948 188.069 122.614 189.222 122.541 190.399C122.413 192.469 122.379 194.559 122.449 196.64C122.505 198.28 122.728 199.924 122.969 201.551C123.09 202.355 123.374 203.145 123.655 203.912C124.178 205.346 124.677 206.799 125.328 208.163C126.038 209.649 127.055 210.922 128.246 211.963C129.485 213.049 130.801 214.02 132.083 215.039C132.087 215.042 132.103 215.036 132.167 215.011C131.81 214.584 131.457 214.191 131.128 213.771C130.96 213.556 130.826 213.305 130.677 213.068L130.658 213.052L130.643 213.066ZM126.29 183.775C125.646 183.774 125.867 184.222 126.053 184.637C126.127 184.347 126.201 184.056 126.277 183.761C126.606 183.496 126.708 183.102 126.821 182.691C126.587 182.78 126.408 182.846 126.232 182.915C126.273 182.917 126.311 182.922 126.352 182.924C126.331 183.206 126.31 183.488 126.292 183.77L126.29 183.775ZM168.595 147.27C168.233 147.276 167.871 147.283 167.509 147.289C167.815 147.406 168.123 147.443 168.424 147.507C168.652 147.552 168.668 147.462 168.584 147.264C168.73 147.139 168.874 147.013 169.02 146.887C169.054 146.932 169.092 146.976 169.125 147.017C169.042 147.159 168.955 147.299 168.853 147.475C169.104 147.498 169.307 147.516 169.538 147.538C169.487 147.163 169.584 146.961 169.927 147.027C169.987 147.201 170.047 147.368 170.081 147.458C170.278 147.37 170.458 147.22 170.639 147.227C171.785 147.249 172.892 147.572 173.978 147.997C174.519 148.208 175.062 148.427 175.591 148.674C176.376 149.038 177.058 149.653 177.936 149.808C178.734 149.949 179.517 150.233 180.304 150.46C180.361 150.478 180.41 150.532 180.544 150.626C180.213 150.834 179.941 151.006 179.644 151.193C179.757 151.305 179.846 151.403 179.944 151.487C180.178 151.684 180.478 151.806 180.393 152.267C180.373 152.377 180.646 152.568 180.831 152.773C180.819 152.545 180.813 152.42 180.805 152.299C180.84 152.282 180.878 152.268 180.913 152.252C181.007 152.425 181.114 152.588 181.196 152.766C181.271 152.927 181.291 153.146 181.398 153.263C181.802 153.709 182.23 154.133 182.666 154.54C182.718 154.589 182.969 154.509 182.982 154.438C183.033 154.219 183.02 153.977 183.036 153.665C183.511 154.215 183.981 154.758 184.454 155.301C184.52 155.375 184.622 155.508 184.667 155.49C184.984 155.368 185.034 155.674 185.161 155.857C185.496 156.341 185.829 156.825 186.164 157.309C186.2 157.28 186.233 157.252 186.27 157.224C185.63 156.194 185.043 155.118 184.338 154.152C182.949 152.244 181.229 150.761 179.392 149.426C178.094 148.483 176.748 147.688 175.324 147.048C174.803 146.814 174.306 146.497 173.781 146.299C173.216 146.087 172.62 145.98 172.041 145.81C170.557 145.373 169.06 145.103 167.541 145.211C166.214 145.308 164.968 145.737 163.765 146.309C163.038 146.655 162.311 146.996 161.587 147.337C163.911 147.04 166.218 146.719 168.581 146.898C168.587 147.046 168.59 147.153 168.592 147.255L168.595 147.27ZM128.299 182.073L128.31 182.056C128.162 182.216 128.013 182.377 127.845 182.559C127.76 182.534 127.632 182.497 127.571 182.475C127.45 182.704 127.307 182.876 127.264 183.077C127.048 184.075 126.868 185.081 126.648 186.079C126.594 186.321 126.444 186.535 126.34 186.761C126.33 186.786 126.339 186.819 126.34 186.849C126.453 186.878 126.562 186.903 126.689 186.933C126.873 186.259 126.844 185.502 127.263 184.944C127.032 186.479 126.793 188.004 126.493 189.515C126.198 191.01 126.307 192.595 125.799 194.05C125.781 193.801 125.766 193.551 125.75 193.312C125.549 193.435 125.381 193.534 125.176 193.657C125.269 193.884 125.362 194.118 125.406 194.226C125.376 194.602 125.439 194.944 125.317 195.119C125.086 195.446 125.309 195.706 125.329 195.989C125.349 196.273 125.342 196.584 125.442 196.836C125.548 197.103 125.767 197.314 125.871 197.459C126.003 198.008 126.095 198.499 126.24 198.974C126.328 199.258 126.528 199.503 126.623 199.787C126.871 200.536 127.048 201.316 127.321 202.05C127.787 203.294 128.301 204.515 128.808 205.737C128.888 205.928 129.059 206.07 129.159 206.253C129.792 207.41 130.394 208.591 131.057 209.728C131.579 210.623 132.094 211.549 132.748 212.316C133.937 213.713 135.207 215.024 136.484 216.319C137.441 217.288 138.585 217.983 139.801 218.305C141.073 218.64 142.397 218.738 143.701 218.816C146.291 218.972 148.884 219.038 151.48 219.162C151.62 219.167 151.761 219.337 151.904 219.426L151.853 219.579C152.4 219.525 152.947 219.487 153.492 219.414C155.418 219.155 157.337 218.867 159.135 218.039C159.603 217.822 160.122 217.669 160.511 217.334C161.323 216.642 162.078 215.864 162.838 215.101C163.994 213.936 165.171 212.794 166.273 211.569C167.999 209.658 169.684 207.7 171.362 205.74C172.824 204.03 174.252 202.28 175.701 200.553C176.616 199.468 177.365 198.239 178.035 196.954C179.007 195.099 179.955 193.227 180.87 191.331C181.635 189.74 182.428 188.153 183.041 186.483C183.725 184.626 184.257 182.689 184.779 180.757C185.127 179.476 185.349 178.141 185.625 176.833C186.117 174.508 186.224 172.12 186.276 169.733C186.32 167.86 186.199 165.978 186.129 164.095C186.112 163.635 186.132 163.104 185.941 162.725C185.562 161.98 185.012 161.338 184.598 160.61C184.339 160.157 183.745 159.866 183.933 159.152C183.951 159.092 183.802 158.962 183.724 158.875C183.634 158.778 183.524 158.699 183.434 158.602C182.103 157.155 180.66 155.867 179.116 154.716C178.657 154.374 177.996 154.224 177.861 153.414C178.249 153.684 178.62 153.94 178.993 154.2C179.027 154.134 179.057 154.068 179.091 154.001C178.498 153.63 177.905 153.259 177.309 152.888C177.293 152.917 177.277 152.942 177.261 152.972C177.371 153.073 177.482 153.175 177.664 153.342C177.494 153.276 177.372 153.272 177.324 153.203C177.003 152.751 176.531 152.633 176.098 152.447C174.905 151.939 173.719 151.391 172.499 150.983C171.324 150.59 170.112 150.364 168.919 150.035C168.615 149.952 168.337 149.754 168.039 149.624C167.766 149.505 167.478 149.309 167.208 149.312C166.423 149.326 165.64 149.436 164.857 149.48C164.121 149.521 163.372 149.46 162.647 149.568C161.145 149.792 159.644 150.062 158.163 150.39C157.395 150.558 156.653 150.863 155.924 151.171C155.526 151.339 155.178 151.653 154.805 151.898C154.833 151.947 154.858 151.997 154.886 152.046C155.2 151.845 155.519 151.646 155.834 151.445C155.857 151.487 155.877 151.53 155.901 151.572C154.385 152.716 152.908 153.931 151.287 154.896C151.264 154.857 151.238 154.819 151.216 154.784C151.454 154.591 151.692 154.401 151.927 154.208C151.901 154.17 151.875 154.136 151.849 154.098C151.606 154.238 151.38 154.442 151.122 154.504C150.179 154.722 149.59 155.517 148.89 156.126C148.809 156.196 148.787 156.36 148.701 156.419C148.563 156.513 148.337 156.498 148.251 156.622C147.805 157.265 147.155 157.621 146.616 158.132C146.374 158.365 146.162 158.638 145.933 158.892C145.841 158.994 145.748 159.096 145.642 159.178C145.373 159.391 145.067 159.561 144.831 159.811C144.231 160.447 143.659 161.116 143.075 161.769C142.551 162.351 142.01 162.912 141.503 163.514C141.306 163.751 141.205 164.088 141.028 164.349C140.599 164.973 140.162 165.587 139.708 166.185C139.139 166.935 138.574 167.691 137.969 168.404C137.401 169.077 136.785 169.696 136.189 170.338C136.069 170.464 135.909 170.703 135.82 170.671C135.324 170.51 135.255 171.014 135.02 171.245C134.826 171.436 134.661 171.668 134.48 171.875C133.638 172.839 132.753 173.756 131.967 174.776C131.061 175.956 130.231 177.212 129.404 178.468C129.146 178.859 129.001 179.348 128.816 179.798C128.745 179.973 128.707 180.166 128.632 180.43C128.728 180.679 128.789 181.01 128.572 181.361C128.447 181.564 128.388 181.818 128.299 182.05L128.299 182.073ZM188.175 167.559C188.147 168.63 188.16 169.707 188.088 170.774C187.963 172.579 187.849 174.394 187.599 176.177C187.398 177.626 187.067 179.058 186.685 180.456C186.271 181.969 185.75 183.446 185.234 184.917C184.674 186.518 184.101 188.121 183.464 189.684C182.866 191.153 182.234 192.612 181.509 194.001C180.427 196.088 179.289 198.142 178.101 200.153C177.337 201.445 176.432 202.629 175.607 203.876C173.877 206.507 171.833 208.818 169.756 211.089C168.329 212.652 166.852 214.157 165.396 215.685C165.099 215.999 164.797 216.306 164.431 216.683C164.633 216.652 164.735 216.656 164.825 216.623C166.89 215.83 168.888 214.875 170.826 213.766C171.081 213.619 171.331 213.256 171.664 213.683C171.685 213.71 171.801 213.669 171.853 213.631C173.157 212.588 174.478 211.573 175.751 210.486C176.473 209.87 177.121 209.143 177.791 208.454C178.765 207.451 179.752 206.461 180.685 205.411C181.58 204.401 182.412 203.313 183.275 202.266C183.329 202.2 183.417 202.175 183.488 202.13C183.509 202.157 183.526 202.181 183.547 202.208C183.194 202.691 182.842 203.174 182.489 203.657C182.593 203.675 182.657 203.646 182.696 203.594C183.159 203.014 183.627 202.441 184.079 201.851C185.596 199.865 186.801 197.633 187.923 195.345C189.027 193.095 189.698 190.651 190.152 188.118C190.441 186.497 190.769 184.886 191.051 183.263C191.148 182.686 191.192 182.09 191.192 181.497C191.194 180.935 191.095 180.365 191.056 179.801C191.04 179.563 191.054 179.327 191.056 179.051C191.104 179.143 191.133 179.2 191.205 179.338C190.65 175.213 189.564 171.334 188.172 167.563L188.175 167.559ZM126.415 188.173L126.309 188.143C126.148 189.208 125.99 190.273 125.829 191.338C125.885 191.349 125.941 191.363 125.997 191.373C126.137 190.304 126.274 189.238 126.415 188.169L126.415 188.173ZM133.059 215.715C133.096 215.671 133.13 215.631 133.168 215.587C132.829 215.195 132.494 214.803 132.156 214.412L132.055 214.523C132.39 214.919 132.722 215.315 133.059 215.715ZM124.573 195.047C124.344 195.652 124.353 195.75 124.719 196.324C124.673 195.915 124.627 195.509 124.573 195.047ZM177.802 198.654C177.763 198.599 177.725 198.547 177.682 198.493C177.329 198.467 177.268 198.797 177.144 199.05C177.178 199.094 177.212 199.135 177.246 199.179L177.802 198.654ZM177.818 198.166C178.114 197.998 178.336 197.875 178.648 197.701C178.126 197.525 177.942 197.718 177.818 198.166Z" fill="#FF4040"/>
</g>
<defs>
<clipPath id="clip0_277_1891">
<rect width="276.186" height="195.605" fill="white" transform="translate(14.3767 285.994) rotate(-92.9838)"/>
</clipPath>
</defs>
</svg>
