<svg width="338" height="512" viewBox="0 0 338 512" fill="none" xmlns="http://www.w3.org/2000/svg">
<path d="M92 55L122 47.5L139.5 55L134.5 101L117 133L92 129L76.5 108L79.5 72.5L92 55Z" fill="#FF4040"/>
<g clip-path="url(#clip0_241_174)">
<path d="M113.59 182.44C108.96 181.4 106.85 178.11 105.54 173.86C103.78 168.13 101.78 162.48 99.85 156.8C99.33 155.26 98.65 153.78 97.82 151.69C94.17 153.85 90.97 155.87 87.65 157.67C86.1 158.51 84.17 159.65 82.65 159.37C71.04 157.25 59.49 154.81 47.92 152.45C47.79 152.42 47.69 152.22 47 151.52C51.42 145.36 55.94 139.05 60.46 132.75C60.85 132.21 61.4 131.77 61.72 131.2C63.81 127.43 66.67 125.55 71.14 126.99C71.98 127.26 73.03 126.9 74.54 126.79C73.97 125.22 73.37 124.07 73.14 122.85C72.59 119.98 71.98 117.1 71.8 114.19C71.51 109.49 71.54 104.77 71.44 100.06C71.08 100.02 70.72 99.99 70.36 99.95C69.83 100.84 69.29 101.73 68.68 102.76C68.3 101.94 68.04 101.36 67.77 100.77C67.49 100.97 67.08 101.11 67.05 101.32C65.99 107.55 65.1 113.81 63.85 120.01C63.58 121.33 62.23 123.18 61.07 123.45C48.77 126.33 36.4 128.95 24.05 131.62C23.77 131.68 23.42 131.48 22.21 131.17C22.63 126.76 22.81 122.16 23.52 117.65C26.7 97.59 30.12 77.56 33.3 57.5C35.13 45.99 36.65 34.43 38.36 22.9C38.6 21.29 39.18 19.72 39.75 17.59C41.19 18.22 42.41 18.57 43.43 19.24C53.6 25.9 63.71 32.66 73.92 39.28C76.19 40.75 77.2 42.42 76.46 45.09C76.15 46.21 76 47.37 75.82 48.52C75.33 51.64 74.49 54.77 74.48 57.9C74.48 60.66 75.42 63.42 76.9 66.49C78.19 62.96 80.01 59.52 80.68 55.87C82.45 46.18 87.3 42.38 96.27 41.49C93.61 39.2633 90.4634 38.2167 86.83 38.35C80.06 38.6 80.1 38.59 78.2 31.95C75.86 23.78 73.42 15.65 71.07 7.49001C70.62 5.94001 70.36 4.34001 69.92 2.33001C76.39 1.90001 82.33 1.48001 88.27 1.12001C94.09 0.760006 99.93 0.610006 105.73 0.0700062C109.23 -0.259994 111.58 0.750006 113.77 3.63001C122.73 15.43 131.93 27.05 141.03 38.74C141.23 39 141.34 39.42 141.6 39.54C151.37 44.05 147.43 52.88 147.94 60.19C148.21 63.98 144.4 62.02 141.86 63.48C141.86 67.76 141.21 72.6 142.03 77.19C143.05 82.9 141.96 88.04 140.06 93.21C138.62 97.11 137.09 100.98 135.55 104.84C134.53 107.43 134.75 109.47 137.84 110.23C141.55 111.15 141.98 113.42 140.86 116.68C138.42 123.77 136.13 130.9 133.78 138.02C133.23 139.67 132.7 141.33 132.16 142.99C132.59 143.23 133.02 143.48 133.45 143.72C135.18 141.31 136.94 138.9 138.64 136.47C139.31 135.52 139.75 134.37 140.55 133.56C141.01 133.09 142.19 132.75 142.65 133.02C143.13 133.29 143.49 134.51 143.29 135.1C142.47 137.53 141.41 139.89 140.79 142.44C144.63 140.58 144.98 135.29 150.3 133.99C149.26 137.12 148.43 139.64 147.6 142.16C150.74 140.28 151.23 135.67 156.53 135.3C155.55 138.24 154.73 140.71 153.9 143.18C156.85 139.57 159.4 135.9 164.46 135.35C165.14 135.27 166.1 134.5 166.32 133.84C168.38 127.6 171.65 121.49 168.65 114.6C165.78 108.02 167.39 101.77 170.09 95.58C169.13 102.01 170.65 107.75 172.91 113.83C174.66 118.55 173.82 124.35 173.63 129.65C173.35 137.3 172.53 144.94 172.15 152.59C172.07 154.16 172.47 156.4 173.52 157.22C174.91 158.3 178.42 155.58 178.82 153.18C179.7 147.92 180.39 142.64 181.17 137.36C181.29 136.55 181.47 135.75 181.64 134.84C188.24 133.16 195.17 139.17 201.21 133.54C201.62 134.05 202.03 134.42 201.98 134.53C199.75 138.59 198.46 142.86 197.51 147.45C196.27 153.42 190.62 156.65 184.36 156.09C181.22 155.81 179.26 156.88 177.68 159.94C173.41 168.21 168.75 176.29 164 184.31C163.18 185.69 161.32 186.79 159.72 187.27C157.04 188.07 154.18 188.27 150.96 188.8C150.64 191.2 150.13 193.72 150.06 196.26C150.03 197.35 150.83 198.51 151.42 199.55C152.51 201.46 154.27 203.15 154.79 205.18C165.56 247.1 176.22 289.04 186.84 331C191.66 350.05 196.26 369.16 201.14 388.19C202.08 391.86 203.7 395.41 205.4 398.81C206.05 400.11 207.67 401.19 209.09 401.77C212.63 403.22 216.4 404.12 219.91 405.62C229.54 409.73 239.09 414.02 248.65 418.28C249.54 418.68 250.33 419.36 251.07 420.03C251.39 420.31 251.46 420.87 251.89 421.89C250.44 421.64 249.3 421.69 248.42 421.24C242.63 418.31 237.03 414.99 231.11 412.37C226.59 410.37 221.74 409.03 216.94 407.81C215.89 407.54 213.57 408.75 213.25 409.73C211.94 413.73 210.68 417.09 204.63 412.98C204.71 413.48 204.79 413.97 204.87 414.47C205.09 416.2 205.15 417.98 205.57 419.67C209.1 433.9 212.66 448.12 216.31 462.32C217.3 466.18 218.8 469.92 219.76 473.78C220.41 476.39 221.78 477.76 224.36 478.34C226.63 478.85 228.86 479.58 231.02 480.44C236.02 482.43 236.46 484.12 232.22 487.12C226.53 491.15 222.88 495.69 223.96 503.26C224.31 505.73 222.74 508.47 222.05 511.08C221.57 511.11 221.09 511.14 220.6 511.16C218.29 506.1 215.82 501.1 213.72 495.96C212.4 492.74 211.68 489.27 210.56 485.95C209.25 482.06 208.25 478.17 204.63 475.29C202.61 473.68 201.84 470.49 200.2 467.43C205.02 467.23 204.51 464.74 203.52 461.68C199.2 448.37 195.06 435 190.75 421.68C190.26 420.18 189.33 417.98 188.19 417.68C183.54 416.47 182.81 412.67 181.58 409.07C178.82 401 178.74 400.84 171.18 404.66C169.11 405.71 167.59 407.94 165.96 409.76C163.07 412.96 160.62 416.63 157.38 419.4C153.78 422.48 149.27 423.77 144.33 423.38C138.85 422.94 133.32 423.13 127.88 422.47C123.73 421.96 123.85 425.66 121.67 427.93C118.61 418.61 109.8 413.29 107.61 403.59C106.3 397.77 106.31 392.48 108.38 387.05C108.3 395.3 112.61 410.46 115.93 413.86C115.93 408.3 115.84 402.66 115.98 397.02C116.03 395.1 116.21 392.92 117.14 391.33C120.1 386.23 118.89 380.64 119.29 375.29C119.39 373.88 117.26 372.31 116.1 370.74C113.33 376.11 110.89 380.85 108.44 385.6C111.98 379.2 113.67 372.53 113.17 365.03C112.72 358.43 113.35 351.72 113.99 345.11C115.06 333.95 115.16 322.91 113.53 311.74C112.16 302.3 112.96 292.78 116.48 283.68C117.19 281.84 117.79 279.85 117.88 277.9C118.63 261.42 119.25 244.93 119.88 228.44C119.9 227.81 119.73 227.17 118.93 226.25C118.31 227.46 117.58 228.64 117.08 229.9C96.33 282.41 75.54 334.91 54.97 387.5C53.41 391.49 50.98 395.95 54.22 400.63C54.51 401.04 52.14 404.49 50.95 404.52C44.83 404.68 43.18 408.84 41.4 413.51C33.67 433.73 25.85 453.92 17.84 474.03C16.03 478.58 13.3 482.76 10.99 487.11C10.47 487.05 9.95002 487 9.43002 486.94C9.01002 483.96 7.80002 480.82 8.35002 478.03C9.52002 472.04 7.37002 467.76 3.36002 463.75C1.92002 462.31 1.11002 460.25 0.0200195 458.48C2.25002 457.66 4.52002 456.06 6.71002 456.16C11.7 456.39 13.75 454.01 15.22 449.64C18.29 440.5 21.98 431.57 25.11 422.45C27.43 415.69 29.27 408.78 31.3 401.92C32.27 398.65 30.1 397.03 27.8 395.5C26.43 394.58 25.07 393.64 22.93 392.17C27.11 391.21 30.06 390.31 33.07 389.9C36.08 389.49 37.82 387.97 38.94 385.24C45.01 370.46 51.38 355.79 57.24 340.92C73.48 299.69 89.53 258.38 105.62 217.08C107.31 212.74 108.6 208.23 110.46 203.96C111.33 201.95 113.23 200.41 114.4 198.49C115.26 197.07 116.14 195.43 116.25 193.83C116.65 187.96 116.53 188 122.21 188.24C124 188.32 125.8 188.05 128.55 187.88C126.62 186.35 125.41 185.38 124.2 184.42C133.45 185.37 142.7 186.42 151.97 187.24C156.35 187.63 157.3 186.64 158.61 180.76H132C132.03 180.21 132.07 179.65 132.1 179.1C133.42 179.31 134.75 179.48 136.07 179.73C143.31 181.11 150.57 182.05 157.83 180.01C159.29 179.6 161.07 178.79 161.82 177.6C164.67 173.11 167.43 168.51 169.72 163.71C172.08 158.76 170.1 154.93 165.18 153.78C159.64 152.49 153.95 151.06 148.46 150.69C143.34 150.35 138.39 149.37 133.36 148.92C125.03 148.18 116.61 148.6 108.22 148.46C104.82 148.4 104.22 150.29 104.94 152.98C105.58 155.39 106.69 157.67 107.3 160.08C109.2 167.59 114.18 174.23 113.63 182.43L113.59 182.44ZM128.41 241.38C128.94 237.82 131.16 232.98 129.64 230.97C126.52 226.84 128.01 223.27 128.07 220.01C129.73 219.1 130.89 218.47 132.05 217.83C130.43 215.78 128.8 213.74 127.18 211.69C126.81 211.85 126.45 212.01 126.08 212.18C125.39 224.36 124.22 236.53 124.74 249.05C125.8 248.67 126.23 248.65 126.38 248.44C127.02 247.49 127.58 246.49 128.17 245.51C128.53 249.65 130.47 250.33 137.13 248.42C137.76 237.59 138.4 226.66 139.01 215.72C139.12 213.82 139.04 211.94 135.78 212.49C135.47 216.6 135.23 220.71 134.83 224.8C134.69 226.22 134.3 227.66 133.75 228.98C132.77 231.33 131.52 233.57 130.5 235.9C129.72 237.69 129.11 239.55 128.42 241.39L128.41 241.38ZM126.98 420.57C129.81 420.75 133.11 420.77 136.36 421.22C148.84 422.96 157.93 418.36 164.37 407.47C166.19 404.39 169.56 401.93 172.73 400.04C175.6 398.33 179.14 397.95 177.13 393.15C176.72 392.17 177.96 390.39 178.62 389.07C180.97 384.31 182.21 379.77 180.77 374.1C170.47 333.44 160.58 292.67 150.54 251.95C148.69 244.45 146.78 236.96 144.9 229.46L143.86 229.53C143.62 231.8 143.28 234.07 143.15 236.35C141.37 266.43 139.58 296.52 137.89 326.61C137.14 339.89 136.61 353.18 135.98 366.47C135.88 368.47 136.02 370.94 133.16 370.81C129.25 370.63 128.86 372.93 128.81 375.88C128.7 382.19 128.59 388.51 128.32 394.81C127.96 403.22 127.45 411.62 126.97 420.57H126.98ZM100.3 58.23C85.33 67.68 78.99 105.65 91.58 114.23C90.79 112.22 90.05 110.58 89.5 108.88C89.09 107.62 88.34 105.41 88.76 105.13C92.38 102.66 90.04 98.55 91.75 95.17C92.12 96.87 92.54 98.14 92.66 99.44C93.36 107.03 96.52 113.47 101.49 119.15C105.25 123.43 108.4 124.14 113.21 120.96C116.23 118.96 119.12 116.59 121.59 113.95C129.63 105.33 133.06 94.85 134.4 83.22C135.5 73.66 133.64 65.1 129.31 56.79C128.12 54.51 126.6 53.58 123.81 53.54C114.78 53.41 108.02 57.66 103.02 64.51C98.95 70.08 95.89 76.39 92.9 81.48C95.16 74.39 97.76 66.22 100.29 58.24L100.3 58.23ZM116.6 214.95C116.15 214.43 115.69 213.51 114.98 213.22C114.48 213.02 113.41 213.5 113 214C112.39 214.74 112.11 215.77 111.75 216.7C105.84 232.05 99.91 247.39 94.07 262.77C93.57 264.09 91.88 266.05 94.55 266.78C95.19 266.95 96.43 265.08 97.32 264.08C97.64 263.73 97.75 263.19 97.94 262.72C102.95 250.05 107.96 237.38 112.95 224.7C114.16 221.61 115.28 218.48 116.6 214.95ZM164.81 268.66C164.46 267.03 164.24 265.89 163.95 264.76C160.04 249.46 156.16 234.16 152.12 218.9C151.72 217.39 149.94 214.85 149.45 214.99C146.52 215.85 148.18 218.15 148.6 219.86C152.34 235.03 156.16 250.18 159.96 265.33C160.28 266.62 160.49 267.99 161.12 269.13C161.48 269.78 162.65 270.47 163.3 270.34C163.97 270.21 164.44 269.1 164.79 268.66H164.81ZM125.07 265.65C124.6 265.63 124.14 265.61 123.67 265.59C122.68 289.09 121.7 312.59 120.71 336.09C121.06 336.1 121.4 336.12 121.75 336.13C122.86 312.64 123.96 289.14 125.07 265.65ZM132.83 310.17C133.14 310.17 133.45 310.16 133.76 310.15C134.63 294.3 135.49 278.45 136.36 262.6C135.93 262.58 135.5 262.56 135.07 262.55C134.33 278.42 133.58 294.3 132.84 310.17H132.83ZM115.24 314.66C115.56 314.64 115.89 314.62 116.21 314.6C116.59 306.29 116.96 297.99 117.34 289.68C116.96 289.66 116.58 289.65 116.2 289.63C113.5 297.86 113.5 306.22 115.24 314.66ZM81.02 104.55C83.23 91.16 85.36 78.21 87.49 65.26C83.27 77.9 80.8 90.8 81.02 104.55ZM152.04 248.76C152.52 248.64 153 248.53 153.48 248.41C151.02 238.58 148.55 228.75 146.09 218.92C145.62 219.03 145.16 219.15 144.69 219.26C147.14 229.09 149.59 238.93 152.04 248.76ZM156.08 219.05C155.62 219.17 155.17 219.28 154.71 219.4C156.81 227.51 158.91 235.62 161 243.73C161.42 243.62 161.85 243.51 162.27 243.4C160.2 235.28 158.14 227.16 156.07 219.05H156.08ZM118.95 219.08C118.53 218.92 118.1 218.75 117.68 218.59C115.71 223.56 113.74 228.53 111.77 233.5L113.05 234C115.02 229.03 116.98 224.05 118.95 219.08Z" fill="#101010"/>
<path d="M182.54 112.32C181.33 117.48 182.85 120.96 185.86 123.92C178.88 121.44 177.73 118.19 182.54 112.32Z" fill="#101010"/>
<path d="M172.56 50.9C173.26 54.41 173.97 57.92 174.88 62.48C171.67 59.54 171.37 58.4 171.09 51.17C171.58 51.08 172.07 50.99 172.56 50.89V50.9Z" fill="#101010"/>
<path d="M160.68 57.57C160.39 57.02 159.96 56.49 159.85 55.91C159.31 53.05 158.86 50.18 158.74 47.24C162.07 50.02 162.02 53.65 161.68 57.36C161.35 57.43 161.01 57.5 160.68 57.57Z" fill="#101010"/>
<path d="M166.6 59.85C165.88 56.34 165.16 52.83 164.32 48.8C167.79 51.54 168.21 52.9601 167.85 59.4901C167.43 59.6101 167.01 59.7401 166.59 59.8601L166.6 59.85Z" fill="#101010"/>
<path d="M190.13 67.49C189.46 64.02 188.79 60.55 188.12 57.08C188.61 56.96 189.11 56.83 189.6 56.71C190.44 60.13 191.28 63.55 192.11 66.97L190.13 67.49Z" fill="#101010"/>
<path d="M154.14 46.1C154.78 49.2 155.42 52.29 156.06 55.39C155.65 55.48 155.24 55.57 154.82 55.66C152.01 53.05 153.47 49.48 152.49 46.46L154.13 46.11L154.14 46.1Z" fill="#101010"/>
<path d="M184.22 55L186.12 65.05C185.54 65.17 184.95 65.29 184.37 65.41C183.69 62.09 183.02 58.76 182.34 55.44C182.97 55.29 183.59 55.15 184.22 55Z" fill="#101010"/>
<path d="M178.7 63.39C178.02 60.02 177.34 56.65 176.65 53.29C180.25 56 179.78 59.63 179.97 63.11L178.69 63.39H178.7Z" fill="#101010"/>
<path d="M201.27 61.05C201.8 64.2 202.33 67.34 202.85 70.49C202.26 70.59 201.68 70.6901 201.09 70.7901C200.55 67.6201 200.02 64.4401 199.48 61.2701C200.08 61.2001 200.67 61.12 201.26 61.05H201.27Z" fill="#101010"/>
<path d="M195.64 69.05C195.07 65.79 194.49 62.53 193.87 58.95C196.94 61.81 197.26 63.12 195.64 69.05Z" fill="#101010"/>
<path d="M206.29 72.46C205.91 69.82 205.52 67.18 205.06 63.99C208.12 66.92 208.23 67.4 207.38 72.35C207.01 72.39 206.65 72.42 206.28 72.46H206.29Z" fill="#101010"/>
<path d="M111.19 64.26C108.63 67.62 106.52 70.39 104.18 73.47C104.03 69.04 105.88 66.55 111.19 64.26Z" fill="#101010"/>
<path d="M210.5 62.5C208.9 59.7 166.167 47.6667 145 42L132 104.5L102 150.5L178.5 157L197.5 150.5C202.5 122.333 212.1 65.3 210.5 62.5Z" fill="#101010" stroke="#101010"/>
</g>
<path d="M248 419.5C260 424 306.5 459 370 438.5" stroke="#101010" stroke-width="2.5"/>
<defs>
<clipPath id="clip0_241_174">
<rect width="251.86" height="511.17" fill="white"/>
</clipPath>
</defs>
</svg>
