<?xml version="1.0" encoding="UTF-8"?>
<svg id="Layer_1" data-name="Layer 1" xmlns="http://www.w3.org/2000/svg" viewBox="0 0 122.29 171.29">
  <defs>
    <style>
      .cls-1 {
        fill: #231f20;
        stroke-width: 0px;
      }
    </style>
  </defs>
  <path class="cls-1" d="M62.26,164.32l-.08.59s-.38,2.7-1.03,4.87c-.65-2.17-1.02-4.84-1.03-4.87l-.08-.59-19.06,6.28v-6.41l17.34-14.35-1.76-14.94-3.65-3.01-.28.12s-.92.4-1.82.4c-.56,0-.97-.15-1.23-.46-1.84-2.16-1.73-13.5-1.51-18.28h5.99v-21.61l-16.46,2.62L.5,110.6c-.1-4.31,1.41-7.59,1.72-8.22l33.94-22.4,18.11-15.32V27.52c.25-7.5,1.97-27.02,6.87-27.02s6.62,19.51,6.87,27.03v37.13l18.06,15.28,33.99,22.43c.31.62,1.82,3.91,1.72,8.22l-37.08-15.92-16.46-2.62v21.61h5.99c.22,4.79.33,16.13-1.51,18.28-.26.3-.67.46-1.23.46-.9,0-1.81-.39-1.82-.4l-.28-.12-3.65,3.01-1.76,14.94,17.34,14.35v6.41l-19.06-6.28Z"/>
  <path class="cls-1" d="M61.15,1c3.78,0,6,15.53,6.37,26.52v37.38l.35.3,17.89,15.13.05.04.05.03,33.83,22.32c.36.76,1.54,3.51,1.61,7.12l-36.33-15.6-.11-.05-.12-.02-15.82-2.52-1.16-.18v22.69h6.01c.26,6.19.11,15.68-1.41,17.46-.16.19-.44.28-.85.28-.79,0-1.61-.35-1.62-.36l-.56-.25-.47.39-3.26,2.69-.31.26-.05.4-1.71,14.47-.06.54.42.35,16.95,14.03v5.49l-17.83-5.87-1.14-.38-.16,1.19s-.19,1.37-.53,2.92c-.34-1.54-.53-2.89-.53-2.92l-.16-1.19-1.14.38-17.83,5.87v-5.49l16.95-14.03.42-.35-.06-.54-1.71-14.47-.05-.4-.31-.26-3.26-2.69-.47-.39-.56.24s-.83.36-1.62.36c-.4,0-.69-.09-.85-.28-1.52-1.78-1.67-11.27-1.41-17.46h6.01v-22.69l-1.16.18-15.82,2.52-.12.02-.11.05L1,109.84c.07-3.61,1.25-6.36,1.61-7.12l33.83-22.32.05-.03.05-.04,17.89-15.13.35-.3V27.55c.37-11.02,2.59-26.55,6.37-26.55M61.15,0c-6.45,0-7.37,27.52-7.37,27.52v36.92l-17.89,15.13L1.84,102.04s-2.15,3.96-1.8,9.31l37.69-16.19,15.82-2.52v20.52h-5.96s-.85,16.24,1.61,19.11c.41.48,1.01.63,1.61.63,1.02,0,2.02-.44,2.02-.44l3.26,2.69,1.71,14.47-17.31,14.33v7.34l19.15-6.31s.55,4.01,1.52,6.31c.97-2.29,1.52-6.31,1.52-6.31l19.15,6.31v-7.34l-17.31-14.33,1.71-14.47,3.26-2.69s1,.44,2.02.44c.6,0,1.2-.15,1.61-.63,2.45-2.87,1.61-19.11,1.61-19.11h-5.96v-20.52l15.82,2.52,37.69,16.19c.34-5.35-1.8-9.31-1.8-9.31l-34.05-22.47-17.89-15.13V27.52s-.92-27.52-7.37-27.52h0Z"/>
</svg>