<?xml version="1.0" encoding="UTF-8"?>
<svg id="Layer_2" data-name="Layer 2" xmlns="http://www.w3.org/2000/svg" viewBox="0 0 28.95 28.95">
  <defs>
    <style>
      .cls-1 {
        fill: #eee;
        stroke-width: 0px;
      }
    </style>
  </defs>
  <g id="Layer_1-2" data-name="Layer 1">
    <path class="cls-1" d="M17.97,14.47l10.25-10.25c.97-.97.97-2.53,0-3.5-.97-.96-2.53-.96-3.5,0l-10.25,10.25L4.22.72C3.26-.24,1.69-.24.72.72-.24,1.69-.24,3.26.72,4.22l10.25,10.25L.72,24.72c-.97.97-.97,2.53,0,3.5.48.48,1.12.72,1.75.72s1.27-.24,1.75-.72l10.25-10.25,10.25,10.25c.48.48,1.12.72,1.75.72s1.27-.24,1.75-.72c.97-.97.97-2.53,0-3.5l-10.25-10.25Z"/>
  </g>
</svg>