<?xml version="1.0" encoding="UTF-8"?>
<svg id="Layer_2" data-name="Layer 2" xmlns="http://www.w3.org/2000/svg" viewBox="0 0 29.78 28">
  <defs>
    <style>
      .cls-1 {
        fill: #eee;
        stroke-width: 0px;
      }
    </style>
  </defs>
  <g id="Layer_1-2" data-name="Layer 1">
    <g>
      <path class="cls-1" d="M27.39,16.39H2.39C1.07,16.39,0,15.32,0,14s1.07-2.39,2.39-2.39h25c1.32,0,2.39,1.07,2.39,2.39s-1.07,2.39-2.39,2.39Z"/>
      <path class="cls-1" d="M27.39,4.78H2.39c-1.32,0-2.39-1.07-2.39-2.39S1.07,0,2.39,0h25c1.32,0,2.39,1.07,2.39,2.39s-1.07,2.39-2.39,2.39Z"/>
      <path class="cls-1" d="M27.39,28H2.39c-1.32,0-2.39-1.07-2.39-2.39s1.07-2.39,2.39-2.39h25c1.32,0,2.39,1.07,2.39,2.39s-1.07,2.39-2.39,2.39Z"/>
    </g>
  </g>
</svg>