<?xml version="1.0" encoding="UTF-8"?>
<svg id="Layer_2" data-name="Layer 2" xmlns="http://www.w3.org/2000/svg" viewBox="0 0 259.36 359.92">
  <defs>
    <style>
      .cls-1 {
        fill: #121212;
        stroke-width: 0px;
      }
    </style>
  </defs>
  <g id="Layer_1-2" data-name="Layer 1">
    <g>
      <g id="SuitTie">
        <path class="cls-1" d="M70.18,236.44c-1.57-2.36-6.03.22-9.1,2.52-1.99,1.49-3.57,3.11-5.07,5.13-7.76,10.46-15.26,20.96-28.31,26.09-8.43,3.32-16.78,7.24-24.48,12.25-2.04,1.34-4.22,2.86-2.74,5.41,2.18,3.75,6.91,3.85,10.37,4.72,2.19.56,3.42.66,4.5,2.67,1.22,2.27,1.04,4.71,1.39,7.08.41,2.8,2.63,3.29,4.65,4.31,2.95,1.49,2-2.35,3.86-2.49.18.78.43,1.55.51,2.34.57,5.43,5.5,9.61,10.58,7.63,3.62-1.42,3.79.84,5.33,2.33,7.76,7.44,11.48,17.13,15.36,26.8,1.33,3.31.23,6.84,1.63,10.09.82,1.9,1.8,4.03,3.89,3.75,1.79-.24,2.51-2.58,2.61-4.34.35-6.35,1.38-12.85.46-19.04-1.38-9.19-2.46-18.38-3.51-27.61-1.95-17.33-3.84-34.59-2.67-52.06.26-3.83,1.77-6.21,5.22-9.52,3.98-4,8.49-3.57,5.5-8.05Z"/>
        <path class="cls-1" d="M255.3,295.43c-6.85-3.03-13.37-6.8-20.12-10.1-9.28-4.55-19.03-8.68-25.64-17.46-3.95-5.24-7.08-10.97-10.61-16.45-2.3-3.55-5.49-8.19-6.89-10.43-2.25-3.6-4.81-5.77-6.86-3.44-1.44,2.31.44,4.73,2.8,7.26,1.48,1.76,1.89,3.08,2.2,4.61,1.6,7.74,1.85,15.48.44,23.33-2.23,12.49-4.27,25.02-6.13,37.58-1.67,11.28-2.53,22.68-5.65,33.72-.47,1.67-.87,3.51-.02,5.25,1.64.85,2.17-1.86,3.91-1.07,3.88,1.74,4.53-.93,5.56-3.85,1.16-3.27,1.55-7.37,6.29-8.15,1.6-.27,1.97-1.94,2.24-3.48.68-3.9,3.1-5.78,6.91-4.77,4.22,1.12,7.3-.58,10.1-3.22,1.23-1.15,2.43-2.58,4.09-2.37,3.32.42,4.69-1.23,5.64-4.03,1.61-4.77,5.06-6.25,9.51-4.13,3.95,1.88,4.84.3,5.24-3.3.45-4.08,2.73-6.02,7.11-5.07,1.46.32,2.76.87,4.13,1.37,3.61,1.31,8.51-.24,9.3-3.07,1.01-3.67.69-6.86-3.57-8.75Z"/>
        <path class="cls-1" d="M121.32,331.97c.91,2.82,1.48,4.48,1.98,6.17.34,1.17,1.48,2.74-.21,3.39-1.6.61-1.9-1.34-2.58-2.35-.8-1.2-.79-2.88-2.18-3.74-8.61,8.04-17.97,15.01-28.71,20.24-.8-2.2.82-2.85,1.76-3.83,6.75-7.07,13.62-14.01,20.2-21.24,2.61-2.87,4.39-6.47,6.86-9.48,1.29-1.56,3.29-2.54,5.13-3.9-1.62-1.13-3.26-2.28-5.06-3.52,6.03-2.12,7.27-1.69,9.28,3.4.44,1.13,1.54,1.59,2.19,1.69,9.43,1.41,14.1,9.2,19.78,15.24,4.86,5.17,8.36,11.6,12.51,17.43,1.02,1.43,1.98,3.18.43,4.3-1.3.92-2.66-.72-3.67-1.76-5.12-5.26-10.24-10.53-15.24-15.9-1.79-1.91-2.81-2.76-4.63.17-1.6,2.56-2.45,6.87-7.44,5.35-.45-.14-1.79,2.63-2.7,4.04,1.91,1.77,4.5-1.67,5.85,1.04,1.47,2.94,2.24,6.14,2.45,9.42.13,2.08-1.63,1.72-2.8,1.74-5.07.08-10.13,0-15.2.05-2.95.04-3.36-1.26-2.22-3.64.85-1.78,1.76-3.53,3.29-4.83,1.8-1.53,3.43-3,2.45-5.77-.4-1.15.43-2.08,1.21-3.01,3.61-4.33,3.2-6.55-2.72-10.7v.02Z"/>
      </g>
      <g>
        <path class="cls-1" d="M232.27,165.18c-.79-6.13-1.68-12.25-2.31-18.4-.23-2.23-.31-4.69.4-6.74.66-1.91,2.46-3.42,3.75-5.11,1.54,1.45,3.87,2.63,4.47,4.4,1.57,4.69,2.39,9.63,3.85,15.93-2.65-1.08-3.83-1.56-6.5-2.64.24,3.48-.33,6.76.79,9.31,2.66,6.09,2.09,9.67-4.08,15.12-.69-1.84-1.31-3.48-2.43-6.45-1.1,3.73-1.79,6.09-2.51,8.53,1.53.33,2.67.57,4.66,1-2.43,2.76-4.83,7.24-6.48,6.98-2.89-.47-5.31-3.84-7.98-6.03,7.29-6.58,7.35-9.6-.26-17.17-1.55,5.08-3.05,9.35-4.11,13.73-.65,2.68-.38,5.58-.98,8.28-1.13,5.13-.77,8.97,5.62,10.02,1.52.25,2.71,2.49,4.04,3.82-1.71,1.24-3.27,2.82-5.17,3.59-1.26.51-3.01,0-4.49-.28-6.48-1.18-8.54-.24-8.72,6.39-.27,10.1-3.93,19.3-9.08,27.12-4.71,7.16-11.9,13.48-19.36,17.83-9.48,5.53-19.09,11.67-30.62,12.86-14.63,1.51-29.33,4.5-43.9.6-16.69-4.46-29.51-13.72-36.38-30.5-4.5-11-11.49-20.97-12.85-33.26-.16-1.45-2.94-3.09-4.82-3.78-5.69-2.07-9.11-5.66-11.04-11.57-3.43-10.5-6.46-20.81-3.35-31.99.55-1.96-.43-4.43-.98-6.59-2.24-8.7-.62-12.51,6.73-17.75,1.64-1.17,3-3.99,2.95-6-.14-5.05-.8-10.16-1.92-15.1-3.86-17.04-1.48-33.53,5.87-48.9,3.86-8.07,11.32-14.35,15.89-22.18,6.65-11.41,17.03-17.49,28.19-23.16,5.4-2.74,10.23-6.61,15.35-9.93C112.92,1.74,122.06-.84,132.06.24c19.19,2.07,36.2,9.09,50.73,22.06,4.88,4.35,10.66,7.69,15.67,11.91,4.24,3.57,7.41,8.71,12.06,11.45,7.33,4.33,9.78,12.03,14.71,17.96,7.62,9.16,9.08,20.46,8.68,31.63-.41,11.6-2.46,23.16-4.16,34.68-.32,2.16-1.95,4.56-3.67,6.02-6.82,5.78-7.74,15.88-1.73,22.72,2.12,2.42,4.23,4.85,6.34,7.27.53-.25,1.06-.5,1.58-.75ZM191.62,119.67c-2.38,3.96-5.8,7.04-5.49,9.67.77,6.41-4.65,6.5-6.53,5.44-6.55-3.7-13.59-2.24-18.92-2.86-2-3.25-3.34-5.43-4.68-7.61-1.68,1.68-3.36,3.35-4.02,4.01,1.97,2.4,3.7,4.51,5.49,6.68-4.66,3.84-9.04,7.3-13.26,10.96-4.82,4.19.62,10.21-2.68,15.4-2.76-3.96-6.04-4.03-9.28-.88-1.68-3.73-2.78-6.97-4.51-9.85-4.52-7.52-6.45-15.28-3.33-23.83.34-.93.78-2.16.44-2.94-2-4.65,1.45-6.82,4.45-6.88,5.24-.1,6.19-3.41,7.58-7.02,1.25-3.26,2.17-8.72,4.21-9.22,7.85-1.91,16.44-4.01,24.09-2.54,6.11,1.17,10.97,1.84,16.3-1.65,2.01,2.3,3.95,4.51,6.1,6.97,3.06-.76,6.24-1.55,9.9-2.46-3.8-3.6-6.71-6.35-9.62-9.11,1.11-1.19,2.96-2.51,2.76-3.05-2.23-5.86-6.41-10.16-11.91-13.42,3.12-.33,6.02-.63,10.04-1.05-2.69-3.22-4.59-5.48-6.4-7.65-2.03,1.27-3.82,2.4-5.55,3.48-4.51-5.9,2.24-4.56,3.9-6.9-3.25-1.54-6.09-3.82-9.09-4.05-2.96-.23-4.35-.44-6.37-3.2-4.79-6.54-9.58-7.27-15.41-3.55-.59-5.8-6.96-3.4-8.33-5.31-2.97-4.18-6.35-5-10.65-5.19-1.49-.07-3.21.25-4.42-.38-10.57-5.47-21.3-2.74-31.89-.55-7.56,1.56-15.1,3.6-22.32,6.3-6.92,2.6-13.1,6.93-15.32,14.5-1.17,4.01-1.35,8.46-1.16,12.68.15,3.29,1.57,6.52,2.5,10.06-1.73,4.54-3.82,10.05-5.9,15.5,5.5,2.78,9.51,2.44,13.33-1.96,1.41-1.62,4.58-2.55,6.85-2.41,7.89.51,16.02-1.7,23.65,2.28,3.75,1.96,9.33,2.13,11.48,5.04,3.22,4.36,5.55,10.37,5.72,15.77.25,7.83-1.48,15.78-2.96,23.56-.64,3.37-3.51,5.15-7.03,3.21-2.35-1.29-4.32-3.27-6.58-4.76-1.4-.93-2.96-2.02-4.54-2.18-3.26-.34-6.58-.08-9.87-.15-.23,0-.45-.66-.77-1.15,1.16-.7,2.31-1.39,3.68-2.21-5.56-3.14-8.87,7.51-15.02,1.55-3.82-3.7-9.21-5.78-13.58-8.39-2.19.98-4.71,1.71-6.71,3.16-.94.68-.9,2.73-1.31,4.16,4.58.43,1.82,3.62,1.08,4.48-4.32,5.09-3.15,10.99-2.92,16.71.29,6.9.99,13.78,1.16,20.68.02.93-2.06,1.91-3.84,3.45,9,.04,11.68,5.03,12.6,12.1.6,4.68,1.69,9.35,3.12,13.85,2.3,7.26,5.06,14.38,7.56,21.39,2.49-.28,4.12-.46,4.76-.54-.45,3.19-2.23,7.19-.99,8.7,3.97,4.8,8.56,9.51,13.86,12.67,5.03,2.99,11.45,3.51,16.89,5.94,10.13,4.51,19.93-.33,29.87-.48,4.28-.07,8.69-3.22,12.75-2.71,3.22.41,6.46,2.22,9.16-.1,2.39-2.05,3.89-5.15,5.32-7.15,12.27.61,20.95-4.02,25.74-15.65.07,1.1.14,2.2.27,4.29,1.33-1.4,2.47-2.08,2.82-3.05,2.7-7.4,4.91-15,7.94-22.25,2.59-6.22,6.13-12.04,9.12-18.1.88-1.79,1.49-3.77,1.94-5.73,1.93-8.32,2.66-16.83,3.76-25.23,2-15.29,2.53-29.37-6.58-43.72-1.13,2.74-1.89,5-2.98,7.07-.72,1.37-1.79,3.32-2.94,3.5-1.34.21-3.12-1-4.37-2.01-.87-.7-1.16-2.11-2.19-4.15ZM161.96,118.25c5.52.39,10.27.73,15.89,1.13-7.08-9.98-11.55-10.21-15.89-1.13Z"/>
        <path class="cls-1" d="M140.12,181.36c1.95,1.37,3.98,2.78,6.34,4.44-2.35,5.12-.66,9.11,3.79,11.9q-4.32,7.72,3.59,14.01c-5.19,6.52-12.25,6.81-19.62,6.39-10.32-.58-20.68-.7-30.97-1.64-5.42-.49-10.72-2.29-16.18-3.53.81-2.49.99-6.22,2.36-6.73,7.17-2.65,14.53-5.16,22.04-6.36,5.59-.9,11.53.07,17.27.58,2.68.24,5.28,1.37,9.24,2.45,0-2.5.54-4.87-.13-6.84-1.02-3.02-2.76-5.84-4.46-8.57-.45-.73-1.93-.78-2.88-1.25-1.17-.58-2.81-.98-3.35-1.96-3.15-5.7-5.53-6.57-12-3.9-7.05,2.91-16.42-2.81-16.42-10.33,0-1.57,1.62-3.77,3.09-4.55,2.14-1.13,4.97-2.01,7.24-1.59,3.33.62,6.33,2.8,9.64,3.73,4.45,1.25,7.17-.96,8.07-5.35,13.25,2.67,17.34,8.45,13.33,19.08Z"/>
        <path class="cls-1" d="M117.82,240.2c1.18-5.01-3.73-8.9-12.4-9.41.78-1.94.98-4.08,2.14-5.07,5.62-4.78,19.47-4.8,25.73-.38,3.96,2.8,2.31,5.04-.76,6.84-4.65,2.71-9.44,5.16-14.71,8.02Z"/>
      </g>
    </g>
  </g>
</svg>