<?xml version="1.0" encoding="UTF-8"?>
<svg id="Layer_2" data-name="Layer 2" xmlns="http://www.w3.org/2000/svg" viewBox="0 0 264.18 352.21">
  <defs>
    <style>
      .cls-1 {
        fill: #121212;
        stroke-width: 0px;
      }
    </style>
  </defs>
  <g id="Layer_1-2" data-name="Layer 1">
    <g>
      <g id="SuitTie">
        <path class="cls-1" d="M68.25,229.62c-1.6-2.4-2.9-2.96-6.03-.62-2.03,1.52-3.64,3.17-5.16,5.22-7.9,10.65-15.54,21.35-28.84,26.58-8.58,3.38-17.09,7.37-24.94,12.48-2.08,1.36-4.3,2.91-2.79,5.51,2.22,3.82,7.04,3.92,10.56,4.81,2.23.57,3.48.67,4.58,2.72,1.24,2.31,1.06,4.8,1.42,7.21.42,2.85,2.68,3.35,4.74,4.39,3,1.52,2.04-2.39,3.93-2.54.18.79.44,1.58.52,2.38.58,5.53,5.6,9.79,10.77,7.77,3.69-1.45,3.86.86,5.43,2.37,7.9,7.58,11.69,17.45,15.64,27.3,1.35,3.37.23,6.97,1.66,10.28.83,1.94,1.83,4.1,3.96,3.82,1.82-.24,2.56-2.63,2.66-4.42.36-6.47,1.41-13.09.47-19.39-1.41-9.36-2.51-18.72-3.57-28.13-1.99-17.65-3.91-35.24-2.72-53.03.26-3.9,1.8-6.32,5.32-9.7,4.05-4.08,5.41-.45,2.37-5.01Z"/>
        <path class="cls-1" d="M260.05,286.52c-6.98-3.09-13.62-6.92-20.49-10.29-9.45-4.63-19.38-8.84-26.12-17.78-4.02-5.34-7.21-11.17-10.81-16.75-2.34-3.62-5.59-8.35-7.02-10.62-2.29-3.67-3.32-3.38-5.4-.99-1.47,2.35-1.14,2.31,1.27,4.89,1.51,1.79,1.92,3.14,2.24,4.69,1.63,7.88,1.88,15.76.45,23.77-2.27,12.72-4.35,25.49-6.24,38.28-1.7,11.49-2.58,23.11-5.75,34.35-.48,1.7-.89,3.57-.02,5.35,1.67.87,2.21-1.89,3.98-1.09,3.95,1.77,4.61-.95,5.66-3.92,1.18-3.33,1.58-7.51,6.41-8.3,1.63-.27,2.01-1.98,2.28-3.54.69-3.97,3.16-5.89,7.04-4.86,4.3,1.14,7.43-.59,10.29-3.28,1.25-1.17,2.47-2.63,4.17-2.41,3.38.43,4.78-1.25,5.74-4.1,1.64-4.86,5.15-6.36,9.68-4.21,4.02,1.91,4.93.31,5.34-3.36.46-4.16,2.78-6.13,7.24-5.16,1.49.33,2.81.89,4.21,1.4,3.68,1.33,8.67-.24,9.47-3.13,1.03-3.74.7-6.99-3.64-8.91Z"/>
        <path class="cls-1" d="M123.57,323.74c.93,2.87,1.51,4.56,2.02,6.28.35,1.19,1.51,2.79-.21,3.45-1.63.62-1.94-1.36-2.63-2.39-.81-1.22-.8-2.93-2.22-3.81-8.77,8.19-18.3,15.29-29.25,20.61-.81-2.24.84-2.9,1.79-3.9,6.87-7.2,13.87-14.27,20.57-21.63,2.66-2.92,4.47-6.59,6.99-9.65,1.31-1.59,3.35-2.59,5.22-3.97-1.65-1.15-3.32-2.32-5.15-3.58,6.14-2.16,7.4-1.72,9.45,3.46.45,1.15,1.57,1.62,2.23,1.72,9.6,1.44,14.36,9.37,20.14,15.52,4.95,5.26,8.51,11.81,12.74,17.75,1.04,1.46,2.02,3.24.44,4.38-1.32.94-2.71-.73-3.74-1.79-5.21-5.36-10.43-10.72-15.52-16.19-1.82-1.95-2.86-2.81-4.72.17-1.63,2.61-2.49,7-7.58,5.45-.46-.14-1.82,2.68-2.75,4.11,1.95,1.8,4.58-1.7,5.96,1.06,1.5,2.99,2.28,6.25,2.49,9.59.13,2.12-1.66,1.75-2.85,1.77-5.16.08-10.32-.01-15.48.05-3,.04-3.42-1.28-2.26-3.71.87-1.81,1.79-3.59,3.35-4.92,1.83-1.56,3.49-3.06,2.5-5.88-.41-1.17.44-2.12,1.23-3.07,3.68-4.41,3.26-6.67-2.77-10.9v.02Z"/>
      </g>
      <g>
        <path class="cls-1" d="M235.76,152.98c-.12,1.59.06,2.65-.26,2.81-4.6,2.25-4.23,6.69-5.63,10.44-.62,1.64-3.62,4.18-4.21,3.89-6.21-3-5.72,1.65-6.23,4.69-.56,3.35,2.99,7.66-3.2,9.53-3.68,1.11-7.03,3.7-10.73,4.14-4.67.55-4.91,2.78-5.44,6.26-1.88,12.38-4.04,24.74-6.53,37.03-.6,2.96-2.63,5.79-4.45,8.39-3.92,5.59-8.2,10.96-12.23,16.48-8.42,11.53-21.7,12.79-34.73,14.71-13.99,2.06-27.65.45-41.24-2.72-8.42-1.96-14.33-7.28-19.26-13.36-8.09-9.96-15.17-20.41-18.84-32.85-2.97-10.09-7.67-19.74-11.6-29.58-.08-.21-.21-.55-.34-.56-7.56-.76-6.3-7.61-8.64-11.9-2.34,1.21-5.46,3.37-5.89,2.97-3.65-3.37-8.6-6.78-9.74-11-2.65-9.77-2.54-20.01.13-29.95,1.15-4.25,1.91-7.62-3.37-10.2-3.31-1.62-1.68-4.11,1.36-4.33,6.07-.45,5.19-3.41,4.23-7.46-2.33-9.79-4.74-19.63-5.98-29.57-1.24-9.94,3.26-18.92,7.91-27.6,4.93-9.21,10.65-18.08,14.95-27.54,5.98-13.13,15.91-22.12,29.71-27.26,26.71-9.96,54.08-11.54,81.21-2.29,12.9,4.39,25.73,10.25,30.65,24.34.43,1.22,2.8,2.09,4.45,2.66,6.67,2.29,11.77,5.72,12.94,12.96.25,1.56,1.92,2.98,3.08,4.36,4.41,5.27,9.28,10.24,13.25,15.79,6.9,9.65,5.72,20.68,4.39,31.39-.88,7.07-3.09,13.99-4.75,20.97-1.42,6.01-.5,6.97,6.25,7.12,4.22.09,7.99,1.12,9.17,6.68-2.02-.48-3.42-.86-4.85-1.14-6.41-1.26-12.1,3.53-11.19,9.66.19,1.27,1.78,3.4,2.63,3.36,5.79-.26,6.72,3.51,7.26,7.4.56,4.04,2.42,4.32,5.78,1.31ZM182.13,113.09c2.11,5.23,3.89,9.53,5.57,13.85,1.36,3.51-1.15,4.75-3.96,6-3.28,1.45-4.31-.64-5.36-2.72-.67-1.33-1.09-2.78-1.65-4.27-9.43,5.72-14.04,4.68-17.32-3.2-1.2-2.87-.55-4.32,2.48-4.92,3.87-.76,7.76-1.41,11.97-2.17-.69-.86-.98-1.62-1.52-1.83-8.95-3.56-20.59.39-25.8,6.85-4.47,5.55-3.3,9.76,3.06,13.94.94.62,1.75,1.4,2.67,2.14-5.31,3.99-5.42,4.79-5.7,10.87-.34,7.4,1.61,14.21,4.5,20.96.94,2.19,2.03,5.39,1.03,7.05-2.52,4.19-1.44,8.11-1.12,12.32.15,2.02-1.71,4.17-2.66,6.26-1.51-1.5-3.69-2.77-4.4-4.55-2.48-6.29-4.73-11.02-14.11-10.44-5.46.34-10.43-1.53-13.31,5.29-1.38-1.84-2.3-2.8-2.9-3.91-1.76-3.26-6-6.72-2.29-10.09,1.17-1.06,6.55,1.65,9.81,3.02,4.2,1.77,8.18,3.85,12.9,1.5,4.08-2.03,8.23-3.93,12.31-5.88-5.52-7.52-8.67-16.11-8.18-25.83.12-2.42-.29-4.99-1.08-7.31-3.05-8.97.54-16.25,6.08-23.18,1.42-1.77,3.22-3.56,3.78-5.6,1.24-4.5,3.94-7.17,8.78-7.66,4.18-.43,8.42-.84,12.6-.61,3.3.18,6.6,2.08,9.78,1.85,3.3-.24,7.2-1.43,9.5-3.51,2.37-2.15-.05-4.52-2.26-6.66-2.89-2.81-1.64-5.16,2.7-7.53.93-.51,1.5-2.12,1.67-3.29,1.12-7.91-3.15-14.73-5.57-21.84-2.39-7.02-5.64-13.81-9.02-20.47-1.09-2.15-3.46-4.33-5.79-5.21-9.21-3.46-19.81-3.05-28.25-8.89-1.05-.73-2.75-.76-4.17-.85-16.42-1.06-32.5,1.2-45.38,10.97-12.14,9.21-22.48,20.51-33.47,31.03-1.01.97-1.5,2.89-1.41,4.33.44,6.84,1.17,13.66,1.63,18.65-2.87,2.68-4.84,4.14-6.16,6-.45.63.76,2.31,1.22,3.51,3.36-1.13,6.71-2.26,10.53-3.55,1.76,2.22,5.04,5.21,6.76,8.86,1.65,3.5,2.85,3.42,5.65,1.47,5.16-3.6,10.9-5.53,17.49-4.78,6.87.78,20.79,11.19,22.2,17.09.27,1.12-.81,3.08-1.89,3.75-1.05.65-3.16.61-4.37.05-1.65-.76-2.84-2.38-4.33-3.51-7.06-5.35-19.37-5.49-25.96.22,7.77-1.44,15.2-3.3,19.65,3.59-2.5,2.48-4.65,4.36-6.49,6.47-4.05,4.67-7.98,5.03-12.67.79-.81-.73-.97-2.09-1.42-3.16l-2.07.92c-1.44,2.64-2.88,5.28-4.84,8.88-2.33-2.55-4.4-4.33-5.81-6.49-1.77-2.71-3.89-3.31-6.55-1.69-6.08,3.69-8.48,10.7-6.61,17.58,2.82,10.37,6.98,20.71,7.64,31.22.75,11.99,6.15,22.44,8.86,33.71.29,1.2,2.27,3.2,2.71,3.03,3.89-1.46,4.41,1.24,5.54,3.46,2.71,5.35,5.46,10.69,8.36,15.95.48.88,1.74,1.82,2.73,1.92,2.34.22,5.12.6,6.96-.36,1.14-.6.9-3.54,1.42-6.15,3.66,3.28,7.11,6.93,3.94,10.36-3.88,4.2-2.08,6.65.47,9.9,9.29,11.86,30.1,12.93,42.25,9,7.52-2.43,10.62-9.44,10.23-16.91-.17-3.21,3.04-6.57,4.72-9.87,1.46.66,4.13,1.27,4.16,1.99.12,2.39-.71,4.82-1.18,7.24,1.99-.98,3.96-2.01,5.99-2.93,1.4-.64,3.66-.76,4.2-1.75,3.52-6.53,7.02-13.1,9.82-19.91,1.89-4.6,2.62-9.62,3.87-14.45l1.71.17c.57,1.69,1.14,3.37,1.71,5.06,1.26-1.93,1.87-3.84,1.85-5.74-.08-7.38-.63-14.76-.45-22.13.08-3.19.79-6.74,2.46-9.46,5.32-8.66,7.95-17.99,6.88-27.7-.62-5.61-3.27-11.28-6.17-16.34-2.2-3.84-4.39-8.61-11.11-9.76ZM61.07,121.83c5.62-1.32,9.32-3.29,10.86-8.9-6.33.09-9.13,3.1-10.86,8.9ZM219.96,151.09c1.22,5.43,2.14,9.54,3.07,13.65,2.01-4.66,4.47-9.39-3.07-13.65Z"/>
        <path class="cls-1" d="M110.95,224.22c5.12-1.05,9.81-2.4,14.59-2.88,3.96-.4,8.3-.58,11.98.56,4.51,1.4,6.42-.6,7.83-3.58.42-.88-1.03-2.66-1.87-3.88-.25-.36-1.44-.41-2.06-.22-11.02,3.39-21.68-2.36-32.59-1.09-5.37.62-7.57-3.54-9.97-6.5-2-2.46.67-4.14,3.41-4.2,7.16-.14,14.33-.09,21.49-.04,4.48.03,8.96.21,13.45.3,3.09.06,6.19-.13,9.25.15,6.37.58,7.33-.2,6.52-5.99-.09-.67-.49-1.42-.29-1.99.66-1.82,1.54-3.56,2.33-5.33,1.54,1.74,4.53,3.65,4.33,5.19-.56,4.32-.1,8.27.34,12.54.57,5.57-3.29,11.65-5.77,17.3-.66,1.5-3.18,3-5.01,3.21-9.21,1.02-18.47,2.13-27.71,2.09-3.91-.02-9.08-1.1-10.25-5.62Z"/>
        <path class="cls-1" d="M118.56,140.27c-2.91-1.43-4.76-2.35-7.27-3.59,1.94-3.16,3.82-6.23,5.7-9.3.52.19,1.05.37,1.57.56v12.33Z"/>
      </g>
    </g>
  </g>
</svg>