<?xml version="1.0" encoding="UTF-8"?>
<svg id="Layer_1" data-name="Layer 1" xmlns="http://www.w3.org/2000/svg" viewBox="0 0 264.15 346.18">
  <defs>
    <style>
      .cls-1 {
        fill: #000;
        stroke-width: 0px;
      }
    </style>
  </defs>
  <path class="cls-1" d="M82.21,254.1c2.59.73,3.99-2.88,5.49-.49,1.11,1.77,1.17,4.21-1.13,5.77-.4.27-.73.67-1.06,1.04q-4.8,5.37.29,10.62c1.04,1.07,2.74,2.46,1.56,3.7-1.5,1.57-3.14-.18-4.05-1.41-7.95-10.7-14.69-22.06-18.22-35.06-.8-2.95.56-5.86.79-9.65-3.45,2.98-5.06,5.8-5.32,9.7-1.19,17.79.73,35.37,2.72,53.02,1.06,9.4,2.16,18.76,3.57,28.12.94,6.3-.11,12.92-.47,19.39-.1,1.79-.84,4.18-2.66,4.42-2.13.28-3.13-1.88-3.96-3.82-1.43-3.31-.31-6.91-1.66-10.28-3.95-9.84-7.74-19.71-15.64-27.29-1.57-1.51-1.74-3.82-5.43-2.37-5.17,2.02-10.19-2.24-10.77-7.77-.08-.8-.34-1.59-.52-2.38-1.89.15-.93,4.06-3.93,2.54-2.06-1.04-4.32-1.54-4.74-4.39-.36-2.41-.18-4.9-1.42-7.21-1.1-2.05-2.35-2.15-4.58-2.72-3.52-.89-8.34-.99-10.56-4.81-1.51-2.6.71-4.15,2.79-5.51,7.84-5.11,16.35-9.1,24.93-12.48,13.29-5.22,20.93-15.92,28.83-26.57,1.52-2.05,2.88-4.11,5.16-5.22,3.73-1.81,4.23-4.62,3.27-8.31-2.05-7.87-4.23-15.69-7.35-23.21-1.23-2.97-1.38-6.14-2.18-9.18-.87-3.3-1.99-5.87-6.51-4.58-4.63,1.32-6.83-1.77-8.39-6,2.88-.03,4.38,2.17,6.55,2.64,1.13.25,2.38.48,3.38-.27,1.33-.99.41-2.25-.11-3.12-2.02-3.33-3.02-7-3.92-10.71-.59-2.44-2.27-4.02-4.55-3.88-4.22.25-4.71-2.98-5.9-5.58-.7-1.53-1.19-3.6.73-4.38,1.66-.68,3.6-.22,4.37,2.01.2.56.69,1.02,1.18,1.71,1.28-5.83-5.92-18.76-11.01-20.22-2.42-.69-2.12.87-1.7,2.21.83,2.62.26,4.83-2.2,7.49-1.33-6.68-4.62-12.38-3.75-18.96.49-3.67,2.74-6.18,6.67-6.2,5.34-.03,5.9-3.52,6.91-7.69,2.57-10.63-.13-21.22.49-31.81.61-10.37,3.7-20.18,6.51-30.05.64-2.24,22.65-26.11,24.87-26.66,9.76-2.4,17.27-10.47,27.3-11.52C104.94,5.88,111.1-.23,119.43,0c6.04.17,11.97,1.17,17.55,2.94,13.27,4.21,27.22,5.9,40.21,11.06,3.86,1.53,7.88,2.96,9.25,7.53.97,3.23,3.45,4.67,6.12,6.43,13.52,8.92,22.14,21.26,24.94,37.42.95,5.51,2.29,10.74,4.68,16.01,2.75,6.06,3.52,13.31,1.93,20.03-1.57,6.65-.15,12.71,1.52,18.92.27,1.01.77,1.16,1.72,1.26,6.55.71,7.86,2.47,6.83,8.81-1.48,9.1-2.98,18.19-6.62,26.9-3.28-3.63-2.23-8.93-4.56-13.48-1.9,2.57-1.73,5.14-1.57,7.74.25,4.15.68,8.35-2.14,11.95-.61.78-1.31,2.08-2.01,2.1-7.55.22-6.53,6.98-8.34,11.24-1.52,3.58-.6,7.21,3.93,8.32-.18,1.77-1.37,2.46-2.38,2.69-9.25,2.09-11.06,10.51-14.54,17.3-2.02,3.94-3.43,8.44-3.3,12.96.07,2.35-3.38,5.66,2.54,7.44,2.57.77,5.07,6.49,7.41,10.11,3.6,5.58,6.79,11.41,10.81,16.75,6.73,8.94,16.66,13.15,26.11,17.78,6.87,3.37,13.51,7.2,20.49,10.29,4.34,1.92,4.67,5.17,3.64,8.91-.8,2.89-5.79,4.46-9.47,3.13-1.4-.51-2.72-1.07-4.21-1.4-4.46-.97-6.78,1-7.24,5.16-.41,3.67-1.32,5.27-5.34,3.36-4.53-2.15-8.04-.65-9.68,4.21-.96,2.85-2.36,4.53-5.74,4.1-1.7-.22-2.92,1.24-4.17,2.41-2.86,2.69-5.99,4.42-10.29,3.28-3.88-1.03-6.35.89-7.04,4.86-.27,1.56-.65,3.27-2.28,3.54-4.83.79-5.23,4.97-6.41,8.3-1.05,2.97-1.71,5.69-5.66,3.92-1.77-.8-2.31,1.96-3.98,1.09-.87-1.78-.46-3.65.02-5.35,3.17-11.24,4.05-22.85,5.75-34.34,1.89-12.79,3.97-25.55,6.24-38.27,1.43-8,1.18-15.88-.45-23.76-.32-1.55-.83-3.2-2.34-4.32-1.34,1.5-.91,3.21-.52,4.72,1.78,7.08.68,13.56-3.88,19.29-3.55,4.46-5.92,9.5-7.99,14.74-.86,2.17-2.01,4.23-3.94,5.67-.77.57-2.13,1.47-2.61.45-3.13-6.66-5.66-.21-8.4.31-1.84.35-3.34,3.11-5.3,1.61-1.98-1.53.22-3.55.78-5.17-1.97-1.23-2.03,1.79-3.61.99-1.06-2.94,4.17-3.6,2.32-7.25-3.48,2.95-5.52,7.47-10.08,8.84-1.21.37-2.31,2.91-3.62.71-.91-1.53.81-2.66,2.02-3.5.67-.46,1.53-.65,1.74-1.95-4.47-3.12-8.59.68-12.83,1-9.16.68-17.63-1.02-25.23-6.09-6.16-4.11-11.91-8.83-18.07-12.95-4.09-2.73-6.48,1.07-9.93,3.37ZM206.97,144.39c-11.81,6.12-25.09,3.47-37.22,7.05-.45.13-1.3.23-1.39.05-2.46-4.81-8.32-3.78-11.71-6.79-6.48-5.74-11.91-12.49-16.81-19.57-1.99-2.88-4.03-4.08-7.32-3.98-2.26.07-5.34.15-5.39,2.47-.16,7.45-4.42,11.12-10.59,13.7-1.13.47-2.26,1.65-2.77,2.79-3.24,7.17-10.48,9.52-16.21,13.67-1.47,1.06-3.29,1.99-4.95.27-3.66-3.77-8.14-5.48-13.3-5.35-7.88.2-14.76-1.86-19.98-8.15-1.21-1.46-2.66-2.75-4.54-3.4-1.8,4.2-1.24,7.58,1.86,10.46,1.51,1.41,2.54,3.16,2.86,5.15,1.44,9.11,7.18,16.78,8.57,25.89.13.85.23,2.09,1.14,1.83,3.65-1.02,2.96.98,2.63,3.21-.24,1.65.66,3.18,1.62,4.53,1.86,2.64,3.38,5.31,2.82,8.78-.5,3.08,1.88,2.57,3.85,2.62-2.46-.63-2.73-2.57-2.38-4.37.19-.96,1.56-1.66,2.8-1.71,2.58-.09,2.08,2.25,2.57,3.59,1.59,4.34,2.82,8.82,4.41,13.16.9,2.46.16,4.04-1.9,5.64-1.41-1.93-1.61-4.2-3.16-5.79-.73-.75-1.18-1.11-2.01-.47-.56.43-1.06,1.28-.5,1.72,3.34,2.57,3.7,6.68,5.48,10.05,3.13,5.96,3.21,5.93,8.22,1.4.16-.14.15-.47.26-.85-.91.15-1.74.44-2.54.38-2.87-.2-3.24-2.45-3.41-4.61-.15-1.92.86-4.79,2.49-3.95,3.06,1.57,6.48,1.05,9.53,2.99,3.44,2.18,2.41,3.64.15,4.91-5.12,2.88-3.5,6.14-1.32,9.93,2.82,4.9,7.37,8.46,9.73,13.87,1.17,2.68,3.82,5.98,8.05,5.83,10.4-.37,20.71,1.51,31.29-.75,4.62-.99,5.87-2.66,6.14-5.91.29-3.42,1.4-2.63,3.64-1.92,2.76.87,4.49.4,5.91-3.23,2.03-5.18,5.93-9.61,8.91-14.44,2.58-4.18,6.88-7.08,8.8-11.65,1.06-2.52.92-5.56,2.01-8.06,4.89-11.18,11.26-21.7,14.69-33.54.43-1.5.68-3.97,3.04-4.13,2.21-.15,1.53,2.65,3.3,3.61.31-1.37,2.36-3.11,1.23-3.73-3.97-2.16-.91-4.17-.25-6.11,1-2.97,2.3-5.83,3.49-8.76-1.3-1.12-3.81,1.43-3.77-.51.04-2.37.07-5.24,1.93-7.82ZM71.78,101.64c8.76.77,16.58-4.44,25.42-2.71,3.56.7,7.28,2.11,11.1,1.47,4.12-.69,7.07,1.21,9.47,4.2,1.88,2.34,4.06,3.01,7.02,2.45,2.58-.49,5.33-.72,7.93-.44,5.35.58,10.46,1.11,14.2-4.06.65-.89,2.37-1.21,3.65-1.4,6.13-.89,11.86-3.63,18.38-2.97,10.21,1.04,20.6-.88,30.75,1.61,4.37,1.08,6.16-.68,5.55-5.24-.45-3.39-1.37-6.93-.13-10.26,2.46-6.58,1.75-12.53-1.18-18.99-1.55-3.42-3.44-7.04-4.08-10.96-.95-5.78-.98-10.94-7.14-15.48-8.21-6.04-16.23-10-26.3-9.8-5.03.1-10.07-.21-14.56-2.55-9.32-4.85-18.93-3.96-28.61-1.95-7.93,1.65-15.62,5.86-23.81,4.28-5.97-1.16-11.15,1-16.68,1.56-1.79.18-3.2,1.17-2.91,4.12.36,3.61,2.06,8.4-2.09,10.82-3.73,2.17-2.94,6.47-5.4,9.24-.59.66,1.54,5.13.72,8.08-.02.06,1.14.7,1.67.6,4.5-.78,3.02,1.78,1.36,2.99-4.69,3.4-2.67,8.72-4.25,12.96-.25.67.01,1.11.53,1.69,3.32,3.73,2.67,6.87-1.46,8.79-1.57.72-3.53,1.65-3.33,3.92.25,2.9-2.15,3.96-4.14,5.75,4.84.62,9.3-2.32,13.79.13-1.54,2.18-3.73,1.12-5.45,2.15Z"/>
  <path class="cls-1" d="M123.56,317.71c.93,2.87,1.51,4.56,2.02,6.28.35,1.19,1.51,2.79-.21,3.45-1.63.62-1.94-1.36-2.63-2.39-.81-1.22-.8-2.93-2.22-3.81-8.77,8.19-18.3,15.29-29.24,20.61-.81-2.24.84-2.9,1.79-3.9,6.87-7.2,13.87-14.27,20.57-21.63,2.66-2.92,4.47-6.59,6.99-9.65,1.31-1.59,3.35-2.59,5.22-3.97-1.65-1.15-3.32-2.32-5.15-3.58,6.14-2.16,7.4-1.72,9.45,3.46.45,1.15,1.57,1.62,2.23,1.72,9.6,1.44,14.36,9.37,20.14,15.52,4.95,5.26,8.51,11.81,12.74,17.75,1.04,1.46,2.02,3.24.44,4.38-1.32.94-2.71-.73-3.74-1.79-5.21-5.36-10.43-10.72-15.52-16.19-1.82-1.95-2.86-2.81-4.72.17-1.63,2.61-2.49,7-7.58,5.45-.46-.14-1.82,2.68-2.75,4.11,1.95,1.8,4.58-1.7,5.96,1.06,1.5,2.99,2.28,6.25,2.49,9.59.13,2.12-1.66,1.75-2.85,1.77-5.16.08-10.32-.01-15.48.05-3,.04-3.42-1.28-2.26-3.71.87-1.81,1.79-3.59,3.35-4.92,1.83-1.56,3.49-3.06,2.5-5.88-.41-1.17.44-2.12,1.23-3.07,3.68-4.41,3.26-6.67-2.77-10.9Z"/>
  <path class="cls-1" d="M113.29,201.4c2.69,2.91,6.92,2.93,6.85,7.73-.03,2.07,10.75,2.37,13.33.24.74-.61,1.35-2.03,2.26-1.11,3.3,3.36,8.88,2.43,11.75,6.42.21.29-.06.97.54.13,4.38-6.08,7.12,1.43,10.82,1.5.82.02.47,2.09.09,3.18-.35,1.03-.53,1.33-2.22,1.19-3.19-.26-6.2-.2-9.33-1.48-5.4-2.21-10.51.71-15.16,2.62-5.32,2.19-8.1-1.58-10.96-3.73-1.63-1.22-3.2-3.33-5.12-4.8-2.89-2.22-6.45-3.47-8.07-7.49-.7-1.73-3.96-2.77-6.73-1.62-1.29.54-3.26,2.18-3.78-.85-.44-2.54.93-4.78,3.28-4.56,5.26.5,9.69-1.89,14.47-3.09,4.6-1.15,9.64-.61,13.9-1.34,7.83-1.34,13.82,2.09,20.59,3.58,2.96.65,5.1,4.12,8.96,2.12,1.23-.63,1.86,1.97,2.45,3.27.42.92.52,2.22-.4,2.75-1.29.74-2.03-1.31-2.93-1.24-7.37.58-14.45-1.95-21.54-2.21-6.86-.25-13.69-.24-20.49-1.37-.62-.1-1.29.07-2.58.16Z"/>
  <path class="cls-1" d="M116.5,161.47c1.62,2.17.92,4.17.69,6.06-.16,1.33-.11,2.41,1.33,2.72,1.46.32,2.05-.79,2.46-1.94.54-1.52.56-3.88,2.54-3.84,2.25.05,2.47,2.56,2.58,4.23.18,2.52,1.94,3.32,3.63,3.31,2.79-.02,5.95-.57,7.16-3.51,1.62-3.95,2.67-3.02,4.06-.01.27.58.8,1.05,1.25,1.54,1.93,2.09,4.37,4.31,2.78,7.33-1.45,2.75-4.62,1.05-6.88,1.1-2.39.05-2.28,1.28-2.48,2.67-.3,2.13-.43,4.29-.75,6.41-.2,1.32-.55,2.85-2.22,2.88-1.5.03-3.68-.51-3.76-1.91-.41-6.98-7.05-7.51-10.96-10.55-6.79-5.28-7.65-9.47-1.42-16.5Z"/>
</svg>