<?xml version="1.0" encoding="UTF-8"?>
<svg id="Layer_2" data-name="Layer 2" xmlns="http://www.w3.org/2000/svg" viewBox="0 0 264.18 362.33">
  <defs>
    <style>
      .cls-1 {
        fill: #121212;
        stroke-width: 0px;
      }
    </style>
  </defs>
  <g id="Layer_1-2" data-name="Layer 1">
    <g>
      <g>
        <path class="cls-1" d="M40.67,137.28c-.43-1.44-.93-2.87-1.27-4.34-2.17-9.43-4.33-18.87-6.45-28.31-.75-3.38-2.06-6.82-1.88-10.17.33-6.09-.08-12.08-.33-18.13-.19-4.59-.54-9.46,2.42-14.33,5.08-8.35,6.74-18.64,14.34-25.7,3.09-2.87,6.08-5.84,9-8.88,2.21-2.3,4.79-4.5,6.23-7.25,3.97-7.57,3.77-7.66,11.85-6.52,1.35.19,2.73.17,4.67.27-.25-1.89-.44-3.34-.64-4.93,5.81-4.17,12.21-6.43,19.62-6.66,7.24-.22,14.45-1.52,21.69-2.19,1.98-.18,4.29-.36,5.99.44,9.99,4.71,20.39,2.55,30.69,2.25.99-.03,2.15-.24,2.95.17,4.95,2.6,9.78,5.41,14.71,8.05,3.32,1.78,6.58,3.82,10.11,5.02,6.38,2.17,10.18,7.3,14.19,11.98,6.53,7.62,12,16.06,16.15,25.27.5,1.1,1.2,2.14,1.54,3.28,2.61,8.68,5.53,17.3,7.55,26.12.96,4.17.63,8.8.03,13.11-.72,5.17-1.97,10.34-3.69,15.26-2.6,7.43-5.84,14.62-8.73,21.95-.59,1.5-1.02,3.1-1.22,4.69-.17,1.29.12,2.63.2,3.95,1.51-.11,3.14.1,4.5-.39,2.27-.82,4.37-2.12,6.55-3.19,6.35-3.1,12.76.19,13.2,7.18.69,10.95-1.1,21.43-7.85,30.49-.78,1.05-2.35,1.52-3.22,2.06-3.73,5.98-7.16,12.3-11.39,18.02-4.78,6.47-7.93,13.31-9.72,21.24-1.9,8.43-5.35,16.51-8.1,24.75-.44,1.33-.85,2.68-1.12,4.05-1.43,7.31-4.47,13.77-9.56,19.32-5.32,5.81-10.4,11.83-15.53,17.81-7.36,8.58-17.61,11.04-27.94,13.37-23.53,5.31-41.52-5.99-58.72-19.62-1.07-.85-1.89-2.12-2.62-3.31-5.68-9.3-11.65-18.44-16.88-27.99-6.13-11.18-11.24-22.85-14.02-35.42-.49-2.22-1.53-4.62-3.04-6.27-6.99-7.67-13.51-15.6-17.77-25.2-1.06-2.39-2.39-4.79-4.11-6.72-8.07-9.03-7.71-19.59-5.76-30.41,1.48-8.23,6.89-10.66,14.58-6.84,2.57,1.27,5.14,2.56,7.71,3.84.35-.4.71-.79,1.06-1.19ZM83.55,229.21l-.06-.06q-.41,7.88-7.56,10.29c-.05.39-.22.81-.14,1.18,2.17,9.68,10.1,17,11.1,27.21.11,1.11,1.78,2.1,2.77,3.1,2.26,2.28,4.44,4.66,6.88,6.74,2.11,1.8,4.31,3.96,6.83,4.71,6.93,2.03,14.02,3.61,21.13,4.93,2.44.45,5.62-1.39,7.6-.42,5.14,2.51,9.45.26,14.04-1.03,6.02-1.69,10.15-8.02,17.32-7.03.62.09,1.53-1.2,2.16-1.97,1.94-2.34,3.57-4.99,5.75-7.06,3.52-3.33,1.94-7.84,3.07-11.7.21-.71-1.97-2.64-3.36-3.15-1.38-.51-3.15.06-4.8.16-1-1.99-1.93-3.86-3.52-7.02-2.06,3.01-3.52,5.02-4.82,7.12-.84,1.34-1.12,3.67-2.22,4.11-6.73,2.65-12.27,8.46-20.65,7.02-4.23-.73-8.77.33-13.17.6-.97.06-2.23.62-2.87.21-6.94-4.54-15.76-6.35-20.37-14.49,2.22.54,4.24,1.58,6.33,2.43,3.34,1.36,6.75,3.69,10.11,3.66,9.9-.09,19.83-.84,29.67-1.93,6.29-.7,8.6-4.59,7.72-10.89-7.55,2.13-15.04,5.55-22.71,6.03-7.51.48-15.22-2.03-23.19-3.29.64,1.77,1.03,2.86,1.41,3.92-2.89-.95-5.29-1.96-7.78-2.52-3.63-.81-4.47,2.52-6.46,4.36-.93.86-4.33.35-5.53-.74-1.24-1.13-1.46-3.68-1.6-5.65-.16-2.3.58-3.56,3.64-3.16,3.25.43,6.66-.36,9.99-.7,1.75-.18,3.57-1,5.22-.73,5.51.92,11.13,1.68,16.39,3.47,9.9,3.38,18.43-.46,26.36-5.01,7.38-4.24,14.03-1.9,21.06-.4,5.19,1.11,1.32,6.27,3.87,8.58.49.45.71,1.2,1.09,1.89,7.26-6.12,7.69-10.03,1.54-16.28-3.67-3.73-7.73-7.1-11.81-10.39-3.98-3.2-8.22-6.09-13.47-9.94-.72,12.09-5.36,19.27-16.71,17.92-1.11,2.82-1.69,5.6-3.26,7.58-.55.69-4.03,0-5.37-1.06-3.61-2.89.26-5.62,1.52-9.8-2.79.54-4.92.44-6.43,1.36-2.84,1.73-7.09,1.45-9.03-1.05-3.82-4.94-5.14-11.03-7.64-16.56-.53-1.17.29-2.95.66-5.75,2.34,8.16,2.35,8.12,10.24,10.17,1.54.4,2.98,1.21,4.45,1.88,10.7,4.86,14.14,2.57,20.41-3.65,2.08-2.07,3.61-3.18,6.77-1.82,2.73,1.18,4.49-.39,2.81-3.44-1.41-2.57-3.55-4.75-4.85-7.36-.63-1.25-.08-3.1-.07-4.67,1.25.06,3.06-.4,3.67.25,5.45,5.84,10.46,12.09,16.08,17.75,3.06,3.08,6.96,5.37,10.67,7.72.86.55,2.99.39,3.66-.3,2.32-2.39,4.65-4.94,6.26-7.83,4.67-8.36,8.18-17.5,13.7-25.22,4.72-6.6,4.47-13.66,5.43-20.75.52-3.87-2.23-6.01-5.46-7.1-1.83-.62-4.28-1.03-5.9-.3-4.5,2.02-8.71,4.69-13.55,7.39-1.74-3.93-3.04-6.87-4.13-9.33-3.04,1.52-6.59,4.78-9.89,4.54-3.1-.23-5.93-4.16-9.1-6.63-.33.43-1.77,1.48-1.64,2.3,1.01,6.89,2.31,13.74,3.73,21.78-5.59-3.47-10.19-6.67-15.12-9.26-3.28-1.72-4.46-4.47-5.13-7.57-2.24-10.26,6.42-23.44,17.38-26.19,5.86-1.47,11.74-2.85,17.63-4.17,7.76-1.75,15.32-2.23,21.22,4.55,1.73,1.98,3.18,4.2,5.26,6.96.34-3.09-.16-5.63.89-6.83,3.57-4.09,1.85-7.81.25-11.84-3.93-9.86-6.97-20.03-4.28-30.64,1.12-4.41-.29-7.46-2.38-10.65-7.19-10.98-18.23-14.72-30.52-15.37-6.5-.34-12.16-2.39-17.85-5.26-2.79-1.41-6.28-2.04-9.44-1.99-7.13.11-14.25.87-21.37,1.33-.99.06-2.41.3-2.93-.23-3.4-3.45-5.96-.76-9.11.61-8.07,3.52-16.11,7.16-25.29,7.3-3.18.05-7.7.84-9.26,3-6.87,9.45-11.29,19.82-9.38,32.17.49,3.18-.88,7.72-3.09,10.01-4.79,4.97-6.27,10.95-6.66,17.11-.61,9.54-.39,19.15-.17,28.72.13,5.63,1.12,11.23,1.38,16.87.26,5.58,5.42,12.11,11.06,13.18-3.74,3.57-3.8,7.21-.87,11.36,1.34,1.9,1.58,4.55,2.65,6.7,2.14,4.27,3.76,9.15,6.98,12.44,3.53,3.61,8.49,6.17,14.15,3.55ZM34.8,183c-.14-1.57.02-2.43-.31-2.98-2.18-3.66-1.66-6.95-.07-10.89,1.78-4.41,2.49-9.38,2.88-14.16.13-1.62-1.97-3.63-3.46-5.03-.34-.32-3.09.85-3.51,1.85-4.21,10.06-1.62,19.77,2.02,29.35.22.59,1.15.91,2.44,1.87ZM212.23,187.32c8.82-3.36,5.29-12.09,8.42-18.49-1.62,0-2.27-.17-2.75.05-.48.22-.98.77-1.12,1.28-1.54,5.64-3.01,11.3-4.55,17.16ZM180.56,153.04c-2.79-5.67-7.41-2.68-10.6-4.08-.7-.31-2.56,2.04-4.96,4.08h15.56ZM216.69,154.71c-1.45,4.59-2.88,8.45,1.69,11.59,3.63-5.66,3.41-7.76-1.69-11.59Z"/>
        <path class="cls-1" d="M81.74,155.17c-9.17.19-5.27,7.24-7.05,11.55-5.54-2.47-11.05-4.62-16.22-7.4-1.93-1.04-3.77-3.39-4.31-5.49-.37-1.44,1.58-3.47,2.5-5.23.09-.18.29-.31.36-.49,2.93-7.54,9.12-11.21,16.83-13.65.45,1.08,1,2.43,1.7,4.14,11.69-6.2,22.41-1.11,31.54,5.07,5.96,4.04,9.58,12.06,8.62,20.28-.25,2.1-2.59,4.91-4.61,5.66-5.84,2.16-12,3.44-18.45,4.56,2.11-5.24,10.39-8.24,4.45-15.85-2.69,3.45-4.46,8.69-10.38,6.74-4.74-1.56-5.42-5.45-4.98-9.9Z"/>
        <path class="cls-1" d="M83.55,229.21c3.92-5.07,7.66-10.3,11.89-15.1.93-1.06,3.59-.59,5.46-.82-.28,1.61-.18,3.41-.91,4.79-3.47,6.62-10.3,8.42-16.5,11.08l.06.06Z"/>
      </g>
      <g id="SuitTie">
        <path class="cls-1" d="M68.25,239.74c-1.6-2.4-2.9-2.96-6.03-.62-2.03,1.52-3.64,3.17-5.16,5.22-7.9,10.65-15.54,21.35-28.84,26.58-8.58,3.38-17.09,7.37-24.94,12.48-2.08,1.36-4.3,2.91-2.79,5.51,2.22,3.82,7.04,3.92,10.56,4.81,2.23.57,3.48.67,4.58,2.72,1.24,2.31,1.06,4.8,1.42,7.21.42,2.85,2.68,3.35,4.74,4.39,3,1.52,2.04-2.39,3.93-2.54.18.79.44,1.58.52,2.38.58,5.53,5.6,9.79,10.77,7.77,3.69-1.45,3.86.86,5.43,2.37,7.9,7.58,11.69,17.45,15.64,27.3,1.35,3.37.23,6.97,1.66,10.28.83,1.94,1.83,4.1,3.96,3.82,1.82-.24,2.56-2.63,2.66-4.42.36-6.47,1.41-13.09.47-19.39-1.41-9.36-2.51-18.72-3.57-28.13-1.99-17.65-3.91-35.24-2.72-53.03.26-3.9,1.8-6.32,5.32-9.7,4.05-4.08,5.41-.45,2.37-5.01Z"/>
        <path class="cls-1" d="M260.05,296.64c-6.98-3.09-13.62-6.92-20.49-10.29-9.45-4.63-19.38-8.84-26.12-17.78-4.02-5.34-7.21-11.17-10.81-16.75-2.34-3.62-5.59-8.35-7.02-10.62-2.29-3.67-3.32-3.38-5.4-.99-1.47,2.35-1.14,2.31,1.27,4.89,1.51,1.79,1.92,3.14,2.24,4.69,1.63,7.88,1.88,15.76.45,23.77-2.27,12.72-4.35,25.49-6.24,38.28-1.7,11.49-2.58,23.11-5.75,34.35-.48,1.7-.89,3.57-.02,5.35,1.67.87,2.21-1.89,3.98-1.09,3.95,1.77,4.61-.95,5.66-3.92,1.18-3.33,1.58-7.51,6.41-8.3,1.63-.27,2.01-1.98,2.28-3.54.69-3.97,3.16-5.89,7.04-4.86,4.3,1.14,7.43-.59,10.29-3.28,1.25-1.17,2.47-2.63,4.17-2.41,3.38.43,4.78-1.25,5.74-4.1,1.64-4.86,5.15-6.36,9.68-4.21,4.02,1.91,4.93.31,5.34-3.36.46-4.16,2.78-6.13,7.24-5.16,1.49.33,2.81.89,4.21,1.4,3.68,1.33,8.67-.24,9.47-3.13,1.03-3.74.7-6.99-3.64-8.91Z"/>
        <path class="cls-1" d="M123.57,333.86c.93,2.87,1.51,4.56,2.02,6.28.35,1.19,1.51,2.79-.21,3.45-1.63.62-1.94-1.36-2.63-2.39-.81-1.22-.8-2.93-2.22-3.81-8.77,8.19-18.3,15.29-29.25,20.61-.81-2.24.84-2.9,1.79-3.9,6.87-7.2,13.87-14.27,20.57-21.63,2.66-2.92,4.47-6.59,6.99-9.65,1.31-1.59,3.35-2.59,5.22-3.97-1.65-1.15-3.32-2.32-5.15-3.58,6.14-2.16,7.4-1.72,9.45,3.46.45,1.15,1.57,1.62,2.23,1.72,9.6,1.44,14.36,9.37,20.14,15.52,4.95,5.26,8.51,11.81,12.74,17.75,1.04,1.46,2.02,3.24.44,4.38-1.32.94-2.71-.73-3.74-1.79-5.21-5.36-10.43-10.72-15.52-16.19-1.82-1.95-2.86-2.81-4.72.17-1.63,2.61-2.49,7-7.58,5.45-.46-.14-1.82,2.68-2.75,4.11,1.95,1.8,4.58-1.7,5.96,1.06,1.5,2.99,2.28,6.25,2.49,9.59.13,2.12-1.66,1.75-2.85,1.77-5.16.08-10.32-.01-15.48.05-3,.04-3.42-1.28-2.26-3.71.87-1.81,1.79-3.59,3.35-4.92,1.83-1.56,3.49-3.06,2.5-5.88-.41-1.17.44-2.12,1.23-3.07,3.68-4.41,3.26-6.67-2.77-10.9v.02Z"/>
      </g>
    </g>
  </g>
</svg>