<svg width="264" height="91" viewBox="0 0 264 91" fill="none" xmlns="http://www.w3.org/2000/svg">
<path d="M9.90145 84.8363C9.67789 84.532 9.45755 84.243 9.24041 83.9693C9.02327 83.6956 8.81255 83.4524 8.60826 83.2399C8.08713 82.583 7.62793 81.9929 7.23066 81.4696C6.83339 80.9463 6.43215 80.3281 6.02692 79.6149C6.00949 79.0757 5.97937 78.172 5.93656 76.9037C5.92434 75.629 5.92021 74.2409 5.92419 72.7392C5.92175 71.207 5.93139 69.6563 5.95311 68.0871C6.00542 66.5115 6.10268 65.1499 6.24489 64.0025C6.38221 62.9837 6.53727 61.8974 6.71007 60.7436C6.91345 59.5832 7.16668 58.5082 7.46976 57.5186C7.79701 56.4919 8.18373 55.5965 8.62994 54.8322C9.07615 54.0679 9.62282 53.554 10.27 53.2904C10.5048 53.4965 10.7454 53.6535 10.9916 53.7615C11.2313 53.8389 11.4494 53.8889 11.6457 53.9115C12.3198 54.5363 12.956 55.0573 13.5546 55.4744C14.1466 55.861 14.8305 56.2283 15.606 56.5764C15.6152 57.5324 15.5551 58.6147 15.4257 59.8233C15.3205 60.995 15.188 62.1883 15.028 63.4034C14.8986 64.612 14.7628 65.7901 14.6206 66.9375C14.472 68.0544 14.3709 69.0176 14.3174 69.8272C14.2623 70.4774 14.2265 71.2193 14.21 72.053C14.1984 72.7579 14.2004 73.6037 14.216 74.5903C14.2622 75.5705 14.3276 76.6424 14.4123 77.8061C14.8148 77.5939 15.2374 77.2496 15.6803 76.7735C16.1537 76.2909 16.578 75.8026 16.9533 75.3087C17.4075 74.7344 17.8399 74.1326 18.2506 73.5036C18.8063 72.6524 19.2678 71.885 19.6351 71.2011C20.0024 70.5173 20.3207 69.8278 20.5898 69.1327C20.8831 68.4005 21.1667 67.6225 21.4408 66.7986C21.739 65.9377 22.0847 64.9231 22.478 63.7548C22.8422 62.7523 23.2089 61.6854 23.5781 60.5542C23.9778 59.4165 24.3872 58.3247 24.8062 57.2787C25.2251 56.2328 25.6449 55.2665 26.0654 54.3799C26.4795 53.4628 26.8863 52.7387 27.2857 52.2078C27.6927 52.4736 28.1489 52.745 28.6541 53.0221C29.1899 53.2927 29.7338 53.4499 30.2859 53.4937C30.5706 53.7851 30.8336 54.0492 31.0749 54.2859C31.3404 54.4856 31.5905 54.6885 31.8254 54.8947C32.1407 55.1797 32.419 55.4406 32.6603 55.6773C32.9322 55.9076 33.1799 56.1749 33.4035 56.4792C33.4243 56.7303 33.4305 57.0642 33.4223 57.4811C33.4446 57.8915 33.4613 58.351 33.4723 58.8596C33.4769 59.3376 33.4694 59.8341 33.4498 60.3491C33.4608 60.8577 33.4686 61.351 33.4732 61.829C33.4564 63.2695 33.4453 64.3575 33.4401 65.093C33.4349 65.8285 33.4435 66.4015 33.4658 66.8119C33.4881 67.2223 33.5129 67.5684 33.5401 67.8501C33.5979 68.1253 33.6782 68.5076 33.781 68.9969C33.858 69.3639 33.9657 69.7245 34.1039 70.0786C34.2357 70.4022 34.3708 70.7411 34.509 71.0952C34.6714 71.4124 34.8917 71.7014 35.17 71.9622L37.0156 69.8025C37.5309 69.2153 37.9771 68.451 38.3542 67.5097C38.7554 66.5313 39.1036 65.4524 39.3988 64.2728C39.7181 63.0562 40.006 61.7664 40.2626 60.4033C40.5128 59.0096 40.7565 57.5854 40.9939 56.1306C41.1553 55.0748 41.32 54.0344 41.4879 53.0093C41.68 51.9471 41.8849 50.9461 42.1027 50.0063C42.314 49.0359 42.5293 48.1605 42.7486 47.38C42.992 46.5626 43.2459 45.8706 43.5101 45.3042C44.445 45.6507 45.2576 46.0229 45.9479 46.4208C46.6687 46.8123 47.3106 47.2842 47.8737 47.8365C48.4609 48.3518 48.9635 48.9967 49.3815 49.771C49.8238 50.5084 50.2217 51.4147 50.5752 52.49C50.1721 53.9158 49.8213 55.3625 49.5228 56.8302C49.2243 58.2979 48.929 59.7808 48.637 61.2791C48.2755 63.207 47.8834 65.1414 47.4607 67.0822C47.0622 68.986 46.5559 70.8326 45.9418 72.622C45.3277 74.4114 44.5655 76.1041 43.6554 77.7002C42.7694 79.2594 41.6582 80.6582 40.3217 81.8968C39.8743 81.895 39.4976 81.9262 39.1918 81.9904C38.8554 82.061 38.5745 82.1679 38.3491 82.3111C38.1543 82.4478 37.9812 82.6118 37.8298 82.8033C36.4539 82.4855 35.2648 81.8411 34.2626 80.8701C33.254 79.8685 32.235 78.7414 31.2055 77.4887C31.0688 77.2939 30.9201 77.1176 30.7592 76.9598C30.6225 76.765 30.4705 76.5734 30.3032 76.385L29.2247 75.1266L28.5829 74.3514L28.0659 75.0826L27.2856 76.1565L26.8507 76.8226C26.0889 77.9086 25.3085 78.9825 24.5097 80.0444C23.7045 81.0756 22.8405 82.0553 21.9178 82.9835C20.9887 83.8811 19.9574 84.6724 18.824 85.3575C17.7212 86.0361 16.4849 86.5352 15.1151 86.8548C14.8447 86.7839 14.5929 86.725 14.3595 86.6782C14.1568 86.625 13.954 86.5718 13.7512 86.5186C12.9772 86.3299 12.3287 86.1308 11.8057 85.9213C11.2827 85.7118 10.648 85.3501 9.90145 84.8363ZM76.2606 69.6558C76.4888 70.4382 76.5351 71.115 76.3996 71.6863C76.2642 72.2575 76.0209 72.7716 75.6698 73.2285C75.3187 73.6855 74.8904 74.0787 74.3848 74.4084C73.8793 74.7381 73.3858 75.0493 72.9045 75.342C72.6277 75.2404 72.3509 75.1389 72.0741 75.0374C71.8215 74.8988 71.5327 74.8158 71.2076 74.7883C70.6558 74.1378 70.1387 73.5758 69.6561 73.1024C69.1671 72.5984 68.8608 71.9761 68.7372 71.2357C68.7308 71.2052 68.7108 71.0337 68.6771 70.7215C68.6741 70.4028 68.6646 70.0535 68.6487 69.6737C68.6634 69.2874 68.6539 68.9382 68.6203 68.6259C68.6108 68.2767 68.6028 68.0868 68.5964 68.0562C67.9059 68.2651 67.204 68.5721 66.4908 68.9773C65.7776 69.3825 65.0893 69.8304 64.426 70.321C63.7932 70.8051 63.191 71.2828 62.6194 71.7541C62.0784 72.2189 61.6348 72.6155 61.2886 72.9436C61.3079 73.0354 61.2949 73.2776 61.2496 73.6703C61.1979 74.0324 61.1221 74.4315 61.0221 74.8676C60.9156 75.2731 60.7875 75.6513 60.6376 76.002C60.4878 76.3528 60.3058 76.5507 60.0917 76.5957C60.1416 76.681 60.2067 76.7631 60.2872 76.842C60.3676 76.9209 60.3933 77.0432 60.3642 77.209C59.9618 77.4212 59.6116 77.6544 59.3137 77.9086C59.0222 78.1933 58.7059 78.4354 58.3646 78.6348C58.0297 78.8648 57.6481 79.0247 57.22 79.1146C56.7918 79.2045 56.2551 79.1576 55.6098 78.9738C55.5713 78.7903 55.4627 78.6534 55.2841 78.5632C55.0991 78.4424 54.9052 78.3554 54.7024 78.3022C54.5238 78.2119 54.3669 78.1491 54.2317 78.1136C54.0901 78.0476 54.0129 77.9839 54.0001 77.9228C53.8536 77.9855 53.7699 77.8913 53.7491 77.6402C53.7283 77.3891 53.8378 77.3023 54.0776 77.3796C53.6513 77.0221 53.3601 76.7001 53.2042 76.4135C53.0723 76.0899 52.8174 75.7124 52.4394 75.2809C52.4878 75.2069 52.5264 75.087 52.5555 74.9212C52.554 74.7619 52.5556 74.6178 52.5605 74.4891C52.5654 74.3603 52.592 74.2589 52.6404 74.1849C52.6887 74.1109 52.7684 74.1102 52.8794 74.1826C52.7604 73.9202 52.7122 73.6909 52.7349 73.4945C52.7575 73.2982 52.7833 73.1171 52.8124 72.9514C52.8415 72.7856 52.8552 72.6231 52.8537 72.4637C52.8522 72.3044 52.771 72.1458 52.6101 71.988C52.9581 71.2124 53.1283 70.4263 53.1207 69.6296C53.1066 68.8023 53.0474 68.0644 52.9432 67.4157C53.1123 67.1567 53.2316 66.8123 53.301 66.3826C53.401 65.9465 53.4551 65.52 53.4634 65.1032C53.4652 64.6558 53.4123 64.2518 53.3047 63.8912C53.2212 63.4936 53.1079 63.1821 52.9647 62.9567C52.9632 62.7974 53.1218 62.7162 53.4405 62.7131C53.412 61.6654 53.2967 60.5081 53.0946 59.2414C52.9166 57.9376 52.8005 56.7007 52.7464 55.5306C52.6859 54.3299 52.7798 53.2564 53.0281 52.3102C53.27 51.3334 53.8361 50.6078 54.7264 50.1335C55.0447 50.7372 55.3929 51.2548 55.7709 51.6863C56.1795 52.1114 56.6002 52.518 57.0329 52.9061C57.4898 53.2572 57.9347 53.6268 58.3674 54.0149C58.8307 54.3966 59.2763 54.8458 59.7042 55.3627C59.7956 55.9502 59.8757 56.6359 59.9446 57.4197C60.0134 58.2036 60.0548 59.0091 60.0689 59.8364C60.1135 60.6572 60.1364 61.4507 60.1377 62.2168C60.1695 62.9765 60.1788 63.6291 60.1656 64.1747C60.2283 64.3212 60.3241 64.3969 60.4528 64.4018C60.6121 64.4003 60.6716 64.5315 60.6313 64.7954C61.3267 64.4578 62.056 64.129 62.819 63.8091C63.5821 63.4892 64.3419 63.154 65.0985 62.8035C65.8551 62.4531 66.578 62.0937 67.267 61.7255C67.9802 61.3203 68.6226 60.882 69.1942 60.4108C69.0966 59.1859 69.045 57.9514 69.0392 56.7073C69.0333 55.4632 68.807 54.2335 68.3602 53.0181C68.4875 52.8637 68.5777 52.685 68.6309 52.4823C68.6841 52.2795 68.8113 52.1251 69.0126 52.019C68.7376 51.47 68.548 50.8712 68.4437 50.2225C68.3394 49.5738 68.318 48.9397 68.3795 48.3201C68.4716 47.6941 68.6594 47.1437 68.9429 46.6691C69.2505 46.1574 69.6668 45.7826 70.1916 45.5447C70.6307 45.9634 71.0337 46.4376 71.4003 46.9673C71.7606 47.4664 72.1241 47.9808 72.4908 48.5105C72.8816 49.0032 73.2693 49.4806 73.6537 49.9427C74.0623 50.3678 74.5345 50.7157 75.0703 50.9863C75.3483 51.854 75.6021 52.7586 75.8318 53.7003C76.092 54.6355 76.3402 55.5892 76.5763 56.5615C76.5757 57.775 76.5381 58.9644 76.4634 60.1296C76.413 61.2578 76.455 62.4464 76.5896 63.6954C76.4269 63.985 76.3165 64.2956 76.2584 64.6271C76.2003 64.9586 76.1454 65.3054 76.0937 65.6675C76.0356 65.999 75.9622 66.3338 75.8735 66.6717C75.7784 66.9791 75.6462 67.2623 75.4771 67.5213C75.6765 67.8626 75.7657 68.2111 75.7446 68.5668C75.7476 68.8855 75.9196 69.2485 76.2606 69.6558ZM104.903 53.9178C104.95 54.2913 105.054 54.6365 105.217 54.9537C105.379 55.2708 105.557 55.5848 105.75 55.8955C105.967 56.1692 106.172 56.4614 106.365 56.7722C106.558 57.0829 106.72 57.4 106.852 57.7236C107.003 58.1389 107.103 58.6129 107.151 59.1457C107.192 59.6479 107.188 60.1597 107.138 60.6811C107.081 61.172 106.972 61.6419 106.811 62.0908C106.644 62.5092 106.411 62.8455 106.113 63.0996C105.8 63.74 105.37 64.2773 104.823 64.7116C104.276 65.1459 103.787 65.6317 103.357 66.169C103.065 66.4538 102.715 66.687 102.306 66.8686C101.928 67.0439 101.534 67.2223 101.125 67.404C100.828 67.6581 100.472 67.9404 100.058 68.2508C99.6378 68.5306 99.2023 68.8137 98.7515 69.0999C98.2943 69.3556 97.8306 69.5807 97.3606 69.7752C96.8841 69.9391 96.4591 70.0443 96.0857 70.0908C95.2389 70.6199 94.3816 71.0234 93.514 71.3014C92.6834 71.6036 91.6613 71.7544 90.4477 71.7537C89.3789 72.1379 88.3447 72.3071 87.3453 72.2616C86.3764 72.2096 85.4704 72.0007 84.6272 71.6349C83.8082 71.2321 83.0464 70.7215 82.3418 70.1031C81.6613 69.4478 81.0661 68.7425 80.5563 67.9874C79.9456 66.2956 79.676 64.7077 79.7476 63.2238C79.8127 61.7094 80.0565 60.2851 80.4788 58.9511C80.9254 57.58 81.4861 56.2968 82.1611 55.1013C82.8296 53.8752 83.474 52.6862 84.0942 51.5341C84.2906 51.5568 84.4282 51.5279 84.5071 51.4474C84.6102 51.33 84.6947 51.2005 84.7608 51.0589C84.8204 50.8867 84.8833 50.7298 84.9493 50.5882C85.046 50.4402 85.1675 50.3348 85.314 50.2721C85.4318 49.7684 85.667 49.3678 86.0196 49.0702C86.3964 48.7356 86.6621 48.3286 86.8169 47.849C87.0793 47.7301 87.2894 47.5902 87.4472 47.4293C87.605 47.2684 87.7443 47.0955 87.8651 46.9105C88.0165 46.719 88.1711 46.5429 88.3289 46.382C88.4803 46.1905 88.6719 46.0385 88.9037 45.926L88.7978 45.4214C89.2969 45.0611 89.6366 44.7024 89.8171 44.3452C90.0217 43.951 90.2593 43.4859 90.53 42.9501C90.7988 42.8618 91.0097 42.8015 91.1626 42.7694C91.3461 42.7309 91.5996 42.6457 91.9232 42.5139C92.0779 42.0343 92.2246 41.6683 92.3631 41.4156C92.5323 41.1566 92.7899 40.863 93.1361 40.5349C93.5416 40.6413 93.9649 40.6801 94.4059 40.6514C94.8775 40.6162 95.3168 40.7315 95.7239 40.9973C95.8187 41.2967 95.9618 41.5221 96.1533 41.6735C96.3383 41.7943 96.5386 41.9119 96.7542 42.0263C96.9634 42.11 97.1605 42.2124 97.3455 42.3332C97.5611 42.4475 97.7284 42.6359 97.8474 42.8983C97.9762 42.9032 98.0494 42.8719 98.0671 42.8043C98.1155 42.7303 98.204 42.6957 98.3328 42.7006C98.5144 43.1095 98.6825 43.3776 98.8369 43.5048C98.9849 43.6014 99.1619 43.8357 99.3677 44.2076C99.279 44.5455 99.2241 44.8923 99.203 45.248C99.206 45.5667 99.0707 45.8346 98.797 46.0517C98.8114 46.2722 98.8982 46.3817 99.0576 46.3802C99.2105 46.3481 99.3183 46.4053 99.381 46.5518C99.4694 46.8206 99.4652 47.029 99.3686 47.177C100.353 48.2156 101.277 49.3468 102.141 50.5704C102.998 51.7634 103.919 52.8792 104.903 53.9178ZM100.084 59.4801C100.136 59.118 100.231 58.8106 100.37 58.558C100.539 58.299 100.594 57.9522 100.534 57.5176C100.33 57.305 100.2 57.1408 100.143 57.0249C100.081 56.8784 100.017 56.6522 99.953 56.3464C99.0811 55.5396 98.2881 54.6524 97.5739 53.6848C96.8534 52.6865 96.0878 51.7776 95.277 50.958C95.2416 51.0932 95.1602 51.238 95.033 51.3924C94.9057 51.5469 94.7311 51.5516 94.5091 51.4066C94.4993 51.6641 94.4308 51.8701 94.3036 52.0246C94.1699 52.1484 94.0113 52.2296 93.8279 52.2682C93.6379 52.2761 93.4295 52.272 93.2026 52.2558C92.9998 52.2026 92.8091 52.1308 92.6305 52.0406C91.8913 52.9303 91.1489 53.8046 90.4033 54.6637C89.6577 55.5228 89.0263 56.4696 88.5092 57.5042C88.3997 57.5911 88.3296 57.6377 88.299 57.6442C88.262 57.62 88.1735 57.6545 88.0334 57.7478C87.9108 58.3803 87.7174 58.9797 87.4531 59.5461C87.213 60.0755 86.9762 60.6202 86.7425 61.1801C86.5089 61.7401 86.3275 62.321 86.1984 62.9229C86.0694 63.5248 86.0666 64.1959 86.1902 64.9363C86.8 65.2553 87.4662 65.3868 88.1889 65.3309C88.9116 65.2749 89.6335 65.1393 90.3547 64.924C91.1064 64.7022 91.8211 64.4564 92.4988 64.1863C93.2007 63.8793 93.8575 63.6615 94.4691 63.5331C95.6894 62.9575 96.7069 62.3287 97.5216 61.6467C98.3299 60.9341 99.1841 60.2119 100.084 59.4801ZM137.029 58.188C137.375 59.0733 137.464 59.8049 137.298 60.3826C137.163 60.9539 136.876 61.4132 136.438 61.7607C136.037 62.1322 135.534 62.3975 134.929 62.5566C134.324 62.7156 133.736 62.807 133.166 62.8309C132.771 62.467 132.383 61.9896 132.004 61.3987C131.624 60.8078 131.257 60.1985 130.901 59.5706C130.539 58.9121 130.196 58.2658 129.871 57.6315C129.577 56.9908 129.314 56.4233 129.083 55.9291C129.159 55.53 129.164 55.0978 129.098 54.6327C129.056 54.1305 128.984 53.6347 128.881 53.1454C128.809 52.6497 128.722 52.1571 128.619 51.6678C128.54 51.1415 128.484 50.6425 128.448 50.1709C128.393 48.8415 128.442 47.5539 128.595 46.3083C128.779 45.0562 128.862 43.7776 128.843 42.4723C128.847 42.1842 128.762 41.9307 128.588 41.7117C128.445 41.4863 128.381 41.2601 128.397 41.0332C128.402 40.9044 128.478 40.8087 128.625 40.746C128.765 40.6527 128.834 40.5264 128.832 40.3671C128.853 40.0114 128.811 39.733 128.705 39.5317C128.629 39.3241 128.636 39.0513 128.725 38.7133C128.826 38.4366 128.936 38.0463 129.053 37.5426C129.195 37.0019 129.181 36.478 129.011 35.971C129.248 35.7297 129.463 35.461 129.656 35.165C129.849 34.8689 130.049 34.6035 130.255 34.3686C130.485 34.0967 130.737 33.8522 131.011 33.635C131.315 33.4115 131.697 33.2515 132.156 33.1552C132.464 33.4097 132.688 33.714 132.826 34.0681C132.995 34.4158 133.149 34.7668 133.287 35.1209C133.456 35.4687 133.652 35.7947 133.875 36.099C134.092 36.3727 134.404 36.5628 134.809 36.6692C134.861 36.9139 134.925 37.2197 135.002 37.5867C135.079 37.9537 135.171 38.3175 135.279 38.678C135.38 39.008 135.509 39.3163 135.665 39.6029C135.845 39.8524 136.067 39.9974 136.331 40.0378C136.089 41.6213 135.874 43.1832 135.686 44.7234C135.53 46.2571 135.452 47.7901 135.455 49.3223C135.451 50.8239 135.557 52.3183 135.774 53.8056C136.021 55.2864 136.439 56.7472 137.029 58.188ZM139.424 39.4841C139.503 38.7969 139.724 38.1757 140.086 37.6207C140.479 37.0592 140.919 36.5677 141.405 36.1463C141.916 35.6878 142.454 35.2873 143.021 34.9448C143.588 34.6023 144.13 34.2968 144.648 34.0282C145.763 33.2514 146.96 32.4892 148.24 31.7414C149.544 30.9567 150.876 30.2299 152.236 29.561C153.627 28.8858 155.077 28.3417 156.587 27.9288C158.091 27.4854 159.735 27.3317 161.52 27.4678C161.676 27.7544 161.874 28.016 162.116 28.2527C162.357 28.4894 162.598 28.7262 162.84 28.9629C163.111 29.1932 163.353 29.4299 163.563 29.673C163.768 29.8856 163.914 30.1263 164.002 30.3951C164.366 30.6061 164.675 30.8606 164.929 31.1584C165.177 31.4257 165.294 31.8322 165.281 32.3778C165.027 32.6867 164.769 32.9803 164.508 33.2586C164.271 33.4999 164.001 33.7323 163.696 33.9558C162.507 33.9182 161.341 34.0673 160.198 34.4031C159.055 34.7389 158.031 35.0337 157.127 35.2876C156.794 35.0701 156.428 35.0031 156.031 35.0866C155.664 35.1637 155.279 35.3083 154.877 35.5206C154.505 35.7264 154.118 35.9354 153.715 36.1477C153.343 36.3535 152.967 36.4644 152.587 36.4803C152.333 36.7892 151.986 37.0376 151.547 37.2257C151.131 37.3768 150.67 37.5375 150.163 37.7079C150.165 37.8672 150.218 37.9678 150.322 38.0097C150.42 38.021 150.455 38.1096 150.426 38.2753C150.654 38.4509 150.916 38.5556 151.21 38.5896C151.535 38.6171 151.861 38.6446 152.186 38.6721C152.541 38.6932 152.858 38.7546 153.134 38.8561C153.405 38.9271 153.618 39.1058 153.774 39.3924C154.233 39.296 154.653 39.3196 155.034 39.463C155.415 39.6065 155.745 39.8086 156.023 40.0695C156.302 40.3304 156.525 40.6347 156.694 40.9824C156.887 41.2931 157.013 41.5861 157.07 41.8613C157.213 42.0867 157.343 42.1713 157.459 42.115C157.575 42.0588 157.725 42.091 157.91 42.2118C158.086 42.5901 158.402 42.9548 158.858 43.3059C159.309 43.6265 159.693 44.0089 160.009 44.4533C160.231 45.205 160.422 45.8835 160.581 46.4887C160.733 47.0634 160.751 47.6822 160.635 48.3452C160.414 49.5732 159.984 50.7173 159.344 51.7776C158.735 52.8314 157.985 53.8193 157.093 54.741C156.225 55.6258 155.261 56.4349 154.202 57.1682C153.142 57.9016 152.097 58.5521 151.067 59.1197C150.938 59.1148 150.816 59.1405 150.7 59.1968C150.584 59.2531 150.538 59.183 150.56 58.9867C150.361 59.2521 150.114 59.4476 149.821 59.573C149.559 59.6919 149.256 59.7714 148.913 59.8115C148.577 59.8821 148.222 59.9407 147.849 59.9872C147.506 60.0273 147.188 60.11 146.895 60.2354C146.636 60.0662 146.392 59.8939 146.164 59.7184C145.972 59.567 145.798 59.348 145.642 59.0614C145.49 59.0936 145.397 59.0332 145.365 58.8802C145.363 58.7209 145.301 58.6541 145.179 58.6798C145.298 58.3354 145.34 58.1511 145.303 58.127C145.29 58.0658 145.234 58.0296 145.136 58.0183C145.068 58.0005 145.001 57.9828 144.933 57.965C144.859 57.9167 144.828 57.8435 144.839 57.7453C144.91 57.475 144.898 57.1901 144.803 56.8907C144.702 56.5607 144.601 56.2307 144.5 55.9007C144.399 55.5707 144.346 55.2464 144.343 54.9277C144.371 54.6026 144.549 54.3098 144.877 54.0492C145.943 53.9532 146.915 53.7171 147.794 53.3409C148.697 52.9277 149.523 52.451 150.272 51.9106C151.02 51.3702 151.717 50.8088 152.361 50.2265C153.035 49.6378 153.704 49.0982 154.368 48.6076C154.402 48.3131 154.476 48.058 154.59 47.8424C154.735 47.6204 154.883 47.4137 155.035 47.2222C155.186 47.0308 155.319 46.8272 155.433 46.6116C155.548 46.396 155.607 46.1442 155.61 45.8561C155.596 45.6356 155.509 45.5261 155.35 45.5276C155.214 45.4921 155.128 45.3827 155.089 45.1992L154.555 45.1675C153.904 44.9531 153.188 44.8159 152.409 44.756C151.624 44.6655 150.943 44.5372 150.365 44.3711C150.067 44.6253 149.755 44.7386 149.43 44.711C149.136 44.6771 148.75 44.6624 148.272 44.667C147.219 44.8242 146.187 44.9291 145.176 44.9817C144.196 45.0279 143.221 44.9453 142.251 44.7339C142.157 44.5939 142.052 44.4723 141.935 44.3692C141.817 44.2662 141.642 44.2709 141.411 44.3835C141.176 44.1773 140.944 43.9865 140.716 43.8109C140.481 43.6048 140.258 43.3802 140.047 43.137C140.031 42.7572 140.013 42.4417 139.992 42.1907C139.965 41.909 139.819 41.6683 139.553 41.4686C139.592 41.0453 139.616 40.7049 139.626 40.4474C139.636 40.1899 139.568 39.8688 139.424 39.4841ZM204.755 42.6726C204.983 43.4549 205.029 44.1317 204.894 44.703C204.758 45.2743 204.515 45.7884 204.164 46.2453C203.813 46.7022 203.385 47.0955 202.879 47.4252C202.374 47.7549 201.88 48.066 201.399 48.3587C201.122 48.2572 200.845 48.1556 200.568 48.0541C200.316 47.9156 200.027 47.8325 199.702 47.805C199.15 47.1545 198.633 46.5925 198.15 46.1191C197.661 45.6151 197.355 44.9929 197.231 44.2525C197.225 44.2219 197.205 44.0505 197.171 43.7382C197.168 43.4196 197.159 43.0703 197.143 42.6905C197.158 42.3042 197.148 41.9549 197.115 41.6427C197.105 41.2934 197.097 41.1035 197.091 41.0729C196.4 41.2818 195.698 41.5889 194.985 41.9941C194.272 42.3993 193.584 42.8472 192.92 43.3377C192.287 43.8219 191.685 44.2996 191.114 44.7708C190.573 45.2357 190.129 45.6322 189.783 45.9604C189.802 46.0521 189.789 46.2943 189.744 46.687C189.692 47.0491 189.616 47.4482 189.516 47.8843C189.41 48.2899 189.282 48.668 189.132 49.0188C188.982 49.3696 188.8 49.5675 188.586 49.6124C188.636 49.6977 188.701 49.7799 188.781 49.8588C188.862 49.9377 188.888 50.06 188.858 50.2258C188.456 50.438 188.106 50.6712 187.808 50.9253C187.516 51.2101 187.2 51.4521 186.859 51.6515C186.524 51.8815 186.142 52.0415 185.714 52.1314C185.286 52.2213 184.749 52.1743 184.104 51.9905C184.066 51.807 183.957 51.6702 183.778 51.5799C183.593 51.4591 183.399 51.3721 183.197 51.3189C183.018 51.2287 182.861 51.1659 182.726 51.1304C182.584 51.0643 182.507 51.0007 182.494 50.9395C182.348 51.0022 182.264 50.908 182.243 50.6569C182.223 50.4059 182.332 50.319 182.572 50.3964C182.146 50.0389 181.854 49.7168 181.698 49.4303C181.567 49.1067 181.312 48.7292 180.934 48.2976C180.982 48.2236 181.021 48.1037 181.05 47.938C181.048 47.7786 181.05 47.6346 181.055 47.5058C181.06 47.3771 181.086 47.2757 181.135 47.2017C181.183 47.1277 181.263 47.1269 181.374 47.1994C181.255 46.937 181.206 46.7076 181.229 46.5113C181.252 46.3149 181.278 46.1339 181.307 45.9681C181.336 45.8024 181.349 45.6398 181.348 45.4805C181.346 45.3211 181.265 45.1626 181.104 45.0048C181.452 44.2292 181.623 43.443 181.615 42.6464C181.601 41.8191 181.542 41.0811 181.437 40.4325C181.607 40.1734 181.726 39.8291 181.795 39.3994C181.895 38.9633 181.949 38.5368 181.958 38.1199C181.959 37.6725 181.907 37.2685 181.799 36.9079C181.715 36.5104 181.602 36.1989 181.459 35.9735C181.457 35.8141 181.616 35.7329 181.935 35.7299C181.906 34.6821 181.791 33.5249 181.589 32.2581C181.411 30.9544 181.295 29.7174 181.241 28.5473C181.18 27.3466 181.274 26.2732 181.522 25.3269C181.764 24.3501 182.33 23.6246 183.221 23.1502C183.539 23.7539 183.887 24.2715 184.265 24.7031C184.674 25.1282 185.094 25.5348 185.527 25.9229C185.984 26.274 186.429 26.6436 186.862 27.0317C187.325 27.4133 187.771 27.8626 188.198 28.3795C188.29 28.967 188.37 29.6526 188.439 30.4365C188.508 31.2203 188.549 32.0259 188.563 32.8531C188.608 33.674 188.631 34.4674 188.632 35.2335C188.664 35.9932 188.673 36.6459 188.66 37.1915C188.723 37.338 188.818 37.4137 188.947 37.4185C189.106 37.417 189.166 37.5482 189.126 37.8122C189.821 37.4745 190.55 37.1458 191.313 36.8259C192.076 36.506 192.836 36.1708 193.593 35.8203C194.349 35.4698 195.072 35.1105 195.761 34.7423C196.474 34.337 197.117 33.8988 197.688 33.4275C197.591 32.2027 197.539 30.9682 197.533 29.7241C197.528 28.48 197.301 27.2502 196.854 26.0349C196.982 25.8804 197.072 25.7018 197.125 25.499C197.178 25.2963 197.306 25.1418 197.507 25.0357C197.232 24.4867 197.042 23.8879 196.938 23.2393C196.834 22.5906 196.812 21.9565 196.874 21.3369C196.966 20.7108 197.154 20.1605 197.437 19.6858C197.745 19.1742 198.161 18.7994 198.686 18.5615C199.125 18.9801 199.528 19.4543 199.895 19.984C200.255 20.4831 200.618 20.9976 200.985 21.5273C201.376 22.0199 201.763 22.4973 202.148 22.9595C202.557 23.3846 203.029 23.7324 203.565 24.0031C203.843 24.8707 204.096 25.7754 204.326 26.717C204.586 27.6523 204.834 28.606 205.071 29.5782C205.07 30.7918 205.032 31.9811 204.958 33.1463C204.907 34.2745 204.949 35.4631 205.084 36.7121C204.921 37.0018 204.811 37.3123 204.753 37.6439C204.695 37.9754 204.64 38.3222 204.588 38.6843C204.53 39.0158 204.456 39.3505 204.368 39.6885C204.273 39.9958 204.14 40.279 203.971 40.5381C204.171 40.8794 204.26 41.2279 204.239 41.5835C204.242 41.9022 204.414 42.2652 204.755 42.6726ZM229.717 15.1105C229.793 15.3181 229.828 15.4863 229.823 15.6151C229.842 15.7068 229.846 15.8018 229.835 15.9C229.854 15.9917 229.877 16.0987 229.902 16.2211C229.922 16.3128 229.984 16.4593 230.09 16.6606C229.667 17.8352 229.068 18.7113 228.295 19.2887C227.547 19.8291 226.702 20.2938 225.762 20.6828C224.816 21.0412 223.842 21.4214 222.84 21.8232C221.87 22.2187 220.944 22.8282 220.063 23.6518C219.634 23.5823 219.267 23.6594 218.962 23.883C218.689 24.1001 218.239 24.2423 217.615 24.3096C217.47 24.5316 217.269 24.7174 217.014 24.867C216.751 24.9859 216.492 25.1202 216.236 25.2697C216.416 25.5193 216.523 25.8002 216.557 26.1125C216.614 26.3877 216.708 26.6074 216.839 26.7717C217.928 26.6386 219.103 26.3761 220.361 25.984C221.651 25.5855 222.919 25.2393 224.167 24.9454C224.229 25.0919 224.237 25.2022 224.188 25.2762C224.134 25.3196 224.134 25.3993 224.191 25.5152C224.437 25.6232 224.693 25.777 224.958 25.9767C225.217 26.1458 225.476 26.315 225.735 26.4841C225.994 26.6532 226.247 26.7917 226.493 26.8997C226.763 26.9707 227.048 26.9587 227.348 26.8639C227.521 27.0829 227.656 27.3421 227.75 27.6415C227.869 27.9039 227.9 28.2009 227.842 28.5324C227.423 28.9715 227.008 29.426 226.595 29.8958C226.177 30.3349 225.721 30.7499 225.228 31.1408C224.766 31.5252 224.248 31.8734 223.675 32.1853C223.126 32.4603 222.482 32.6595 221.741 32.7831C221.588 32.8152 221.466 32.8409 221.374 32.8601C221.313 32.873 221.212 32.8464 221.07 32.7803C220.858 32.9846 220.516 33.1043 220.044 33.1395C219.603 33.1683 219.276 33.2848 219.064 33.4891C218.695 33.4068 218.269 33.4323 217.786 33.5657C217.328 33.662 216.902 33.6875 216.509 33.6423C216.155 34.3873 215.856 35.1685 215.612 35.986C215.369 36.8035 215.181 37.6572 215.049 38.5472C216.121 38.4817 216.99 38.3631 217.656 38.1912C218.353 38.0129 219.001 37.8289 219.6 37.6393C220.192 37.4191 220.803 37.211 221.433 37.015C222.056 36.7884 222.86 36.5876 223.845 36.4127C224.386 35.9478 225.059 35.5828 225.866 35.3177C226.696 35.0155 227.438 34.6682 228.09 34.2759C228.354 34.3162 228.603 34.4395 228.838 34.6456C229.067 34.8212 229.28 34.9999 229.478 35.1819C229.7 35.3268 229.918 35.4565 230.134 35.5709C230.35 35.6853 230.592 35.6983 230.861 35.6099C231.009 35.7065 231.117 35.8434 231.186 36.0205C231.28 36.1605 231.358 36.3038 231.42 36.4503C231.483 36.5968 231.558 36.7248 231.645 36.8343C231.756 36.9068 231.9 36.9084 232.077 36.8393C231.83 37.9449 231.459 38.8372 230.962 39.5161C230.491 40.158 229.901 40.6969 229.194 41.1327C228.488 41.5685 227.676 41.9624 226.76 42.3144C225.875 42.66 224.889 43.0586 223.802 43.5103C223.54 43.6293 223.307 43.6622 223.105 43.609C222.908 43.5863 222.688 43.6007 222.443 43.6521C221.772 43.9527 220.96 44.267 220.007 44.5948C219.054 44.9226 218.069 45.1772 217.054 45.3586C216.038 45.54 215.046 45.6046 214.077 45.5526C213.115 45.5312 212.282 45.291 211.579 44.8319C211.289 44.6692 211.069 44.4599 210.92 44.2039C210.795 43.9109 210.548 43.7233 210.179 43.641C210.065 43.2499 209.911 42.8193 209.716 42.3492C209.522 41.8792 209.324 41.3938 209.123 40.8932C208.916 40.3619 208.727 39.8428 208.557 39.3357C208.417 38.8222 208.348 38.3418 208.35 37.8943C208.345 37.4163 208.442 36.9649 208.64 36.5401C208.869 36.1089 208.892 35.6889 208.711 35.28C208.857 35.2173 208.933 35.1215 208.938 34.9928C208.936 34.8335 209.046 34.7466 209.266 34.7322C209.334 34.1432 209.424 33.5815 209.535 33.0473C209.646 32.513 209.761 31.994 209.879 31.4903C210.027 30.9802 210.16 30.4733 210.278 29.9696C210.42 29.4288 210.537 28.8455 210.629 28.2194C210.117 27.9118 209.706 27.5511 209.396 27.1373C209.109 26.6865 208.872 26.2413 208.684 25.8019C208.49 25.3318 208.31 24.8585 208.146 24.382C207.976 23.875 207.76 23.3775 207.498 22.8897C207.707 22.3668 207.997 21.9227 208.368 21.5576C208.762 21.1554 209.2 20.808 209.681 20.5153C210.163 20.2226 210.696 19.9509 211.282 19.7001C211.868 19.4493 212.482 19.1768 213.122 18.8826C214.262 18.2282 215.284 17.6944 216.187 17.2812C217.121 16.8616 218.033 16.4943 218.925 16.1793C219.841 15.8273 220.791 15.4841 221.774 15.1499C222.758 14.8156 223.866 14.3913 225.099 13.8769C225.432 14.0943 225.721 14.1774 225.966 14.126C226.03 13.825 226.152 13.7197 226.331 13.8099C226.533 13.8631 226.591 13.7553 226.502 13.4865C226.917 13.9422 227.393 14.3054 227.928 14.576C228.488 14.8097 229.085 14.9878 229.717 15.1105ZM255.11 3.74289C255.376 3.9426 255.614 4.16402 255.825 4.40716C256.029 4.61971 256.297 4.75504 256.628 4.81315C256.636 5.60983 256.744 6.35346 256.953 7.04402C257.156 7.704 257.356 8.42836 257.553 9.21709C257.613 11.6313 257.057 13.696 255.884 15.411C254.705 17.0955 253.207 18.4001 251.39 19.3246C251.454 19.6304 251.407 19.8637 251.249 20.0246C250.657 20.2448 250.23 20.4941 249.969 20.7724C249.708 21.0507 249.466 21.341 249.242 21.6435C249.049 21.9396 248.794 22.2484 248.479 22.5702C248.187 22.8549 247.687 23.1355 246.979 23.412C246.897 23.7805 246.728 24.0395 246.472 24.1891C246.246 24.3322 246.002 24.4632 245.74 24.5822C245.502 24.6642 245.273 24.792 245.054 24.9657C244.829 25.1088 244.697 25.392 244.658 25.8153L242.554 28.7958C241.781 28.7664 241.123 28.8248 240.579 28.971C240.028 29.0866 239.563 29.1523 239.183 29.1682C238.803 29.1841 238.474 29.0617 238.196 28.8008C237.948 28.5335 237.704 27.9781 237.463 27.1346C237.429 26.8224 237.495 26.6011 237.659 26.4708C237.847 26.3035 237.946 26.0911 237.956 25.8336C237.815 25.1608 237.804 24.6522 237.923 24.3078C238.066 23.9265 238.269 23.5966 238.53 23.3183C238.79 23.04 239.063 22.7432 239.348 22.4279C239.627 22.082 239.831 21.6081 239.96 21.0063C240.404 20.6894 240.869 20.2406 241.354 19.6599C241.862 19.0421 242.313 18.4525 242.706 17.891C243.387 17.3328 243.956 16.8463 244.412 16.4312C244.898 16.0098 245.338 15.598 245.733 15.1959C246.127 14.7937 246.515 14.3609 246.897 13.8976C247.279 13.4343 247.733 12.8599 248.26 12.1746C248.023 11.8091 247.688 11.656 247.253 11.7154C246.843 11.7377 246.384 11.834 245.877 12.0044C244.932 11.9154 244.025 11.9302 243.156 12.0489C242.311 12.1305 241.316 12.2596 240.172 12.436C239.75 12.5565 239.439 12.6698 239.237 12.776C239.06 12.8451 238.767 12.8908 238.356 12.9131C238.205 13.1046 238.016 13.2718 237.791 13.415C237.596 13.5517 237.371 13.6948 237.115 13.8444C236.883 13.9569 236.639 14.0879 236.383 14.2375C236.151 14.35 235.941 14.49 235.753 14.6572C235.109 14.6328 234.559 14.445 234.102 14.0939C233.645 13.7428 233.131 13.4995 232.559 13.364C232.453 13.1628 232.47 13.0155 232.61 12.9223C232.75 12.829 232.758 12.6359 232.632 12.3429C232.294 12.2542 232.116 12.164 232.097 12.0722C232.108 11.974 231.99 11.871 231.744 11.763C231.764 11.248 231.845 10.7998 231.989 10.4184C232.156 10.0001 232.346 9.60906 232.557 9.24543C232.761 8.85122 232.969 8.4723 233.18 8.10867C233.391 7.74504 233.562 7.34195 233.693 6.89942C234.156 6.67433 234.531 6.40413 234.816 6.08882C235.125 5.73651 235.415 5.37212 235.688 4.99564C237.301 4.46534 238.897 4.0823 240.476 3.84651C242.048 3.58014 243.625 3.40873 245.205 3.33228C246.816 3.2494 248.431 3.26149 250.05 3.36854C251.7 3.46916 253.387 3.59395 255.11 3.74289ZM243.034 33.8199C243.069 34.2915 243.079 34.6408 243.062 34.8677C243.077 35.0882 243.103 35.2902 243.142 35.4737C243.18 35.6572 243.244 35.8834 243.332 36.1522C243.451 36.4146 243.633 36.8235 243.877 37.3789L244.169 38.084L243.555 38.3564C243.409 38.4191 243.178 38.6113 242.862 38.9331C242.577 39.2484 242.313 39.5114 242.07 39.7221C241.693 40.0567 241.335 40.4033 240.995 40.7621C240.692 41.145 240.342 41.3782 239.945 41.4617C239.435 41.3133 239.075 41.1973 238.866 41.1135C238.657 41.0297 238.447 40.9459 238.238 40.8621C238.027 40.6189 237.832 40.3726 237.652 40.123C237.472 39.8735 237.276 39.6271 237.066 39.384C236.929 39.1892 236.839 39.0644 236.795 39.0097C236.752 38.9549 236.712 38.9155 236.675 38.8913C236.668 38.8607 236.635 38.8519 236.573 38.8647C236.536 38.8405 236.425 38.7681 236.24 38.6473L235.849 38.1546C235.768 37.9163 235.735 37.6837 235.751 37.4568C235.791 37.1929 235.82 36.9475 235.836 36.7205C235.847 36.6224 235.855 36.5089 235.86 36.3801C235.889 36.2144 235.897 36.1009 235.884 36.0398L235.513 35.6388L235.774 35.0571C235.887 34.6822 235.976 34.4239 236.042 34.2823C236.108 34.1407 236.202 33.9774 236.322 33.7924L236.668 33.3845C237.487 33.1806 238.144 32.9628 238.638 32.7313C239.177 32.7139 239.536 32.7503 239.715 32.8405C239.887 32.9001 240.062 32.9751 240.241 33.0653C240.629 33.2393 240.899 33.3102 241.052 33.2781L241.97 33.0855L242.022 33.7929L243.034 33.8199Z" fill="#FF4040"/>
</svg>
