<svg width="276" height="97" viewBox="0 0 276 97" fill="none" xmlns="http://www.w3.org/2000/svg">
<path d="M30.2152 36.4155C29.5885 35.9052 29.151 35.2606 28.9026 34.4816C28.6543 33.7026 28.5618 32.9857 28.6252 32.3308C28.7885 31.788 29.0112 31.3859 29.2931 31.1247C29.5559 30.8364 29.8532 30.6253 30.1849 30.4913C30.5206 30.3342 30.858 30.2369 31.1971 30.1993C31.5402 30.1385 31.8679 30.099 32.18 30.0805L32.6706 30.3419C32.7665 30.4771 32.8645 30.6006 32.9643 30.7126C33.0873 30.8285 33.1988 30.9425 33.2986 31.0545C33.5454 31.0012 33.7075 30.8861 33.7851 30.7091C33.8857 30.5359 33.9864 30.3628 34.087 30.1897C34.1994 29.9473 34.3233 29.7068 34.4588 29.4682C34.5943 29.2297 34.753 28.9951 34.9347 28.7644C34.9468 28.5525 34.9897 28.3696 35.0633 28.2157C35.1369 28.0617 35.2066 27.9309 35.2724 27.8232C35.1534 27.6842 35.0592 27.6088 34.9898 27.5971C34.9475 27.5661 34.861 27.5158 34.7302 27.4461C34.6608 27.4343 34.5915 27.4226 34.5222 27.4108C34.4568 27.376 34.3798 27.3392 34.2913 27.3004C33.9877 26.9875 33.7919 26.7404 33.7038 26.559C33.6427 26.3585 33.57 26.156 33.4858 25.9516C33.4016 25.7471 33.325 25.5678 33.256 25.4134C33.1871 25.2591 33.1046 25.1144 33.0087 24.9793L32.6397 24.6315L32.9182 24.2508C32.9722 24.2124 33.0051 24.1586 33.0169 24.0893C33.0325 23.9968 33.0078 23.8619 32.9428 23.6845C32.9244 23.3723 32.95 23.1508 33.0197 23.02L33.1595 22.6158C33.4415 22.3546 33.598 22.2028 33.6289 22.1605L34.0343 21.8726C34.5892 21.824 35.1577 21.7658 35.7397 21.698C36.3257 21.6071 36.9 21.5143 37.4628 21.4195C38.0256 21.3246 38.6 21.2318 39.1859 21.1409C39.7718 21.05 40.3538 20.9822 40.9319 20.9375C41.1442 20.8071 41.3563 20.7479 41.5682 20.7601C41.8071 20.753 42.0209 20.7536 42.2097 20.7618C42.3715 20.7892 42.5236 20.8031 42.6662 20.8035C42.8088 20.8039 42.9225 20.7637 43.0075 20.683C43.4238 20.6109 43.8247 20.56 44.2101 20.5302C44.9347 20.4628 45.8846 20.3979 47.06 20.3356C48.2354 20.2733 49.5376 20.3037 50.9668 20.427L51.7006 20.5157C51.8353 20.5623 51.972 20.5973 52.1107 20.6208C52.2532 20.6212 52.3938 20.6332 52.5325 20.6567C53.7341 20.8603 54.4687 21.3651 54.7362 22.1711C54.9478 22.3258 55.1303 22.5112 55.2838 22.7274C55.4413 22.9205 55.5872 23.1116 55.7215 23.3008C55.8175 23.4359 55.9039 23.5575 55.9806 23.6656C56.0613 23.7506 56.1324 23.822 56.1939 23.88L56.4242 24.2043C56.5844 24.802 56.5386 25.3528 56.2868 25.8569C56.1012 26.1107 55.9236 26.247 55.754 26.2658C55.5844 26.2846 55.4148 26.3034 55.2452 26.3223L54.7535 26.4885C54.457 26.4145 54.2279 26.3638 54.0661 26.3364C53.9275 26.3129 53.7657 26.2855 53.5809 26.2542C52.8876 26.1367 52.071 26.0459 51.131 25.9817C50.2181 25.8984 49.2742 25.8573 48.2993 25.8585C47.3284 25.8366 46.3727 25.8649 45.4324 25.9433C44.4959 25.9986 43.6711 26.0965 42.9579 26.2372C42.7495 26.3445 42.4854 26.4305 42.1654 26.4951C42.0921 26.5065 41.9784 26.5466 41.8241 26.6156C41.8158 26.8043 41.7845 26.9892 41.7301 27.1702C41.6796 27.328 41.6175 27.4839 41.5439 27.6378C41.5012 27.7494 41.4565 27.8726 41.4099 28.0074C41.3904 28.1229 41.3573 28.248 41.3107 28.3828C40.7275 28.8782 40.3809 29.5208 40.2709 30.3104L40.0389 30.6276C39.9308 30.7044 39.8264 30.8294 39.7258 31.0025C39.6522 31.1564 39.6228 31.3297 39.6377 31.5224L39.7059 31.9618C40.1759 31.9939 40.6343 32.0241 41.0812 32.0522C41.5551 32.0612 42.0521 32.0741 42.5722 32.0909C43.2388 32.085 43.9015 32.1022 44.5603 32.1425C45.2461 32.1636 45.9472 32.2349 46.6635 32.3563L48.0153 32.5853L47.6505 32.8444L48.0259 32.9437L47.724 33.463C47.874 33.5598 47.9798 33.6371 48.0413 33.6951C48.1298 33.7338 48.2048 33.7822 48.2663 33.8402L48.4502 34.2279C48.554 34.3168 48.6384 34.45 48.7034 34.6274C48.7724 34.7817 48.7968 34.9879 48.7769 35.246L48.6142 35.575L46.6327 37.3787L46.3777 37.6208L46.0487 37.458C45.6136 37.3605 45.1898 37.3363 44.7774 37.3853C44.5847 37.4002 44.3785 37.4247 44.1587 37.4587C43.9429 37.4697 43.7311 37.4576 43.5231 37.4224C42.9528 37.4208 42.477 37.4234 42.0955 37.4301C41.7179 37.4136 41.3404 37.3972 40.9628 37.3808C40.4388 37.3871 39.9263 37.3953 39.4253 37.4055C38.9514 37.3966 38.4928 37.4377 38.0494 37.529C37.7913 37.509 37.6392 37.4951 37.593 37.4873C37.5507 37.4564 37.5064 37.437 37.4602 37.4291C37.2291 37.39 36.9921 37.3855 36.7493 37.4157C36.5065 37.4458 36.2752 37.478 36.0555 37.5121C35.8973 37.6041 35.7833 37.7155 35.7136 37.8464C35.6478 37.9541 35.5801 38.0733 35.5103 38.2042C35.4367 38.3581 35.34 38.5081 35.2202 38.6542C35.1273 38.7811 35.0095 38.9156 34.8665 39.0578L34.7955 39.6876C34.5797 39.6986 34.4698 39.7156 34.4659 39.7387C34.4659 39.7387 34.4543 39.7368 34.4312 39.7329C34.3999 39.9177 34.3359 40.0852 34.2391 40.2352C34.1655 40.3891 34.0938 40.5315 34.0241 40.6623C33.9623 40.7469 33.9139 40.8219 33.879 40.8873C33.8442 40.9527 33.8209 41.0201 33.8091 41.0894C33.9697 41.5445 33.9472 42.028 33.7417 42.5399C33.5748 42.9633 33.335 43.3268 33.022 43.6303C32.713 43.9108 32.3696 44.1141 31.9916 44.2402C31.6141 44.2238 31.3387 44.1653 31.1656 44.0646C31.0156 43.9679 30.854 43.8692 30.6809 43.7685C30.5732 43.7027 30.4635 43.6485 30.3519 43.6058C30.2442 43.54 30.1345 43.4858 30.0229 43.4431L29.6657 43.026C29.6198 42.8756 29.5605 42.7348 29.4876 42.6036C29.4187 42.4493 29.3498 42.295 29.2808 42.1407C29.1927 41.9593 29.1046 41.778 29.0164 41.5967C28.9283 41.4153 28.8556 41.2129 28.7984 40.9892C28.7737 40.153 28.8526 39.477 29.0351 38.9612C29.2446 38.4262 29.4868 37.9086 29.7617 37.4084C29.8393 37.2314 29.9148 37.0659 29.9885 36.912C30.0621 36.7581 30.1377 36.5926 30.2152 36.4155ZM69.1906 39.5606C69.1205 39.834 69.0986 40.1036 69.1249 40.3695C69.1511 40.6355 69.1889 40.9034 69.2383 41.1732C69.3147 41.4239 69.3776 41.6841 69.4269 41.954C69.4763 42.2238 69.5026 42.4898 69.5057 42.7518C69.4971 43.0831 69.4364 43.4413 69.3236 43.8263C69.2148 44.1882 69.0713 44.5443 68.8931 44.8944C68.7188 45.2215 68.5138 45.5195 68.278 45.7886C68.0462 46.0346 67.7914 46.2054 67.5137 46.3009C67.1197 46.6621 66.6721 46.919 66.1708 47.0718C65.6694 47.2246 65.195 47.4294 64.7473 47.6864C64.4657 47.8051 64.1573 47.8717 63.822 47.8862C63.5099 47.9046 63.1862 47.9211 62.8509 47.9356C62.5732 48.0312 62.2474 48.1305 61.8733 48.2335C61.5032 48.3134 61.1216 48.3914 60.7283 48.4674C60.339 48.5203 59.9536 48.5501 59.5722 48.5567C59.1946 48.5403 58.8691 48.4971 58.5957 48.427C57.8594 48.5637 57.1503 48.61 56.4684 48.5657C55.8058 48.5485 55.051 48.3731 54.2042 48.0395C53.3528 48.0141 52.5845 47.8482 51.8995 47.542C51.2376 47.2397 50.6626 46.8451 50.1745 46.3583C49.7135 45.8523 49.322 45.2868 49.0001 44.6617C48.7051 44.0174 48.4834 43.3618 48.3349 42.6948C48.3732 41.3463 48.6211 40.1641 49.0785 39.1481C49.5398 38.109 50.101 37.1819 50.7621 36.3668C51.4502 35.5325 52.1939 34.7909 52.9932 34.1419C53.7965 33.4697 54.5727 32.8168 55.3219 32.1831C55.4528 32.2528 55.5567 32.2704 55.6339 32.2359C55.7381 32.1822 55.8327 32.1151 55.9176 32.0344C56.0065 31.9306 56.0935 31.8383 56.1785 31.7577C56.2866 31.6809 56.4003 31.6407 56.5198 31.6372C56.7403 31.318 57.0144 31.103 57.3422 30.9921C57.6971 30.862 57.9943 30.6509 58.234 30.3587C58.4498 30.3478 58.6349 30.3078 58.7892 30.2389C58.9435 30.1699 59.0882 30.0875 59.2233 29.9915C59.3816 29.8995 59.5378 29.819 59.6921 29.75C59.8504 29.658 60.0258 29.6045 60.2185 29.5896L60.2831 29.2083C60.7304 29.0939 61.066 28.9369 61.2901 28.7371C61.5411 28.5181 61.8346 28.2588 62.1707 27.9592C62.3826 27.9713 62.5463 27.9872 62.6618 28.0068C62.8005 28.0303 63.0008 28.0404 63.2628 28.0373C63.5025 27.7451 63.7054 27.5299 63.8714 27.3916C64.0606 27.2573 64.321 27.1231 64.6528 26.9891C64.9066 27.1748 65.1913 27.3181 65.507 27.4191C65.8458 27.5241 66.1207 27.7252 66.3319 28.0224C66.3158 28.2574 66.3538 28.454 66.4459 28.6123C66.5418 28.7474 66.6493 28.8845 66.7684 29.0235C66.8914 29.1394 67.0009 29.2649 67.0968 29.4C67.2159 29.5391 67.2809 29.7165 67.2919 29.9323C67.3804 29.9711 67.4402 29.9693 67.4711 29.927C67.5252 29.8886 67.5964 29.8888 67.685 29.9276C67.6995 30.2628 67.7431 30.4961 67.816 30.6273C67.8928 30.7354 67.9519 30.9475 67.9935 31.2635C67.8388 31.475 67.7052 31.702 67.5928 31.9444C67.5075 32.1677 67.3394 32.3175 67.0888 32.3939C67.0383 32.5517 67.0688 32.652 67.1804 32.6947C67.296 32.7143 67.3555 32.7838 67.3591 32.9032C67.3469 33.1151 67.2868 33.2595 67.1787 33.3362C67.5806 34.3314 67.915 35.3746 68.1817 36.4657C68.4524 37.5338 68.7887 38.5654 69.1906 39.5606ZM64.2999 42.1194C64.4354 41.8808 64.5862 41.6924 64.7523 41.5542C64.9414 41.4198 65.075 41.1928 65.1529 40.8732C65.0687 40.6688 65.0228 40.5184 65.0154 40.4221C65.0119 40.3026 65.0297 40.1273 65.0688 39.8963C64.6818 39.0938 64.372 38.2568 64.1393 37.3854C63.9105 36.4908 63.6257 35.6462 63.2849 34.8516C63.223 34.9362 63.1265 35.0149 62.9953 35.0878C62.8641 35.1606 62.7409 35.116 62.6258 34.9538C62.5482 35.1309 62.4439 35.2558 62.3127 35.3287C62.1854 35.3784 62.0524 35.3915 61.9138 35.3681C61.779 35.3215 61.6347 35.2613 61.4808 35.1877C61.3539 35.0949 61.2405 34.9925 61.1406 34.8805C60.3804 35.2984 59.6222 35.7048 58.8659 36.0997C58.1096 36.4945 57.409 36.9819 56.7639 37.562C56.6637 37.5926 56.602 37.6059 56.5789 37.602C56.5597 37.575 56.4884 37.5748 56.365 37.6014C56.1058 38.0091 55.8062 38.3744 55.4662 38.6971C55.1533 39.0007 54.8384 39.3158 54.5216 39.6425C54.2048 39.9691 53.9187 40.3248 53.6633 40.7094C53.408 41.094 53.2218 41.5617 53.1047 42.1123C53.4427 42.5024 53.8716 42.7771 54.3914 42.9365C54.9111 43.0959 55.4522 43.1995 56.0146 43.2472C56.6001 43.2989 57.1665 43.3235 57.7136 43.3211C58.2878 43.2996 58.806 43.3279 59.2681 43.4062C60.2778 43.3396 61.1606 43.1801 61.9165 42.9279C62.6763 42.6525 63.4708 42.383 64.2999 42.1194ZM75.7345 47.6582C75.3237 48.5394 74.9732 49.2051 74.683 49.6551C74.4199 50.0859 74.0488 50.5223 73.5698 50.9641C73.2772 50.867 73.0634 50.8664 72.9283 50.9624C72.7932 51.0583 72.6485 51.1408 72.4941 51.2097C72.2783 51.2207 72.1281 51.1953 72.0435 51.1334C71.9589 51.0715 71.8878 51 71.8303 50.919C71.7688 50.861 71.6861 50.7876 71.5823 50.6987C71.4977 50.6368 71.3514 50.5882 71.1435 50.553C71.1286 50.3603 71.1002 50.1772 71.0583 50.0037C71.0394 49.8341 70.899 49.7509 70.637 49.754C70.7145 49.577 70.7515 49.4287 70.748 49.3093C70.7484 49.1667 70.7333 49.0453 70.7028 48.9451C70.6992 48.8256 70.6937 48.7177 70.6863 48.6213C70.6828 48.5019 70.7178 48.3652 70.7914 48.2113C70.6759 48.1917 70.5972 48.0952 70.5552 47.9217C70.5133 47.7481 70.4599 47.5727 70.3948 47.3953C70.5346 46.9911 70.6705 46.61 70.8025 46.252C70.9345 45.894 71.0741 45.5611 71.2213 45.2532C71.3917 44.9493 71.5389 44.6414 71.6631 44.3297C71.7872 44.0179 71.8093 43.677 71.7294 43.3069C71.8101 43.3918 71.8814 43.392 71.9432 43.3074C72.009 43.1997 72.0672 43.0669 72.1177 42.9091C72.1721 42.7282 72.213 42.5568 72.2404 42.395C72.2718 42.2102 72.2857 42.058 72.2821 41.9386C72.615 41.3769 72.9036 40.7959 73.148 40.1954C73.4194 39.5758 73.6657 38.9638 73.887 38.3595C74.1313 37.7591 74.3737 37.1702 74.6142 36.5929C74.8546 36.0155 75.1335 35.4923 75.4507 35.023C75.7127 35.0199 75.9841 35.1015 76.2649 35.268C76.5728 35.4152 76.7477 35.5756 76.7896 35.7491C77.4687 35.3887 78.0942 34.9242 78.666 34.3555C79.2417 33.7636 79.825 33.1969 80.416 32.6552C81.007 32.1135 81.6324 31.6489 82.2924 31.2616C82.9754 30.8781 83.7754 30.7165 84.6922 30.7767C85.0957 31.2017 85.5434 31.646 86.0353 32.1097C86.5543 32.5542 86.9497 33.0966 87.2215 33.737C87.3908 33.8607 87.5233 33.9902 87.6193 34.1253C87.7423 34.2412 87.8864 34.3726 88.0517 34.5195L87.9812 34.9354C88.2155 35.2366 88.3841 35.5742 88.4871 35.9482C88.6172 36.303 88.7182 36.6886 88.7903 37.105C88.8663 37.4982 88.9404 37.903 89.0125 38.3193C89.0885 38.7125 89.1895 39.0981 89.3157 39.476C89.2499 39.5837 89.2092 39.6838 89.1935 39.7763C89.1818 39.8456 89.1796 39.9284 89.187 40.0248C89.2176 40.125 89.2366 40.2233 89.2441 40.3197C89.2515 40.416 89.23 40.5431 89.1794 40.701C88.9379 41.706 88.4638 42.4695 87.7573 42.9917C87.0738 43.5177 86.281 43.9182 85.3786 44.1932C84.4801 44.4451 83.5337 44.6294 82.5393 44.7462C81.5449 44.863 80.639 45.0185 79.8216 45.2128C79.8059 45.3052 79.8327 45.3573 79.9021 45.3691C79.9945 45.3847 80.0194 45.4484 79.9767 45.56C80.4726 46.0006 80.8646 46.3523 81.1529 46.6151C81.4412 46.8779 81.7122 47.1021 81.966 47.2877C82.2429 47.4773 82.5334 47.6572 82.8373 47.8276C83.1683 47.9787 83.6224 48.1745 84.1997 48.415C84.777 48.6554 85.2196 48.8493 85.5275 48.9965C85.8624 49.1246 86.1626 49.2468 86.4281 49.3631C86.6976 49.4563 86.9671 49.5495 87.2365 49.6427C87.533 49.7167 87.9431 49.8218 88.4667 49.9581C88.6395 50.2013 88.7697 50.4848 88.8575 50.8087C88.9722 51.1134 89.0273 51.4199 89.0226 51.7282C89.0218 52.0133 88.9864 52.2925 88.9163 52.5659C88.8501 52.8162 88.734 53.0105 88.568 53.1487C88.5793 53.222 88.6197 53.2645 88.689 53.2762C88.7853 53.2688 88.8778 53.2844 88.9663 53.3232C88.812 53.3921 88.6769 53.4881 88.5609 53.6111C88.445 53.7341 88.3291 53.8571 88.2132 53.98C88.0972 54.103 87.9737 54.201 87.8425 54.2738C87.7074 54.3698 87.5339 54.4117 87.322 54.3996C86.5586 54.5555 85.6555 54.4143 84.6124 53.9761C83.5655 53.561 82.265 52.889 80.7108 51.9601C79.9337 51.4956 79.299 51.1028 78.8067 50.7817C78.3414 50.4414 77.9319 50.1224 77.5782 49.8247C77.2515 49.5079 76.9499 49.1834 76.6734 48.8513C76.42 48.5231 76.107 48.1254 75.7345 47.6582ZM82.7057 36.6089C82.3888 36.9355 82.0432 37.2217 81.6688 37.4672C81.3175 37.7168 80.9642 37.9778 80.609 38.2504C80.2808 38.5038 79.9679 38.8074 79.6703 39.1611C79.3765 39.4917 79.1404 39.9033 78.9618 40.396C79.7863 40.4406 80.6669 40.364 81.6037 40.1662C82.5445 39.9452 83.4351 39.7396 84.2756 39.5492C84.3046 38.8172 84.1482 38.1964 83.8067 37.6868C83.4882 37.1812 83.1212 36.8219 82.7057 36.6089ZM112.838 57.0113C112.587 57.0877 112.35 57.1545 112.127 57.2117C111.926 57.2728 111.699 57.2818 111.444 57.2387C110.657 56.4159 110.381 55.1687 110.616 53.4971C110.875 51.8294 111.592 49.7757 112.766 47.3359C112.893 47.2862 112.974 47.1573 113.01 46.9494L112.756 46.5499C112.664 46.5342 112.57 46.5301 112.473 46.5376C112.4 46.5489 112.328 46.62 112.259 46.7508C111.584 47.0881 110.847 47.4387 110.048 47.8026C109.253 48.1434 108.428 48.4552 107.572 48.738C106.743 49.0016 105.902 49.192 105.05 49.3092C104.222 49.4302 103.426 49.4262 102.663 49.297C100.722 48.9681 99.4329 47.7393 98.7952 45.6107L98.606 45.0438L98.2523 45.4474C98.1673 45.5281 98.0301 45.7069 97.8405 45.9838C97.6549 46.2376 97.4614 46.5376 97.2601 46.8838C97.0588 47.2301 96.8671 47.5898 96.685 47.9631C96.53 48.3172 96.4405 48.6348 96.4166 48.916C96.1734 49.0888 95.9128 49.2942 95.6347 49.5323C95.3566 49.7705 95.1305 50.0531 94.9562 50.3801C94.8786 50.5572 94.8724 50.7344 94.9374 50.9118C94.856 51.1119 94.7246 51.2561 94.5432 51.3442C94.4312 51.4441 94.3077 51.542 94.1725 51.638C94.0644 51.7148 93.966 51.805 93.877 51.9088C93.8113 52.0165 93.757 52.1262 93.7143 52.2378C93.6948 52.3534 93.6636 52.467 93.6209 52.5786C93.5935 52.7403 93.545 52.8866 93.4753 53.0174C92.9454 53.7597 92.5453 54.2268 92.2751 54.4187C92.001 54.6337 91.6675 54.708 91.2746 54.6414C91.0898 54.6101 90.7952 54.5245 90.391 54.3847C90.1454 54.0103 89.9425 53.5243 89.7823 52.9266C89.6491 52.3097 89.568 51.666 89.539 50.9955C89.5331 50.3289 89.5849 49.6721 89.6946 49.0251C89.8312 48.3589 90.0446 47.8007 90.3348 47.3507C90.3387 47.3276 90.4703 47.1122 90.7296 46.7044C90.9888 46.2967 91.3158 45.7697 91.7106 45.1234C92.1285 44.4811 92.5927 43.7753 93.1034 43.0061C93.618 42.2137 94.1267 41.456 94.6296 40.733C95.1364 39.9868 95.6083 39.3061 96.0453 38.6908C96.5055 38.0794 96.8805 37.6199 97.1703 37.3125C97.4021 37.0665 97.607 36.8397 97.7848 36.6321C97.9896 36.4053 98.1809 36.1882 98.3587 35.9806C98.896 35.3347 99.3887 34.812 99.8368 34.4125C100.312 33.9938 100.943 33.7084 101.729 33.5564C102.202 33.8505 102.531 34.1558 102.715 34.4722L102.72 34.8653C102.773 35.112 102.892 35.251 103.077 35.2824C103.319 35.3948 103.515 35.4993 103.665 35.596C103.843 35.6736 104.031 35.7531 104.231 35.8345C104.362 36.0468 104.475 36.2918 104.57 36.5695C104.708 36.8781 104.834 37.1848 104.949 37.4895C105.091 37.775 105.185 38.0642 105.23 38.3572C105.303 38.6309 105.315 38.9065 105.268 39.1838C105.244 39.465 105.149 39.746 104.983 40.0268L104.959 40.3793C105.039 40.6069 105.013 40.8996 104.881 41.2576C104.831 41.4155 104.79 41.5868 104.759 41.7717C104.731 41.9334 104.723 42.1222 104.734 42.338C105.095 42.732 105.437 42.9564 105.761 43.0112C106.131 43.0739 106.479 43.0498 106.807 42.9389C107.162 42.8089 107.494 42.6749 107.802 42.537C108.011 42.4297 108.215 42.3455 108.416 42.2844C108.62 42.2001 108.817 42.1621 109.006 42.1704C109.488 41.848 109.917 41.564 110.291 41.3184C110.688 41.0767 111.098 40.837 111.518 40.5993C112.305 40.1621 113.077 39.6749 113.834 39.1375C114.591 38.6001 115.248 37.8794 115.805 36.9754C116.059 36.8759 116.314 36.8477 116.568 36.8908C116.822 36.9338 117.078 37.0366 117.336 37.1991C117.594 37.3617 117.84 37.5222 118.074 37.6808C118.136 37.7388 118.188 37.7833 118.23 37.8142C118.295 37.849 118.349 37.8819 118.392 37.9129C118.352 38.144 118.412 38.356 118.569 38.5491C118.65 38.6341 118.7 38.6901 118.719 38.7171C118.738 38.7442 118.769 38.7731 118.811 38.8041C119.126 39.0477 119.315 39.2697 119.376 39.4703C119.447 40.0292 119.668 40.4825 120.037 40.8303C119.951 41.0535 119.914 41.273 119.925 41.4889C119.963 41.6855 120.011 41.8956 120.068 42.1192C120.079 42.1925 120.091 42.2657 120.102 42.3389C120.113 42.4122 120.134 42.4989 120.165 42.5992L119.518 42.4183L119.511 43.0945C119.502 43.4258 119.407 43.7781 119.224 44.1514C119.065 44.5286 118.897 44.821 118.719 45.0285C118.641 45.6333 118.572 46.1089 118.513 46.4556C118.481 46.783 118.417 47.093 118.32 47.3856C118.227 47.655 118.112 47.909 117.977 48.1476C117.864 48.39 117.713 48.6497 117.524 48.9266C117.366 50.4212 116.963 51.7437 116.317 52.894C115.697 54.0251 115.066 55.083 114.424 56.0677C114.358 56.1754 114.281 56.2812 114.192 56.385C114.126 56.4927 114.061 56.6004 113.995 56.7081C113.775 56.7422 113.576 56.7917 113.399 56.8568C113.226 56.8987 113.039 56.9502 112.838 57.0113ZM140.302 42.2315C140.298 42.3972 140.276 42.5243 140.238 42.6128C140.226 42.6821 140.203 42.7495 140.168 42.8149C140.156 42.8842 140.142 42.9651 140.127 43.0575C140.115 43.1268 140.118 43.2463 140.137 43.4159C139.519 44.1193 138.861 44.5664 138.163 44.7572C137.492 44.9288 136.775 45.0213 136.012 45.0346C135.253 45.0249 134.469 45.0228 133.66 45.0283C132.874 45.0378 132.06 45.209 131.219 45.5419C130.938 45.3755 130.661 45.3285 130.387 45.401C130.137 45.4773 129.784 45.4533 129.33 45.3288C129.168 45.4439 128.977 45.5185 128.757 45.5526C128.541 45.5636 128.324 45.5861 128.104 45.6202C128.161 45.8439 128.159 46.0693 128.096 46.2964C128.061 46.5044 128.066 46.6836 128.112 46.834C128.909 47.0403 129.801 47.1795 130.787 47.2515C131.796 47.3275 132.777 47.4341 133.728 47.5715C133.732 47.691 133.706 47.7699 133.652 47.8083C133.602 47.8236 133.581 47.8794 133.588 47.9757C133.73 48.1187 133.867 48.2963 133.997 48.5086C134.131 48.6977 134.266 48.8869 134.4 49.0761C134.535 49.2652 134.673 49.4313 134.815 49.5742C134.984 49.698 135.186 49.7679 135.421 49.7839C135.482 49.9845 135.505 50.2022 135.489 50.4372C135.5 50.653 135.44 50.8686 135.308 51.0841C134.895 51.2756 134.48 51.4787 134.064 51.6934C133.651 51.8849 133.219 52.0494 132.768 52.1869C132.34 52.3283 131.883 52.4292 131.397 52.4896C130.938 52.5307 130.434 52.4927 129.883 52.3757C129.768 52.3561 129.675 52.3404 129.606 52.3287C129.56 52.3208 129.496 52.2744 129.416 52.1895C129.211 52.2737 128.939 52.2633 128.601 52.1584C128.285 52.0573 128.025 52.0489 127.82 52.1331C127.586 51.9745 127.282 51.8755 126.908 51.8359C126.561 51.7772 126.257 51.6781 125.996 51.5387C125.544 51.9613 125.121 52.4245 124.726 52.9282C124.332 53.4319 123.966 53.9761 123.629 54.5609C124.396 54.8095 125.035 54.9654 125.547 55.0284C126.082 55.0954 126.585 55.1449 127.055 55.177C127.529 55.186 128.013 55.2084 128.506 55.2445C129.003 55.2574 129.619 55.338 130.354 55.4864C130.86 55.3105 131.43 55.2408 132.066 55.2772C132.729 55.2944 133.341 55.2555 133.904 55.1607C134.077 55.2614 134.217 55.4159 134.325 55.6242C134.436 55.8095 134.536 55.9928 134.624 56.1741C134.739 56.3363 134.856 56.4868 134.975 56.6259C135.094 56.7649 135.26 56.8405 135.472 56.8526C135.548 56.9607 135.587 57.086 135.586 57.2286C135.613 57.352 135.628 57.4734 135.631 57.5928C135.635 57.7123 135.652 57.8222 135.683 57.9224C135.74 58.0035 135.84 58.0442 135.983 58.0446C135.507 58.7484 135.003 59.2692 134.47 59.6068C133.964 59.9253 133.405 60.1395 132.792 60.2496C132.179 60.3597 131.505 60.4118 130.769 60.406C130.056 60.4041 129.259 60.4116 128.376 60.4285C128.16 60.4394 127.989 60.3985 127.862 60.3057C127.731 60.236 127.573 60.1855 127.389 60.1542C126.837 60.1797 126.184 60.176 125.429 60.1431C124.674 60.1103 123.917 60.0177 123.159 59.8654C122.4 59.713 121.69 59.4857 121.028 59.1834C120.362 58.9042 119.847 58.5078 119.482 57.9944C119.324 57.8013 119.229 57.5949 119.195 57.3752C119.188 57.1363 119.067 56.9375 118.832 56.7789C118.86 56.4746 118.87 56.1317 118.864 55.7502C118.857 55.3687 118.852 54.9757 118.85 54.5711C118.851 54.1434 118.862 53.7293 118.882 53.3286C118.925 52.9318 119.009 52.5776 119.133 52.2658C119.261 51.9309 119.453 51.6425 119.708 51.4004C119.986 51.1623 120.118 50.8756 120.103 50.5403C120.223 50.5368 120.302 50.4907 120.34 50.4022C120.383 50.2906 120.483 50.26 120.641 50.3106C120.85 49.9181 121.067 49.5507 121.292 49.2084C121.516 48.8661 121.738 48.5353 121.959 48.2161C122.202 47.9008 122.434 47.5835 122.655 47.2643C122.902 46.9259 123.144 46.5509 123.38 46.1392C123.108 45.784 122.92 45.4194 122.817 45.0454C122.741 44.6521 122.698 44.2763 122.687 43.918C122.68 43.5365 122.685 43.157 122.702 42.7794C122.722 42.3787 122.708 41.9722 122.659 41.5598C122.949 41.2523 123.273 41.022 123.632 40.8688C124.017 40.6965 124.418 40.5743 124.835 40.5022C125.251 40.4301 125.698 40.387 126.176 40.3729C126.654 40.3587 127.157 40.337 127.685 40.3076C128.66 40.1638 129.519 40.0717 130.263 40.0313C131.03 39.9948 131.768 39.9891 132.477 40.0141C133.213 40.02 133.97 40.0413 134.748 40.0781C135.526 40.1148 136.416 40.123 137.418 40.1026C137.591 40.3458 137.77 40.4831 137.955 40.5144C138.082 40.3221 138.196 40.2819 138.296 40.3939C138.423 40.4867 138.492 40.4272 138.504 40.2153C138.669 40.6473 138.901 41.0313 139.201 41.3674C139.527 41.6842 139.895 41.9722 140.302 42.2315ZM142.009 58.8873C141.598 59.7686 141.247 60.4342 140.957 60.8843C140.694 61.3151 140.323 61.7514 139.844 62.1932C139.551 62.0961 139.338 62.0956 139.202 62.1915C139.067 62.2875 138.923 62.3699 138.768 62.4389C138.553 62.4499 138.402 62.4244 138.318 62.3625C138.233 62.3006 138.162 62.2292 138.104 62.1481C138.043 62.0901 137.96 62.0167 137.857 61.9278C137.772 61.8659 137.626 61.8174 137.418 61.7821C137.403 61.5894 137.374 61.4063 137.332 61.2328C137.314 61.0632 137.173 60.98 136.911 60.9832C136.989 60.8061 137.026 60.6579 137.022 60.5384C137.023 60.3959 137.007 60.2745 136.977 60.1742C136.973 60.0547 136.968 59.9468 136.96 59.8505C136.957 59.731 136.992 59.5943 137.066 59.4404C136.95 59.4208 136.871 59.3243 136.829 59.1508C136.788 58.9773 136.734 58.8018 136.669 58.6244C136.809 58.2202 136.945 57.8391 137.077 57.4811C137.209 57.1232 137.348 56.7902 137.495 56.4824C137.666 56.1784 137.813 55.8706 137.937 55.5588C138.061 55.2471 138.083 54.9061 138.004 54.536C138.084 54.621 138.156 54.6212 138.217 54.5366C138.283 54.4289 138.341 54.2961 138.392 54.1383C138.446 53.9573 138.487 53.7859 138.515 53.6242C138.546 53.4393 138.56 53.2872 138.556 53.1677C138.889 52.6061 139.178 52.025 139.422 51.4246C139.694 50.805 139.94 50.193 140.161 49.5886C140.405 48.9882 140.648 48.3993 140.888 47.822C141.129 47.2447 141.408 46.7214 141.725 46.2522C141.987 46.249 142.258 46.3307 142.539 46.4971C142.847 46.6444 143.022 46.8048 143.064 46.9783C143.743 46.6179 144.368 46.1533 144.94 45.5846C145.516 44.9928 146.099 44.426 146.69 43.8843C147.281 43.3426 147.907 42.8781 148.567 42.4907C149.25 42.1072 150.05 41.9456 150.966 42.0059C151.37 42.4308 151.818 42.8751 152.309 43.3388C152.828 43.7833 153.224 44.3258 153.496 44.9661C153.665 45.0899 153.798 45.2193 153.893 45.3544C154.016 45.4703 154.161 45.6017 154.326 45.7486L154.255 46.1646C154.49 46.4657 154.658 46.8033 154.761 47.1774C154.891 47.5322 154.992 47.9178 155.065 48.3341C155.141 48.7273 155.215 49.1321 155.287 49.5484C155.363 49.9417 155.464 50.3272 155.59 50.7052C155.524 50.8129 155.483 50.913 155.468 51.0054C155.456 51.0747 155.454 51.1576 155.461 51.2539C155.492 51.3542 155.511 51.4525 155.518 51.5488C155.526 51.6452 155.504 51.7723 155.454 51.9301C155.212 52.9351 154.738 53.6987 154.031 54.2208C153.348 54.7468 152.555 55.1474 151.653 55.4224C150.754 55.6742 149.808 55.8586 148.813 55.9753C147.819 56.0921 146.913 56.2477 146.096 56.442C146.08 56.5344 146.107 56.5865 146.176 56.5982C146.269 56.6139 146.294 56.6775 146.251 56.7892C146.747 57.2297 147.139 57.5814 147.427 57.8442C147.715 58.107 147.986 58.3312 148.24 58.5169C148.517 58.7064 148.808 58.8864 149.111 59.0567C149.442 59.2079 149.897 59.4037 150.474 59.6441C151.051 59.8846 151.494 60.0784 151.802 60.2257C152.137 60.3537 152.437 60.4759 152.702 60.5922C152.972 60.6854 153.241 60.7786 153.511 60.8718C153.807 60.9458 154.217 61.051 154.741 61.1872C154.914 61.4304 155.044 61.714 155.132 62.0379C155.246 62.3426 155.301 62.6491 155.297 62.9573C155.296 63.2424 155.261 63.5217 155.19 63.7951C155.124 64.0453 155.008 64.2396 154.842 64.3779C154.854 64.4511 154.894 64.4936 154.963 64.5054C155.06 64.4979 155.152 64.5136 155.24 64.5523C155.086 64.6213 154.951 64.7172 154.835 64.8402C154.719 64.9632 154.603 65.0862 154.487 65.2092C154.371 65.3322 154.248 65.4301 154.117 65.503C153.982 65.5989 153.808 65.6408 153.596 65.6287C152.833 65.7846 151.93 65.6435 150.887 65.2053C149.84 64.7902 148.539 64.1182 146.985 63.1892C146.208 62.7248 145.573 62.332 145.081 62.0108C144.616 61.6705 144.206 61.3515 143.852 61.0539C143.526 60.737 143.224 60.4126 142.948 60.0805C142.694 59.7523 142.381 59.3545 142.009 58.8873ZM148.98 47.838C148.663 48.1647 148.317 48.4508 147.943 48.6964C147.592 48.9459 147.238 49.207 146.883 49.4796C146.555 49.733 146.242 50.0366 145.944 50.3902C145.651 50.7208 145.415 51.1325 145.236 51.6252C146.06 51.6698 146.941 51.5932 147.878 51.3953C148.819 51.1744 149.709 50.9687 150.55 50.7783C150.579 50.0463 150.422 49.4255 150.081 48.916C149.762 48.4104 149.395 48.0511 148.98 47.838ZM171.892 64.5567C171.308 63.9348 170.861 63.2053 170.551 62.3684C170.264 61.5353 170.066 60.6698 169.957 59.7717C169.871 58.8776 169.858 57.972 169.918 57.0552C170.005 56.1191 170.131 55.2371 170.295 54.4091C170.609 53.8204 170.959 53.2973 171.345 52.8398C171.736 52.3593 172.155 51.9192 172.603 51.5197C173.055 51.0971 173.513 50.7111 173.976 50.3617C174.466 49.9931 174.945 49.6225 175.412 49.2501C175.551 49.2735 175.672 49.3297 175.776 49.4186C175.911 49.1801 176.087 48.9841 176.303 48.8305C176.52 48.677 176.743 48.5485 176.975 48.4451C177.21 48.3186 177.444 48.2036 177.675 48.1002C177.911 47.9737 178.115 47.8182 178.289 47.6337C178.89 47.5929 179.432 47.4827 179.914 47.3029C180.419 47.127 180.905 46.9241 181.372 46.6941C181.839 46.4642 182.314 46.2594 182.796 46.0796C183.278 45.8998 183.819 45.7895 184.421 45.7487C184.668 45.5529 184.955 45.3995 185.283 45.2887C185.634 45.1817 185.971 45.0844 186.295 44.9966C186.642 44.9128 186.968 44.8135 187.273 44.6987C187.601 44.5878 187.88 44.4094 188.112 44.1635C188.22 44.3718 188.404 44.4744 188.666 44.4713C188.932 44.445 189.175 44.4148 189.395 44.3808C189.537 44.3811 189.649 44.4238 189.73 44.5088C189.81 44.5938 189.878 44.6884 189.931 44.7926C190.012 44.8775 190.073 44.9355 190.116 44.9664C190.181 45.0013 190.262 44.9437 190.359 44.7937C190.54 44.8481 190.572 44.9368 190.456 45.0598C190.364 45.1867 190.302 45.2713 190.271 45.3136C190.51 45.3066 190.687 45.3841 190.802 45.5463C190.944 45.6892 191.173 45.8112 191.489 45.9122C191.585 46.0473 191.604 46.1456 191.546 46.2071C191.488 46.2686 191.434 46.3783 191.383 46.5361C192.172 46.9313 192.635 47.4257 192.772 48.0195C192.913 48.5901 192.84 49.1602 192.553 49.7297C192.271 50.2761 191.832 50.7604 191.238 51.1826C190.67 51.5857 190.072 51.8172 189.444 51.8771C188.696 51.9406 187.995 52.0119 187.34 52.0911C186.708 52.1742 186.083 52.2823 185.466 52.4155C184.872 52.5526 184.294 52.7398 183.731 52.9772C183.195 53.1954 182.706 53.4811 182.266 53.8344C181.588 53.9097 180.956 54.064 180.369 54.2975C179.806 54.5349 179.26 54.8108 178.731 55.1254C178.226 55.4438 177.728 55.7873 177.237 56.1559C176.751 56.5014 176.265 56.8468 175.778 57.1923C175.712 57.5851 175.591 57.8738 175.417 58.0583C175.244 58.2428 175.058 58.4253 174.861 58.6059C174.833 59.0527 174.861 59.4497 174.945 59.7967C175.055 60.1245 175.164 60.4639 175.271 60.8148C177.026 61.6826 178.92 62.3601 180.953 62.8472C183.013 63.3151 185.058 63.7329 187.088 64.1006C187.249 64.4131 187.435 64.718 187.646 65.0153C187.884 65.2933 188.086 65.5771 188.25 65.8665C188.438 66.1598 188.561 66.4896 188.618 66.8558C188.702 67.2028 188.67 67.6015 188.522 68.0519C188.063 68.3782 187.57 68.6871 187.046 68.9785C186.525 69.2468 186.004 69.5151 185.483 69.7834C185.271 69.7713 185.017 69.7282 184.72 69.6542C184.447 69.5841 184.149 69.5217 183.825 69.4669C183.525 69.416 183.209 69.3862 182.877 69.3776C182.573 69.3498 182.273 69.3702 181.976 69.4388C180.528 69.1459 179.067 68.7201 177.592 68.1612C176.122 67.5793 174.777 66.9592 173.557 66.3009C173.354 65.9574 173.135 65.6351 172.901 65.3339C172.671 65.0096 172.334 64.7506 171.892 64.5567ZM189.3 71.0364C189.012 70.7736 188.803 70.4648 188.672 70.1099C188.519 69.7512 188.416 69.3771 188.363 68.9878C188.287 68.5946 188.248 68.1957 188.245 67.7911C188.223 67.3595 188.197 66.951 188.168 66.5656C188.222 66.2421 188.331 66.0228 188.493 65.9076C188.659 65.7693 188.835 65.6446 189.02 65.5333C189.579 65.6042 190.083 65.6422 190.534 65.6472C190.985 65.6523 191.424 65.6554 191.852 65.6566C192.279 65.6577 192.705 65.6704 193.129 65.6947C193.557 65.6958 194.013 65.7375 194.498 65.8197C194.966 65.1621 195.405 64.5352 195.815 63.9391C196.229 63.3199 196.626 62.7333 197.005 62.1795C197.242 61.6253 197.505 61.1232 197.795 60.6731C198.112 60.2039 198.412 59.7674 198.694 59.3636C198.981 58.9367 199.242 58.5174 199.478 58.1057C199.718 57.671 199.904 57.2033 200.037 56.7028C200.451 55.941 200.819 55.2426 201.141 54.6077C201.489 53.9536 201.801 53.1627 202.077 52.2348C201.176 52.2247 200.448 52.2439 199.893 52.2925C199.341 52.318 198.941 52.3689 198.69 52.4453C198.232 52.3439 197.878 52.1888 197.628 51.9801C197.401 51.7752 197.226 51.5436 197.104 51.2851C196.981 51.0266 196.887 50.7374 196.823 50.4174C196.758 50.0974 196.672 49.762 196.565 49.411C196.693 49.2187 196.767 48.9222 196.787 48.5216C196.812 48.0978 196.724 47.7739 196.524 47.5499C196.717 47.535 196.881 47.4083 197.017 47.1697C197.156 46.9081 197.203 46.7021 197.157 46.5517C197.569 46.5027 197.997 46.5039 198.44 46.5551C198.887 46.5833 199.32 46.6211 199.74 46.6685C200.187 46.6966 200.611 46.7209 201.011 46.7412C201.416 46.7385 201.773 46.6681 202.081 46.5303C203.291 46.6876 204.546 46.8529 205.848 47.0259C207.173 47.2029 208.396 47.3506 209.517 47.4693C209.91 47.6784 210.372 47.828 210.903 47.918C211.458 48.012 211.995 48.1387 212.515 48.298C213.057 48.4613 213.517 48.6938 213.894 48.9953C214.294 49.3008 214.526 49.7561 214.59 50.3612C214.928 50.4661 215.167 50.6016 215.305 50.7677C215.467 50.9377 215.553 51.1305 215.564 51.3464C215.579 51.539 215.553 51.7605 215.487 52.0108C215.448 52.2419 215.409 52.473 215.369 52.7041C214.953 52.9187 214.44 53.0695 213.831 53.1565C213.249 53.2243 212.613 53.2592 211.923 53.2612C211.237 53.2401 210.521 53.19 209.774 53.1109C209.053 53.0126 208.345 52.9163 207.647 52.822C207.403 53.565 207.042 54.4309 206.565 55.4199C206.116 56.3897 205.657 57.346 205.188 58.2887C204.723 59.2083 204.309 60.0414 203.944 60.788C203.607 61.5153 203.431 61.9965 203.415 62.2314C203.093 62.7238 202.821 63.1411 202.596 63.4834C202.395 63.8297 202.198 64.1528 202.004 64.4528C201.834 64.7568 201.652 65.0587 201.458 65.3588C201.292 65.6396 201.083 65.9608 200.832 66.3223L203.189 66.7216C203.192 66.9837 203.266 67.1746 203.412 67.2944C203.559 67.4143 203.718 67.5245 203.891 67.6252C204.064 67.7258 204.21 67.8457 204.33 67.9847C204.476 68.1045 204.529 68.28 204.49 68.5111C204.909 68.701 205.157 68.9213 205.234 69.172C205.31 69.4226 205.29 69.6807 205.174 69.9463C205.085 70.1926 204.924 70.4388 204.692 70.6848C204.483 70.9347 204.281 71.1499 204.084 71.3305C203.883 71.249 203.677 71.2735 203.465 71.4039C203.257 71.5113 203.056 71.6436 202.863 71.8011C202.208 71.5951 201.552 71.472 200.893 71.4317C200.234 71.3914 199.624 71.3473 199.061 71.2996C198.942 71.3031 198.884 71.3646 198.887 71.4841C198.895 71.5804 198.86 71.6458 198.783 71.6803C198.105 71.3278 197.382 71.1101 196.611 71.0271C195.864 70.9481 195.082 70.9344 194.265 70.9861C193.475 71.0187 192.66 71.0589 191.82 71.1067C190.976 71.1776 190.136 71.1542 189.3 71.0364ZM206.74 70.1759L207.249 69.9056L207.407 69.1836C208.223 67.8719 209.042 66.6199 209.862 65.4276C210.705 64.2393 211.577 63.0202 212.478 61.7704C212.761 61.3665 213.043 60.9627 213.325 60.5589C213.631 60.159 213.927 59.7456 214.213 59.3187C214.206 59.2223 214.21 59.1279 214.225 59.0355C214.245 58.92 214.29 58.7968 214.359 58.666C214.761 58.2586 215.086 57.8857 215.333 57.5473C215.604 57.2128 215.865 56.8648 216.116 56.5033C216.403 56.0764 216.7 55.6514 217.01 55.2284C217.342 54.8093 217.731 54.4116 218.175 54.0351L218.476 53.7296L218.852 53.8289C218.952 53.7983 219.05 53.7793 219.146 53.7719C219.27 53.7453 219.412 53.7456 219.574 53.7731L220.18 53.9828C221.002 53.7653 221.756 53.3821 222.443 52.8329C223.158 52.2646 223.894 51.5691 224.651 50.7466L225.167 50.2278L225.663 50.6684C225.767 50.7573 225.94 50.858 226.182 50.9704C226.425 51.0828 226.677 51.2087 226.938 51.3481C227.404 51.5458 227.854 51.7648 228.289 52.0048C228.728 52.2218 229.052 52.4789 229.264 52.7761L229.384 53.1175C229.387 53.3795 229.383 53.6164 229.371 53.8283C229.382 54.0441 229.392 54.2599 229.403 54.4757C229.414 54.9767 229.412 55.4756 229.399 55.9727C229.39 56.4466 229.349 56.9743 229.274 57.556C229.311 58.0377 229.335 58.529 229.345 59.03C229.382 59.5117 229.408 59.9915 229.422 60.4693C229.424 61.159 229.441 61.8276 229.474 62.475C229.511 63.0993 229.598 63.7083 229.735 64.3021C229.966 64.3412 230.103 64.3763 230.145 64.4072C230.442 64.3387 230.778 64.3241 231.151 64.3637L231.608 64.4054L231.676 64.8448C231.71 64.922 231.756 65.0011 231.814 65.0821C231.872 65.1632 231.941 65.2462 232.021 65.3312C232.387 65.417 232.639 65.5429 232.777 65.7089C232.943 65.8558 233.073 65.9968 233.169 66.1319C233.208 66.186 233.256 66.2535 233.313 66.3346C233.375 66.3926 233.427 66.437 233.469 66.4679L234.052 66.8163L233.594 67.4161C233.257 67.8583 232.784 68.2655 232.174 68.6376C231.588 69.0136 230.945 69.297 230.247 69.4878C230.266 69.6574 230.264 69.8115 230.24 69.9502C230.24 70.0927 230.247 70.2604 230.262 70.4531C230.276 70.9309 230.263 71.4279 230.223 71.9441C230.21 72.4411 230.124 72.9495 229.965 73.4693C229.632 74.0309 229.263 74.527 228.857 74.9574C228.478 75.3687 228.036 75.7335 227.531 76.052C227.052 76.3512 226.525 76.5829 225.951 76.7471C225.38 76.8881 224.804 76.9212 224.222 76.8465C223.911 76.7223 223.682 76.6003 223.536 76.4805C223.413 76.3646 223.301 76.2506 223.201 76.1386C223.04 75.9686 222.905 75.8507 222.798 75.7849L222.382 75.5006L222.609 75.0042C222.71 74.8311 222.726 74.6673 222.657 74.513C222.611 74.3626 222.48 74.1504 222.265 73.8762C222.185 73.7912 222.116 73.7082 222.058 73.6271C222.004 73.523 221.939 73.4168 221.862 73.3087L221.304 72.394L222.501 72.2759C223.225 72.2085 223.727 72.0557 224.005 71.8176C224.287 71.5563 224.467 71.052 224.546 70.3047C223.988 70.0913 223.517 69.9995 223.131 70.0293C222.75 70.036 222.366 70.0542 221.981 70.084C221.426 70.1326 220.884 70.1716 220.356 70.201C219.832 70.2073 219.27 70.1595 218.669 70.0577C218.276 69.9912 217.866 69.886 217.439 69.7423L217.063 69.6431L217.024 69.2442C217.032 69.1979 217.005 69.1458 216.944 69.0879C216.909 69.0107 216.873 68.9451 216.834 68.8911C216.742 68.7329 216.635 68.5245 216.512 68.266C216.39 68.0075 216.404 67.7128 216.555 67.3818C216.437 67.1002 216.389 66.8188 216.413 66.5376C216.289 66.7068 216.177 66.878 216.076 67.0511C216.003 67.205 215.929 67.359 215.855 67.5129L215.64 67.94L215.178 67.933C215.124 67.9714 215.066 68.0329 215.004 68.1175C214.965 68.206 214.954 68.2753 214.969 68.3254L215.043 68.7302L214.644 68.9834C214.586 69.0449 214.518 69.0929 214.441 69.1274C214.364 69.1619 214.298 69.1983 214.244 69.2367C214.155 69.483 214.044 69.7139 213.913 69.9293C213.804 70.1487 213.684 70.366 213.553 70.5815C213.375 70.9316 213.198 71.2702 213.024 71.5973C212.873 71.9282 212.768 72.267 212.709 72.6136L212.494 73.0408C212.347 73.206 212.174 73.3192 211.973 73.3804C211.796 73.4454 211.62 73.4989 211.447 73.5408C211.2 73.5941 211.023 73.6591 210.914 73.7358L210.734 74.1688L210.202 74.1501C209.89 74.1685 209.663 74.1775 209.52 74.1771C209.401 74.1807 209.26 74.1687 209.099 74.1413L208.654 74.0303C208.424 73.706 208.228 73.4589 208.066 73.2889C207.932 73.0998 207.759 72.9278 207.548 72.7731L207.387 72.4606C207.325 72.2601 207.295 72.0885 207.295 71.946C207.3 71.7803 207.292 71.6127 207.274 71.4431C207.278 71.1348 207.244 70.9151 207.171 70.7839L206.74 70.1759ZM219.324 63.0372C218.922 63.4445 218.528 63.877 218.141 64.3344C218.307 64.3387 218.459 64.3526 218.598 64.3761C218.759 64.4035 218.923 64.4194 219.089 64.4237C219.905 64.5145 220.666 64.584 221.371 64.6321C222.076 64.6803 222.847 64.692 223.683 64.6672C223.643 63.7809 223.582 62.8791 223.5 61.9619C223.444 61.0254 223.366 60.085 223.264 59.1407L223.032 59.458C222.349 59.984 221.681 60.5602 221.028 61.1865C220.375 61.8128 219.821 62.4201 219.364 63.0084L219.324 63.0372ZM256.987 57.5092C257.118 57.7215 257.223 57.9414 257.304 58.1689C257.388 58.3734 257.538 58.5414 257.753 58.673C257.54 59.2311 257.411 59.7798 257.367 60.3191C257.327 60.8353 257.268 61.3958 257.189 62.0005C256.568 63.7019 255.613 64.9902 254.324 65.8652C253.038 66.7171 251.634 67.2162 250.112 67.3624C250.073 67.5934 249.976 67.7435 249.822 67.8124C249.348 67.8034 248.982 67.8602 248.723 67.9828C248.465 68.1054 248.216 68.2415 247.977 68.3912C247.76 68.5447 247.498 68.6904 247.189 68.8283C246.908 68.947 246.482 69.0056 245.912 69.004C245.753 69.2386 245.564 69.373 245.344 69.4071C245.147 69.4451 244.941 69.4696 244.725 69.4806C244.537 69.4723 244.342 69.4988 244.141 69.5599C243.945 69.5979 243.775 69.7593 243.632 70.044L241.345 71.5464C240.813 71.3137 240.338 71.1737 239.918 71.1264C239.502 71.0559 239.159 70.9741 238.89 70.8809C238.621 70.7877 238.424 70.6118 238.302 70.3533C238.202 70.0988 238.184 69.644 238.248 68.9892C238.31 68.762 238.416 68.6255 238.567 68.5797C238.744 68.5147 238.872 68.3936 238.949 68.2166C239.035 67.7082 239.167 67.3502 239.345 67.1426C239.55 66.9159 239.782 66.7412 240.04 66.6186C240.299 66.496 240.571 66.3638 240.856 66.222C241.145 66.0571 241.418 65.7823 241.673 65.3977C242.07 65.2986 242.518 65.1129 243.016 64.8407C243.54 64.5492 244.017 64.2615 244.445 63.9776C245.074 63.775 245.604 63.5915 246.036 63.427C246.491 63.2664 246.912 63.0999 247.298 62.9276C247.683 62.7552 248.073 62.5597 248.467 62.3412C248.86 62.1226 249.335 61.8465 249.891 61.5127C249.826 61.1928 249.634 60.9938 249.314 60.9159C249.022 60.8188 248.675 60.76 248.275 60.7397C247.64 60.4182 247.003 60.1795 246.363 60.0236C245.751 59.8486 245.022 59.6655 244.174 59.4745C243.847 59.4428 243.598 59.4363 243.429 59.4551C243.286 59.4547 243.069 59.406 242.776 59.3089C242.618 59.4009 242.441 59.4659 242.244 59.5039C242.07 59.5459 241.874 59.5839 241.654 59.6179C241.461 59.6328 241.255 59.6573 241.035 59.6914C240.843 59.7063 240.658 59.7463 240.48 59.8113C240.038 59.6174 239.705 59.3353 239.483 58.9648C239.26 58.5943 238.968 58.2833 238.607 58.0319C238.588 57.8623 238.64 57.7642 238.764 57.7375C238.887 57.7109 238.945 57.5781 238.938 57.3392C238.726 57.1845 238.627 57.0725 238.638 57.0032C238.673 56.9378 238.62 56.8336 238.477 56.6907C238.632 56.3366 238.812 56.0462 239.017 55.8194C239.249 55.5734 239.489 55.3525 239.736 55.1567C239.987 54.9377 240.236 54.7303 240.483 54.5345C240.73 54.3386 240.96 54.1042 241.173 53.8312C241.558 53.8014 241.893 53.7156 242.179 53.5738C242.492 53.4128 242.794 53.2383 243.088 53.0503C244.359 53.1231 245.578 53.294 246.745 53.563C247.916 53.8089 249.063 54.1222 250.187 54.5028C251.334 54.8873 252.458 55.3392 253.559 55.8585C254.682 56.3817 255.825 56.9319 256.987 57.5092ZM240.3 75.1847C240.195 75.5235 240.106 75.7699 240.032 75.9238C239.982 76.0817 239.945 76.2299 239.921 76.3686C239.898 76.5072 239.88 76.6825 239.868 76.8944C239.879 77.1102 239.893 77.4454 239.911 77.9001L239.921 78.4724L239.419 78.4941C239.299 78.4977 239.085 78.5684 238.776 78.7062C238.491 78.848 238.234 78.9591 238.007 79.0394C237.652 79.1694 237.307 79.313 236.971 79.4701C236.655 79.6542 236.346 79.7208 236.046 79.6699C235.731 79.4263 235.511 79.2465 235.388 79.1306C235.265 79.0147 235.142 78.8987 235.019 78.7828C234.939 78.5553 234.87 78.3297 234.813 78.106C234.756 77.8824 234.687 77.6568 234.607 77.4293C234.565 77.2558 234.536 77.1439 234.521 77.0938C234.506 77.0437 234.489 77.0051 234.469 76.9781C234.473 76.955 234.452 76.9395 234.406 76.9317C234.387 76.9046 234.329 76.8236 234.233 76.6885L234.096 76.2373C234.104 76.0485 234.145 75.8771 234.219 75.7232C234.319 75.5501 234.406 75.3866 234.48 75.2326C234.515 75.1672 234.552 75.0903 234.59 75.0018C234.656 74.894 234.693 74.8171 234.701 74.7709L234.552 74.389L234.893 74.0547C235.075 73.824 235.209 73.6683 235.294 73.5876C235.379 73.5069 235.489 73.4186 235.624 73.3227L235.977 73.1329C236.605 73.2155 237.123 73.2438 237.531 73.218C237.912 73.3539 238.153 73.4778 238.253 73.5898C238.357 73.6787 238.458 73.7792 238.558 73.8912C238.781 74.1191 238.95 74.2429 239.066 74.2624L239.759 74.3799L239.602 74.8881L240.3 75.1847Z" fill="#FF4040"/>
<path d="M23.7739 55.4146C23.761 55.9116 23.6844 56.4335 23.5443 56.9803C23.4311 57.5079 23.3334 58.0143 23.2512 58.4995C23.169 58.9848 23.104 59.5087 23.0562 60.0711C23.0355 60.6143 23.0052 61.144 22.9653 61.6603C22.9253 62.1765 22.8701 62.6425 22.7997 63.0585C22.7292 63.4744 22.6166 63.7882 22.4619 63.9997C22.2802 64.2304 22.0601 64.407 21.8016 64.5296C21.5662 64.6561 21.3404 64.7962 21.1242 64.9497C20.6699 64.8252 20.3315 64.5777 20.109 64.2072C19.8905 63.8136 19.8297 63.4705 19.9268 63.1779C19.3272 62.6484 18.9418 61.9769 18.7705 61.1635C18.6264 60.3308 18.5729 59.4541 18.61 58.5333C18.6703 57.6164 18.7497 56.7266 18.8484 55.8637C18.951 54.9778 18.9607 54.2187 18.8776 53.5866C17.8962 54.6089 17.0653 55.5141 16.3851 56.3021C15.7048 57.0902 15.0189 57.8416 14.3272 58.5564C13.6356 59.2713 12.8707 59.9974 12.0326 60.735C11.2215 61.4533 10.1848 62.2404 8.92256 63.0963C8.6954 63.034 8.51641 62.968 8.38559 62.8983C8.28179 62.8094 8.17604 62.7321 8.06833 62.6663C7.96454 62.5774 7.84527 62.5096 7.71054 62.463C7.5758 62.4164 7.37938 62.3831 7.12128 62.3632C7.06408 62.1395 7.02021 61.9776 6.98965 61.8773C6.9591 61.7771 6.92854 61.6768 6.89799 61.5765C6.89054 61.4802 6.8639 61.3568 6.81807 61.2064C6.79926 61.0368 6.75558 60.8036 6.68702 60.5067C6.65255 60.4296 6.64315 60.3448 6.65881 60.2524C6.70149 60.1407 6.73067 60.0387 6.74633 59.9463C6.7851 59.8577 6.79684 59.7884 6.78157 59.7383C6.7894 59.6921 6.74318 59.6842 6.64292 59.7148C6.76314 59.4261 6.92566 59.1684 7.13049 58.9416C7.33532 58.7149 7.45358 58.4377 7.48529 58.1103C8.08019 57.5455 8.72326 56.977 9.41451 56.4047C10.1328 55.8133 10.8415 55.2083 11.5405 54.5899C12.2666 53.9522 12.962 53.2856 13.6266 52.5899C14.2951 51.8712 14.9022 51.0945 15.4477 50.2598C15.5401 50.2755 15.6134 50.2641 15.6674 50.2258C15.7485 50.1682 15.818 50.1086 15.876 50.0471C15.9339 49.9857 15.9919 49.9242 16.0498 49.8627C16.1078 49.8012 16.183 49.7783 16.2754 49.7939C16.4195 49.224 16.7195 48.7162 17.1754 48.2705C17.6544 47.8287 18.1196 47.4677 18.5712 47.1877C18.5489 46.8986 18.5726 46.6887 18.6423 46.5579C18.7351 46.431 18.7934 46.2269 18.8173 45.9457C19.2857 45.1455 19.8553 44.6596 20.5262 44.4881C21.2242 44.2973 21.8402 44.4492 22.3745 44.9439C22.5974 45.1718 22.7546 45.4361 22.8463 45.7369C22.965 46.0185 23.1571 46.2175 23.4227 46.3338C23.3138 46.6957 23.2858 47.0713 23.3387 47.4606C23.3955 47.8268 23.5028 48.0352 23.6607 48.0857C23.6517 48.5596 23.6619 49.0605 23.6913 49.5885C23.7207 50.1164 23.7482 50.6559 23.7737 51.207C23.8031 51.735 23.8094 52.259 23.7925 52.7791C23.7757 53.2993 23.7205 53.7653 23.6269 54.1774C23.5917 54.3853 23.6046 54.5896 23.6658 54.7901C23.7308 54.9675 23.7668 55.1757 23.7739 55.4146Z" fill="#FF4040"/>
</svg>
