<?xml version="1.0" encoding="UTF-8"?>
<svg id="Layer_2" data-name="Layer 2" xmlns="http://www.w3.org/2000/svg" viewBox="0 0 263.24 346.9">
  <defs>
    <style>
      .cls-1 {
        fill: #121212;
        stroke-width: 0px;
      }
    </style>
  </defs>
  <g id="Layer_1-2" data-name="Layer 1">
    <g>
      <g>
        <path class="cls-1" d="M59.6,20.96c-.82-2.06-1.36-3.42-1.95-4.9,5.37-5.58,11.06,1.29,17.02-1.53,0-.14-.06-1.29.01-2.42.13-2.17.2-1.76,3.36-2.13,2.54-.3,5.53-1.12,7.29-2.8,4.95-4.7,10.82-4.63,16.94-4.8,7.07-.2,14.13-.96,21.19-1.54,1.68-.14,3.34-.72,5.02-.74,6.31-.09,12.64.17,18.94-.08,8.82-.35,16.45,3.09,24.07,6.97-9.19-.57-18.15-4.03-27.44-2.44-.13.45-.26.89-.39,1.34,1.38.5,2.72,1.18,4.14,1.46,3.93.78,7.93,1.25,11.85,2.1,6.16,1.35,12.26,2.93,18.4,4.36.81.19,2.05.5,2.48.1,4.5-4.19,7.76-.22,11.02,1.82,6.13,3.82,12.64,7.39,17.77,12.33,4.77,4.59,8.39,10.57,11.76,16.38,6.48,11.16,9.9,23.08,8.83,36.33-.61,7.55.7,15.24.92,22.87.18,6.32.04,12.65.04,19.28.28-.02,1.06-.08,1.85-.16,6.12-.63,6.96.14,7.03,6.47.1,9.14-3.25,17.39-6.46,25.71-1.59,4.1-2.63,8.43-3.79,12.69-2.81,10.36-5.92,20.51-13.89,28.38-3.05,3-6.03,4.75-10.81,1.05-1.66,6.55-3.12,12.19-4.52,17.85-.75,3.05-.65,6.61-2.23,9.12-5.96,9.48-11.5,19.5-19,27.64-7.97,8.65-19.22,13.31-29.6,19-18.97,10.41-53.01,2.54-66.51-14.22-8.18-10.15-18.22-19.15-22.19-32.27-.36-1.18-1.07-2.42-1.96-3.26-5.73-5.38-6.91-12.47-7.55-19.74-.68-7.78-.65-7.69-7.87-9.15-5.03-1.01-7.35-4.97-8.47-9.38-2.64-10.43-5.56-20.85-7.09-31.46-1.29-8.93-3.32-17.35-7.44-25.36-2.02-3.94.01-7.28,3.5-9.07,2.6-1.33,2.94-3,3.14-5.5,1.2-14.97,1.96-30.02,7.97-44.16,1.14-2.67,1.69-5.79,1.72-8.71.1-10.97,4.84-20.55,8.72-30.37,2.54-6.41,6.48-8.35,14.16-7.07ZM188.34,203.46c-.78-.9-1.24-1.18-1.29-1.52-.95-6.45-2.76-12.99,2.28-18.76.59-.68.78-1.95.72-2.92-.38-5.59-.9-11.17-1.37-16.76.22-.17.44-.35.67-.52,1.27,2.02,2.54,4.04,3.8,6.03,1.17-3.63,4.38-7.31-.88-10.47-.68-.41-.65-2.37-.58-3.59.25-4.16.66-8.31.97-12.04,1.58-.38,2.74-.66,3.91-.95.04-.54.08-1.07.12-1.61-2.04-.53-4.08-1.39-6.11-1.39-.65,0-1.94,2.34-1.85,3.53.48,6.42-4.06,8.65-8.77,11.49-1.74-4.14-6.01-4.89-8.43-8.85-3.27-5.35,3.55-7.33,1.41-11.87-1.91,2.52-3.54,4.67-4.91,6.48-5.44-.95-10.33-2.36-9.85-9.07h-16.62c13.54-11.01,26.01-11.73,39.28-1.79-.5-3.05-2.73-5.53-2.34-7.49.45-2.26,3.21-4.06,4.94-6.02-1.99-.31-4.47,0-6.05-1.06-7.54-5-15.18-3.79-22.97-1.05-.8.28-1.97,1.01-2.35.72-1.89-1.44-4.28-2.85-5.15-4.86-1.16-2.68,1.02-4.15,3.66-4.72,2.27-.48,4.68-.79,6.72-1.8,6.73-3.34,13.31-6.95,19.74-10.35-.37-1.55-1.64-3.8-1.21-5.67,1.53-6.68,3.66-13.24-4.22-18.93,3.21.6,5.18.97,7.16,1.34.22-.42.43-.84.65-1.26-4.03-2.65-8.06-5.3-12-7.89,1.65-2.58,3.01-4.71,4.54-7.1-3.75-1.5-6.63-2.65-10.07-4.03,1.4-1.59,2.41-2.74,4.06-4.62-3.6-.95-7.37-3.29-9.45-2.25-6.37,3.17-12.73,1.67-19.07,1.51-4.7-.12-9.37-1.04-14.06-1.57-.63-.07-1.7-.13-1.88.19-2.52,4.44-5.73.73-8.54.67-1.52-.04-3.02-1.75-4.52-1.74-9.29.06-18.6.13-27.85.85-2.2.17-4.21,2.85-6.85,4.77-7.71-3.44-11.95,2.38-16.58,8.67,4.15,2.2,5.17,5.48,3.97,9.73-.29,1.03.45,2.37.8,3.55.88,2.95,2.22,5.83,2.6,8.84.46,3.67.11,7.43.11,12.42-2.87,3.25-6.33-2.07-10.5-2.52,5.37,8.75,9.54,10.49,18.65,8.51,1.58-.35,3.4-.24,4.99.14,4.91,1.18,9.78,2.51,14.62,3.96,2.71.81,5.85,1.39,7.83,3.16,2.16,1.93,3.2,5.11,4.96,8.16-.88.07-2.19.34-3.48.25-5.28-.39-10.54-1.02-15.82-1.27-1.54-.07-3.72.31-4.58,1.35-3.97,4.8-4.41,5-10.23,2.43-1.01-.45-2.3-.26-4.05-.43.96,1.82,1.63,3.1,2.79,5.3h-24.62c2.31,7.24,4.51,13.56,6.3,19.98,1.13,4.05,2.14,8.25,2.35,12.43.33,6.73-.32,13.51.04,20.23.12,2.21-.06,5.88.38,6.36,3.95,4.36,1.73,10.63,5.2,15.03,1.29,1.63,1.81,3.97,2.34,6.07.8,3.19,1.04,6.54,2,9.68.97,3.16,2.44,6.19,3.87,9.19,3.03,6.35,6.12,12.67,9.34,18.93.38.73,1.75.95,2.33,1.24,1.11-1.23,1.95-2.16,2.78-3.08.47.6,1.48,1.42,1.34,1.76-1.79,4.33,1.45,4.81,4.19,6.15,3.53,1.74,7.01,3.68,7.93,8.25.34,1.67,1.88,3.12,2.95,4.63,2.65,3.73,6.35,5.65,10.8,6.45,5.76,1.03,11.54,3.36,17.23,3.13,7.85-.32,14.95-4.07,21.68-8.29,2.34-1.47,4.24-2.6,3.99-5.73-.07-.89.66-1.89,1.13-2.78,1.83-3.44,3.6-6.93,5.62-10.26.91-1.5,2.48-3.93,3.51-3.82,6.82.74,11.66-3.95,17.24-6.2,3.66-1.48,8.41-5.65,8.71-8.96.59-6.69,3.28-12.5,4.81-18.74.3-1.22-.07-2.61-.19-5.08-1.89,3.29-3.14,5.47-4.68,8.15ZM116.01,14.37c9.44-1.72,18.41-.53,27.84,4.33-3.96-8.65-17.56-10.37-27.84-4.33ZM208.95,195.22c.66-5.68,4.77-11.08,1.5-17.31-3.93,7.6-4.35,11.13-1.5,17.31ZM223.79,150.12c-3.11,5.77-2.96,8.59.3,12.25,2.99-3.9,2.64-7.63-.3-12.25ZM54.11,105.67c-2.19,3.2-3.38,6.07-1.23,9.61q5.14-3,1.23-9.61ZM233.23,133.92c-.66-.05-1.33-.1-1.99-.14-.48,3.5-.96,7.01-1.44,10.51.47.06.94.12,1.41.18,1.14-3.44,4.31-6.53,2.01-10.55Z"/>
        <path class="cls-1" d="M140.16,204.04c-1.15-2.06-2.29-4.13-3.47-6.24-6.93-.5-14.62,2.28-21.64-4.14,7.9.35,16.09,5.84,21-3.89-5.18-7.92-5.24-14.27.36-17.16-1.55-1.03-3-1.73-4.09-2.8-.82-.8-1.79-2.19-1.62-3.13,1.34-7.56.42-15.03-.18-21.56-.48-5.24,1.13-10.8,2.57-16.01.72-2.6,3.15-4.74,5.07-7.46,3.74,3.54,3.07,7.5,2.47,11.07-.75,4.42-1.27,8.26,3.05,11.41,1.1.8.81,3.52,1.16,5.35-.8.43-1.61.87-2.41,1.3-.9-2.07-1.79-4.15-2.69-6.22-.59.52-1.18,1.03-1.77,1.55,1.49,3.42,2.79,6.94,4.61,10.17.38.68,2.67.28,4.83.44-.52,2.46-1.24,5.8-2.15,10.08,1.17,1.47,3.22,3.91,5.12,6.45,4.73,6.32,3.97,11.48-2.3,16.09-1.54,1.14-3.15,2.2-4.56,3.48-.71.65-1.58,2.38-1.45,2.49,4.11,3.4-2.31,5.32-.35,8.31-.52.13-1.05.26-1.57.4Z"/>
        <path class="cls-1" d="M90.93,119.7c-.1,1.39-.21,2.99-.4,5.7,3.49-2.84,5.1-1.26,5.6,2.87,3.74-8.21,6.07-.39,8.87-1.29q-3.52,2.99-1.12,9.72h-7.18c-.4-.48-.8-.96-1.2-1.44,1.53-.56,3.05-1.12,5.27-1.93-3.13-1.58-4.76-2.4-6.88-3.48-1.18,5.55-4.25,7.82-9.91,8.7-3.72.58-8.73,2.51-9.91,7.98-.26,1.2-2.28,2.03-3.49,3.03-.39-.25-.78-.5-1.16-.74.92-2.38,1.83-4.77,3.2-8.34-3.76-.19-7.07-.36-10.1-.51,4.38-13.27,12.75-21.5,28.41-20.26Z"/>
        <path class="cls-1" d="M151.29,223.39c-2.68,2.62-4.58,4.5-6.49,6.37-.46-.28-.92-.57-1.37-.85.16-4.05,5.42-8.47-.55-11.92-15.46,2.75-30.54-3.43-47.2-2.15,3.22-4.92,7.1-3.97,10.34-3.81,4.2.21,8.41,1.01,12.53,1.93,4.52,1.02,8.69.93,12.94-1.25,1.65-.85,3.98-.6,5.97-.48,3.11.19,6.19.71,9.7-.1-1.38-.95-2.75-1.89-4.14-2.85.29-.37.63-.94.72-.91,4.14,1.66,6.88.6,8.45-3.78.35-.99,1.99-1.53,3.04-2.28.57,1.2,1.9,2.7,1.56,3.54-1.01,2.58,3.38,6.57-3.4,8.09,6.14.99,7.53,4.34,7.29,9.36-3.3-.64-5.84.09-4.83,5.05-2.19-1.91-3.52-3.07-4.56-3.97Z"/>
        <path class="cls-1" d="M107.55,122.69c5.39-1.3,6.06,1.13,6.79,4.13,2.55,10.51,4.59,20.81-6.48,28.53,0-10.87,5.94-21.63-.31-32.66Z"/>
        <path class="cls-1" d="M55.58,121.3c3.44-.33,6.88-.67,10.72-1.04-.52,4.65-3.34,6.46-7.08,6.27-1.61-.08-3.13-2.08-4.69-3.21.35-.67.7-1.35,1.05-2.02Z"/>
      </g>
      <g id="SuitTie">
        <path class="cls-1" d="M68.01,224.75c-1.6-2.4-2.89-2.95-6.01-.62-2.02,1.52-3.63,3.16-5.14,5.2-7.87,10.61-15.49,21.28-28.73,26.48-8.55,3.37-17.03,7.35-24.85,12.44-2.07,1.36-4.29,2.9-2.78,5.49,2.21,3.81,7.02,3.91,10.52,4.79,2.22.57,3.47.67,4.56,2.71,1.24,2.3,1.06,4.78,1.42,7.19.42,2.84,2.67,3.34,4.72,4.38,2.99,1.51,2.03-2.38,3.92-2.53.18.79.44,1.57.52,2.37.58,5.51,5.58,9.76,10.73,7.74,3.68-1.45,3.85.86,5.41,2.36,7.87,7.55,11.65,17.39,15.59,27.2,1.35,3.36.23,6.95,1.65,10.25.83,1.93,1.82,4.09,3.95,3.81,1.81-.24,2.55-2.62,2.65-4.41.36-6.45,1.41-13.05.47-19.32-1.41-9.33-2.5-18.66-3.56-28.03-1.98-17.59-3.9-35.11-2.71-52.84.26-3.89,1.8-6.3,5.3-9.67,4.04-4.06,5.39-.45,2.36-4.99Z"/>
        <path class="cls-1" d="M259.12,281.45c-6.96-3.08-13.57-6.9-20.42-10.26-9.42-4.61-19.31-8.81-26.02-17.72-4.01-5.32-7.19-11.13-10.77-16.69-2.33-3.61-5.57-8.32-6.99-10.58-2.29-3.66-3.31-3.36-5.38-.99-1.46,2.34-1.13,2.3,1.27,4.87,1.5,1.78,1.92,3.13,2.23,4.67,1.62,7.85,1.87,15.71.45,23.68-2.26,12.68-4.34,25.39-6.22,38.14-1.69,11.45-2.57,23.02-5.73,34.22-.48,1.69-.89,3.56-.02,5.33,1.66.87,2.2-1.88,3.97-1.09,3.94,1.76,4.59-.95,5.64-3.91,1.18-3.32,1.57-7.48,6.39-8.27,1.62-.27,2-1.97,2.27-3.53.69-3.96,3.15-5.87,7.02-4.84,4.29,1.14,7.41-.59,10.26-3.27,1.25-1.17,2.46-2.62,4.16-2.4,3.37.43,4.76-1.25,5.72-4.09,1.63-4.84,5.13-6.34,9.65-4.2,4.01,1.9,4.91.31,5.32-3.35.46-4.15,2.77-6.11,7.22-5.14,1.49.33,2.8.89,4.2,1.4,3.67,1.33,8.64-.24,9.44-3.12,1.03-3.73.7-6.97-3.63-8.88Z"/>
        <path class="cls-1" d="M123.13,318.53c.93,2.86,1.5,4.54,2.01,6.26.35,1.19,1.5,2.78-.21,3.44-1.62.62-1.93-1.36-2.62-2.38-.81-1.22-.8-2.92-2.21-3.8-8.74,8.16-18.24,15.24-29.14,20.54-.81-2.23.84-2.89,1.78-3.89,6.85-7.18,13.82-14.22,20.5-21.56,2.65-2.91,4.46-6.57,6.97-9.62,1.31-1.58,3.34-2.58,5.2-3.96-1.64-1.15-3.31-2.31-5.13-3.57,6.12-2.15,7.38-1.71,9.42,3.45.45,1.15,1.56,1.61,2.22,1.71,9.57,1.44,14.31,9.34,20.07,15.47,4.93,5.24,8.48,11.77,12.7,17.69,1.04,1.46,2.01,3.23.44,4.37-1.32.94-2.7-.73-3.73-1.78-5.19-5.34-10.39-10.68-15.47-16.14-1.81-1.94-2.85-2.8-4.7.17-1.62,2.6-2.48,6.98-7.55,5.43-.46-.14-1.81,2.67-2.74,4.1,1.94,1.79,4.56-1.69,5.94,1.06,1.49,2.98,2.27,6.23,2.48,9.56.13,2.11-1.65,1.74-2.84,1.76-5.14.08-10.29,0-15.43.05-2.99.04-3.41-1.28-2.25-3.7.87-1.8,1.78-3.58,3.34-4.9,1.82-1.55,3.48-3.05,2.49-5.86-.41-1.17.44-2.11,1.23-3.06,3.67-4.4,3.25-6.65-2.76-10.86v.02Z"/>
      </g>
    </g>
  </g>
</svg>