<?xml version="1.0" encoding="UTF-8"?>
<svg id="Layer_2" data-name="Layer 2" xmlns="http://www.w3.org/2000/svg" viewBox="0 0 267.62 368.82">
  <defs>
    <style>
      .cls-1 {
        fill: #121212;
        stroke-width: 0px;
      }
    </style>
  </defs>
  <g id="Layer_1-2" data-name="Layer 1">
    <g>
      <g id="SuitTie">
        <path class="cls-1" d="M71.69,246.23c-1.6-2.4-2.9-2.96-6.03-.62-2.03,1.52-3.64,3.17-5.16,5.22-7.9,10.65-15.54,21.35-28.84,26.58-8.58,3.38-17.09,7.37-24.94,12.48-2.08,1.36-4.3,2.91-2.79,5.51,2.22,3.82,7.04,3.92,10.56,4.81,2.23.57,3.48.67,4.58,2.72,1.24,2.31,1.06,4.8,1.42,7.21.42,2.85,2.68,3.35,4.74,4.39,3,1.52,2.04-2.39,3.93-2.54.18.79.44,1.58.52,2.38.58,5.53,5.6,9.79,10.77,7.77,3.69-1.45,3.86.86,5.43,2.37,7.9,7.58,11.69,17.45,15.64,27.3,1.35,3.37.23,6.97,1.66,10.28.83,1.94,1.83,4.1,3.96,3.82,1.82-.24,2.56-2.63,2.66-4.42.36-6.47,1.41-13.09.47-19.39-1.41-9.36-2.51-18.72-3.57-28.13-1.99-17.65-3.91-35.24-2.72-53.03.26-3.9,1.8-6.32,5.32-9.7,4.05-4.08,5.41-.45,2.37-5.01Z"/>
        <path class="cls-1" d="M263.49,303.14c-6.98-3.09-13.62-6.92-20.49-10.29-9.45-4.63-19.38-8.84-26.12-17.78-4.02-5.34-7.21-11.17-10.81-16.75-2.34-3.62-5.59-8.35-7.02-10.62-2.29-3.67-3.32-3.38-5.4-.99-1.47,2.35-1.14,2.31,1.27,4.89,1.51,1.79,1.92,3.14,2.24,4.69,1.63,7.88,1.88,15.76.45,23.77-2.27,12.72-4.35,25.49-6.24,38.28-1.7,11.49-2.58,23.11-5.75,34.35-.48,1.7-.89,3.57-.02,5.35,1.67.87,2.21-1.89,3.98-1.09,3.95,1.77,4.61-.95,5.66-3.92,1.18-3.33,1.58-7.51,6.41-8.3,1.63-.27,2.01-1.98,2.28-3.54.69-3.97,3.16-5.89,7.04-4.86,4.3,1.14,7.43-.59,10.29-3.28,1.25-1.17,2.47-2.63,4.17-2.41,3.38.43,4.78-1.25,5.74-4.1,1.64-4.86,5.15-6.36,9.68-4.21,4.02,1.91,4.93.31,5.34-3.36.46-4.16,2.78-6.13,7.24-5.16,1.49.33,2.81.89,4.21,1.4,3.68,1.33,8.67-.24,9.47-3.13,1.03-3.74.7-6.99-3.64-8.91Z"/>
        <path class="cls-1" d="M127.01,340.36c.93,2.87,1.51,4.56,2.02,6.28.35,1.19,1.51,2.79-.21,3.45-1.63.62-1.94-1.36-2.63-2.39-.81-1.22-.8-2.93-2.22-3.81-8.77,8.19-18.3,15.29-29.25,20.61-.81-2.24.84-2.9,1.79-3.9,6.87-7.2,13.87-14.27,20.57-21.63,2.66-2.92,4.47-6.59,6.99-9.65,1.31-1.59,3.35-2.59,5.22-3.97-1.65-1.15-3.32-2.32-5.15-3.58,6.14-2.16,7.4-1.72,9.45,3.46.45,1.15,1.57,1.62,2.23,1.72,9.6,1.44,14.36,9.37,20.14,15.52,4.95,5.26,8.51,11.81,12.74,17.75,1.04,1.46,2.02,3.24.44,4.38-1.32.94-2.71-.73-3.74-1.79-5.21-5.36-10.43-10.72-15.52-16.19-1.82-1.95-2.86-2.81-4.72.17-1.63,2.61-2.49,7-7.58,5.45-.46-.14-1.82,2.68-2.75,4.11,1.95,1.8,4.58-1.7,5.96,1.06,1.5,2.99,2.28,6.25,2.49,9.59.13,2.12-1.66,1.75-2.85,1.77-5.16.08-10.32-.01-15.48.05-3,.04-3.42-1.28-2.26-3.71.87-1.81,1.79-3.59,3.35-4.92,1.83-1.56,3.49-3.06,2.5-5.88-.41-1.17.44-2.12,1.23-3.07,3.68-4.41,3.26-6.67-2.77-10.9v.02Z"/>
      </g>
      <g>
        <path class="cls-1" d="M105.64,0c4.42,0,8.84,0,13.26,0,2.54.24,5.08.6,7.63.7,11.87.49,23.72,1.26,35.18,4.62,5.76,1.69,11.49,3.67,16.97,6.1,3.28,1.46,6.3,3.77,9.02,6.17,4.28,3.76,8.16,7.96,12.3,11.88,1.54,1.45,3.28,2.71,5.01,3.94,4.17,2.98,7.42,6.26,6.76,12.12-.37,3.26.5,6.6,2.69,9.32,2.48,3.08,4.85,6.27,7.55,9.15,3.45,3.69,4.4,8.69,7.08,12.77.98,1.48,1.24,3.42,1.96,5.09.8,1.84,1.71,3.63,2.66,5.39.55,1.02,1.6,1.88,1.85,2.94,1.38,5.91,3.41,11.72,2.86,17.97-.18,2.11-.08,4.28.22,6.38,1.12,7.76,4.54,15.06,4.66,23.04.01.64.32,1.28.53,1.91,1.81,5.51,3.64,11.02,5.46,16.53v5.75c-.1,3.01-.24,6.02-.28,9.03-.08,6.64-.26,13.3-2.62,19.6-2.17,5.77-4.47,11.53-7.2,17.05-1.56,3.16-4.03,5.89-6.23,8.71-3.07,3.95-6.29,7.78-9.4,11.69-1.45,1.82-2.92,3.64-4.16,5.6-1.44,2.28-2.73,4.66-3.89,7.09-.8,1.67-1.78,3.49-1.78,5.25,0,2.96-.76,5.54-1.8,8.25-1.88,4.89-5.63,7.71-9.88,10.18-1.07.62-2.23,1.27-2.99,2.19-1.2,1.45-2.51,2.37-4.33,3.05-2.31.87-3.69,2.1-5.84-.95-1.39-1.97-2.17-3.7-2.47-5.89-.07-.48-.11-.96-.17-1.44-1.18,1.04-2.05,2.2-2.57,3.5-2.62,6.52-7.77,11.15-12.27,16.2-2.95,3.32-6.59,6.05-10,8.93-3.31,2.79-6.57,5.68-11.04,6.6-2.08.43-4.09,1.32-6.18,1.58-5.38.68-10.78,1.38-16.19,1.56-2.24.07-4.58-1.02-6.75-1.9-1.4-.57-2.43-2.04-3.84-2.56-6.08-2.22-11.15-5.84-15.73-10.34-1.92-1.89-4.14-3.52-6.39-5.01-4.03-2.67-8.26-5.04-12.27-7.73-2.54-1.7-2.44-1.86-3.41.95-1.24,3.6-4.62,6.1-8,5.57-1.45-.23-2.75-1.24-4.17-1.79-2.32-.9-3.45-2.49-3.56-5.02-.11-2.49-.26-5.03-.87-7.43-.91-3.63-2.59-6.84-6.54-8.18-5.64-1.91-11.29-3.79-16.84-5.91-1.79-.68-3.37-2.01-4.88-3.24-.43-.35-.64-1.65-.34-2.09.93-1.38.58-2.52-.21-3.67-2.52-3.69-5.07-7.38-7.63-11.04-.35-.5-.84-.88-1.27-1.32-.02.73-.21,1.51-.04,2.19.41,1.63,1,3.23,1.51,4.83-.29.13-.58.27-.87.4-2.15-3.39-4.44-6.71-6.41-10.2-2.42-4.28-4.74-8.64-6.82-13.1-2.95-6.32-5.88-12.66-8.36-19.17C2.49,189.01,1.41,183.95,0,179.01c0-3.83,0-7.66,0-11.49.19-1.45.17-2.97.61-4.34,1.27-3.98,2.66-7.92,4.11-11.83,1.22-3.3,3.01-6.45,3.82-9.84,1.56-6.54,2.58-13.21,3.88-19.82,1.07-5.47,2.7-10.88,3.22-16.4,1.09-11.39,3.72-22.31,8.41-32.73,1.26-2.79,3.11-5.31,4.4-8.09,2.66-5.72,5.06-11.56,7.71-17.29.66-1.43,1.84-2.63,2.86-3.86,1.68-2.03,3.55-3.92,5.13-6.02,3.4-4.51,6.77-9,11.45-12.38,4.05-2.93,7.88-6.16,11.77-9.3,6.01-4.84,12.42-8.97,19.93-11.04,6.07-1.67,12.22-3.07,18.34-4.59ZM105.63,140.82c-.07.29-.13.59-.2.88-3.65-.76-7.29-1.51-10.94-2.27-.14-.03-.25-.17-.39-.2-2.22-.39-4.42-.84-6.65-1.13-1.08-.14-2.2-.05-3.29.06-1.73.17-3.46.35-5.17.67-1.43.27-2.86.67-4.23,1.18-1.48.54-2.88,1.29-4.33,1.91-.59.25-1.29.72-1.8.58-2.35-.67-2.93.9-3.22,2.55-.32,1.8-.39,3.66-.45,5.5-.06,1.6-.8,2.43-2.24,3.15-1.36.69-2.8,1.78-3.51,3.07-1.02,1.87-1.7,4.04-2,6.15-.45,3.18-.48,6.43-.64,9.65-.16,3.21-.32,6.41-.38,9.62-.03,1.58.06,3.18.29,4.74.19,1.29.57,2.56,1.01,3.79,1.09,3.09,2.19,6.17,3.41,9.21.86,2.14,1.89,4.2,2.89,6.28.67,1.39,1.41,2.76,2.13,4.13.39.75,1.07,1.46,1.17,2.24.36,2.88,1.45,5.34,3.35,7.54.54.63.69,1.64.91,2.51.34,1.35.3,2.86.92,4.06.99,1.91,1.79,3.63,1.67,5.97-.3,5.56,2.37,10.31,4.97,15,.38.69,1.11,1.19,1.56,1.86,1.06,1.58,2.09,3.18,3.07,4.81,1.8,3.01,3.53,6.06,5.34,9.07.24.4.77.71,1.23.88,6.47,2.48,10.73,7.42,13.53,13.37,1.86,3.96,5.41,5,8.59,6.53,5.1,2.47,10.83,1.98,16.36,2.2.72.03,1.48.04,2.17-.15,2.54-.7,5.05-1.48,7.57-2.24.77-.23,1.7-.33,2.24-.83,1.42-1.32,2.73-2.63,4.9-2.6.45,0,1.11-.75,1.34-1.29,1-2.36,2.42-3.52,5.18-2.76.73.2,1.91-.58,2.61-1.21.26-.24-.07-1.53-.49-2.03-1.28-1.52-.61-2.92.63-3.52,1.58-.77,1.86-1.88,1.97-3.31.1-1.27.52-2.6,1.99-2.39,1.34.19,2.62.97,3.84,1.64.56.31,1.11,1.5,1.34,1.42.94-.34,2.02-.84,2.56-1.62.91-1.32,1.44-2.89,2.13-4.35,1.33-2.85,2.46-5.82,4.03-8.53,1.42-2.46,3.52-4.54,4.96-6.99,1.85-3.14,5.08-5.84,3.48-10.3-.63-1.77-1.33-3.05-3.26-3.39-2.69-.48-5.39-1.41-8.02.16-.38.23-.72.68-.89,1.1-1.02,2.49-2.27,4.82-4.85,5.98-2.21.99-4.52,1.73-6.76,2.65-.49.2-.94.65-1.26,1.1-2.58,3.56-5.6,6.46-10.4,6.11-2.17-.16-4.89,1.1-6.38-1.08-1.47-2.14-3.49-2.29-5.4-2.17-3.11.2-5.9-.4-8.76-1.5-2.19-.84-3.84.56-5.09,2.26-1.93,2.61-4.23,3.09-6.89,1.12-1.02-.75-1.61-2.06-2.56-2.94-2.57-2.37-5.28-4.61-7.82-7.01-.42-.4-.3-1.38-.43-2.1.66-.11,1.36-.4,1.97-.28,1.13.23,2.2.86,3.33,1.04,7.25,1.13,14.51,2.15,21.76,3.27,2.22.34,6.07-.91,7.04-2.68,1.21-2.21,3.06-3.17,5.44-3.05,1.57.07,3.14.8,4.67.7,3.11-.21,6.19-.86,9.29-1.2,1.89-.21,3.84,1.12,5.72-.24.13-.1.61.39.95.43.95.13,2.19.56,2.8.14.65-.45,1-1.77.94-2.67-.1-1.6-.64-3.16-.94-4.75-.38-2.07.7-3.15,2.74-2.65,1.13.28,2.28.67,3.29,1.23,3.2,1.75,8.73,1.17,11.24-1.34.33-.33.75-.97.64-1.31-.99-3.15.46-5.92,1.78-8.41,1.07-2.02,1.53-3.43.16-5.4-.5-.73-.58-2.64,1.16-2.23,1.99.48,2.51-.37,2.93-1.9.13-.48.32-1.05.68-1.33,2.04-1.62,2.42-4.04,3.01-6.31.4-1.53.9-2.64,2.5-3.3.71-.29,1.36-1.44,1.5-2.28.43-2.57.58-5.19.87-7.78.22-1.94.52-3.87.71-5.82.22-2.22.38-4.45.51-6.68.03-.57-.06-1.18-.26-1.72-1.3-3.5-2.56-7.01-3.99-10.45-.64-1.55-1.79-2.51-3.75-2.52-2.71,0-5.27-2.39-5.52-5.12-.21-2.24.1-4.53-.04-6.78-.06-.98-.42-2.26-1.11-2.83-3.22-2.62-6.59-5.07-11.17-4.11-.38.08-.84-.3-1.25-.28-2.13.1-4.6-.85-6.23,1.03-2.35,2.71-5.57,3.67-8.65,4.92-2.29.93-4.66,1.74-7.07,2.32-1.04.25-2.91.15-3.26-.45-.87-1.52.76-2.04,1.86-2.58,3.28-1.62,6.56-3.23,9.85-4.82,1.91-.92,3.77-2.21,5.78-2.58,3.08-.56,6.27-.6,9.42-.61,2.39,0,4.78.45,7.17.54.56.02,1.45-.45,1.68-.93,2.19-4.67,1.14-9.85,2.14-14.72.08-.38-.1-.93-.35-1.25-.38-.48-.92-1.16-1.39-1.15-.47,0-1.28.68-1.36,1.15-.29,1.89-1.68,2.52-3.16,2.97-.68.21-1.48,0-2.23-.03.18-.65.2-1.41.56-1.94,1.64-2.5,3.5-4.87,5.01-7.44.75-1.27,1.29-2.88,1.28-4.33-.02-2.1-.81-4.17-.95-6.28-.13-2-.93-3.04-2.85-3.63-.75-.23-1.62-1.28-1.77-2.08-.64-3.46-.55-3.44-3.97-3.27-.67.03-1.53-.14-1.96-.56-.26-.25-.05-1.32.28-1.78,1.17-1.63.68-2.86-.68-4.03-.49-.43-.86-1-1.35-1.44-.6-.53-1.34-1.47-1.87-1.38-.81.14-1.82.87-2.16,1.62-1.27,2.79-3.8,3.87-6.36,4.61-3.41.99-6.85,1.64-10.05,3.47-3.14,1.79-6.6,3.16-10.07,4.18-3.2.94-5.79,2.32-7.4,5.33-.24.46-1.07.97-1.51.88-2.14-.42-4.24-1.04-6.35-1.6-1.17-.31-2.34-.59-3.48-.97-1.2-.4-2.75-.25-2.98-2.17-.07-.55-.89-1.31-1.48-1.43-2.93-.62-6.11-.55-8.1-3.58-.18.62-.16.97-.18,1.31-.07.96-.17,1.91-.25,2.87-1.03-.14-2.13-.08-3.06-.46-1.82-.75-3.47-1.95-5.32-2.59-2.84-.98-5.09-2.88-6.03-5.44-1.18-3.22-3.01-5.82-5.21-8.27-.48-.53-1.39-.67-2.1-.99-.39.87-1.05,1.74-1.08,2.62-.02.65.79,1.33,1.27,1.96.48.64,1.43,1.21,1.46,1.85.09,2.25,1.46,3.57,2.93,4.93.36.33.6.84.78,1.31,1.51,3.93-.14,7.61-.97,11.35-.07.31-.41.69-.71.8-2.87,1.06-5.56,2.54-8.89,2.02-4.24-.67-8.04-2.14-11.5-4.65-.49-.36-1.31-.25-1.98-.36,0,.7-.11,1.43.05,2.09.11.45.53.9.94,1.18,1.75,1.19,1.37,2.12.01,3.46-1.14,1.13-2.3,2.62-2.61,4.12-.35,1.72.44,3.63.36,5.45-.07,1.61-.64,3.2-1.02,4.8-.28,1.18-1.19,2.66-.78,3.45,1.51,2.85,1.39,5.8,1.47,8.81.02.6,1.15,1.68,1.72,1.65,2.47-.14,4.95-.5,7.39-.98,2.41-.47,4.8-1.74,7.16-1.66,3.4.12,6.76.89,10.23,1.02,2.7.1,6.31.27,7.47,4.05.07.23.7.54.86.45,2.48-1.38,3.68.87,5.39,1.68ZM131.09,76.18c-.21.46-.59.96-.47,1.14.59.94,1.28,1.83,2,2.69.49.59,1.27,1,1.59,1.66.9,1.83,1.57,3.77,2.45,5.61.31.64.96,1.12,1.45,1.67.42-.7.91-1.36,1.22-2.1.14-.35-.08-.86-.17-1.29-.3-1.41-.62-2.78,1.69-2.39.32.05.86-.28,1.07-.59.74-1.08-1.06-5.52-2.35-5.67-.49-.06-1.29.37-1.54.81-.61,1.08-1.08.98-2.08.43-1.41-.78-3.01-1.23-4.86-1.95ZM218.23,83.59c.17-.13.34-.26.5-.39-1.04-1.2-1.97-2.54-3.16-3.58-1.16-1-2.24-.61-2.58.96-.29,1.35-.32,2.76-.64,4.11-.45,1.86,1.62,5.17,3.49,5.05.71-.04,1.72-1.04,1.94-1.79.4-1.38.32-2.9.45-4.36ZM209.07,194.25c.26.09.51.18.77.27.55-1.5,1.34-2.95,1.6-4.5.32-1.93.17-3.93.31-5.9.09-1.21.04-2.46-1.42-2.4-.71.03-1.68.95-2.02,1.7-1.71,3.71-.25,7.26.76,10.82ZM214.67,213.41c2.88-1.55,5.92-7.99,5.25-10.71-.02-.07-.02-.16-.06-.21-.42-.44-.84-.88-1.26-1.32-.35.42-.84.78-1.01,1.26-1.03,2.83-.86,6.04-2.87,8.59-.37.47-.05,1.49-.05,2.39Z"/>
        <path class="cls-1" d="M107.87,206.14c.1-4.22,2-7.5,3.64-10.86.55-1.12,1.24-2.21,1.54-3.4.64-2.48-.18-3.6-2.65-4.3-.28-.08-.63-.91-.51-1.24,1.47-4.08.43-7.81-1.16-11.62-.42-.99.18-2.61.72-3.74.44-.94,1.55-1.54,2.26-2.37,3.25-3.79,3.4-5.32,1.04-9.71-1.31-2.44-3.61-3.15-5.89-1.53-1.55,1.1-2.5.71-3.53-.58-.5-.63-1.05-1.25-1.69-1.72-1.81-1.3-2.91-.82-3.53,1.31-.32,1.11-.87,2.15-1.33,3.22-.23.54-.4,1.14-.77,1.57-.7.82,1.48,2.75-1.03,2.73-1.07,0-2.14-.5-3.22-.57-.42-.03-1.05.39-1.27.78-.75,1.28-1.69,1.95-3.24,1.78-.55-.06-1.16.16-1.69.39-4.3,1.85-8.46-.15-9.7-4.67-.41-1.5-.34-3.3-2.34-3.94-.14-.05-.13-1.85.31-2.21,2.36-1.92,4.72-3.97,7.4-5.34,2.55-1.3,5.45-2,8.28-2.64,5.94-1.33,11.79-.67,17.61,1.07,4.41,1.32,7.56,3.76,9.06,8.21.54,1.59,1.57,3.05,1.95,4.66.43,1.79.58,3.7.46,5.54-.1,1.52-.29,2.63,1.16,3.85,2.22,1.86.93,4.46.68,6.8-.12,1.11-.57,2.59-.05,3.3,2.03,2.77.06,4.96-.65,7.36-.49,1.64-1.25,3.3-1.29,4.96-.12,4.18.12,8.29-.99,12.46-1.45,5.46,4.15,11.34,9.69,10.69,1.09-.13,2.21-.14,3.3-.08,2.68.14,4.71-1.18,5.53-3.71.82-2.56,2.47-5.21.77-7.82-1.55-2.38-1.89-4.37-.33-6.85.54-.87.38-2.3.26-3.44-.48-4.37-1.1-8.73-1.6-13.1-.07-.62.29-1.29.32-1.94.08-2.17.03-4.35.17-6.51.11-1.73.34-3.47.69-5.17.49-2.37,1.11-4.72,1.75-7.06,1.17-4.28,3.97-7.48,7.67-9.52,2.74-1.52,6.05-2.01,9.11-2.95.14-.04.3-.03.44-.07,6.03-1.83,11.56.08,17.05,2.28,2.32.93,4.56,2.07,6.94,2.8,3.33,1.02,4.37,3.87,5.71,6.52.13.25-.12.87-.39,1.12-2.29,2.16-4.6,4.3-6.97,6.36-.37.32-1.11.37-1.66.32-6.19-.66-12.38-1.35-18.57-2.1-.58-.07-1.11-.53-1.67-.81.41-.54.72-1.33,1.26-1.56,1.3-.55,1.12-1.38.75-2.33-.67-1.7-1.26-3.45-2.13-5.05-.26-.48-1.45-.84-2.03-.66-.77.24-1.28,1.27-2.05,1.59-1.26.53-2.71,1.21-3.97,1.03-3.12-.45-5.16.67-5.47,3.8-.37,3.87.35,7.45,3.35,10.31,3.64,3.47,3.19,7.85,2.44,12.23-.23,1.37-.53,2.74-.91,4.08-.34,1.21-1.12,2.37-1.18,3.58-.06,1.27.12,2.89.87,3.8,3.71,4.52,5.84,9.43,5.21,15.41-.37,3.49-2.23,5.68-5.69,5.84-.69.03-1.64-.75-2.08-1.42-1.2-1.82-1.97-2.11-3.72-.77-1.87,1.42-3.73,2.88-5.44,4.49-3.96,3.74-9.65,2.73-12.72.1-1.65-1.41-2.85-3.39-4.59-4.64-1.16-.84-2.91-.88-4.41-1.2-.45-.1-.97.11-1.45.13-.08,0-.17-.22-.25-.34-1.12-1.67-2.32-3.31-3.33-5.05-.34-.58-.21-1.43-.26-1.85ZM119.01,173.49c-.16-.79-.28-1.34-.39-1.88-.33.1-.79.09-.97.32-2.71,3.27-3.77,7.09-3.63,11.27,0,.23.29.46.44.69.2-.16.5-.28.59-.49.96-2.25,1.9-4.52,2.82-6.79.43-1.08.8-2.18,1.15-3.12Z"/>
        <path class="cls-1" d="M145.79,258.23c-.18-.34-.73-.91-.72-1.47.03-.85.2-2.12.76-2.44,1.76-1.03,3.71-1.74,5.64-2.43.13-.05,1.08,1.18.96,1.64-.49,1.85-4.25,4.62-6.65,4.71Z"/>
        <path class="cls-1" d="M94.56,225.92c-.51.65-.72.93-.95,1.21-.74.89-1.45,1.81-2.25,2.64-.55.56-1.28,1.44-1.85,1.38-1.02-.1-1.99-.8-2.98-1.25.42-.54.74-1.25,1.29-1.6,1.59-1.02,3.24-1.95,4.93-2.78.37-.18,1.03.21,1.81.41Z"/>
      </g>
    </g>
  </g>
</svg>