<?xml version="1.0" encoding="UTF-8"?>
<svg id="Layer_2" data-name="Layer 2" xmlns="http://www.w3.org/2000/svg" viewBox="0 0 259.36 350.94">
  <defs>
    <style>
      .cls-1 {
        fill: #121212;
        stroke-width: 0px;
      }
    </style>
  </defs>
  <g id="Layer_1-2" data-name="Layer 1">
    <g>
      <g>
        <path class="cls-1" d="M44.46,181.04c-2.23-.98-5.17-1.36-6.57-3.03-11.08-13.19-20.27-27.18-21.06-45.4-.54-12.54,1.7-16.55,14.02-18.75,5.36-.95,4.1-5.05,4.68-8.47,2.82-16.55,4.47-33.43,8.94-49.53,5.68-20.45,17.56-36.75,38.81-44.31C95.9,7.07,107.65-.4,121.84.83l.05.05c3.55.49,7.15,1.61,10.65,1.38,23.69-1.6,42.76,9.53,59.51,23.81,14.61,12.46,20.22,30.62,22.56,49.56,1.54,12.49,3.3,24.96,5.38,37.37.44,2.64,2.18,5.63,4.25,7.33,9.03,7.43,9.58,8.17,5.93,18.54-.89,2.54-3.02,4.65-4.58,6.96-.19-3.89-.37-7.79-.56-11.68-.73,0-1.46,0-2.19,0-3.64,11.44-7.28,22.88-10.93,34.33.84.27,1.67.55,2.51.82,3.64-7.72,7.29-15.44,10.93-23.16,1.43,10.45-2.07,19.21-8.51,27.38-7.49,9.5-13.19,19.46-13.62,32.57-.42,13.14-8.57,23.81-17.09,33.5-4.55,5.18-10.47,9.22-14.68,14.62-19.25,24.69-44.89,20.09-70.15,15.08-5.41-1.07-9.81-7.22-14.68-11.03.35-.07.73-.08,1.04-.22.24-.11.41-.38.61-.57-.54.28-1.07.56-1.61.84-12-9.93-21.87-21.24-26.86-36.52-4.47-13.73-10.02-27.11-15.09-40.64.32-7.09.72-14.18.91-21.27.08-3.17-.97-6.51-.28-9.48,1.09-4.71.95-8.17-3.2-11.6-2.18-1.8-3.91-5.68-3.75-8.5.41-7.18-1.73-11.52-7.78-11.99-1.04-.08-2.22,1.65-3.34,2.54,5.64,4.77,3.44,5.56-2.46,5.51-1.22-.01-3.86,3.67-3.47,4.9,3.35,10.66,6.65,21.41,11.19,31.59,2.91,6.54,7.88,12.16,11.93,18.19ZM75.67,137.24l.29.34-.34-.3-.3-.34.35.3ZM159.25,194.51l-.33-.36.37.32.31.36-.35-.32ZM124.06,212.09q12.73,4.86,21.21-.81c-13.72,1.58-6.84-4.7-5.9-9.24.4-1.93-.67-4.16-1.07-6.26-1.93,1.14-4.43,1.85-5.68,3.5-2.49,3.27-4.29,7.06-6.37,10.64.91-3.14,2.64-6.32,2.49-9.41-.15-3.1-1.28-7.32-3.52-8.96-11.04-8.06-11.48-12.08-1.14-21.28-.33,1.77-.63,3.54-1.01,5.3-.58,2.63-1.23,5.25-1.85,7.87.98.04,2.63.43,2.83.06,1.46-2.78,3.18-5.63,3.65-8.63.2-1.31-2.33-3.04-3.63-4.59,1.86-3.48,3.63-7.01,5.64-10.41.68-1.16,2.42-2.97,2.84-2.76,1.45.71,3.67,2.28,3.57,3.33-.62,6.37-2.02,12.66-2.71,19.02-.32,2.91-.69,7.51.86,8.58,2.95,2.02,7.44,3.07,10.93,2.46,1.84-.32,3.45-4.86,4.19-7.74.59-2.33-.54-5.04-.47-7.57.33-12.73-.48-25.67,1.58-38.13,2.12-12.83,9.07-23.17,24.12-24.35,1.8-.14,3.6-.62,5.35-1.14,8.86-2.61,11.58-4.96,9.75-14.12-2.34-11.68-6.94-22.91-10.64-34.31-1.43-4.4-3.67-8.64-4.44-13.14-2.3-13.53-12.48-23.49-26.39-25.11-3.61-.42-7.41-.31-10.8-1.41-14.86-4.84-27.35.13-41.08,9.37,4.63.47,7.37.75,10.11,1.03l-.04-.04c-9.03,5.46-14.28,12.65-13.79,24.03.25,5.93-.69,13.08-3.91,17.73-5.63,8.14-4.72,16.74-5.05,25.41-.06,1.48,2.37,4.51,2.97,4.35,12.37-3.38,22.74,3.95,34.01,6.16,6.39,1.25,13.54,2.15,9.96,12.34-.84,2.41,1.31,6.38,3,9.06,3.48,5.55,2.27,10.61-1.24,15.09-4.22,5.37-9.7,3.03-15.12,1.63-5.86-1.52-11.9-2.32-17.89-3.28-4.44-.71-8.9-1.36-13.37-1.69-1.87-.14-4.82-.03-5.53,1.09-3.08,4.81-6.77,9.76-7.91,15.15-2.31,11.02-3.9,22.33-4.27,33.58-.24,7.38,1.85,14.92,3.6,22.22.4,1.67,3.7,2.65,5.66,3.95.81-1.91,2.13-3.77,2.33-5.75.37-3.76.11-7.58.11-12.46,2.44,6.37,4.01,11.92,6.69,16.86,1.33,2.45,5.17,5.73,7.07,5.28,8.5-2.02,9.02,4.76,10.69,9.27,2.1,5.68,2.84,11.87,4.16,17.84l.04-.04c-2.41.5-4.83.99-7.24,1.49,3.57,3.8-.96,12.28,6.1,13.25,12.74,1.76,25.65,4.7,38.56.67l-.04.04c3.41-1.98,6.28-4.23,4.4-8.84.15-.23.45-.48.42-.69-.06-.51-.27-.99-.42-1.49,1.31-4.28,2.61-8.57,4.12-13.52-13.03,2.16-24.03,2.19-32.14-7.93-1.62-2.02-2.31-4.78-3.43-7.2,2.72-.27,5.48-.99,8.14-.72,5.78.58,11.65,2.78,17.51-1.94-10.24-2.83-19.76-5-28.94-8.17-6.06-2.09-11.55-4.67-16.96,3.71-1.53-9.03,1.02-12.86,8.01-12.63,4.32.14,8.61,1.42,12.91,2.2,1.47.73,2.94,1.46,4.4,2.19ZM163.65,150.5l-.33-.37.37.33c-.86,2.77-1.4,5.69-2.66,8.26-1.24,2.52-5.12,5.44-4.55,6.88,4.16,10.57,1.93,23.51,12.51,31.82,6.66,5.22,7.12,12.6,3.42,20.53-1.18,2.52-2.04,5.4-2.06,8.12,0,1.07,3.58,3.36,3.96,3.07,2.54-1.96,4.33-5,7-6.62,1.81-1.1,5.52.51,6.94-.74,6.51-5.7,7.32-13.66,6.89-21.72-.04-.77-2.31-1.73-3.68-2.02-1.52-.33-3.18.01-4.78.06.73-1.85.93-4.47,2.29-5.41,7.6-5.24,7.61-13.5,6.67-20.65-.68-5.17-6.21-9.62-2.96-15.97.14-.28-3.23-3.3-5.16-3.54-7.92-.99-15.92-1.4-23.89-2.03ZM99.83,145.49c3.59-2.62,6.26-4.57,8.93-6.52-2.46-2.25-4.92-4.5-7.38-6.76-2.21,2.57-4.7,4.98-6.37,7.86-.32.56,2.61,2.99,4.82,5.42ZM157.83,144.99c5.08,0,8.27.41,11.28-.16,1.7-.32,3.7-1.95,4.44-3.52.47-1-.85-3.98-1.89-4.28-1.7-.48-4.1.01-5.69.96-2.32,1.37-4.18,3.51-8.14,6.99ZM93.94,122.11c6.24,1.05,10.2,1.76,14.19,2.26.18.02,1.14-2.4.83-2.68-3.74-3.36-7.81-5.26-15.02.41ZM88.8,235.25c-4.24-4.35-6.23-6.4-8.23-8.44-.77,1.04-2.41,2.48-2.15,3.06,1.2,2.68,2.75,5.28,4.65,7.49.36.42,2.89-1.03,5.72-2.11ZM156.48,228.72c-1.58,2.57-2.61,4.24-3.64,5.91.58.26,1.51.9,1.68.73,1.22-1.13,2.38-2.35,3.3-3.72.21-.32-.57-1.31-1.34-2.92ZM121.3,140.26c.35.93.57,1.51.79,2.08,1.06-.68,2.27-1.22,3.11-2.11.26-.27-.49-1.49-.77-2.27-1.07.78-2.13,1.57-3.12,2.29ZM128.99,233.37c.31.02.65.11.92.02.11-.04.07-.5.09-.77-.31-.02-.65-.11-.92-.02-.11.04-.07.5-.09.77Z"/>
        <path class="cls-1" d="M121.84.83c.56-.28,1.11-.55,1.67-.83-.54.29-1.08.59-1.62.88l-.05-.05Z"/>
        <path class="cls-1" d="M77.65,180.64c2.25,3.63,3.74,5.14,4.07,6.86.27,1.4-.86,3.06-1.37,4.6-1.18-1.52-2.75-2.9-3.41-4.62-.48-1.25.24-2.96.72-6.84Z"/>
        <polygon class="cls-1" points="108.63 251.71 108.99 252.02 108.67 251.67 108.63 251.71"/>
        <path class="cls-1" d="M146.05,258.27l.04.04-.04-.04Z"/>
        <path class="cls-1" d="M106.47,33.88l-.04-.04.04.04Z"/>
        <path class="cls-1" d="M146.09,267.08l-.04.04.04-.04Z"/>
        <path class="cls-1" d="M72.59,258.5s.02-.01.03-.02c0,0-.02,0-.03,0v.02Z"/>
      </g>
      <g id="SuitTie">
        <path class="cls-1" d="M70.18,227.47c-1.57-2.36-6.03.22-9.1,2.52-1.99,1.49-3.57,3.11-5.07,5.13-7.76,10.46-15.26,20.96-28.31,26.09-8.43,3.32-16.78,7.24-24.48,12.25-2.04,1.34-4.22,2.86-2.74,5.41,2.18,3.75,6.91,3.85,10.37,4.72,2.19.56,3.42.66,4.5,2.67,1.22,2.27,1.04,4.71,1.39,7.08.41,2.8,2.63,3.29,4.65,4.31,2.95,1.49,2-2.35,3.86-2.49.18.78.43,1.55.51,2.34.57,5.43,5.5,9.61,10.58,7.63,3.62-1.42,3.79.84,5.33,2.33,7.76,7.44,11.48,17.13,15.36,26.8,1.33,3.31.23,6.84,1.63,10.09.82,1.9,1.8,4.03,3.89,3.75,1.79-.24,2.51-2.58,2.61-4.34.35-6.35,1.38-12.85.46-19.04-1.38-9.19-2.46-18.38-3.51-27.61-1.95-17.33-3.84-34.59-2.67-52.06.26-3.83,1.77-6.21,5.22-9.52,3.98-4,8.49-3.57,5.5-8.05Z"/>
        <path class="cls-1" d="M255.3,286.46c-6.85-3.03-13.37-6.8-20.12-10.1-9.28-4.55-19.03-8.68-25.64-17.46-3.95-5.24-7.08-10.97-10.61-16.45-2.3-3.55-5.49-8.19-6.89-10.43-2.25-3.6-4.81-5.77-6.86-3.44-1.44,2.31.44,4.73,2.8,7.26,1.48,1.76,1.89,3.08,2.2,4.61,1.6,7.74,1.85,15.48.44,23.33-2.23,12.49-4.27,25.02-6.13,37.58-1.67,11.28-2.53,22.68-5.65,33.72-.47,1.67-.87,3.51-.02,5.25,1.64.85,2.17-1.86,3.91-1.07,3.88,1.74,4.53-.93,5.56-3.85,1.16-3.27,1.55-7.37,6.29-8.15,1.6-.27,1.97-1.94,2.24-3.48.68-3.9,3.1-5.78,6.91-4.77,4.22,1.12,7.3-.58,10.1-3.22,1.23-1.15,2.43-2.58,4.09-2.37,3.32.42,4.69-1.23,5.64-4.03,1.61-4.77,5.06-6.25,9.51-4.13,3.95,1.88,4.84.3,5.24-3.3.45-4.08,2.73-6.02,7.11-5.07,1.46.32,2.76.87,4.13,1.37,3.61,1.31,8.51-.24,9.3-3.07,1.01-3.67.69-6.86-3.57-8.75Z"/>
        <path class="cls-1" d="M121.32,323c.91,2.82,1.48,4.48,1.98,6.17.34,1.17,1.48,2.74-.21,3.39-1.6.61-1.9-1.34-2.58-2.35-.8-1.2-.79-2.88-2.18-3.74-8.61,8.04-17.97,15.01-28.71,20.24-.8-2.2.82-2.85,1.76-3.83,6.75-7.07,13.62-14.01,20.2-21.24,2.61-2.87,4.39-6.47,6.86-9.48,1.29-1.56,3.29-2.54,5.13-3.9-1.62-1.13-3.26-2.28-5.06-3.52,6.03-2.12,7.27-1.69,9.28,3.4.44,1.13,1.54,1.59,2.19,1.69,9.43,1.41,14.1,9.2,19.78,15.24,4.86,5.17,8.36,11.6,12.51,17.43,1.02,1.43,1.98,3.18.43,4.3-1.3.92-2.66-.72-3.67-1.76-5.12-5.26-10.24-10.53-15.24-15.9-1.79-1.91-2.81-2.76-4.63.17-1.6,2.56-2.45,6.87-7.44,5.35-.45-.14-1.79,2.63-2.7,4.04,1.91,1.77,4.5-1.67,5.85,1.04,1.47,2.94,2.24,6.14,2.45,9.42.13,2.08-1.63,1.72-2.8,1.74-5.07.08-10.13,0-15.2.05-2.95.04-3.36-1.26-2.22-3.64.85-1.78,1.76-3.53,3.29-4.83,1.8-1.53,3.43-3,2.45-5.77-.4-1.15.43-2.08,1.21-3.01,3.61-4.33,3.2-6.55-2.72-10.7v.02Z"/>
      </g>
    </g>
  </g>
</svg>